<svg width="39" height="38" viewBox="0 0 39 38" fill="none" xmlns="http://www.w3.org/2000/svg">
<g clip-path="url(#clip0_284_1694)">
<g clip-path="url(#clip1_284_1694)">
<g clip-path="url(#clip2_284_1694)">
<path d="M6.14046 32.0417H3.76546C3.37557 32.0417 2.98949 31.9649 2.62928 31.8157C2.26907 31.6665 1.94179 31.4478 1.66612 31.172C1.39046 30.8963 1.1718 30.569 1.02266 30.2087C0.87351 29.8485 0.796789 29.4624 0.796875 29.0725V3.71077C0.796875 2.92346 1.10964 2.16838 1.66635 1.61167C2.22307 1.05495 2.97814 0.742188 3.76546 0.742188H34.3417C35.129 0.742188 35.8841 1.05495 36.4408 1.61167C36.9975 2.16838 37.3103 2.92346 37.3103 3.71077V29.0725C37.3104 29.4624 37.2337 29.8485 37.0845 30.2087C36.9354 30.569 36.7167 30.8963 36.441 31.172C36.1654 31.4478 35.8381 31.6665 35.4779 31.8157C35.1177 31.9649 34.7316 32.0417 34.3417 32.0417H6.14046Z" fill="white"/>
<path d="M34.3417 0.742188H3.76546C2.97814 0.742188 2.22307 1.05495 1.66635 1.61167C1.10964 2.16838 0.796875 2.92346 0.796875 3.71077V6.08577H37.3123V3.71077C37.3123 3.32077 37.2354 2.93459 37.0861 2.57429C36.9368 2.214 36.7179 1.88666 36.4421 1.61097C36.1662 1.33529 35.8387 1.11666 35.4783 0.967594C35.1179 0.818524 34.7317 0.74193 34.3417 0.742188Z" fill="#FF5A5A"/>
<path d="M8.57166 29.4844H4.64062V37.3464H8.57166V29.4844Z" fill="#A5DC69"/>
<path d="M25.6086 26.8633H20.3672V37.346H25.6086V26.8633Z" fill="#78D2FA"/>
<path d="M17.2734 20.8867H12.5234V37.2569H17.2734V20.8867Z" fill="#F5C86E"/>
<path d="M33.8984 19.7773H29.1484V37.256H33.8984V19.7773Z" fill="#FF5A5A"/>
<path d="M14.4842 14.691C15.5498 14.691 16.4137 13.8271 16.4137 12.7615C16.4137 11.6959 15.5498 10.832 14.4842 10.832C13.4185 10.832 12.5547 11.6959 12.5547 12.7615C12.5547 13.8271 13.4185 14.691 14.4842 14.691Z" fill="#F5C86E"/>
<path d="M23.1404 23.5269C24.206 23.5269 25.0699 22.6631 25.0699 21.5975C25.0699 20.5318 24.206 19.668 23.1404 19.668C22.0748 19.668 21.2109 20.5318 21.2109 21.5975C21.2109 22.6631 22.0748 23.5269 23.1404 23.5269Z" fill="#78D2FA"/>
<path d="M31.5232 14.691C32.5889 14.691 33.4527 13.8271 33.4527 12.7615C33.4527 11.6959 32.5889 10.832 31.5232 10.832C30.4576 10.832 29.5938 11.6959 29.5938 12.7615C29.5938 13.8271 30.4576 14.691 31.5232 14.691Z" fill="#FF5A5A"/>
<path d="M6.53886 22.816C7.60448 22.816 8.46834 21.9521 8.46834 20.8865C8.46834 19.8209 7.60448 18.957 6.53886 18.957C5.47323 18.957 4.60938 19.8209 4.60938 20.8865C4.60938 21.9521 5.47323 22.816 6.53886 22.816Z" fill="#A5DC69"/>
<path d="M35.4635 32.6931C36.1504 32.6922 36.809 32.419 37.2948 31.9332C37.7805 31.4474 38.0538 30.7889 38.0547 30.1019V3.7109C38.0536 2.72703 37.6623 1.78375 36.9666 1.08805C36.2709 0.392343 35.3277 0.00104058 34.3438 0L3.76558 0C2.78171 0.00104058 1.83844 0.392343 1.14273 1.08805C0.447031 1.78375 0.0557281 2.72703 0.0546875 3.7109L0.0546875 30.1019C0.0555543 30.7889 0.328834 31.4474 0.814592 31.9332C1.30035 32.419 1.95893 32.6922 2.64589 32.6931H3.46879V36.5154H0.796998C0.600125 36.5154 0.411315 36.5936 0.272105 36.7328C0.132895 36.872 0.0546875 37.0608 0.0546875 37.2577C0.0546875 37.4546 0.132895 37.6434 0.272105 37.7826C0.411315 37.9218 0.600125 38 0.796998 38H37.3124C37.5093 38 37.6981 37.9218 37.8373 37.7826C37.9765 37.6434 38.0547 37.4546 38.0547 37.2577C38.0547 37.0608 37.9765 36.872 37.8373 36.7328C37.6981 36.5936 37.5093 36.5154 37.3124 36.5154H34.6406V32.6931H35.4635ZM3.76558 1.48462H34.3438C34.6363 1.48462 34.926 1.54224 35.1963 1.65419C35.4665 1.76613 35.7121 1.93022 35.9189 2.13707C36.1258 2.34392 36.2899 2.58948 36.4018 2.85975C36.5138 3.13001 36.5714 3.41968 36.5714 3.71221V5.34359H1.61334C1.58845 5.34359 1.56355 5.34359 1.53865 5.34752V3.70959C1.53935 3.11936 1.77426 2.55354 2.19179 2.13637C2.60933 1.7192 3.17536 1.48479 3.76558 1.48462ZM4.95341 36.5154V29.8326H8.21879V36.5154H4.95341ZM13.2662 36.5154V21.6299H16.5316V36.5154H13.2662ZM21.5791 36.5154V27.9064H24.8444V36.5154H21.5791ZM29.8919 36.5154V28.5183C29.8919 28.3215 29.8137 28.1327 29.6745 27.9935C29.5353 27.8542 29.3465 27.776 29.1496 27.776C28.9527 27.776 28.7639 27.8542 28.6247 27.9935C28.4855 28.1327 28.4073 28.3215 28.4073 28.5183V36.5154H26.3271V27.1641C26.3271 26.9672 26.2489 26.7784 26.1097 26.6392C25.9705 26.5 25.7817 26.4218 25.5848 26.4218H20.8348C20.6379 26.4218 20.4491 26.5 20.3099 26.6392C20.1707 26.7784 20.0925 26.9672 20.0925 27.1641V36.5154H18.0156V20.8876C18.0156 20.6907 17.9374 20.5019 17.7982 20.3627C17.659 20.2234 17.4701 20.1452 17.2733 20.1452H12.5233C12.3266 20.1456 12.1382 20.2239 11.9992 20.3631C11.8603 20.5023 11.7823 20.6909 11.7823 20.8876V36.5154H9.70341V29.0936C9.70341 28.8967 9.6252 28.7079 9.48599 28.5687C9.34678 28.4295 9.15797 28.3513 8.9611 28.3513H4.2111C4.01423 28.3513 3.82542 28.4295 3.68621 28.5687C3.547 28.7079 3.46879 28.8967 3.46879 29.0936V31.2091H2.64589C2.35234 31.2088 2.07091 31.092 1.86334 30.8845C1.65577 30.6769 1.539 30.3954 1.53865 30.1019V6.82428C1.56289 6.82428 1.58779 6.82821 1.61334 6.82821H36.5701V30.1019C36.5697 30.3954 36.453 30.6769 36.2454 30.8845C36.0378 31.092 35.7564 31.2088 35.4628 31.2091H34.6406V19.779C34.6406 19.5821 34.5624 19.3933 34.4232 19.2541C34.284 19.1149 34.0951 19.0367 33.8983 19.0367H29.1483C28.9514 19.0367 28.7626 19.1149 28.6234 19.2541C28.4842 19.3933 28.406 19.5821 28.406 19.779V23.5272C28.406 23.7241 28.4842 23.9129 28.6234 24.0521C28.7626 24.1913 28.9514 24.2696 29.1483 24.2696C29.3451 24.2696 29.534 24.1913 29.6732 24.0521C29.8124 23.9129 29.8906 23.7241 29.8906 23.5272V20.5213H33.156V36.5154H29.8919Z" fill="black"/>
<path d="M16.5392 4.15649H33.3077C33.4052 4.15649 33.5017 4.1373 33.5917 4.09999C33.6818 4.06269 33.7636 4.00801 33.8326 3.93908C33.9015 3.87015 33.9562 3.78832 33.9935 3.69826C34.0308 3.60819 34.05 3.51167 34.05 3.41418C34.05 3.3167 34.0308 3.22018 33.9935 3.13012C33.9562 3.04006 33.9015 2.95822 33.8326 2.88929C33.7636 2.82036 33.6818 2.76568 33.5917 2.72838C33.5017 2.69107 33.4052 2.67187 33.3077 2.67188H16.5392C16.3423 2.67188 16.1535 2.75008 16.0143 2.88929C15.8751 3.0285 15.7969 3.21731 15.7969 3.41418C15.7969 3.61106 15.8751 3.79987 16.0143 3.93908C16.1535 4.07829 16.3423 4.15649 16.5392 4.15649Z" fill="black"/>
<path d="M7.77271 4.15649C7.94447 4.15669 8.11099 4.09732 8.24388 3.98849C8.37677 3.87965 8.46781 3.7281 8.50147 3.55967C8.53514 3.39123 8.50935 3.21633 8.42849 3.06478C8.34764 2.91323 8.21674 2.79441 8.05809 2.72857C7.89944 2.66273 7.72287 2.65395 7.55847 2.70372C7.39407 2.75349 7.25202 2.85874 7.15653 3.00152C7.06104 3.14429 7.01802 3.31577 7.0348 3.48671C7.05159 3.65766 7.12713 3.8175 7.24857 3.93898C7.3879 4.07756 7.5762 4.1557 7.77271 4.15649Z" fill="black"/>
<path d="M4.80396 4.15649C4.97572 4.15669 5.14225 4.09732 5.27514 3.98849C5.40803 3.87965 5.49906 3.7281 5.53273 3.55967C5.56639 3.39123 5.5406 3.21633 5.45975 3.06478C5.3789 2.91323 5.24799 2.79441 5.08934 2.72857C4.93069 2.66273 4.75412 2.65395 4.58972 2.70372C4.42532 2.75349 4.28327 2.85874 4.18778 3.00152C4.09229 3.14429 4.04927 3.31577 4.06605 3.48671C4.08284 3.65766 4.15838 3.8175 4.27982 3.93898C4.41915 4.07756 4.60745 4.1557 4.80396 4.15649Z" fill="black"/>
<path d="M10.7415 4.15649C10.9132 4.15669 11.0797 4.09732 11.2126 3.98849C11.3455 3.87965 11.4366 3.7281 11.4702 3.55967C11.5039 3.39123 11.4781 3.21633 11.3972 3.06478C11.3164 2.91323 11.1855 2.79441 11.0268 2.72857C10.8682 2.66273 10.6916 2.65395 10.5272 2.70372C10.3628 2.75349 10.2208 2.85874 10.1253 3.00152C10.0298 3.14429 9.98677 3.31577 10.0036 3.48671C10.0203 3.65766 10.0959 3.8175 10.2173 3.93898C10.3566 4.07756 10.5449 4.1557 10.7415 4.15649Z" fill="black"/>
<path d="M29.1494 25.4297C28.9777 25.4295 28.8111 25.4888 28.6782 25.5977C28.5453 25.7065 28.4543 25.8581 28.4206 26.0265C28.387 26.195 28.4128 26.3698 28.4936 26.5214C28.5745 26.6729 28.7054 26.7918 28.864 26.8576C29.0227 26.9234 29.1993 26.9322 29.3637 26.8825C29.5281 26.8327 29.6701 26.7274 29.7656 26.5847C29.8611 26.4419 29.9041 26.2704 29.8873 26.0995C29.8705 25.9285 29.795 25.7687 29.6736 25.6472C29.5344 25.5084 29.346 25.4302 29.1494 25.4297Z" fill="black"/>
<path d="M31.5238 15.4374C32.1249 15.4383 32.7087 15.2367 33.1813 14.8652C33.6538 14.4937 33.9875 13.9739 34.1286 13.3896C34.2697 12.8053 34.2099 12.1905 33.9589 11.6443C33.7079 11.0981 33.2803 10.6524 32.745 10.3789C32.2097 10.1054 31.5979 10.0202 31.0083 10.1368C30.4186 10.2535 29.8854 10.5653 29.4946 11.022C29.1038 11.4787 28.8781 12.0537 28.854 12.6544C28.8299 13.255 29.0088 13.8462 29.3617 14.3328L24.4315 19.2629C24.056 19.0553 23.6359 18.9413 23.2069 18.9308C22.7779 18.9203 22.3527 19.0136 21.9674 19.2027L16.8197 14.055C17.047 13.6433 17.1616 13.1788 17.1519 12.7087C17.1422 12.2385 17.0085 11.7792 16.7645 11.3772C16.5204 10.9752 16.1746 10.6448 15.7619 10.4193C15.3493 10.1937 14.8844 10.0811 14.4142 10.0928C13.9441 10.1045 13.4854 10.2401 13.0844 10.4858C12.6835 10.7316 12.3545 11.0788 12.1307 11.4924C11.9069 11.9061 11.7963 12.3714 11.81 12.8415C11.8237 13.3116 11.9612 13.7697 12.2086 14.1696L7.82553 18.5521C7.26151 18.2407 6.60402 18.1434 5.97399 18.2781C5.34395 18.4128 4.78376 18.7705 4.39645 19.2854C4.00914 19.8003 3.82076 20.4377 3.86597 21.0804C3.91118 21.723 4.18693 22.3278 4.6425 22.7834C5.09808 23.239 5.70283 23.5147 6.34552 23.5599C6.98821 23.6051 7.62561 23.4167 8.14048 23.0294C8.65534 22.6421 9.01304 22.0819 9.14778 21.4519C9.28251 20.8219 9.18522 20.1644 8.8738 19.6003L13.3087 15.1655C13.6937 15.3528 14.1181 15.4447 14.5461 15.4333C14.9741 15.4219 15.3931 15.3075 15.7675 15.1L20.8648 20.1972C20.6181 20.5974 20.4815 21.0555 20.4685 21.5254C20.4556 21.9953 20.5669 22.4603 20.7911 22.8734C21.0153 23.2866 21.3446 23.6332 21.7456 23.8784C22.1467 24.1236 22.6053 24.2587 23.0752 24.27C23.5451 24.2813 24.0097 24.1684 24.4221 23.9427C24.8344 23.717 25.1799 23.3865 25.4237 22.9846C25.6675 22.5827 25.8009 22.1236 25.8106 21.6536C25.8202 21.1837 25.7056 20.7195 25.4785 20.3079L30.5404 15.2461C30.853 15.3717 31.1868 15.4366 31.5238 15.4374ZM31.5238 11.5778C31.7587 11.5776 31.9884 11.6472 32.1839 11.7776C32.3793 11.9081 32.5316 12.0935 32.6216 12.3106C32.7116 12.5276 32.7353 12.7665 32.6895 12.9969C32.6437 13.2274 32.5307 13.4391 32.3646 13.6053C32.1985 13.7715 31.9868 13.8847 31.7564 13.9306C31.526 13.9764 31.2871 13.9529 31.07 13.8631C30.8529 13.7732 30.6674 13.6209 30.5368 13.4256C30.4063 13.2302 30.3366 13.0006 30.3366 12.7656C30.336 12.6092 30.3662 12.4542 30.4256 12.3096C30.485 12.1649 30.5723 12.0334 30.6826 11.9225C30.7928 11.8116 30.9239 11.7236 31.0682 11.6634C31.2126 11.6032 31.3674 11.5721 31.5238 11.5719V11.5778ZM6.5368 22.0762C6.30185 22.0762 6.07216 22.0066 5.87681 21.876C5.68146 21.7455 5.52922 21.5599 5.43933 21.3428C5.34945 21.1257 5.32596 20.8869 5.37185 20.6564C5.41773 20.426 5.53093 20.2144 5.69711 20.0483C5.8633 19.8822 6.07501 19.7691 6.30547 19.7233C6.53593 19.6776 6.77478 19.7012 6.99182 19.7912C7.20885 19.8812 7.39432 20.0336 7.52476 20.229C7.65521 20.4244 7.72476 20.6541 7.72463 20.8891C7.72411 21.2039 7.59878 21.5056 7.37611 21.7282C7.15344 21.9507 6.85162 22.0759 6.5368 22.0762ZM14.4808 13.9521C14.2458 13.9521 14.0161 13.8824 13.8208 13.7519C13.6254 13.6213 13.4732 13.4358 13.3833 13.2187C13.2934 13.0016 13.2699 12.7627 13.3158 12.5323C13.3617 12.3019 13.4749 12.0902 13.6411 11.9241C13.8073 11.758 14.019 11.645 14.2494 11.5992C14.4799 11.5534 14.7187 11.5771 14.9358 11.6671C15.1528 11.7571 15.3383 11.9094 15.4687 12.1048C15.5992 12.3003 15.6687 12.53 15.6686 12.7649C15.6676 13.0794 15.542 13.3807 15.3194 13.6028C15.0968 13.8249 14.7952 13.9498 14.4808 13.9501V13.9521ZM23.1422 22.7884C22.9072 22.7884 22.6775 22.7187 22.4822 22.5882C22.2868 22.4576 22.1346 22.2721 22.0447 22.055C21.9548 21.8379 21.9313 21.5991 21.9772 21.3686C22.0231 21.1382 22.1363 20.9265 22.3025 20.7604C22.4686 20.5943 22.6804 20.4813 22.9108 20.4355C23.1413 20.3897 23.3801 20.4134 23.5972 20.5034C23.8142 20.5934 23.9997 20.7457 24.1301 20.9411C24.2605 21.1366 24.3301 21.3663 24.33 21.6012C24.3289 21.9157 24.2034 22.217 23.9808 22.4391C23.7582 22.6612 23.4566 22.7861 23.1422 22.7865V22.7884Z" fill="black"/>
<path d="M10.5376 10.8375C10.709 10.8375 10.8751 10.7782 11.0077 10.6695C11.1402 10.5608 11.231 10.4095 11.2646 10.2414C11.2981 10.0733 11.2723 9.89879 11.1916 9.74756C11.1109 9.59634 10.9802 9.47777 10.8219 9.41207C10.6636 9.34636 10.4874 9.33758 10.3233 9.38722C10.1592 9.43686 10.0174 9.54185 9.92209 9.6843C9.82674 9.82676 9.78373 9.99786 9.80038 10.1685C9.81704 10.3391 9.89233 10.4986 10.0134 10.62C10.1528 10.7584 10.3411 10.8365 10.5376 10.8375Z" fill="black"/>
<path d="M4.21106 10.8362H7.77323C7.97011 10.8362 8.15891 10.758 8.29812 10.6188C8.43734 10.4796 8.51554 10.2907 8.51554 10.0939C8.51554 9.897 8.43734 9.70819 8.29812 9.56898C8.15891 9.42977 7.97011 9.35156 7.77323 9.35156H4.21106C4.01419 9.35156 3.82538 9.42977 3.68617 9.56898C3.54696 9.70819 3.46875 9.897 3.46875 10.0939C3.46875 10.2907 3.54696 10.4796 3.68617 10.6188C3.82538 10.758 4.01419 10.8362 4.21106 10.8362Z" fill="black"/>
<path d="M7.77323 14.3987C7.97011 14.3987 8.15891 14.3205 8.29812 14.1813C8.43734 14.0421 8.51554 13.8533 8.51554 13.6564C8.51554 13.4595 8.43734 13.2707 8.29812 13.1315C8.15891 12.9923 7.97011 12.9141 7.77323 12.9141H4.21106C4.01419 12.9141 3.82538 12.9923 3.68617 13.1315C3.54696 13.2707 3.46875 13.4595 3.46875 13.6564C3.46875 13.8533 3.54696 14.0421 3.68617 14.1813C3.82538 14.3205 4.01419 14.3987 4.21106 14.3987H7.77323Z" fill="black"/>
</g>
</g>
</g>
<defs>
<clipPath id="clip0_284_1694">
<rect width="38" height="38" fill="white" transform="translate(0.0546875)"/>
</clipPath>
<clipPath id="clip1_284_1694">
<rect width="38" height="38" fill="white" transform="translate(0.0546875)"/>
</clipPath>
<clipPath id="clip2_284_1694">
<rect width="38" height="38" fill="white" transform="translate(0.0546875)"/>
</clipPath>
</defs>
</svg>
