<svg width="49" height="47" viewBox="0 0 49 47" fill="none" xmlns="http://www.w3.org/2000/svg">
<path d="M39.331 23.3508L45.7589 18.258C46.3781 17.7676 46.561 16.8581 46.1618 16.2331C45.7642 15.6049 44.9381 15.4964 44.3152 15.989L37.8888 21.0786C37.2681 21.5722 37.0859 22.482 37.4851 23.107C37.8855 23.7366 38.7125 23.8415 39.331 23.3508Z" fill="#FAE0B2"/>
<path d="M38.5973 42.8223L45.9448 45.5163C46.6195 45.7637 47.409 45.3516 47.7039 44.5906C48 43.834 47.6932 43.018 47.0178 42.7702L39.6711 40.0765C38.9956 39.8288 38.2061 40.2407 37.9084 41.0005C37.6123 41.757 37.9191 42.5731 38.5973 42.8223Z" fill="#FAE0B2"/>
<path d="M22.189 14.6216C22.9045 14.7355 23.6287 14.1858 23.8044 13.3986C24.636 9.65199 25.8263 5.94505 27.3393 2.39017C27.657 1.6401 27.378 0.809983 26.7105 0.538515C26.0453 0.264203 25.2479 0.648871 24.9281 1.39791C23.3328 5.14483 22.0814 9.04211 21.2056 12.9875C21.0297 13.7824 21.4764 14.509 22.189 14.6216Z" fill="#FAE0B2"/>
<path d="M10.041 21.3335C10.567 20.7194 10.575 19.8119 10.0563 19.298L3.96906 13.2924C3.45034 12.7785 2.60549 12.8613 2.07661 13.474C1.55285 14.0851 1.54543 14.9969 2.06286 15.5062L8.14851 21.5151C8.66594 22.0244 9.5128 21.9465 10.041 21.3335Z" fill="#FAE0B2"/>
</svg>
