<svg width="606" height="327" viewBox="0 0 606 327" fill="none" xmlns="http://www.w3.org/2000/svg">
<g clip-path="url(#clip0_284_1634)">
<path d="M482.061 232.192C482.845 231.682 483.49 231.031 483.951 230.284C484.412 229.536 484.677 228.71 484.728 227.865C484.779 227.019 484.615 226.174 484.246 225.389C483.878 224.605 483.315 223.899 482.596 223.322L492.217 204.488L479.994 206.275L472.732 223.887C471.69 224.993 471.153 226.39 471.225 227.814C471.297 229.238 471.972 230.591 473.121 231.614C474.271 232.638 475.817 233.262 477.464 233.368C479.112 233.475 480.747 233.056 482.061 232.192Z" fill="#FAC2B0"/>
<path d="M500.473 148.741L496.971 148.137C496.971 148.137 492.068 149.95 492.768 155.388C493.469 160.827 482.963 189.833 482.963 189.833L473.508 214.005L486.815 216.422L495.57 188.625L500.473 148.741Z" fill="#CCCCCC"/>
<path d="M516.354 241.182H440.252C438.748 241.18 437.306 240.664 436.242 239.746C435.178 238.829 434.58 237.584 434.578 236.286V229.95C434.58 228.652 435.178 227.408 436.242 226.49C437.306 225.572 438.748 225.056 440.252 225.055H516.354C517.858 225.056 519.301 225.573 520.364 226.49C521.428 227.408 522.026 228.652 522.028 229.95V236.286C522.026 237.584 521.428 238.828 520.364 239.746C519.301 240.664 517.858 241.18 516.354 241.182Z" fill="#B9B5FF"/>
<path d="M511.849 310.739L504.171 313.184L489.586 288.797L500.918 285.188L511.849 310.739Z" fill="#FAC2B0"/>
<path d="M497.878 313.039L512.685 308.323L516.126 316.367L491.996 324.052C491.544 322.995 491.338 321.873 491.389 320.747C491.44 319.622 491.747 318.517 492.293 317.494C492.839 316.472 493.614 315.552 494.572 314.787C495.53 314.023 496.653 313.429 497.878 313.039Z" fill="#2F2E41"/>
<path d="M526.526 320.88L518.35 320.56L515.891 293.199L527.957 293.672L526.526 320.88Z" fill="#FAC2B0"/>
<path d="M512.383 318.426H528.167V327H502.445C502.445 325.874 502.702 324.759 503.202 323.719C503.701 322.679 504.433 321.733 505.356 320.937C506.279 320.141 507.374 319.509 508.58 319.078C509.786 318.648 511.078 318.426 512.383 318.426Z" fill="#2F2E41"/>
<path d="M489.964 209.17C483.611 215.434 479.877 223.355 479.359 231.667L476.656 275.038L500.469 311.296L513.777 305.253L497.668 278.059L507.473 252.075L534.088 233.946L531.987 207.961L489.964 209.17Z" fill="#2F2E41"/>
<path d="M527.087 231.531L534.091 233.949L528.489 317.341L512.38 315.529L507.477 252.077L527.087 231.531Z" fill="#2F2E41"/>
<path d="M512.184 223.343C512.356 222.509 512.739 221.719 513.304 221.026C513.87 220.334 514.604 219.758 515.456 219.337C516.307 218.916 517.255 218.661 518.233 218.591C519.211 218.521 520.195 218.636 521.116 218.929L536.256 203.023L539.922 213.241L524.983 226.779C524.309 228.08 523.106 229.124 521.601 229.711C520.095 230.299 518.392 230.389 516.815 229.966C515.237 229.542 513.894 228.634 513.041 227.413C512.187 226.193 511.882 224.744 512.184 223.343Z" fill="#FAC2B0"/>
<path d="M517.771 138.777C526.826 138.777 534.167 132.444 534.167 124.631C534.167 116.818 526.826 110.484 517.771 110.484C508.716 110.484 501.375 116.818 501.375 124.631C501.375 132.444 508.716 138.777 517.771 138.777Z" fill="#FAC2B0"/>
<path d="M542.142 151.462C542.142 151.462 523.231 136.053 497.317 147.837C497.317 147.837 490.663 206.151 486.461 212.194C486.461 212.194 522.881 207.964 532.686 210.381C532.686 210.381 532.687 185.001 538.99 175.332C545.293 165.663 542.142 151.462 542.142 151.462Z" fill="#CCCCCC"/>
<path d="M534.79 152.971L542.475 151.746C546.311 153.671 549.28 156.658 550.899 160.223C553.7 166.266 561.405 195.876 561.405 195.876L531.288 221.861L524.984 214.005L543.895 192.251L534.089 174.122L534.79 152.971Z" fill="#CCCCCC"/>
<path d="M531.795 132.2C531.866 132.022 531.888 131.833 531.861 131.647C531.833 131.461 531.757 131.282 531.637 131.126C531.517 130.969 531.358 130.838 531.171 130.743C530.983 130.647 530.773 130.59 530.556 130.576C530.112 130.597 529.677 130.695 529.279 130.865C528.88 131.035 528.525 131.272 528.236 131.564C527.642 132.154 526.951 132.666 526.185 133.083C525.392 133.428 524.317 133.378 523.864 132.721C523.44 132.103 523.731 131.276 523.988 130.559C524.642 128.734 525.008 126.841 525.076 124.932C525.15 122.8 524.801 120.576 523.434 118.914C521.669 116.769 518.513 115.954 515.526 116.013C512.54 116.072 509.601 116.868 506.643 117.37C505.622 117.544 504.421 117.633 503.738 116.95C503.012 116.224 503.279 115.048 503.588 114.068C504.389 111.524 505.24 108.893 507.102 106.838C509.116 104.703 511.993 103.305 515.154 102.927C518.188 102.603 521.268 102.905 524.141 103.808C528.821 105.08 532.939 107.556 535.945 110.903C539.043 114.462 540.382 118.935 539.669 123.344C538.972 127.184 536.613 130.653 533.069 133.052" fill="#2F2E41"/>
<path d="M361.816 243.06H6.00802C4.41515 243.058 2.88802 242.512 1.76169 241.54C0.635357 240.568 0.00179514 239.251 0 237.876V5.18374C0.0018498 3.80942 0.63543 2.49184 1.76175 1.52005C2.88807 0.548251 4.41516 0.00159601 6.00802 0H361.816C363.409 0.00154885 364.936 0.548197 366.063 1.52C367.189 2.49181 367.823 3.8094 367.824 5.18374V237.876C367.823 239.251 367.189 240.568 366.063 241.54C364.937 242.512 363.409 243.058 361.816 243.06ZM6.00802 1.15194C4.76912 1.15314 3.58135 1.5783 2.70531 2.33415C1.82927 3.09 1.3365 4.11481 1.33512 5.18374V237.876C1.33656 238.945 1.82934 239.97 2.70536 240.726C3.58139 241.482 4.76913 241.907 6.00802 241.908H361.816C363.055 241.907 364.243 241.481 365.119 240.726C365.995 239.97 366.488 238.945 366.489 237.876V5.18374C366.488 4.11482 365.995 3.09004 365.119 2.33421C364.243 1.57837 363.055 1.15319 361.816 1.15194H6.00802Z" fill="#E6E6E6"/>
<path d="M327.101 55.2929H40.719C39.1261 55.2913 37.599 54.7447 36.4727 53.7729C35.3464 52.8011 34.7128 51.4835 34.7109 50.1092V32.2541C34.7128 30.8797 35.3464 29.5622 36.4727 28.5904C37.599 27.6186 39.1261 27.0719 40.719 27.0703H327.101C328.694 27.0719 330.221 27.6185 331.348 28.5903C332.474 29.5621 333.108 30.8797 333.109 32.2541V50.1092C333.108 51.4835 332.474 52.8011 331.348 53.7729C330.221 54.7447 328.694 55.2914 327.101 55.2929ZM40.719 28.2223C39.4801 28.2235 38.2923 28.6486 37.4163 29.4045C36.5402 30.1603 36.0474 31.1851 36.0461 32.2541V50.1092C36.0474 51.1781 36.5402 52.2029 37.4162 52.9588C38.2923 53.7146 39.4801 54.1398 40.719 54.141H327.101C328.34 54.1397 329.528 53.7145 330.404 52.9587C331.28 52.2029 331.773 51.1781 331.774 50.1092V32.2541C331.773 31.1851 331.28 30.1604 330.404 29.4045C329.528 28.6487 328.34 28.2235 327.101 28.2223H40.719Z" fill="#3F3D56"/>
<path d="M154.204 103.098H40.719C39.1261 103.096 37.599 102.549 36.4727 101.578C35.3464 100.606 34.7128 99.2882 34.7109 97.9139V80.0587C34.7128 78.6844 35.3464 77.3668 36.4727 76.395C37.599 75.4233 39.1261 74.8766 40.719 74.875H154.204C155.797 74.8766 157.324 75.4233 158.45 76.395C159.576 77.3668 160.21 78.6844 160.212 80.0587V97.9139C160.21 99.2882 159.576 100.606 158.45 101.578C157.324 102.549 155.797 103.096 154.204 103.098ZM40.719 76.0269C39.4801 76.0281 38.2923 76.4533 37.4163 77.2092C36.5402 77.965 36.0474 78.9898 36.0461 80.0587V97.9139C36.0474 98.9828 36.5402 100.008 37.4162 100.763C38.2923 101.519 39.4801 101.944 40.719 101.946H154.204C155.443 101.944 156.63 101.519 157.507 100.763C158.383 100.008 158.875 98.9828 158.877 97.9139V80.0587C158.875 78.9898 158.383 77.965 157.507 77.2092C156.63 76.4533 155.443 76.0281 154.204 76.0269H40.719Z" fill="#3F3D56"/>
<path d="M327.102 103.098H213.617C212.025 103.096 210.497 102.549 209.371 101.578C208.245 100.606 207.611 99.2882 207.609 97.9139V80.0587C207.611 78.6844 208.245 77.3668 209.371 76.395C210.497 75.4233 212.025 74.8766 213.617 74.875H327.102C328.695 74.8765 330.222 75.4232 331.349 76.395C332.475 77.3668 333.108 78.6844 333.11 80.0587V97.9139C333.108 99.2882 332.475 100.606 331.349 101.578C330.222 102.549 328.695 103.096 327.102 103.098ZM213.617 76.0269C212.378 76.0281 211.191 76.4533 210.315 77.2092C209.439 77.965 208.946 78.9898 208.944 80.0587V97.9139C208.946 98.9828 209.439 100.008 210.315 100.763C211.191 101.519 212.378 101.944 213.617 101.946H327.102C328.341 101.944 329.529 101.519 330.405 100.763C331.281 100.008 331.774 98.9828 331.775 97.9139V80.0587C331.774 78.9898 331.281 77.965 330.405 77.2092C329.529 76.4534 328.341 76.0282 327.102 76.0269H213.617Z" fill="#3F3D56"/>
<path d="M327.44 215.99H251.338C249.834 215.989 248.392 215.473 247.328 214.555C246.264 213.637 245.666 212.393 245.664 211.095V204.759C245.666 203.461 246.264 202.217 247.328 201.299C248.392 200.381 249.834 199.865 251.338 199.863H327.44C328.944 199.865 330.386 200.381 331.45 201.299C332.514 202.217 333.112 203.461 333.114 204.759V211.095C333.112 212.393 332.514 213.637 331.45 214.555C330.386 215.473 328.944 215.989 327.44 215.99Z" fill="#E6E6E6"/>
<path d="M53.403 133.048C52.3467 133.048 51.3142 132.777 50.436 132.271C49.5577 131.765 48.8732 131.045 48.469 130.203C48.0648 129.361 47.9591 128.435 48.1651 127.541C48.3712 126.647 48.8798 125.826 49.6267 125.182C50.3736 124.537 51.3251 124.098 52.3611 123.921C53.397 123.743 54.4708 123.834 55.4467 124.183C56.4225 124.532 57.2566 125.122 57.8434 125.88C58.4302 126.638 58.7434 127.528 58.7434 128.44C58.7418 129.661 58.1786 130.833 57.1775 131.696C56.1763 132.56 54.8188 133.046 53.403 133.048ZM53.403 124.984C52.6108 124.984 51.8364 125.187 51.1777 125.566C50.519 125.946 50.0057 126.486 49.7025 127.117C49.3993 127.749 49.32 128.444 49.4746 129.114C49.6291 129.784 50.0106 130.4 50.5708 130.883C51.1309 131.367 51.8446 131.696 52.6216 131.829C53.3985 131.963 54.2039 131.894 54.9357 131.633C55.6676 131.371 56.2932 130.928 56.7333 130.36C57.1734 129.791 57.4083 129.123 57.4083 128.44C57.4072 127.524 56.9848 126.645 56.2339 125.997C55.483 125.349 54.4649 124.985 53.403 124.984Z" fill="#E6E6E6"/>
<path d="M53.403 148.024C52.3467 148.024 51.3142 147.754 50.436 147.248C49.5577 146.741 48.8732 146.022 48.469 145.18C48.0648 144.338 47.9591 143.411 48.1651 142.517C48.3712 141.624 48.8798 140.803 49.6267 140.158C50.3736 139.514 51.3251 139.075 52.3611 138.897C53.397 138.719 54.4708 138.811 55.4467 139.159C56.4225 139.508 57.2566 140.099 57.8434 140.856C58.4302 141.614 58.7434 142.505 58.7434 143.416C58.7418 144.638 58.1786 145.809 57.1775 146.673C56.1763 147.537 54.8188 148.023 53.403 148.024ZM53.403 139.961C52.6108 139.961 51.8364 140.163 51.1777 140.543C50.519 140.923 50.0057 141.462 49.7025 142.094C49.3993 142.725 49.32 143.42 49.4746 144.091C49.6291 144.761 50.0106 145.377 50.5708 145.86C51.1309 146.343 51.8446 146.672 52.6216 146.806C53.3985 146.939 54.2039 146.871 54.9357 146.609C55.6676 146.348 56.2932 145.905 56.7333 145.336C57.1734 144.768 57.4083 144.1 57.4083 143.416C57.4072 142.5 56.9848 141.622 56.2339 140.974C55.483 140.326 54.4649 139.962 53.403 139.961Z" fill="#E6E6E6"/>
<path d="M53.403 163.001C52.3467 163.001 51.3142 162.73 50.436 162.224C49.5577 161.718 48.8732 160.998 48.469 160.156C48.0648 159.314 47.9591 158.388 48.1651 157.494C48.3712 156.6 48.8798 155.779 49.6267 155.135C50.3736 154.49 51.3251 154.051 52.3611 153.874C53.397 153.696 54.4708 153.787 55.4467 154.136C56.4225 154.485 57.2566 155.075 57.8434 155.833C58.4302 156.591 58.7434 157.482 58.7434 158.393C58.7418 159.615 58.1786 160.786 57.1775 161.65C56.1763 162.513 54.8188 162.999 53.403 163.001ZM53.403 154.937C52.6108 154.937 51.8364 155.14 51.1777 155.52C50.519 155.899 50.0057 156.439 49.7025 157.07C49.3993 157.702 49.32 158.397 49.4746 159.067C49.6291 159.738 50.0106 160.353 50.5708 160.837C51.1309 161.32 51.8446 161.649 52.6216 161.782C53.3985 161.916 54.2039 161.847 54.9357 161.586C55.6676 161.324 56.2932 160.881 56.7333 160.313C57.1734 159.745 57.4083 159.076 57.4083 158.393C57.4072 157.477 56.9848 156.598 56.2339 155.95C55.483 155.303 54.4649 154.938 53.403 154.937Z" fill="#3F3D56"/>
<path d="M79.4407 124.699C78.2899 124.699 77.1862 125.094 76.3725 125.796C75.5587 126.498 75.1016 127.45 75.1016 128.443C75.1016 129.436 75.5587 130.388 76.3725 131.09C77.1862 131.792 78.2899 132.187 79.4407 132.187H141.524C142.674 132.187 143.778 131.792 144.592 131.09C145.406 130.388 145.863 129.436 145.863 128.443C145.863 127.45 145.406 126.498 144.592 125.796C143.778 125.094 142.674 124.699 141.524 124.699H79.4407Z" fill="#E6E6E6"/>
<path d="M79.4407 139.672C78.2899 139.672 77.1862 140.066 76.3725 140.768C75.5587 141.471 75.1016 142.423 75.1016 143.416C75.1016 144.409 75.5587 145.361 76.3725 146.063C77.1862 146.765 78.2899 147.16 79.4407 147.16H141.524C142.674 147.16 143.778 146.765 144.592 146.063C145.406 145.361 145.863 144.409 145.863 143.416C145.863 142.423 145.406 141.471 144.592 140.768C143.778 140.066 142.674 139.672 141.524 139.672H79.4407Z" fill="#E6E6E6"/>
<path d="M79.4407 154.648C78.2899 154.648 77.1862 155.043 76.3725 155.745C75.5587 156.447 75.1016 157.399 75.1016 158.392C75.1016 159.385 75.5587 160.337 76.3725 161.04C77.1862 161.742 78.2899 162.136 79.4407 162.136H141.524C142.674 162.136 143.778 161.742 144.592 161.04C145.406 160.337 145.863 159.385 145.863 158.392C145.863 157.399 145.406 156.447 144.592 155.745C143.778 155.043 142.674 154.648 141.524 154.648H79.4407Z" fill="#E6E6E6"/>
<path d="M226.637 133.048C225.581 133.048 224.549 132.777 223.67 132.271C222.792 131.765 222.108 131.045 221.703 130.203C221.299 129.361 221.193 128.435 221.399 127.541C221.606 126.647 222.114 125.826 222.861 125.182C223.608 124.537 224.56 124.098 225.595 123.921C226.631 123.743 227.705 123.834 228.681 124.183C229.657 124.532 230.491 125.122 231.078 125.88C231.665 126.638 231.978 127.528 231.978 128.44C231.976 129.661 231.413 130.833 230.412 131.696C229.411 132.56 228.053 133.046 226.637 133.048ZM226.637 124.984C225.845 124.984 225.071 125.187 224.412 125.566C223.753 125.946 223.24 126.486 222.937 127.117C222.634 127.749 222.554 128.444 222.709 129.114C222.864 129.784 223.245 130.4 223.805 130.883C224.365 131.367 225.079 131.696 225.856 131.829C226.633 131.963 227.438 131.894 228.17 131.633C228.902 131.371 229.528 130.928 229.968 130.36C230.408 129.791 230.643 129.123 230.643 128.44C230.642 127.524 230.219 126.645 229.468 125.997C228.717 125.349 227.699 124.985 226.637 124.984Z" fill="#E6E6E6"/>
<path d="M226.637 148.024C225.581 148.024 224.549 147.754 223.67 147.248C222.792 146.741 222.108 146.022 221.703 145.18C221.299 144.338 221.193 143.411 221.399 142.517C221.606 141.624 222.114 140.803 222.861 140.158C223.608 139.514 224.56 139.075 225.595 138.897C226.631 138.719 227.705 138.811 228.681 139.159C229.657 139.508 230.491 140.099 231.078 140.856C231.665 141.614 231.978 142.505 231.978 143.416C231.976 144.638 231.413 145.809 230.412 146.673C229.411 147.537 228.053 148.023 226.637 148.024ZM226.637 139.961C225.845 139.961 225.071 140.163 224.412 140.543C223.753 140.923 223.24 141.462 222.937 142.094C222.634 142.725 222.554 143.42 222.709 144.091C222.864 144.761 223.245 145.377 223.805 145.86C224.365 146.343 225.079 146.672 225.856 146.806C226.633 146.939 227.438 146.871 228.17 146.609C228.902 146.348 229.528 145.905 229.968 145.336C230.408 144.768 230.643 144.1 230.643 143.416C230.642 142.5 230.219 141.622 229.468 140.974C228.717 140.326 227.699 139.962 226.637 139.961Z" fill="#3F3D56"/>
<path d="M226.637 163.001C225.581 163.001 224.549 162.73 223.67 162.224C222.792 161.718 222.108 160.998 221.703 160.156C221.299 159.314 221.193 158.388 221.399 157.494C221.606 156.6 222.114 155.779 222.861 155.135C223.608 154.49 224.56 154.051 225.595 153.874C226.631 153.696 227.705 153.787 228.681 154.136C229.657 154.485 230.491 155.075 231.078 155.833C231.665 156.591 231.978 157.482 231.978 158.393C231.976 159.615 231.413 160.786 230.412 161.65C229.411 162.513 228.053 162.999 226.637 163.001ZM226.637 154.937C225.845 154.937 225.071 155.14 224.412 155.52C223.753 155.899 223.24 156.439 222.937 157.07C222.634 157.702 222.554 158.397 222.709 159.067C222.864 159.738 223.245 160.353 223.805 160.837C224.365 161.32 225.079 161.649 225.856 161.782C226.633 161.916 227.438 161.847 228.17 161.586C228.902 161.324 229.528 160.881 229.968 160.313C230.408 159.745 230.643 159.076 230.643 158.393C230.642 157.477 230.219 156.598 229.468 155.95C228.717 155.303 227.699 154.938 226.637 154.937Z" fill="#E6E6E6"/>
<path d="M226.637 177.973C225.581 177.973 224.549 177.703 223.67 177.197C222.792 176.69 222.108 175.971 221.703 175.129C221.299 174.287 221.193 173.36 221.399 172.467C221.606 171.573 222.114 170.752 222.861 170.107C223.608 169.463 224.56 169.024 225.595 168.846C226.631 168.669 227.705 168.76 228.681 169.109C229.657 169.457 230.491 170.048 231.078 170.806C231.665 171.563 231.978 172.454 231.978 173.366C231.976 174.587 231.413 175.758 230.412 176.622C229.411 177.486 228.053 177.972 226.637 177.973ZM226.637 169.91C225.845 169.91 225.071 170.112 224.412 170.492C223.753 170.872 223.24 171.412 222.937 172.043C222.634 172.675 222.554 173.369 222.709 174.04C222.864 174.71 223.245 175.326 223.805 175.809C224.365 176.293 225.079 176.622 225.856 176.755C226.633 176.888 227.438 176.82 228.17 176.558C228.902 176.297 229.528 175.854 229.968 175.286C230.408 174.717 230.643 174.049 230.643 173.366C230.642 172.449 230.219 171.571 229.468 170.923C228.717 170.275 227.699 169.911 226.637 169.91Z" fill="#E6E6E6"/>
<path d="M252.003 124.699C250.852 124.699 249.749 125.094 248.935 125.796C248.121 126.498 247.664 127.45 247.664 128.443C247.664 129.436 248.121 130.388 248.935 131.09C249.749 131.792 250.852 132.187 252.003 132.187H314.086C315.237 132.187 316.341 131.792 317.154 131.09C317.968 130.388 318.425 129.436 318.425 128.443C318.425 127.45 317.968 126.498 317.154 125.796C316.341 125.094 315.237 124.699 314.086 124.699H252.003Z" fill="#E6E6E6"/>
<path d="M252.003 139.672C250.852 139.672 249.749 140.066 248.935 140.768C248.121 141.471 247.664 142.423 247.664 143.416C247.664 144.409 248.121 145.361 248.935 146.063C249.749 146.765 250.852 147.16 252.003 147.16H314.086C315.237 147.16 316.341 146.765 317.154 146.063C317.968 145.361 318.425 144.409 318.425 143.416C318.425 142.423 317.968 141.471 317.154 140.768C316.341 140.066 315.237 139.672 314.086 139.672H252.003Z" fill="#E6E6E6"/>
<path d="M252.003 154.648C250.852 154.648 249.749 155.043 248.935 155.745C248.121 156.447 247.664 157.399 247.664 158.392C247.664 159.385 248.121 160.337 248.935 161.04C249.749 161.742 250.852 162.136 252.003 162.136H314.086C315.237 162.136 316.341 161.742 317.154 161.04C317.968 160.337 318.425 159.385 318.425 158.392C318.425 157.399 317.968 156.447 317.154 155.745C316.341 155.043 315.237 154.648 314.086 154.648H252.003Z" fill="#E6E6E6"/>
<path d="M252.003 169.625C250.852 169.625 249.749 170.019 248.935 170.722C248.121 171.424 247.664 172.376 247.664 173.369C247.664 174.362 248.121 175.314 248.935 176.016C249.749 176.718 250.852 177.113 252.003 177.113H314.086C315.237 177.113 316.341 176.718 317.154 176.016C317.968 175.314 318.425 174.362 318.425 173.369C318.425 172.376 317.968 171.424 317.154 170.722C316.341 170.019 315.237 169.625 314.086 169.625H252.003Z" fill="#E6E6E6"/>
<path d="M53.4876 85.2422C52.3368 85.2422 51.2331 85.6366 50.4193 86.3387C49.6056 87.0408 49.1484 87.9931 49.1484 88.986C49.1484 89.9789 49.6056 90.9312 50.4193 91.6333C51.2331 92.3354 52.3368 92.7298 53.4876 92.7298H127.587C128.737 92.7298 129.841 92.3354 130.655 91.6333C131.468 90.9312 131.926 89.9789 131.926 88.986C131.926 87.9931 131.468 87.0408 130.655 86.3387C129.841 85.6366 128.737 85.2422 127.587 85.2422H53.4876Z" fill="#E6E6E6"/>
<path d="M53.4876 37.4375C52.3368 37.4375 51.2331 37.8319 50.4193 38.534C49.6056 39.2361 49.1484 40.1884 49.1484 41.1813C49.1484 42.1742 49.6056 43.1265 50.4193 43.8286C51.2331 44.5307 52.3368 44.9251 53.4876 44.9251H127.587C128.737 44.9251 129.841 44.5307 130.655 43.8286C131.468 43.1265 131.926 42.1742 131.926 41.1813C131.926 40.1884 131.468 39.2361 130.655 38.534C129.841 37.8319 128.737 37.4375 127.587 37.4375H53.4876Z" fill="#B9B5FF"/>
<path d="M139.771 86.582C139.713 86.582 139.655 86.5953 139.604 86.6206C139.554 86.6459 139.512 86.6822 139.482 86.726C139.453 86.7698 139.438 86.8195 139.438 86.87C139.437 86.9206 139.453 86.9702 139.482 87.014L142.315 91.248C142.345 91.2918 142.387 91.3282 142.438 91.3534C142.488 91.3787 142.546 91.392 142.605 91.392C142.663 91.392 142.721 91.3787 142.771 91.3534C142.822 91.3282 142.864 91.2918 142.894 91.248L145.727 87.014C145.756 86.9702 145.772 86.9206 145.772 86.87C145.772 86.8195 145.756 86.7698 145.727 86.726C145.698 86.6822 145.655 86.6459 145.605 86.6206C145.554 86.5953 145.496 86.582 145.438 86.582H139.771Z" fill="#B9B5FF"/>
<path d="M226.386 85.2422C225.235 85.2422 224.132 85.6366 223.318 86.3387C222.504 87.0408 222.047 87.9931 222.047 88.986C222.047 89.9789 222.504 90.9312 223.318 91.6333C224.132 92.3354 225.235 92.7298 226.386 92.7298H300.485C301.636 92.7298 302.739 92.3354 303.553 91.6333C304.367 90.9312 304.824 89.9789 304.824 88.986C304.824 87.9931 304.367 87.0408 303.553 86.3387C302.739 85.6366 301.636 85.2422 300.485 85.2422H226.386Z" fill="#E6E6E6"/>
<path d="M312.67 86.582C312.611 86.582 312.554 86.5953 312.503 86.6206C312.452 86.6459 312.41 86.6822 312.381 86.726C312.351 86.7698 312.336 86.8195 312.336 86.87C312.336 86.9206 312.351 86.9702 312.381 87.014L315.214 91.248C315.243 91.2918 315.285 91.3282 315.336 91.3534C315.387 91.3787 315.444 91.392 315.503 91.392C315.562 91.392 315.619 91.3787 315.67 91.3534C315.721 91.3282 315.763 91.2918 315.792 91.248L318.625 87.014C318.655 86.9702 318.67 86.9206 318.67 86.87C318.67 86.8195 318.655 86.7698 318.625 86.726C318.596 86.6822 318.554 86.6459 318.503 86.6206C318.452 86.5953 318.395 86.582 318.336 86.582H312.67Z" fill="#B9B5FF"/>
<path d="M226.639 145.721C228.114 145.721 229.309 144.69 229.309 143.417C229.309 142.145 228.114 141.113 226.639 141.113C225.164 141.113 223.969 142.145 223.969 143.417C223.969 144.69 225.164 145.721 226.639 145.721Z" fill="#B9B5FF"/>
<path d="M53.4046 160.698C54.8793 160.698 56.0748 159.666 56.0748 158.394C56.0748 157.121 54.8793 156.09 53.4046 156.09C51.9299 156.09 50.7344 157.121 50.7344 158.394C50.7344 159.666 51.9299 160.698 53.4046 160.698Z" fill="#B9B5FF"/>
<path d="M619.203 327H405.389C405.178 327 404.976 326.928 404.827 326.8C404.677 326.671 404.594 326.497 404.594 326.315C404.594 326.133 404.677 325.958 404.827 325.83C404.976 325.701 405.178 325.629 405.389 325.629H619.203C619.414 325.629 619.616 325.701 619.766 325.83C619.915 325.958 619.998 326.133 619.998 326.315C619.998 326.497 619.915 326.671 619.766 326.8C619.616 326.928 619.414 327 619.203 327Z" fill="#3F3D56"/>
</g>
<defs>
<clipPath id="clip0_284_1634">
<rect width="620" height="327" fill="white"/>
</clipPath>
</defs>
</svg>
