<svg width="416" height="280" viewBox="0 0 416 280" fill="none" xmlns="http://www.w3.org/2000/svg">
<path d="M377.328 17H37.784C17.4687 17 1 33.4687 1 53.784V242.42C1 262.735 17.4687 279.204 37.784 279.204H377.328C397.643 279.204 414.112 262.735 414.112 242.42V53.784C414.112 33.4687 397.643 17 377.328 17Z" stroke="url(#paint0_linear_284_1921)"/>
<g clip-path="url(#clip0_284_1921)">
<path d="M336.666 119.731L251.471 110.219C251.242 110.193 251.011 110.18 250.779 110.18C250.551 110.179 250.323 110.192 250.097 110.217C249.871 110.243 249.647 110.281 249.427 110.332C249.205 110.384 248.986 110.449 248.773 110.526C248.564 110.601 248.361 110.687 248.164 110.784C247.964 110.881 247.771 110.989 247.586 111.106C247.397 111.226 247.215 111.356 247.043 111.494C246.865 111.637 246.695 111.787 246.535 111.946C246.372 112.109 246.217 112.279 246.073 112.456C245.928 112.635 245.791 112.821 245.663 113.014C245.536 113.208 245.417 113.41 245.308 113.62C245.199 113.829 245.099 114.046 245.009 114.27C244.916 114.501 244.834 114.737 244.764 114.979C244.694 115.22 244.635 115.466 244.588 115.716C244.542 115.966 244.507 116.22 244.482 116.478C244.458 116.736 244.445 116.997 244.445 117.261C244.446 117.525 244.459 117.788 244.482 118.05C244.506 118.312 244.541 118.572 244.588 118.83C244.636 119.089 244.695 119.345 244.765 119.599C244.835 119.853 244.917 120.104 245.01 120.352C245.1 120.592 245.2 120.826 245.309 121.054C245.418 121.283 245.537 121.506 245.664 121.722C245.792 121.939 245.928 122.149 246.074 122.353C246.219 122.558 246.373 122.755 246.536 122.944C246.699 123.134 246.868 123.314 247.043 123.486C247.219 123.657 247.4 123.818 247.587 123.97C247.774 124.121 247.966 124.263 248.164 124.394C248.36 124.525 248.564 124.646 248.774 124.758C248.985 124.871 249.204 124.974 249.428 125.065C249.646 125.154 249.87 125.232 250.098 125.298C250.321 125.362 250.549 125.415 250.78 125.455C251.008 125.495 251.24 125.523 251.472 125.537L336.666 130.995C336.914 131.011 337.163 130.989 337.403 130.93C337.524 130.901 337.643 130.862 337.758 130.816C337.878 130.767 337.993 130.71 338.103 130.646C338.214 130.582 338.321 130.511 338.422 130.434C338.527 130.353 338.628 130.267 338.722 130.176C338.822 130.08 338.915 129.979 339.003 129.874C339.093 129.766 339.18 129.651 339.264 129.529C339.347 129.407 339.426 129.28 339.501 129.147C339.575 129.014 339.645 128.877 339.709 128.734C339.774 128.591 339.834 128.443 339.89 128.291C339.945 128.138 339.995 127.981 340.041 127.82C340.088 127.652 340.13 127.482 340.164 127.309C340.199 127.136 340.228 126.96 340.253 126.781C340.277 126.603 340.295 126.422 340.306 126.239C340.318 126.056 340.324 125.871 340.324 125.684C340.323 125.497 340.317 125.311 340.306 125.125C340.295 124.94 340.278 124.756 340.253 124.574C340.229 124.391 340.2 124.21 340.164 124.031C340.129 123.852 340.088 123.674 340.041 123.498C339.995 123.329 339.945 123.163 339.89 123.001C339.835 122.841 339.775 122.683 339.709 122.528C339.644 122.373 339.574 122.222 339.501 122.077C339.426 121.931 339.348 121.79 339.264 121.653C339.18 121.516 339.093 121.386 339.003 121.262C338.913 121.139 338.819 121.022 338.722 120.911C338.625 120.8 338.525 120.697 338.422 120.6C338.321 120.506 338.215 120.416 338.103 120.331C337.993 120.248 337.878 120.172 337.758 120.101C337.644 120.035 337.526 119.976 337.403 119.924C337.285 119.875 337.163 119.833 337.038 119.8C336.916 119.768 336.792 119.745 336.666 119.731Z" fill="#00BFA6"/>
<path d="M336.666 141.183L251.471 139.396C251.009 139.386 250.547 139.427 250.097 139.519C249.87 139.565 249.646 139.624 249.427 139.695C249.204 139.767 248.985 139.851 248.773 139.946C248.563 140.04 248.36 140.144 248.164 140.258C247.964 140.374 247.771 140.499 247.586 140.634C247.397 140.771 247.215 140.917 247.043 141.071C246.867 141.228 246.698 141.394 246.535 141.57C246.373 141.747 246.219 141.931 246.073 142.123C245.928 142.314 245.791 142.513 245.663 142.718C245.536 142.924 245.417 143.137 245.308 143.356C245.199 143.575 245.099 143.801 245.009 144.033C244.916 144.273 244.834 144.517 244.764 144.765C244.694 145.013 244.635 145.264 244.588 145.518C244.542 145.772 244.507 146.029 244.482 146.289C244.458 146.549 244.445 146.812 244.445 147.076C244.446 147.34 244.459 147.602 244.482 147.862C244.506 148.121 244.541 148.378 244.588 148.632C244.636 148.885 244.695 149.135 244.765 149.383C244.835 149.63 244.917 149.873 245.01 150.113C245.1 150.346 245.2 150.571 245.309 150.79C245.418 151.009 245.537 151.221 245.664 151.426C245.792 151.631 245.928 151.829 246.074 152.019C246.219 152.209 246.373 152.392 246.536 152.567C246.699 152.743 246.868 152.908 247.043 153.063C247.216 153.217 247.397 153.362 247.587 153.498C247.772 153.632 247.964 153.756 248.164 153.871C248.361 153.983 248.564 154.086 248.774 154.179C248.986 154.273 249.204 154.356 249.428 154.427C249.647 154.497 249.871 154.554 250.098 154.599C250.323 154.644 250.55 154.676 250.78 154.696C251.01 154.715 251.241 154.722 251.472 154.715L336.666 152.446C336.791 152.442 336.915 152.43 337.038 152.408C337.162 152.386 337.284 152.355 337.403 152.315C337.525 152.274 337.644 152.225 337.758 152.168C337.878 152.108 337.993 152.041 338.103 151.968C338.214 151.893 338.321 151.812 338.422 151.726C338.527 151.636 338.628 151.541 338.722 151.441C338.819 151.34 338.912 151.23 339.003 151.114C339.093 150.997 339.18 150.874 339.264 150.745C339.347 150.615 339.426 150.481 339.501 150.342C339.575 150.202 339.644 150.058 339.709 149.91C339.774 149.759 339.834 149.605 339.89 149.448C339.945 149.292 339.995 149.131 340.041 148.965C340.088 148.795 340.13 148.622 340.164 148.445C340.199 148.269 340.228 148.091 340.253 147.91C340.277 147.729 340.295 147.546 340.306 147.362C340.318 147.178 340.324 146.992 340.324 146.805C340.323 146.619 340.317 146.434 340.306 146.249C340.295 146.064 340.278 145.881 340.253 145.701C340.229 145.52 340.2 145.342 340.164 145.166C340.129 144.991 340.088 144.817 340.041 144.645C339.995 144.479 339.944 144.317 339.889 144.16C339.834 144.003 339.774 143.85 339.709 143.702C339.645 143.553 339.575 143.41 339.501 143.271C339.427 143.132 339.348 142.998 339.264 142.869C339.181 142.739 339.094 142.617 339.003 142.501C338.913 142.385 338.819 142.277 338.722 142.175C338.628 142.076 338.528 141.982 338.422 141.892C338.321 141.806 338.215 141.726 338.103 141.652C337.994 141.579 337.878 141.513 337.758 141.453C337.644 141.397 337.525 141.349 337.403 141.309C337.284 141.27 337.162 141.24 337.038 141.218C336.915 141.197 336.791 141.186 336.666 141.183Z" fill="#E4E4E4"/>
<path d="M336.666 161.294L251.471 166.751C251.239 166.765 251.008 166.793 250.779 166.833C250.548 166.873 250.321 166.926 250.097 166.99C249.869 167.056 249.645 167.134 249.427 167.223C249.203 167.315 248.984 167.417 248.773 167.53C248.563 167.642 248.36 167.764 248.164 167.894C247.965 168.026 247.773 168.168 247.586 168.318C247.399 168.469 247.218 168.631 247.043 168.802C246.867 168.973 246.698 169.154 246.535 169.344C246.373 169.534 246.219 169.732 246.073 169.936C245.928 170.14 245.791 170.35 245.663 170.566C245.536 170.783 245.417 171.006 245.308 171.234C245.199 171.463 245.099 171.697 245.009 171.937C244.916 172.184 244.834 172.435 244.764 172.689C244.694 172.944 244.635 173.2 244.588 173.458C244.542 173.716 244.507 173.976 244.482 174.238C244.458 174.5 244.445 174.763 244.445 175.027C244.446 175.291 244.459 175.552 244.482 175.81C244.506 176.068 244.541 176.322 244.588 176.572C244.636 176.823 244.695 177.069 244.765 177.31C244.835 177.551 244.917 177.787 245.01 178.019C245.1 178.243 245.2 178.46 245.309 178.669C245.418 178.878 245.537 179.08 245.664 179.274C245.792 179.468 245.928 179.655 246.074 179.833C246.218 180.01 246.372 180.18 246.536 180.343C246.696 180.501 246.865 180.652 247.043 180.794C247.216 180.933 247.397 181.062 247.587 181.183C247.772 181.3 247.965 181.408 248.164 181.505C248.361 181.602 248.565 181.688 248.774 181.763C248.987 181.84 249.205 181.904 249.428 181.957C249.648 182.008 249.872 182.046 250.098 182.071C250.324 182.097 250.552 182.109 250.78 182.109C251.011 182.109 251.242 182.095 251.472 182.07L336.666 172.56C336.792 172.546 336.916 172.523 337.038 172.491C337.163 172.458 337.285 172.416 337.403 172.367C337.526 172.315 337.644 172.256 337.758 172.189C337.878 172.119 337.993 172.042 338.103 171.96C338.215 171.875 338.321 171.785 338.422 171.691C338.524 171.594 338.624 171.49 338.722 171.38C338.819 171.269 338.912 171.152 339.003 171.029C339.093 170.905 339.18 170.775 339.264 170.638C339.347 170.502 339.426 170.361 339.501 170.214C339.575 170.068 339.644 169.917 339.709 169.763C339.774 169.608 339.834 169.449 339.89 169.287C339.945 169.125 339.995 168.959 340.041 168.79C340.088 168.614 340.13 168.436 340.164 168.257C340.199 168.077 340.228 167.896 340.253 167.714C340.277 167.531 340.295 167.348 340.306 167.162C340.318 166.977 340.324 166.791 340.324 166.604C340.323 166.418 340.317 166.233 340.306 166.05C340.295 165.867 340.277 165.686 340.253 165.508C340.229 165.329 340.2 165.152 340.164 164.979C340.129 164.806 340.088 164.636 340.041 164.469C339.995 164.307 339.945 164.15 339.89 163.997C339.835 163.845 339.775 163.697 339.71 163.554C339.644 163.411 339.575 163.274 339.501 163.141C339.426 163.009 339.347 162.882 339.263 162.76C339.179 162.637 339.092 162.522 339.002 162.415C338.915 162.31 338.821 162.209 338.721 162.113C338.627 162.022 338.527 161.936 338.421 161.855C338.32 161.778 338.214 161.707 338.102 161.643C337.992 161.579 337.877 161.522 337.757 161.473C337.643 161.427 337.524 161.388 337.402 161.359C337.163 161.3 336.914 161.278 336.666 161.294Z" fill="#E4E4E4"/>
<path d="M290.232 162.295C290.772 163.08 291.622 163.665 292.622 163.938C293.622 164.211 294.701 164.153 295.655 163.775C296.609 163.397 297.371 162.726 297.797 161.888C298.223 161.05 298.283 160.105 297.965 159.231L314.477 129.524L306.573 125.328L292.313 156.883C292.259 156.902 292.205 156.921 292.152 156.941C292.1 156.962 292.047 156.983 291.995 157.005C291.942 157.027 291.89 157.05 291.838 157.075C291.787 157.099 291.735 157.125 291.684 157.152C290.713 157.665 290.015 158.495 289.742 159.46C289.47 160.424 289.646 161.444 290.232 162.295Z" fill="#FFD0C2"/>
<path d="M311.324 140.979L299.594 138.346C299.594 138.346 299.977 137.588 300.599 136.332C301.222 135.075 302.091 133.324 303.07 131.335C304.048 129.347 305.133 127.125 306.193 124.928C307.254 122.732 308.285 120.562 309.153 118.681C310.021 116.8 311.008 115.674 311.999 115.042C312.82 114.496 313.854 114.256 314.876 114.373C315.67 114.476 316.429 114.729 317.101 115.115C317.419 115.288 317.718 115.487 317.994 115.708L320.714 120.04L311.324 140.979Z" fill="#CCCCCC"/>
<path d="M217.453 138.626C217.169 138.645 216.887 138.677 216.607 138.723C216.325 138.769 216.046 138.829 215.772 138.902C215.494 138.977 215.22 139.064 214.953 139.165C214.679 139.267 214.411 139.382 214.151 139.51C213.897 139.635 213.648 139.771 213.405 139.918C213.162 140.066 212.926 140.224 212.697 140.393C212.468 140.562 212.246 140.742 212.031 140.933C211.816 141.124 211.609 141.325 211.409 141.537C211.21 141.749 211.021 141.968 210.842 142.196C210.663 142.423 210.496 142.657 210.339 142.898C210.184 143.139 210.039 143.387 209.904 143.641C209.769 143.896 209.646 144.156 209.536 144.423C209.421 144.699 209.32 144.978 209.234 145.26C209.147 145.542 209.075 145.826 209.017 146.113C208.96 146.4 208.916 146.688 208.887 146.979C208.858 147.269 208.844 147.561 208.844 147.854C208.844 148.147 208.858 148.436 208.887 148.722C208.916 149.007 208.96 149.288 209.017 149.565C209.075 149.841 209.147 150.113 209.234 150.38C209.32 150.646 209.42 150.907 209.535 151.163C209.646 151.41 209.769 151.649 209.903 151.88C210.035 152.108 210.181 152.331 210.339 152.547C210.494 152.758 210.662 152.963 210.842 153.159C211.019 153.354 211.209 153.541 211.409 153.719C211.606 153.894 211.814 154.059 212.031 154.214C212.244 154.366 212.467 154.507 212.698 154.637C213.153 154.894 213.641 155.105 214.152 155.264C214.675 155.428 215.219 155.536 215.771 155.587C216.049 155.612 216.327 155.622 216.606 155.619C216.889 155.615 217.172 155.598 217.452 155.566C217.736 155.535 218.017 155.489 218.295 155.431C218.573 155.372 218.848 155.299 219.117 155.214C219.39 155.128 219.657 155.029 219.918 154.919C220.184 154.806 220.443 154.681 220.694 154.545C220.939 154.412 221.177 154.268 221.409 154.115C221.641 153.962 221.866 153.799 222.083 153.626C222.3 153.453 222.51 153.27 222.713 153.078C222.915 152.886 223.11 152.684 223.297 152.473C223.485 152.262 223.662 152.045 223.828 151.822C223.993 151.598 224.149 151.369 224.294 151.133C224.438 150.898 224.572 150.657 224.696 150.411C224.819 150.164 224.931 149.913 225.032 149.656C225.137 149.391 225.229 149.123 225.308 148.853C225.387 148.583 225.453 148.31 225.505 148.036C225.558 147.762 225.597 147.487 225.624 147.21C225.65 146.933 225.664 146.654 225.664 146.375C225.663 146.096 225.65 145.82 225.624 145.547C225.598 145.275 225.558 145.006 225.505 144.741C225.453 144.477 225.387 144.216 225.308 143.96C225.229 143.703 225.137 143.451 225.032 143.204C224.931 142.965 224.818 142.734 224.696 142.509C224.571 142.285 224.437 142.068 224.292 141.857C224.005 141.441 223.672 141.051 223.297 140.692C223.113 140.516 222.918 140.348 222.714 140.19C222.514 140.034 222.303 139.888 222.085 139.752C221.868 139.618 221.643 139.494 221.41 139.381C221.178 139.269 220.939 139.167 220.694 139.078C220.188 138.894 219.659 138.762 219.118 138.687C218.845 138.649 218.571 138.625 218.295 138.615C218.014 138.605 217.733 138.609 217.453 138.627" fill="#E4E4E4"/>
<path d="M217.453 168.931C217.169 168.949 216.887 168.982 216.607 169.028C216.325 169.074 216.046 169.134 215.772 169.207C215.494 169.281 215.22 169.369 214.953 169.469C214.679 169.572 214.411 169.687 214.151 169.814C213.897 169.94 213.648 170.076 213.405 170.223C213.162 170.37 212.926 170.528 212.697 170.698C212.468 170.866 212.246 171.046 212.031 171.237C211.816 171.428 211.609 171.63 211.409 171.842C211.21 172.054 211.021 172.273 210.842 172.5C210.663 172.727 210.496 172.962 210.339 173.202C210.184 173.444 210.039 173.692 209.904 173.946C209.769 174.201 209.646 174.461 209.536 174.727C209.421 175.003 209.32 175.283 209.234 175.565C209.147 175.846 209.075 176.131 209.017 176.418C208.96 176.704 208.916 176.993 208.887 177.283C208.858 177.574 208.844 177.866 208.844 178.159C208.844 178.452 208.858 178.741 208.887 179.026C208.916 179.312 208.96 179.593 209.017 179.869C209.075 180.146 209.147 180.417 209.234 180.684C209.32 180.951 209.42 181.212 209.535 181.468C209.646 181.715 209.769 181.954 209.903 182.185C210.035 182.413 210.181 182.636 210.339 182.851C210.494 183.063 210.662 183.267 210.842 183.464C211.019 183.659 211.209 183.846 211.409 184.024C211.606 184.198 211.814 184.364 212.031 184.519C212.244 184.671 212.467 184.812 212.698 184.942C213.153 185.199 213.641 185.409 214.152 185.569C214.675 185.733 215.219 185.841 215.771 185.891C216.049 185.916 216.327 185.927 216.606 185.923C216.889 185.92 217.172 185.902 217.452 185.871C217.736 185.839 218.017 185.794 218.295 185.735C218.573 185.676 218.848 185.604 219.117 185.519C219.39 185.433 219.657 185.334 219.918 185.223C220.184 185.11 220.443 184.986 220.694 184.85C220.939 184.716 221.177 184.573 221.409 184.42C221.641 184.267 221.866 184.104 222.083 183.931C222.3 183.757 222.51 183.575 222.713 183.382C222.915 183.19 223.11 182.989 223.297 182.778C223.485 182.567 223.662 182.35 223.828 182.126C223.993 181.903 224.149 181.673 224.294 181.438C224.438 181.203 224.572 180.962 224.696 180.715C224.819 180.469 224.931 180.218 225.032 179.961C225.137 179.695 225.229 179.428 225.308 179.157C225.387 178.887 225.453 178.615 225.505 178.341C225.558 178.067 225.597 177.791 225.624 177.514C225.65 177.237 225.664 176.959 225.664 176.68C225.663 176.4 225.65 176.124 225.624 175.852C225.598 175.579 225.558 175.311 225.505 175.046C225.453 174.781 225.387 174.521 225.308 174.264C225.229 174.008 225.137 173.756 225.032 173.509C224.931 173.27 224.818 173.038 224.696 172.814C224.571 172.59 224.437 172.372 224.292 172.162C224.005 171.746 223.672 171.355 223.297 170.997C223.113 170.821 222.918 170.653 222.714 170.494C222.514 170.339 222.303 170.193 222.085 170.057C221.868 169.923 221.643 169.799 221.41 169.686C221.178 169.573 220.939 169.472 220.694 169.383C220.188 169.198 219.659 169.067 219.118 168.991C218.845 168.953 218.571 168.929 218.295 168.919C218.014 168.909 217.733 168.913 217.453 168.932" fill="#E4E4E4"/>
<path d="M217.452 105.801C217.169 105.795 216.886 105.803 216.605 105.825C216.325 105.847 216.046 105.883 215.77 105.933C215.493 105.984 215.22 106.048 214.951 106.127C214.678 106.206 214.411 106.298 214.15 106.403C213.894 106.507 213.645 106.621 213.403 106.747C213.159 106.875 212.923 107.013 212.696 107.162C212.464 107.313 212.242 107.475 212.029 107.646C211.813 107.819 211.605 108.004 211.406 108.198C211.206 108.393 211.017 108.597 210.839 108.809C210.66 109.021 210.492 109.241 210.336 109.469C210.18 109.699 210.035 109.936 209.9 110.178C209.765 110.419 209.642 110.669 209.532 110.927C209.417 111.193 209.317 111.463 209.23 111.738C209.144 112.013 209.072 112.291 209.014 112.573C208.956 112.855 208.913 113.14 208.884 113.428C208.855 113.715 208.841 114.005 208.841 114.298C208.841 114.591 208.855 114.881 208.884 115.169C208.913 115.456 208.956 115.741 209.014 116.023C209.072 116.304 209.144 116.582 209.23 116.856C209.317 117.13 209.417 117.4 209.532 117.665C209.643 117.921 209.766 118.171 209.9 118.413C210.035 118.654 210.18 118.888 210.337 119.115C210.494 119.342 210.661 119.561 210.84 119.772C211.018 119.984 211.207 120.186 211.407 120.379C211.607 120.573 211.814 120.756 212.029 120.928C212.241 121.098 212.462 121.259 212.692 121.409C212.92 121.557 213.156 121.694 213.4 121.82C213.642 121.944 213.891 122.058 214.146 122.159C214.407 122.263 214.675 122.354 214.948 122.432C215.484 122.584 216.039 122.681 216.602 122.722C217.165 122.763 217.731 122.748 218.29 122.677C218.567 122.642 218.842 122.593 219.113 122.531C219.384 122.468 219.652 122.392 219.914 122.303C220.178 122.213 220.437 122.111 220.689 121.996C220.935 121.884 221.174 121.761 221.406 121.628C221.639 121.494 221.864 121.35 222.08 121.196C222.297 121.041 222.507 120.876 222.71 120.701C222.912 120.526 223.107 120.341 223.294 120.146C223.482 119.951 223.658 119.749 223.824 119.539C223.99 119.33 224.146 119.114 224.29 118.891C224.436 118.668 224.57 118.438 224.692 118.202C224.815 117.967 224.927 117.725 225.029 117.478C225.134 117.221 225.226 116.961 225.305 116.698C225.384 116.434 225.449 116.168 225.502 115.898C225.555 115.628 225.594 115.355 225.621 115.08C225.647 114.805 225.661 114.528 225.661 114.249C225.66 113.97 225.647 113.693 225.621 113.418C225.595 113.143 225.555 112.871 225.502 112.602C225.45 112.332 225.384 112.066 225.305 111.803C225.226 111.54 225.134 111.28 225.029 111.024C224.927 110.777 224.815 110.535 224.692 110.3C224.57 110.065 224.435 109.836 224.289 109.613C224.144 109.392 223.988 109.177 223.823 108.969C223.657 108.76 223.48 108.559 223.294 108.365C223.108 108.172 222.914 107.988 222.711 107.814C222.508 107.64 222.299 107.476 222.081 107.323C221.865 107.17 221.64 107.027 221.408 106.894C221.176 106.762 220.937 106.64 220.691 106.53C220.439 106.416 220.18 106.315 219.915 106.227C219.653 106.139 219.386 106.065 219.115 106.004C218.844 105.943 218.569 105.895 218.292 105.862C218.013 105.828 217.732 105.808 217.45 105.803M217.45 104.996C218.686 105.026 219.899 105.3 220.997 105.8C222.088 106.299 223.055 106.984 223.842 107.813C224.664 108.676 225.305 109.662 225.734 110.722C226.652 113.004 226.652 115.493 225.734 117.775C225.305 118.839 224.664 119.827 223.842 120.695C223.055 121.528 222.088 122.217 220.997 122.723C219.9 123.228 218.688 123.51 217.449 123.547C216.203 123.583 214.965 123.367 213.83 122.915C212.684 122.456 211.659 121.794 210.819 120.971C209.927 120.1 209.229 119.09 208.761 117.994C207.746 115.608 207.746 112.982 208.761 110.597C209.229 109.497 209.927 108.484 210.819 107.608C211.659 106.781 212.684 106.113 213.83 105.647C214.964 105.189 216.203 104.966 217.452 104.995L217.45 104.996Z" fill="#00BFA6"/>
<path d="M217.454 116.55L214.555 111.26L215.243 110.867L217.631 115.213L227.66 104.891L228.267 105.457L217.454 116.55Z" fill="#00BFA6"/>
<path d="M322.983 220.993L315.805 220.969L318.119 237.395L322.983 237.416V220.993Z" fill="#FFD0C2"/>
<path d="M324.221 241.547L308.547 241.475V241.301C308.547 240.949 308.586 240.598 308.664 240.252C308.818 239.57 309.125 238.922 309.568 238.345C310.017 237.761 310.593 237.259 311.263 236.868C311.924 236.483 312.665 236.217 313.445 236.085C313.84 236.019 314.241 235.986 314.644 235.988L324.221 236.03V241.547Z" fill="#2F2E41"/>
<path d="M299.994 220.915L292.836 220.891L295.143 237.294L299.994 237.316V220.915Z" fill="#FFD0C2"/>
<path d="M301.234 241.442L285.602 241.37V241.196C285.601 240.845 285.641 240.494 285.719 240.149C285.872 239.468 286.179 238.821 286.62 238.244C287.068 237.66 287.642 237.159 288.311 236.769C288.97 236.384 289.71 236.119 290.487 235.987C290.881 235.921 291.282 235.889 291.683 235.891L301.234 235.932V241.442Z" fill="#2F2E41"/>
<path d="M299.693 153.777L287.656 193.114L292.062 230.822L301.817 231.058L299.693 197.01L311.862 180.019L314.502 231.289L323.351 230.741L328.273 186.659C329.945 183.217 331.171 179.621 331.928 175.94C332.524 173.051 332.813 170.119 332.793 167.183C332.783 165.206 332.61 163.233 332.274 161.278C332.154 160.549 331.992 159.827 331.788 159.113L328.199 155.927L299.693 153.777Z" fill="#2F2E41"/>
<path d="M315.638 160.358C313.614 160.358 311.715 160.301 309.993 160.189C308.233 160.083 306.483 159.881 304.753 159.585C303.279 159.344 301.844 158.948 300.479 158.406C299.38 157.991 298.424 157.33 297.707 156.49L297.625 156.386L300.915 137.636L304.463 116.553C304.696 115.158 305.507 113.887 306.742 112.981C307.976 112.076 309.548 111.6 311.157 111.643L322.268 111.942C323.101 111.964 323.921 112.133 324.678 112.437C325.435 112.742 326.115 113.177 326.677 113.717C327.239 114.256 327.671 114.888 327.949 115.577C328.226 116.265 328.343 116.995 328.293 117.724L326.834 138.691L332.214 159.372L331.833 159.419C331.68 159.437 331.089 159.505 330.165 159.596C328.956 159.715 327.721 159.822 326.496 159.915C324.762 160.046 323.065 160.149 321.453 160.221C319.408 160.312 317.448 160.356 315.638 160.358Z" fill="#CCCCCC"/>
<path d="M326.98 94.7115C327.907 96.194 328.311 97.8839 328.142 99.5676C327.973 101.251 327.238 102.853 326.03 104.171C324.821 105.489 323.194 106.464 321.354 106.973C319.513 107.482 317.542 107.501 315.689 107.03C314.461 106.721 313.316 106.202 312.32 105.503C311.323 104.803 310.495 103.938 309.883 102.957C308.959 101.475 308.556 99.7863 308.725 98.1041C308.895 96.4219 309.629 94.8214 310.836 93.5043C312.043 92.1872 313.668 91.2125 315.507 90.703C317.345 90.1936 319.315 90.1723 321.167 90.6418C322.395 90.9495 323.541 91.4677 324.539 92.1664C325.537 92.865 326.367 93.7302 326.98 94.7118V94.7115Z" fill="#FFD0C2"/>
<path d="M287.667 116.641C287.021 116.779 286.418 117.038 285.898 117.4C285.491 117.682 285.143 118.023 284.87 118.409C284.331 119.173 284.094 120.07 284.194 120.963C284.245 121.414 284.385 121.855 284.607 122.264C284.882 122.774 285.277 123.228 285.766 123.594C286.255 123.961 286.828 124.233 287.445 124.392C288.063 124.55 288.713 124.592 289.351 124.515C289.989 124.438 290.6 124.243 291.146 123.943C291.186 123.921 291.226 123.898 291.265 123.874C291.305 123.851 291.344 123.827 291.382 123.803C291.42 123.778 291.458 123.753 291.494 123.728C291.531 123.703 291.568 123.677 291.604 123.651L314.749 130.865C315.461 131.087 316.236 131.1 316.958 130.903C317.679 130.706 318.308 130.308 318.749 129.771L324.236 123.118L317.602 119.206L314.121 122.669L292.94 118.979C292.917 118.931 292.893 118.883 292.868 118.836C292.843 118.788 292.818 118.741 292.791 118.694C292.763 118.647 292.735 118.6 292.706 118.553C292.677 118.507 292.646 118.46 292.614 118.415C292.109 117.7 291.358 117.143 290.469 116.824C289.58 116.506 288.599 116.442 287.667 116.641Z" fill="#FFD0C2"/>
<path d="M314.496 120.485C315.188 119.728 316.156 118.746 317.14 117.771C318.123 116.797 319.121 115.831 319.874 115.109C320.627 114.386 321.133 113.907 321.133 113.907C321.828 112.987 322.865 112.306 324.069 111.979C325.272 111.653 326.567 111.702 327.734 112.117C328.902 112.532 329.869 113.288 330.471 114.256C331.074 115.225 331.276 116.347 331.041 117.431C330.907 118.055 330.631 118.648 330.228 119.176C330.228 119.176 329.473 120.042 328.333 121.333C327.193 122.625 325.668 124.344 324.13 126.053C322.592 127.763 321.039 129.463 319.841 130.718C318.643 131.974 317.801 132.784 317.682 132.715L313.504 121.84C313.386 121.771 313.803 121.241 314.496 120.485Z" fill="#CCCCCC"/>
<path d="M238.376 242H378.628C378.726 242 378.819 241.966 378.888 241.906C378.957 241.845 378.996 241.763 378.996 241.678C378.996 241.592 378.957 241.51 378.888 241.45C378.819 241.389 378.726 241.355 378.628 241.355H238.376C238.278 241.355 238.185 241.389 238.116 241.45C238.047 241.51 238.008 241.592 238.008 241.678C238.008 241.763 238.047 241.845 238.116 241.906C238.185 241.966 238.278 242 238.376 242Z" fill="#CACACA"/>
</g>
<path d="M364.211 98.1467C362.811 99.9324 359.905 100.676 357.348 100.263C354.791 99.8511 352.59 98.4546 350.976 96.7743C349.362 95.0939 348.261 93.1315 347.178 91.189C346.095 89.2464 345 87.2826 343.394 85.5969C341.789 83.9113 339.599 82.5047 337.046 82.0754C335.657 81.8418 334.076 81.9479 333.044 82.7345C332.331 83.3253 331.933 84.1233 331.935 84.9565C331.495 84.8203 331.021 84.7747 330.555 84.8236C330.09 84.8724 329.647 85.0144 329.266 85.2368C328.885 85.4592 328.577 85.7553 328.37 86.099C328.163 86.4427 328.063 86.8235 328.079 87.2077C328.041 87.2063 328.004 87.2036 327.966 87.2028C323.238 84.8925 315.973 86.0416 315.926 88.4641C313.309 88.4136 310.069 90.4663 310.007 93.6769C315.42 93.7813 318.496 99.5152 315.257 103.522C314.422 104.543 313.503 105.518 312.508 106.439L319.277 106.569C319.858 105.914 320.215 105.143 320.314 104.335C320.548 105.075 320.682 105.834 320.713 106.597C320.713 106.597 339.164 108.902 334.683 93.7362C334.999 93.7294 335.308 93.6592 335.582 93.5317C336.309 93.1904 336.716 92.4467 336.799 91.6857C336.977 91.7281 337.154 91.7704 337.331 91.8127C338.597 92.1181 339.912 92.5075 340.769 93.3315C342.219 94.7241 341.868 96.7886 342.37 98.5669C342.975 100.711 344.875 102.473 346.997 103.834C349.277 105.295 351.951 106.424 354.819 106.703C357.687 106.982 360.757 106.326 362.781 104.656C364.804 102.985 365.55 100.246 364.211 98.1467Z" fill="#2F2E41"/>
<path d="M211.174 219.961L203.341 226.276L209.566 217.129C204.661 209.341 196.641 202.609 196.641 202.609C196.641 202.609 180 216.571 180 227.546C180 238.522 187.45 242.354 196.641 242.354C205.831 242.354 213.281 238.522 213.281 227.546C213.281 225.104 212.455 222.513 211.174 219.961Z" fill="#F2F2F2"/>
<path d="M201.327 226.617V227.158C201.29 233.446 200.079 238.353 197.703 241.807C197.669 241.858 197.632 241.907 197.599 241.957L197.333 241.815L197.079 241.676C199.715 237.946 200.648 232.672 200.681 227.188C200.684 227.011 200.688 226.831 200.684 226.652C200.675 224.33 200.513 221.981 200.253 219.7C200.235 219.523 200.214 219.343 200.192 219.164C199.831 216.154 199.311 213.278 198.779 210.779C198.743 210.602 198.703 210.425 198.663 210.251C197.743 206.025 196.804 202.964 196.59 202.287C196.565 202.204 196.55 202.158 196.547 202.147L196.837 202.075L196.84 202.072L197.134 202C197.137 202.011 197.189 202.163 197.275 202.447C197.602 203.508 198.452 206.387 199.287 210.184C199.324 210.356 199.363 210.532 199.4 210.709C199.834 212.737 200.259 215.002 200.596 217.38C200.681 217.978 200.758 218.567 200.825 219.148C200.85 219.327 200.871 219.507 200.889 219.684C201.171 222.15 201.316 224.461 201.327 226.617Z" fill="white"/>
<path d="M199.285 210.184C199.08 210.209 198.872 210.233 198.661 210.251C198.088 210.303 197.512 210.329 196.936 210.329C194.481 210.332 192.057 209.852 189.842 208.926C189.713 209.068 189.585 209.21 189.453 209.354C191.784 210.35 194.343 210.867 196.936 210.865C197.551 210.865 198.166 210.836 198.777 210.779C198.985 210.76 199.193 210.736 199.398 210.709C201.089 210.497 202.734 210.061 204.276 209.416C204.144 209.269 204.016 209.124 203.89 208.982C202.431 209.579 200.879 209.984 199.285 210.184Z" fill="white"/>
<path d="M200.828 219.148C200.617 219.159 200.406 219.164 200.195 219.164C200.13 219.167 200.063 219.167 199.999 219.167C197.339 219.167 194.718 218.604 192.36 217.525C190.002 216.447 187.977 214.885 186.458 212.973C186.335 213.131 186.213 213.289 186.094 213.449C187.678 215.384 189.765 216.96 192.183 218.048C194.601 219.135 197.281 219.703 199.999 219.703C200.084 219.703 200.17 219.703 200.256 219.7C200.47 219.697 200.681 219.692 200.892 219.684C204.157 219.538 207.305 218.571 209.959 216.899C209.861 216.741 209.763 216.583 209.662 216.425C207.083 218.066 204.012 219.013 200.828 219.148Z" fill="white"/>
<path d="M201.331 226.617C201.116 226.633 200.902 226.644 200.688 226.652C200.459 226.66 200.23 226.665 200 226.665C196.426 226.662 192.949 225.644 190.09 223.765C187.231 221.886 185.144 219.247 184.141 216.242C184.003 216.459 183.866 216.673 183.734 216.89C184.864 219.888 187.044 222.498 189.964 224.349C192.884 226.2 196.396 227.198 200 227.201C200.23 227.201 200.459 227.198 200.685 227.188C200.902 227.182 201.116 227.172 201.331 227.158C205.654 226.862 209.688 225.138 212.615 222.335C212.551 222.137 212.477 221.941 212.404 221.743C209.577 224.567 205.605 226.315 201.331 226.617Z" fill="white"/>
<path d="M100.334 152H29.6659C29.2242 152 28.8008 151.842 28.4885 151.561C28.1762 151.281 28.0005 150.9 28 150.504V74.4962C28.0005 74.0995 28.1762 73.7192 28.4885 73.4387C28.8008 73.1582 29.2242 73.0005 29.6659 73H100.334C100.776 73.0005 101.199 73.1582 101.512 73.4387C101.824 73.7192 101.999 74.0995 102 74.4962V150.504C101.999 150.9 101.824 151.281 101.512 151.561C101.199 151.842 100.776 152 100.334 152ZM29.6659 73.5985C29.4009 73.5988 29.1468 73.6934 28.9594 73.8617C28.772 74.03 28.6666 74.2582 28.6663 74.4962V150.504C28.6666 150.742 28.772 150.97 28.9594 151.138C29.1468 151.307 29.4009 151.401 29.6659 151.402H100.334C100.599 151.401 100.853 151.307 101.041 151.138C101.228 150.97 101.333 150.742 101.334 150.504V74.4962C101.333 74.2582 101.228 74.03 101.041 73.8617C100.853 73.6934 100.599 73.5987 100.334 73.5985H29.6659Z" fill="#CACACA"/>
<path d="M90 90H39V118H90V90Z" fill="#00BFA6"/>
<path d="M52 129H39V136H52V129Z" fill="#E4E4E4"/>
<path d="M90 129H77V136H90V129Z" fill="#E4E4E4"/>
<path d="M71 129H58V136H71V129Z" fill="#E4E4E4"/>
<path d="M196.357 116H126.643C126.208 116 125.79 115.842 125.482 115.561C125.174 115.281 125 114.9 125 114.504V38.4962C125 38.0995 125.174 37.7192 125.482 37.4387C125.79 37.1582 126.208 37.0005 126.643 37H196.357C196.792 37.0005 197.21 37.1582 197.518 37.4387C197.826 37.7192 198 38.0995 198 38.4962V114.504C198 114.9 197.826 115.281 197.518 115.561C197.21 115.842 196.792 116 196.357 116ZM126.643 37.5985C126.382 37.5987 126.131 37.6934 125.946 37.8617C125.762 38.03 125.658 38.2582 125.657 38.4962V114.504C125.658 114.742 125.762 114.97 125.946 115.138C126.131 115.307 126.382 115.401 126.643 115.402H196.357C196.618 115.401 196.869 115.307 197.054 115.138C197.238 114.97 197.342 114.742 197.343 114.504V38.4962C197.342 38.2582 197.238 38.03 197.054 37.8617C196.869 37.6934 196.618 37.5987 196.357 37.5985H126.643Z" fill="#CACACA"/>
<path d="M197.334 164H126.666C126.224 164 125.801 163.844 125.488 163.569C125.176 163.293 125.001 162.919 125 162.529V140.471C125.001 140.081 125.176 139.707 125.488 139.431C125.801 139.156 126.224 139 126.666 139H197.334C197.776 139 198.199 139.156 198.512 139.431C198.824 139.707 198.999 140.081 199 140.471V162.529C198.999 162.919 198.824 163.293 198.512 163.569C198.199 163.844 197.776 164 197.334 164ZM126.666 139.588C126.401 139.588 126.147 139.682 125.959 139.847C125.772 140.012 125.667 140.237 125.666 140.471V162.529C125.667 162.763 125.772 162.988 125.959 163.153C126.147 163.318 126.401 163.412 126.666 163.412H197.334C197.599 163.412 197.853 163.318 198.041 163.153C198.228 162.988 198.333 162.763 198.334 162.529V140.471C198.333 140.237 198.228 140.012 198.041 139.847C197.853 139.682 197.599 139.588 197.334 139.588H126.666Z" fill="#CACACA"/>
<path d="M183.026 88H139.974C137.779 88 136 89.567 136 91.5V91.5C136 93.433 137.779 95 139.974 95H183.026C185.221 95 187 93.433 187 91.5C187 89.567 185.221 88 183.026 88Z" fill="#E4E4E4"/>
<path d="M183.026 99H139.974C137.779 99 136 100.567 136 102.5V102.5C136 104.433 137.779 106 139.974 106H183.026C185.221 106 187 104.433 187 102.5C187 100.567 185.221 99 183.026 99Z" fill="#E4E4E4"/>
<path d="M161.5 80C171.717 80 180 72.3888 180 63C180 53.6112 171.717 46 161.5 46C151.283 46 143 53.6112 143 63C143 72.3888 151.283 80 161.5 80Z" fill="#00BFA6"/>
<path d="M182 148H163C160.791 148 159 149.567 159 151.5C159 153.433 160.791 155 163 155H182C184.209 155 186 153.433 186 151.5C186 149.567 184.209 148 182 148Z" fill="#E4E4E4"/>
<path d="M145.5 158C149.642 158 153 155.09 153 151.5C153 147.91 149.642 145 145.5 145C141.358 145 138 147.91 138 151.5C138 155.09 141.358 158 145.5 158Z" fill="#00BFA6"/>
<defs>
<linearGradient id="paint0_linear_284_1921" x1="207.556" y1="17" x2="207.556" y2="279.204" gradientUnits="userSpaceOnUse">
<stop stop-color="#FF6CBA"/>
<stop offset="1" stop-color="#811D7D"/>
</linearGradient>
<clipPath id="clip0_284_1921">
<rect width="171" height="156" fill="white" transform="translate(208 86)"/>
</clipPath>
</defs>
</svg>
