<svg width="415" height="265" viewBox="0 0 415 265" fill="none" xmlns="http://www.w3.org/2000/svg">
<g clip-path="url(#clip0_284_1779)">
<path d="M377.271 0H37.7271C16.891 0 0 16.891 0 37.7271V226.363C0 247.199 16.891 264.09 37.7271 264.09H377.271C398.108 264.09 414.999 247.199 414.999 226.363V37.7271C414.999 16.891 398.108 0 377.271 0Z" fill="#FFC700" fill-opacity="0.02"/>
<path d="M377.274 0.941406H37.7293C17.4141 0.941406 0.945312 17.4101 0.945312 37.7254V226.361C0.945312 246.676 17.4141 263.145 37.7293 263.145H377.274C397.589 263.145 414.058 246.676 414.058 226.361V37.7254C414.058 17.4101 397.589 0.941406 377.274 0.941406Z" stroke="#69B1DA" stroke-width="1.88636"/>
<g clip-path="url(#clip1_284_1779)">
<path d="M344.122 235.277H242V234.652H344.273L344.122 235.277Z" fill="#3F3D56"/>
<path d="M74.6996 61.0399C76.1905 61.0399 77.3992 60.1356 77.3992 59.02C77.3992 57.9044 76.1905 57 74.6996 57C73.2086 57 72 57.9044 72 59.02C72 60.1356 73.2086 61.0399 74.6996 61.0399Z" fill="#E6E6E6"/>
<path d="M88.3637 61.0399C89.8546 61.0399 91.0632 60.1356 91.0632 59.02C91.0632 57.9044 89.8546 57 88.3637 57C86.8727 57 85.6641 57.9044 85.6641 59.02C85.6641 60.1356 86.8727 61.0399 88.3637 61.0399Z" fill="#E6E6E6"/>
<path d="M102.028 61.0399C103.519 61.0399 104.727 60.1356 104.727 59.02C104.727 57.9044 103.519 57 102.028 57C100.537 57 99.3281 57.9044 99.3281 59.02C99.3281 60.1356 100.537 61.0399 102.028 61.0399Z" fill="#E6E6E6"/>
<path d="M115.692 61.0399C117.183 61.0399 118.391 60.1356 118.391 59.02C118.391 57.9044 117.183 57 115.692 57C114.201 57 112.992 57.9044 112.992 59.02C112.992 60.1356 114.201 61.0399 115.692 61.0399Z" fill="#E6E6E6"/>
<path d="M129.364 61.0399C130.855 61.0399 132.063 60.1356 132.063 59.02C132.063 57.9044 130.855 57 129.364 57C127.873 57 126.664 57.9044 126.664 59.02C126.664 60.1356 127.873 61.0399 129.364 61.0399Z" fill="#E6E6E6"/>
<path d="M143.028 61.0399C144.519 61.0399 145.727 60.1356 145.727 59.02C145.727 57.9044 144.519 57 143.028 57C141.537 57 140.328 57.9044 140.328 59.02C140.328 60.1356 141.537 61.0399 143.028 61.0399Z" fill="#E6E6E6"/>
<path d="M156.692 61.0399C158.183 61.0399 159.391 60.1356 159.391 59.02C159.391 57.9044 158.183 57 156.692 57C155.201 57 153.992 57.9044 153.992 59.02C153.992 60.1356 155.201 61.0399 156.692 61.0399Z" fill="#E6E6E6"/>
<path d="M170.356 61.0399C171.847 61.0399 173.055 60.1356 173.055 59.02C173.055 57.9044 171.847 57 170.356 57C168.865 57 167.656 57.9044 167.656 59.02C167.656 60.1356 168.865 61.0399 170.356 61.0399Z" fill="#E6E6E6"/>
<path d="M184.02 61.0399C185.511 61.0399 186.719 60.1356 186.719 59.02C186.719 57.9044 185.511 57 184.02 57C182.529 57 181.32 57.9044 181.32 59.02C181.32 60.1356 182.529 61.0399 184.02 61.0399Z" fill="#E6E6E6"/>
<path d="M197.684 61.0399C199.175 61.0399 200.384 60.1356 200.384 59.02C200.384 57.9044 199.175 57 197.684 57C196.193 57 194.984 57.9044 194.984 59.02C194.984 60.1356 196.193 61.0399 197.684 61.0399Z" fill="#E6E6E6"/>
<path d="M74.6996 71.3954C76.1905 71.3954 77.3992 70.491 77.3992 69.3754C77.3992 68.2598 76.1905 67.3555 74.6996 67.3555C73.2086 67.3555 72 68.2598 72 69.3754C72 70.491 73.2086 71.3954 74.6996 71.3954Z" fill="#E6E6E6"/>
<path d="M88.3637 71.3954C89.8546 71.3954 91.0632 70.491 91.0632 69.3754C91.0632 68.2598 89.8546 67.3555 88.3637 67.3555C86.8727 67.3555 85.6641 68.2598 85.6641 69.3754C85.6641 70.491 86.8727 71.3954 88.3637 71.3954Z" fill="#E6E6E6"/>
<path d="M102.028 71.3954C103.519 71.3954 104.727 70.491 104.727 69.3754C104.727 68.2598 103.519 67.3555 102.028 67.3555C100.537 67.3555 99.3281 68.2598 99.3281 69.3754C99.3281 70.491 100.537 71.3954 102.028 71.3954Z" fill="#E6E6E6"/>
<path d="M115.692 71.3954C117.183 71.3954 118.391 70.491 118.391 69.3754C118.391 68.2598 117.183 67.3555 115.692 67.3555C114.201 67.3555 112.992 68.2598 112.992 69.3754C112.992 70.491 114.201 71.3954 115.692 71.3954Z" fill="#00BFA6"/>
<path d="M129.364 71.3954C130.855 71.3954 132.063 70.491 132.063 69.3754C132.063 68.2598 130.855 67.3555 129.364 67.3555C127.873 67.3555 126.664 68.2598 126.664 69.3754C126.664 70.491 127.873 71.3954 129.364 71.3954Z" fill="#E6E6E6"/>
<path d="M143.028 71.3954C144.519 71.3954 145.727 70.491 145.727 69.3754C145.727 68.2598 144.519 67.3555 143.028 67.3555C141.537 67.3555 140.328 68.2598 140.328 69.3754C140.328 70.491 141.537 71.3954 143.028 71.3954Z" fill="#E6E6E6"/>
<path d="M156.692 71.3954C158.183 71.3954 159.391 70.491 159.391 69.3754C159.391 68.2598 158.183 67.3555 156.692 67.3555C155.201 67.3555 153.992 68.2598 153.992 69.3754C153.992 70.491 155.201 71.3954 156.692 71.3954Z" fill="#E6E6E6"/>
<path d="M170.356 71.3954C171.847 71.3954 173.055 70.491 173.055 69.3754C173.055 68.2598 171.847 67.3555 170.356 67.3555C168.865 67.3555 167.656 68.2598 167.656 69.3754C167.656 70.491 168.865 71.3954 170.356 71.3954Z" fill="#E6E6E6"/>
<path d="M184.02 71.3954C185.511 71.3954 186.719 70.491 186.719 69.3754C186.719 68.2598 185.511 67.3555 184.02 67.3555C182.529 67.3555 181.32 68.2598 181.32 69.3754C181.32 70.491 182.529 71.3954 184.02 71.3954Z" fill="#E6E6E6"/>
<path d="M197.684 71.3954C199.175 71.3954 200.384 70.491 200.384 69.3754C200.384 68.2598 199.175 67.3555 197.684 67.3555C196.193 67.3555 194.984 68.2598 194.984 69.3754C194.984 70.491 196.193 71.3954 197.684 71.3954Z" fill="#E6E6E6"/>
<path d="M74.6996 81.747C76.1905 81.747 77.3992 80.8426 77.3992 79.727C77.3992 78.6114 76.1905 77.707 74.6996 77.707C73.2086 77.707 72 78.6114 72 79.727C72 80.8426 73.2086 81.747 74.6996 81.747Z" fill="#E6E6E6"/>
<path d="M88.3637 81.747C89.8546 81.747 91.0632 80.8426 91.0632 79.727C91.0632 78.6114 89.8546 77.707 88.3637 77.707C86.8727 77.707 85.6641 78.6114 85.6641 79.727C85.6641 80.8426 86.8727 81.747 88.3637 81.747Z" fill="#E6E6E6"/>
<path d="M102.028 81.747C103.519 81.747 104.727 80.8426 104.727 79.727C104.727 78.6114 103.519 77.707 102.028 77.707C100.537 77.707 99.3281 78.6114 99.3281 79.727C99.3281 80.8426 100.537 81.747 102.028 81.747Z" fill="#E6E6E6"/>
<path d="M115.692 81.747C117.183 81.747 118.391 80.8426 118.391 79.727C118.391 78.6114 117.183 77.707 115.692 77.707C114.201 77.707 112.992 78.6114 112.992 79.727C112.992 80.8426 114.201 81.747 115.692 81.747Z" fill="#E6E6E6"/>
<path d="M129.364 81.747C130.855 81.747 132.063 80.8426 132.063 79.727C132.063 78.6114 130.855 77.707 129.364 77.707C127.873 77.707 126.664 78.6114 126.664 79.727C126.664 80.8426 127.873 81.747 129.364 81.747Z" fill="#E6E6E6"/>
<path d="M143.028 81.747C144.519 81.747 145.727 80.8426 145.727 79.727C145.727 78.6114 144.519 77.707 143.028 77.707C141.537 77.707 140.328 78.6114 140.328 79.727C140.328 80.8426 141.537 81.747 143.028 81.747Z" fill="#E6E6E6"/>
<path d="M156.692 81.747C158.183 81.747 159.391 80.8426 159.391 79.727C159.391 78.6114 158.183 77.707 156.692 77.707C155.201 77.707 153.992 78.6114 153.992 79.727C153.992 80.8426 155.201 81.747 156.692 81.747Z" fill="#E6E6E6"/>
<path d="M170.356 81.747C171.847 81.747 173.055 80.8426 173.055 79.727C173.055 78.6114 171.847 77.707 170.356 77.707C168.865 77.707 167.656 78.6114 167.656 79.727C167.656 80.8426 168.865 81.747 170.356 81.747Z" fill="#E6E6E6"/>
<path d="M184.02 81.747C185.511 81.747 186.719 80.8426 186.719 79.727C186.719 78.6114 185.511 77.707 184.02 77.707C182.529 77.707 181.32 78.6114 181.32 79.727C181.32 80.8426 182.529 81.747 184.02 81.747Z" fill="#E6E6E6"/>
<path d="M197.684 81.747C199.175 81.747 200.384 80.8426 200.384 79.727C200.384 78.6114 199.175 77.707 197.684 77.707C196.193 77.707 194.984 78.6114 194.984 79.727C194.984 80.8426 196.193 81.747 197.684 81.747Z" fill="#E6E6E6"/>
<path d="M74.6996 92.0985C76.1905 92.0985 77.3992 91.1942 77.3992 90.0786C77.3992 88.963 76.1905 88.0586 74.6996 88.0586C73.2086 88.0586 72 88.963 72 90.0786C72 91.1942 73.2086 92.0985 74.6996 92.0985Z" fill="#E6E6E6"/>
<path d="M88.3637 92.0985C89.8546 92.0985 91.0632 91.1942 91.0632 90.0786C91.0632 88.963 89.8546 88.0586 88.3637 88.0586C86.8727 88.0586 85.6641 88.963 85.6641 90.0786C85.6641 91.1942 86.8727 92.0985 88.3637 92.0985Z" fill="#E6E6E6"/>
<path d="M102.028 92.0985C103.519 92.0985 104.727 91.1942 104.727 90.0786C104.727 88.963 103.519 88.0586 102.028 88.0586C100.537 88.0586 99.3281 88.963 99.3281 90.0786C99.3281 91.1942 100.537 92.0985 102.028 92.0985Z" fill="#E6E6E6"/>
<path d="M115.692 92.0985C117.183 92.0985 118.391 91.1942 118.391 90.0786C118.391 88.963 117.183 88.0586 115.692 88.0586C114.201 88.0586 112.992 88.963 112.992 90.0786C112.992 91.1942 114.201 92.0985 115.692 92.0985Z" fill="#E6E6E6"/>
<path d="M129.364 92.0985C130.855 92.0985 132.063 91.1942 132.063 90.0786C132.063 88.963 130.855 88.0586 129.364 88.0586C127.873 88.0586 126.664 88.963 126.664 90.0786C126.664 91.1942 127.873 92.0985 129.364 92.0985Z" fill="#E6E6E6"/>
<path d="M143.028 92.0985C144.519 92.0985 145.727 91.1942 145.727 90.0786C145.727 88.963 144.519 88.0586 143.028 88.0586C141.537 88.0586 140.328 88.963 140.328 90.0786C140.328 91.1942 141.537 92.0985 143.028 92.0985Z" fill="#E6E6E6"/>
<path d="M156.692 92.0985C158.183 92.0985 159.391 91.1942 159.391 90.0786C159.391 88.963 158.183 88.0586 156.692 88.0586C155.201 88.0586 153.992 88.963 153.992 90.0786C153.992 91.1942 155.201 92.0985 156.692 92.0985Z" fill="#E6E6E6"/>
<path d="M170.356 92.0985C171.847 92.0985 173.055 91.1942 173.055 90.0786C173.055 88.963 171.847 88.0586 170.356 88.0586C168.865 88.0586 167.656 88.963 167.656 90.0786C167.656 91.1942 168.865 92.0985 170.356 92.0985Z" fill="#E6E6E6"/>
<path d="M184.02 92.0985C185.511 92.0985 186.719 91.1942 186.719 90.0786C186.719 88.963 185.511 88.0586 184.02 88.0586C182.529 88.0586 181.32 88.963 181.32 90.0786C181.32 91.1942 182.529 92.0985 184.02 92.0985Z" fill="#E6E6E6"/>
<path d="M197.684 92.0985C199.175 92.0985 200.384 91.1942 200.384 90.0786C200.384 88.963 199.175 88.0586 197.684 88.0586C196.193 88.0586 194.984 88.963 194.984 90.0786C194.984 91.1942 196.193 92.0985 197.684 92.0985Z" fill="#E6E6E6"/>
<path d="M74.6996 102.454C76.1905 102.454 77.3992 101.55 77.3992 100.434C77.3992 99.3184 76.1905 98.4141 74.6996 98.4141C73.2086 98.4141 72 99.3184 72 100.434C72 101.55 73.2086 102.454 74.6996 102.454Z" fill="#E6E6E6"/>
<path d="M88.3637 102.454C89.8546 102.454 91.0632 101.55 91.0632 100.434C91.0632 99.3184 89.8546 98.4141 88.3637 98.4141C86.8727 98.4141 85.6641 99.3184 85.6641 100.434C85.6641 101.55 86.8727 102.454 88.3637 102.454Z" fill="#00BFA6"/>
<path d="M102.028 102.454C103.519 102.454 104.727 101.55 104.727 100.434C104.727 99.3184 103.519 98.4141 102.028 98.4141C100.537 98.4141 99.3281 99.3184 99.3281 100.434C99.3281 101.55 100.537 102.454 102.028 102.454Z" fill="#E6E6E6"/>
<path d="M115.692 102.454C117.183 102.454 118.391 101.55 118.391 100.434C118.391 99.3184 117.183 98.4141 115.692 98.4141C114.201 98.4141 112.992 99.3184 112.992 100.434C112.992 101.55 114.201 102.454 115.692 102.454Z" fill="#E6E6E6"/>
<path d="M129.364 102.454C130.855 102.454 132.063 101.55 132.063 100.434C132.063 99.3184 130.855 98.4141 129.364 98.4141C127.873 98.4141 126.664 99.3184 126.664 100.434C126.664 101.55 127.873 102.454 129.364 102.454Z" fill="#E6E6E6"/>
<path d="M143.028 102.454C144.519 102.454 145.727 101.55 145.727 100.434C145.727 99.3184 144.519 98.4141 143.028 98.4141C141.537 98.4141 140.328 99.3184 140.328 100.434C140.328 101.55 141.537 102.454 143.028 102.454Z" fill="#E6E6E6"/>
<path d="M156.692 102.454C158.183 102.454 159.391 101.55 159.391 100.434C159.391 99.3184 158.183 98.4141 156.692 98.4141C155.201 98.4141 153.992 99.3184 153.992 100.434C153.992 101.55 155.201 102.454 156.692 102.454Z" fill="#E6E6E6"/>
<path d="M170.356 102.454C171.847 102.454 173.055 101.55 173.055 100.434C173.055 99.3184 171.847 98.4141 170.356 98.4141C168.865 98.4141 167.656 99.3184 167.656 100.434C167.656 101.55 168.865 102.454 170.356 102.454Z" fill="#E6E6E6"/>
<path d="M184.02 102.454C185.511 102.454 186.719 101.55 186.719 100.434C186.719 99.3184 185.511 98.4141 184.02 98.4141C182.529 98.4141 181.32 99.3184 181.32 100.434C181.32 101.55 182.529 102.454 184.02 102.454Z" fill="#E6E6E6"/>
<path d="M197.684 102.454C199.175 102.454 200.384 101.55 200.384 100.434C200.384 99.3184 199.175 98.4141 197.684 98.4141C196.193 98.4141 194.984 99.3184 194.984 100.434C194.984 101.55 196.193 102.454 197.684 102.454Z" fill="#E6E6E6"/>
<path d="M74.6996 112.806C76.1905 112.806 77.3992 111.901 77.3992 110.786C77.3992 109.67 76.1905 108.766 74.6996 108.766C73.2086 108.766 72 109.67 72 110.786C72 111.901 73.2086 112.806 74.6996 112.806Z" fill="#E6E6E6"/>
<path d="M88.3637 112.806C89.8546 112.806 91.0632 111.901 91.0632 110.786C91.0632 109.67 89.8546 108.766 88.3637 108.766C86.8727 108.766 85.6641 109.67 85.6641 110.786C85.6641 111.901 86.8727 112.806 88.3637 112.806Z" fill="#E6E6E6"/>
<path d="M102.028 112.806C103.519 112.806 104.727 111.901 104.727 110.786C104.727 109.67 103.519 108.766 102.028 108.766C100.537 108.766 99.3281 109.67 99.3281 110.786C99.3281 111.901 100.537 112.806 102.028 112.806Z" fill="#E6E6E6"/>
<path d="M115.692 112.806C117.183 112.806 118.391 111.901 118.391 110.786C118.391 109.67 117.183 108.766 115.692 108.766C114.201 108.766 112.992 109.67 112.992 110.786C112.992 111.901 114.201 112.806 115.692 112.806Z" fill="#E6E6E6"/>
<path d="M129.364 112.806C130.855 112.806 132.063 111.901 132.063 110.786C132.063 109.67 130.855 108.766 129.364 108.766C127.873 108.766 126.664 109.67 126.664 110.786C126.664 111.901 127.873 112.806 129.364 112.806Z" fill="#E6E6E6"/>
<path d="M143.028 112.806C144.519 112.806 145.727 111.901 145.727 110.786C145.727 109.67 144.519 108.766 143.028 108.766C141.537 108.766 140.328 109.67 140.328 110.786C140.328 111.901 141.537 112.806 143.028 112.806Z" fill="#E6E6E6"/>
<path d="M156.692 112.806C158.183 112.806 159.391 111.901 159.391 110.786C159.391 109.67 158.183 108.766 156.692 108.766C155.201 108.766 153.992 109.67 153.992 110.786C153.992 111.901 155.201 112.806 156.692 112.806Z" fill="#E6E6E6"/>
<path d="M170.356 112.806C171.847 112.806 173.055 111.901 173.055 110.786C173.055 109.67 171.847 108.766 170.356 108.766C168.865 108.766 167.656 109.67 167.656 110.786C167.656 111.901 168.865 112.806 170.356 112.806Z" fill="#E6E6E6"/>
<path d="M184.02 112.806C185.511 112.806 186.719 111.901 186.719 110.786C186.719 109.67 185.511 108.766 184.02 108.766C182.529 108.766 181.32 109.67 181.32 110.786C181.32 111.901 182.529 112.806 184.02 112.806Z" fill="#E6E6E6"/>
<path d="M197.684 112.806C199.175 112.806 200.384 111.901 200.384 110.786C200.384 109.67 199.175 108.766 197.684 108.766C196.193 108.766 194.984 109.67 194.984 110.786C194.984 111.901 196.193 112.806 197.684 112.806Z" fill="#E6E6E6"/>
<path d="M74.6996 123.161C76.1905 123.161 77.3992 122.257 77.3992 121.141C77.3992 120.025 76.1905 119.121 74.6996 119.121C73.2086 119.121 72 120.025 72 121.141C72 122.257 73.2086 123.161 74.6996 123.161Z" fill="#E6E6E6"/>
<path d="M88.3637 123.161C89.8546 123.161 91.0632 122.257 91.0632 121.141C91.0632 120.025 89.8546 119.121 88.3637 119.121C86.8727 119.121 85.6641 120.025 85.6641 121.141C85.6641 122.257 86.8727 123.161 88.3637 123.161Z" fill="#E6E6E6"/>
<path d="M102.028 123.161C103.519 123.161 104.727 122.257 104.727 121.141C104.727 120.025 103.519 119.121 102.028 119.121C100.537 119.121 99.3281 120.025 99.3281 121.141C99.3281 122.257 100.537 123.161 102.028 123.161Z" fill="#00BFA6"/>
<path d="M115.692 123.161C117.183 123.161 118.391 122.257 118.391 121.141C118.391 120.025 117.183 119.121 115.692 119.121C114.201 119.121 112.992 120.025 112.992 121.141C112.992 122.257 114.201 123.161 115.692 123.161Z" fill="#E6E6E6"/>
<path d="M129.364 123.161C130.855 123.161 132.063 122.257 132.063 121.141C132.063 120.025 130.855 119.121 129.364 119.121C127.873 119.121 126.664 120.025 126.664 121.141C126.664 122.257 127.873 123.161 129.364 123.161Z" fill="#E6E6E6"/>
<path d="M143.028 123.161C144.519 123.161 145.727 122.257 145.727 121.141C145.727 120.025 144.519 119.121 143.028 119.121C141.537 119.121 140.328 120.025 140.328 121.141C140.328 122.257 141.537 123.161 143.028 123.161Z" fill="#E6E6E6"/>
<path d="M156.692 123.161C158.183 123.161 159.391 122.257 159.391 121.141C159.391 120.025 158.183 119.121 156.692 119.121C155.201 119.121 153.992 120.025 153.992 121.141C153.992 122.257 155.201 123.161 156.692 123.161Z" fill="#E6E6E6"/>
<path d="M170.356 123.161C171.847 123.161 173.055 122.257 173.055 121.141C173.055 120.025 171.847 119.121 170.356 119.121C168.865 119.121 167.656 120.025 167.656 121.141C167.656 122.257 168.865 123.161 170.356 123.161Z" fill="#E6E6E6"/>
<path d="M184.02 123.161C185.511 123.161 186.719 122.257 186.719 121.141C186.719 120.025 185.511 119.121 184.02 119.121C182.529 119.121 181.32 120.025 181.32 121.141C181.32 122.257 182.529 123.161 184.02 123.161Z" fill="#E6E6E6"/>
<path d="M197.684 123.161C199.175 123.161 200.384 122.257 200.384 121.141C200.384 120.025 199.175 119.121 197.684 119.121C196.193 119.121 194.984 120.025 194.984 121.141C194.984 122.257 196.193 123.161 197.684 123.161Z" fill="#E6E6E6"/>
<path d="M74.6996 133.513C76.1905 133.513 77.3992 132.608 77.3992 131.493C77.3992 130.377 76.1905 129.473 74.6996 129.473C73.2086 129.473 72 130.377 72 131.493C72 132.608 73.2086 133.513 74.6996 133.513Z" fill="#E6E6E6"/>
<path d="M88.3637 133.513C89.8546 133.513 91.0632 132.608 91.0632 131.493C91.0632 130.377 89.8546 129.473 88.3637 129.473C86.8727 129.473 85.6641 130.377 85.6641 131.493C85.6641 132.608 86.8727 133.513 88.3637 133.513Z" fill="#E6E6E6"/>
<path d="M102.028 133.513C103.519 133.513 104.727 132.608 104.727 131.493C104.727 130.377 103.519 129.473 102.028 129.473C100.537 129.473 99.3281 130.377 99.3281 131.493C99.3281 132.608 100.537 133.513 102.028 133.513Z" fill="#E6E6E6"/>
<path d="M115.692 133.513C117.183 133.513 118.391 132.608 118.391 131.493C118.391 130.377 117.183 129.473 115.692 129.473C114.201 129.473 112.992 130.377 112.992 131.493C112.992 132.608 114.201 133.513 115.692 133.513Z" fill="#E6E6E6"/>
<path d="M129.364 133.513C130.855 133.513 132.063 132.608 132.063 131.493C132.063 130.377 130.855 129.473 129.364 129.473C127.873 129.473 126.664 130.377 126.664 131.493C126.664 132.608 127.873 133.513 129.364 133.513Z" fill="#E6E6E6"/>
<path d="M143.028 133.513C144.519 133.513 145.727 132.608 145.727 131.493C145.727 130.377 144.519 129.473 143.028 129.473C141.537 129.473 140.328 130.377 140.328 131.493C140.328 132.608 141.537 133.513 143.028 133.513Z" fill="#E6E6E6"/>
<path d="M156.692 133.513C158.183 133.513 159.391 132.608 159.391 131.493C159.391 130.377 158.183 129.473 156.692 129.473C155.201 129.473 153.992 130.377 153.992 131.493C153.992 132.608 155.201 133.513 156.692 133.513Z" fill="#E6E6E6"/>
<path d="M170.356 133.513C171.847 133.513 173.055 132.608 173.055 131.493C173.055 130.377 171.847 129.473 170.356 129.473C168.865 129.473 167.656 130.377 167.656 131.493C167.656 132.608 168.865 133.513 170.356 133.513Z" fill="#E6E6E6"/>
<path d="M184.02 133.513C185.511 133.513 186.719 132.608 186.719 131.493C186.719 130.377 185.511 129.473 184.02 129.473C182.529 129.473 181.32 130.377 181.32 131.493C181.32 132.608 182.529 133.513 184.02 133.513Z" fill="#E6E6E6"/>
<path d="M197.684 133.513C199.175 133.513 200.384 132.608 200.384 131.493C200.384 130.377 199.175 129.473 197.684 129.473C196.193 129.473 194.984 130.377 194.984 131.493C194.984 132.608 196.193 133.513 197.684 133.513Z" fill="#E6E6E6"/>
<path d="M74.6996 143.868C76.1905 143.868 77.3992 142.964 77.3992 141.848C77.3992 140.733 76.1905 139.828 74.6996 139.828C73.2086 139.828 72 140.733 72 141.848C72 142.964 73.2086 143.868 74.6996 143.868Z" fill="#E6E6E6"/>
<path d="M88.3637 143.868C89.8546 143.868 91.0632 142.964 91.0632 141.848C91.0632 140.733 89.8546 139.828 88.3637 139.828C86.8727 139.828 85.6641 140.733 85.6641 141.848C85.6641 142.964 86.8727 143.868 88.3637 143.868Z" fill="#E6E6E6"/>
<path d="M102.028 143.868C103.519 143.868 104.727 142.964 104.727 141.848C104.727 140.733 103.519 139.828 102.028 139.828C100.537 139.828 99.3281 140.733 99.3281 141.848C99.3281 142.964 100.537 143.868 102.028 143.868Z" fill="#E6E6E6"/>
<path d="M115.692 143.868C117.183 143.868 118.391 142.964 118.391 141.848C118.391 140.733 117.183 139.828 115.692 139.828C114.201 139.828 112.992 140.733 112.992 141.848C112.992 142.964 114.201 143.868 115.692 143.868Z" fill="#E6E6E6"/>
<path d="M129.364 143.868C130.855 143.868 132.063 142.964 132.063 141.848C132.063 140.733 130.855 139.828 129.364 139.828C127.873 139.828 126.664 140.733 126.664 141.848C126.664 142.964 127.873 143.868 129.364 143.868Z" fill="#E6E6E6"/>
<path d="M143.028 143.868C144.519 143.868 145.727 142.964 145.727 141.848C145.727 140.733 144.519 139.828 143.028 139.828C141.537 139.828 140.328 140.733 140.328 141.848C140.328 142.964 141.537 143.868 143.028 143.868Z" fill="#E6E6E6"/>
<path d="M156.692 143.868C158.183 143.868 159.391 142.964 159.391 141.848C159.391 140.733 158.183 139.828 156.692 139.828C155.201 139.828 153.992 140.733 153.992 141.848C153.992 142.964 155.201 143.868 156.692 143.868Z" fill="#E6E6E6"/>
<path d="M170.356 143.868C171.847 143.868 173.055 142.964 173.055 141.848C173.055 140.733 171.847 139.828 170.356 139.828C168.865 139.828 167.656 140.733 167.656 141.848C167.656 142.964 168.865 143.868 170.356 143.868Z" fill="#E6E6E6"/>
<path d="M184.02 143.868C185.511 143.868 186.719 142.964 186.719 141.848C186.719 140.733 185.511 139.828 184.02 139.828C182.529 139.828 181.32 140.733 181.32 141.848C181.32 142.964 182.529 143.868 184.02 143.868Z" fill="#E6E6E6"/>
<path d="M197.684 143.868C199.175 143.868 200.384 142.964 200.384 141.848C200.384 140.733 199.175 139.828 197.684 139.828C196.193 139.828 194.984 140.733 194.984 141.848C194.984 142.964 196.193 143.868 197.684 143.868Z" fill="#E6E6E6"/>
<path d="M74.6996 154.22C76.1905 154.22 77.3992 153.315 77.3992 152.2C77.3992 151.084 76.1905 150.18 74.6996 150.18C73.2086 150.18 72 151.084 72 152.2C72 153.315 73.2086 154.22 74.6996 154.22Z" fill="#E6E6E6"/>
<path d="M88.3637 154.22C89.8546 154.22 91.0632 153.315 91.0632 152.2C91.0632 151.084 89.8546 150.18 88.3637 150.18C86.8727 150.18 85.6641 151.084 85.6641 152.2C85.6641 153.315 86.8727 154.22 88.3637 154.22Z" fill="#E6E6E6"/>
<path d="M102.028 154.22C103.519 154.22 104.727 153.315 104.727 152.2C104.727 151.084 103.519 150.18 102.028 150.18C100.537 150.18 99.3281 151.084 99.3281 152.2C99.3281 153.315 100.537 154.22 102.028 154.22Z" fill="#E6E6E6"/>
<path d="M115.692 154.22C117.183 154.22 118.391 153.315 118.391 152.2C118.391 151.084 117.183 150.18 115.692 150.18C114.201 150.18 112.992 151.084 112.992 152.2C112.992 153.315 114.201 154.22 115.692 154.22Z" fill="#E6E6E6"/>
<path d="M129.364 154.22C130.855 154.22 132.063 153.315 132.063 152.2C132.063 151.084 130.855 150.18 129.364 150.18C127.873 150.18 126.664 151.084 126.664 152.2C126.664 153.315 127.873 154.22 129.364 154.22Z" fill="#E6E6E6"/>
<path d="M143.028 154.22C144.519 154.22 145.727 153.315 145.727 152.2C145.727 151.084 144.519 150.18 143.028 150.18C141.537 150.18 140.328 151.084 140.328 152.2C140.328 153.315 141.537 154.22 143.028 154.22Z" fill="#E6E6E6"/>
<path d="M156.692 154.22C158.183 154.22 159.391 153.315 159.391 152.2C159.391 151.084 158.183 150.18 156.692 150.18C155.201 150.18 153.992 151.084 153.992 152.2C153.992 153.315 155.201 154.22 156.692 154.22Z" fill="#E6E6E6"/>
<path d="M170.356 154.22C171.847 154.22 173.055 153.315 173.055 152.2C173.055 151.084 171.847 150.18 170.356 150.18C168.865 150.18 167.656 151.084 167.656 152.2C167.656 153.315 168.865 154.22 170.356 154.22Z" fill="#E6E6E6"/>
<path d="M184.02 154.22C185.511 154.22 186.719 153.315 186.719 152.2C186.719 151.084 185.511 150.18 184.02 150.18C182.529 150.18 181.32 151.084 181.32 152.2C181.32 153.315 182.529 154.22 184.02 154.22Z" fill="#E6E6E6"/>
<path d="M197.684 154.22C199.175 154.22 200.384 153.315 200.384 152.2C200.384 151.084 199.175 150.18 197.684 150.18C196.193 150.18 194.984 151.084 194.984 152.2C194.984 153.315 196.193 154.22 197.684 154.22Z" fill="#E6E6E6"/>
<path d="M230.649 75.0547C231.554 75.0547 232.422 75.3238 233.062 75.8027C233.702 76.2816 234.062 76.9312 234.062 77.6085V179.761C234.062 180.096 233.974 180.428 233.802 180.738C233.631 181.048 233.379 181.33 233.062 181.567C232.745 181.804 232.369 181.992 231.955 182.12C231.541 182.249 231.097 182.315 230.649 182.315H132.694C132.246 182.315 131.802 182.249 131.388 182.12C130.974 181.992 130.598 181.804 130.281 181.567C129.964 181.33 129.713 181.048 129.541 180.738C129.37 180.428 129.281 180.096 129.281 179.761V77.6085C129.281 76.9312 129.641 76.2816 130.281 75.8027C130.921 75.3237 131.789 75.0547 132.694 75.0547L230.649 75.0547Z" fill="#E6E6E6"/>
<path d="M133.094 179.46H230.254V77.9023H133.094V179.46Z" fill="white"/>
<path d="M208.632 93.9727C208.722 93.9727 208.811 93.9859 208.893 94.0115C208.976 94.0372 209.051 94.0748 209.115 94.1223C209.178 94.1697 209.229 94.226 209.263 94.288C209.297 94.3499 209.315 94.4163 209.315 94.4834V95.5049C209.315 95.6404 209.243 95.7703 209.115 95.8661C208.987 95.9619 208.813 96.0157 208.632 96.0157H154.706C154.616 96.0157 154.528 96.0025 154.445 95.9768C154.362 95.9512 154.287 95.9135 154.223 95.8661C154.16 95.8187 154.11 95.7624 154.075 95.7004C154.041 95.6384 154.023 95.572 154.023 95.5049V94.4834C154.023 94.4163 154.041 94.3499 154.075 94.288C154.11 94.226 154.16 94.1697 154.223 94.1223C154.287 94.0748 154.362 94.0372 154.445 94.0115C154.528 93.9859 154.616 93.9727 154.706 93.9727H208.632Z" fill="#E6E6E6"/>
<path d="M208.632 98.8242C208.813 98.8242 208.987 98.878 209.115 98.9738C209.243 99.0696 209.315 99.1995 209.315 99.335V100.357C209.315 100.492 209.243 100.622 209.115 100.718C208.987 100.813 208.813 100.867 208.632 100.867H154.706C154.616 100.867 154.528 100.854 154.445 100.828C154.362 100.803 154.287 100.765 154.223 100.718C154.16 100.67 154.11 100.614 154.075 100.552C154.041 100.49 154.023 100.424 154.023 100.357V99.335C154.023 99.2679 154.041 99.2015 154.075 99.1395C154.11 99.0776 154.16 99.0213 154.223 98.9738C154.287 98.9264 154.362 98.8888 154.445 98.8631C154.528 98.8374 154.616 98.8242 154.706 98.8242H208.632Z" fill="#E6E6E6"/>
<path d="M208.632 103.676C208.813 103.676 208.987 103.73 209.115 103.825C209.243 103.921 209.315 104.051 209.315 104.187V105.208C209.315 105.344 209.243 105.473 209.115 105.569C208.987 105.665 208.813 105.719 208.632 105.719H154.706C154.525 105.719 154.351 105.665 154.223 105.569C154.095 105.473 154.023 105.344 154.023 105.208V104.187C154.023 104.051 154.095 103.921 154.223 103.825C154.351 103.73 154.525 103.676 154.706 103.676H208.632Z" fill="#00BFA6"/>
<path d="M208.632 108.633C208.813 108.633 208.987 108.687 209.115 108.782C209.243 108.878 209.315 109.008 209.315 109.144V110.165C209.315 110.301 209.243 110.43 209.115 110.526C208.987 110.622 208.813 110.676 208.632 110.676H154.706C154.616 110.676 154.528 110.663 154.445 110.637C154.362 110.611 154.287 110.574 154.223 110.526C154.16 110.479 154.11 110.423 154.075 110.361C154.041 110.299 154.023 110.232 154.023 110.165V109.144C154.023 109.076 154.041 109.01 154.075 108.948C154.11 108.886 154.16 108.83 154.223 108.782C154.287 108.735 154.362 108.697 154.445 108.672C154.528 108.646 154.616 108.633 154.706 108.633H208.632Z" fill="#E6E6E6"/>
<path d="M208.632 113.488C208.813 113.488 208.987 113.542 209.115 113.638C209.243 113.734 209.315 113.864 209.315 113.999V115.021C209.315 115.088 209.297 115.154 209.263 115.216C209.229 115.278 209.178 115.334 209.115 115.382C209.051 115.429 208.976 115.467 208.893 115.492C208.811 115.518 208.722 115.531 208.632 115.531H154.706C154.616 115.531 154.528 115.518 154.445 115.492C154.362 115.467 154.287 115.429 154.223 115.382C154.16 115.334 154.11 115.278 154.075 115.216C154.041 115.154 154.023 115.088 154.023 115.021V113.999C154.023 113.932 154.041 113.866 154.075 113.804C154.11 113.742 154.16 113.685 154.223 113.638C154.287 113.59 154.362 113.553 154.445 113.527C154.528 113.501 154.616 113.488 154.706 113.488H208.632Z" fill="#E6E6E6"/>
<path d="M208.632 118.34C208.813 118.34 208.987 118.394 209.115 118.489C209.243 118.585 209.315 118.715 209.315 118.851V119.872C209.315 120.008 209.243 120.138 209.115 120.233C208.987 120.329 208.813 120.383 208.632 120.383H154.706C154.525 120.383 154.351 120.329 154.223 120.233C154.095 120.138 154.023 120.008 154.023 119.872V118.851C154.023 118.715 154.095 118.585 154.223 118.489C154.351 118.394 154.525 118.34 154.706 118.34H208.632Z" fill="#E6E6E6"/>
<path d="M155.05 134.66C154.84 134.66 154.639 134.723 154.49 134.834C154.342 134.945 154.258 135.096 154.258 135.253V162.8C154.258 162.957 154.342 163.108 154.49 163.219C154.639 163.33 154.84 163.393 155.05 163.393H208.196C208.406 163.393 208.607 163.33 208.756 163.219C208.904 163.108 208.988 162.957 208.988 162.8V135.253C208.988 135.096 208.905 134.945 208.756 134.834C208.607 134.723 208.406 134.66 208.196 134.66H155.05Z" fill="#00BFA6"/>
<path d="M181.847 104.786L181.289 104.675L193.464 70.4062H264.08V70.8382H193.907L181.847 104.786Z" fill="#3F3D56"/>
<path d="M269.855 75.1565C268.657 75.1565 267.486 74.8906 266.49 74.3925C265.493 73.8944 264.717 73.1864 264.258 72.358C263.8 71.5297 263.68 70.6182 263.913 69.7388C264.147 68.8594 264.724 68.0516 265.571 67.4176C266.419 66.7836 267.498 66.3519 268.674 66.177C269.849 66.002 271.067 66.0918 272.174 66.4349C273.281 66.778 274.227 67.3591 274.893 68.1046C275.559 68.8501 275.914 69.7266 275.914 70.6232C275.912 71.8251 275.273 72.9774 274.138 73.8272C273.002 74.6771 271.462 75.1552 269.855 75.1565ZM269.855 66.5216C268.771 66.5216 267.712 66.7621 266.81 67.2128C265.909 67.6635 265.206 68.3041 264.791 69.0536C264.376 69.803 264.268 70.6277 264.479 71.4234C264.691 72.219 265.213 72.9498 265.979 73.5234C266.746 74.0971 267.723 74.4877 268.786 74.646C269.849 74.8042 270.952 74.723 271.953 74.4126C272.955 74.1021 273.811 73.5764 274.413 72.9019C275.016 72.2274 275.337 71.4344 275.337 70.6232C275.335 69.5358 274.757 68.4932 273.73 67.7243C272.702 66.9554 271.309 66.5228 269.855 66.5216Z" fill="#3F3D56"/>
<path d="M269.855 72.3485C271.13 72.3485 272.163 71.5753 272.163 70.6215C272.163 69.6677 271.13 68.8945 269.855 68.8945C268.58 68.8945 267.547 69.6677 267.547 70.6215C267.547 71.5753 268.58 72.3485 269.855 72.3485Z" fill="#00BFA6"/>
<path d="M179.962 162.824L180.519 162.936L168.257 197.187L97.6406 197.085L97.6418 196.654L167.815 196.754L179.962 162.824Z" fill="#3F3D56"/>
<path d="M91.8827 192.328C93.081 192.33 94.2517 192.597 95.2467 193.097C96.2418 193.597 97.0165 194.306 97.4729 195.135C97.9294 195.964 98.047 196.875 97.811 197.754C97.575 198.633 96.9959 199.44 96.1469 200.073C95.298 200.706 94.2174 201.136 93.0417 201.309C91.866 201.483 90.648 201.391 89.5418 201.046C88.4357 200.702 87.4909 200.119 86.8271 199.373C86.1633 198.626 85.8102 197.749 85.8125 196.853C85.8174 195.651 86.4593 194.5 87.5973 193.651C88.7352 192.803 90.2764 192.327 91.8827 192.328ZM91.8606 200.963C92.9447 200.965 94.0052 200.726 94.9078 200.276C95.8103 199.827 96.5146 199.187 96.9314 198.438C97.3482 197.689 97.4589 196.865 97.2494 196.069C97.0399 195.273 96.5197 194.541 95.7546 193.967C94.9894 193.392 94.0137 193 92.9508 192.84C91.8879 192.68 90.7855 192.76 89.7831 193.069C88.7807 193.378 87.9232 193.903 87.3192 194.576C86.7151 195.25 86.3916 196.042 86.3895 196.854C86.3884 197.941 86.9638 198.984 87.9894 199.755C89.0151 200.525 90.4073 200.96 91.8606 200.963Z" fill="#3F3D56"/>
<path d="M91.8705 198.587C93.1452 198.587 94.1786 197.814 94.1786 196.86C94.1786 195.906 93.1452 195.133 91.8705 195.133C90.5958 195.133 89.5625 195.906 89.5625 196.86C89.5625 197.814 90.5958 198.587 91.8705 198.587Z" fill="#00BFA6"/>
<path d="M278.674 225.336H274.602L275.329 208.469L286.091 208.904L278.674 225.336Z" fill="#FFB8B8"/>
<path d="M279.231 235.031C278.002 235.45 276.972 232.05 275.935 232.812C273.035 234.945 270.039 235.409 266.168 234.478L266.078 234.467C265.845 234.41 265.629 234.319 265.444 234.199C265.259 234.078 265.108 233.931 265.001 233.766C264.894 233.601 264.833 233.421 264.822 233.237C264.811 233.054 264.85 232.871 264.936 232.699C265.039 232.493 265.207 232.309 265.426 232.163C265.645 232.017 265.909 231.913 266.193 231.859L269.278 231.282L274.12 224.91L279.064 224.66C280.166 225.711 280.935 226.936 281.313 228.242C281.692 229.548 281.669 230.901 281.248 232.199C280.799 233.569 280.107 234.731 279.231 235.031Z" fill="#2F2E41"/>
<path d="M317.363 223.106L313.576 224.227L305.961 208.342L316.183 205.785L317.363 223.106Z" fill="#FFB8B8"/>
<path d="M322.643 231.969C321.706 232.697 319.077 229.818 318.488 230.813C316.839 233.594 314.281 234.85 310.224 235.05L310.135 235.064C309.89 235.076 309.644 235.051 309.413 234.989C309.182 234.928 308.969 234.833 308.789 234.709C308.608 234.584 308.463 234.434 308.363 234.266C308.262 234.099 308.208 233.918 308.203 233.734C308.198 233.515 308.264 233.297 308.396 233.101C308.528 232.905 308.722 232.735 308.96 232.608L311.545 231.222L312.915 223.964L317.39 222.371C318.931 223.045 320.248 223.973 321.242 225.083C322.236 226.193 322.88 227.457 323.127 228.78C323.383 230.178 323.31 231.449 322.643 231.969Z" fill="#2F2E41"/>
<path d="M304.995 141.664L298.743 142.867C298.27 142.958 297.776 142.969 297.296 142.898C296.817 142.828 296.365 142.678 295.973 142.459C295.582 142.241 295.26 141.96 295.033 141.636C294.805 141.313 294.677 140.955 294.659 140.59C294.641 140.254 294.717 139.92 294.88 139.606C295.043 139.293 295.291 139.009 295.607 138.77C295.924 138.532 296.303 138.345 296.72 138.221C297.138 138.097 297.585 138.038 298.034 138.049L303.54 138.182L314.152 135.291L304.122 129.694L305.286 121.859L324.832 133.601C325.18 133.81 325.467 134.071 325.675 134.367C325.882 134.664 326.006 134.989 326.038 135.322C326.091 135.883 325.883 136.44 325.449 136.899C325.015 137.358 324.382 137.69 323.657 137.839C319.077 140.635 312.405 141.492 304.995 141.664Z" fill="#FFB8B8"/>
<path d="M290.743 112.281C296.365 112.281 300.923 108.871 300.923 104.664C300.923 100.457 296.365 97.0469 290.743 97.0469C285.12 97.0469 280.562 100.457 280.562 104.664C280.562 108.871 285.12 112.281 290.743 112.281Z" fill="#FFB8B8"/>
<path d="M303.253 115.113L289.582 119.248C289.984 116.014 288.851 112.778 286.383 110.107L297.726 108.148C297.579 110.741 299.452 113.058 303.253 115.113Z" fill="#FFB8B8"/>
<path d="M305.729 132.848C294.709 133.508 288.682 132.413 279.406 128.387L282.897 122.293C282.721 121.376 282.888 120.44 283.377 119.588C283.867 118.737 284.661 118.003 285.671 117.467L289.296 115.546L300.348 113.152L300.844 113.171C302.314 113.226 303.707 113.68 304.762 114.449C305.817 115.217 306.461 116.247 306.574 117.345C308.975 122.714 308.991 127.904 305.729 132.848Z" fill="#00BFA6"/>
<path d="M303.544 145.582L279.984 143.624L278.239 137.965C274.371 133.596 276.059 129.593 280.566 125.777C288.781 129.722 296.406 131.427 307.325 130.13C304.422 135.414 301.74 140.607 303.544 145.582Z" fill="#2F2E41"/>
<path d="M321.869 211.523L303.108 210.762L297 174.416L292.056 210.544L269.805 209.782C276.592 186.031 281.307 163.484 279.985 142.75L303.254 144.273C311.14 150.495 315.056 160.427 317.361 172.24C319.666 184.053 321.523 197.747 321.869 211.523Z" fill="#2F2E41"/>
<path d="M301.952 97.7287C303.885 97.7287 305.451 96.5564 305.451 95.1104C305.451 93.6644 303.885 92.4922 301.952 92.4922C300.02 92.4922 298.453 93.6644 298.453 95.1104C298.453 96.5564 300.02 97.7287 301.952 97.7287Z" fill="#2F2E41"/>
<path d="M298.35 94.4713C298.407 93.807 298.801 93.1841 299.451 92.7294C300.101 92.2748 300.958 92.0225 301.847 92.0241C301.775 92.0173 301.704 92.0089 301.63 92.0054C300.704 91.9608 299.792 92.1934 299.095 92.6519C298.398 93.1104 297.973 93.7573 297.913 94.4503C297.854 95.1432 298.165 95.8255 298.777 96.347C299.39 96.8685 300.255 97.1865 301.181 97.2311C301.255 97.2346 301.327 97.2332 301.4 97.2334C300.517 97.1497 299.71 96.8174 299.144 96.3043C298.577 95.7911 298.293 95.1356 298.35 94.4713Z" fill="#2F2E41"/>
<path d="M298.33 95.5878C295.209 93.6507 286.258 96.1126 285.681 97.4149C281.461 97.8453 278.266 99.6876 278.266 102.963C280.775 103.732 283.628 103.638 286.713 102.963C291.63 105.962 291.967 109.731 288.976 114.06L292.655 114.115L297.215 109.128L297.434 114.187L305.866 114.06V106.811C305.894 104.401 305.152 102.02 303.704 99.8675C302.39 97.9572 300.35 96.8418 298.33 95.5878Z" fill="#2F2E41"/>
<path d="M290.478 108.396C291.402 108.396 292.151 107.612 292.151 106.643C292.151 105.675 291.402 104.891 290.478 104.891C289.554 104.891 288.805 105.675 288.805 106.643C288.805 107.612 289.554 108.396 290.478 108.396Z" fill="#FFB8B8"/>
<path d="M277.678 173.867C277.834 173.867 277.983 173.914 278.093 173.996C278.204 174.078 278.266 174.19 278.266 174.307V191.893C278.266 192.01 278.204 192.122 278.093 192.204C277.983 192.287 277.834 192.333 277.678 192.333H260.814C260.658 192.333 260.509 192.287 260.399 192.204C260.288 192.122 260.227 192.01 260.227 191.893V174.307C260.227 174.19 260.288 174.078 260.399 173.996C260.509 173.914 260.658 173.867 260.814 173.867H277.678Z" fill="#00BFA6"/>
<path d="M279.984 167.344L280.554 174.73C280.591 175.205 280.485 175.681 280.246 176.122C280.006 176.563 279.638 176.959 279.169 177.281C278.699 177.602 278.14 177.841 277.531 177.981C276.923 178.121 276.28 178.157 275.651 178.088C273.143 177.812 273.086 175.977 273.701 174.137L276.043 167.126C281.789 151.71 283.34 136.579 283.05 121.821C283.038 121.321 283.162 120.824 283.413 120.36C283.665 119.897 284.04 119.476 284.516 119.124C284.991 118.771 285.556 118.495 286.178 118.311C286.8 118.127 287.466 118.039 288.135 118.052C288.787 118.066 289.429 118.177 290.024 118.377C290.619 118.578 291.155 118.865 291.602 119.221C292.048 119.577 292.396 119.996 292.625 120.453C292.854 120.91 292.96 121.397 292.937 121.885C292.124 139.214 288.746 154.95 279.984 167.344Z" fill="#FFB8B8"/>
</g>
</g>
<defs>
<clipPath id="clip0_284_1779">
<rect width="414.999" height="264.09" fill="white"/>
</clipPath>
<clipPath id="clip1_284_1779">
<rect width="310" height="188" fill="white" transform="translate(72 57)"/>
</clipPath>
</defs>
</svg>
