<svg width="425" height="407" viewBox="0 0 425 407" fill="none" xmlns="http://www.w3.org/2000/svg">
<g clip-path="url(#clip0_263_6236)">
<path d="M425 203.5C425.026 225.752 421.235 247.858 413.778 268.933C413.35 270.137 412.912 271.337 412.464 272.533C404.567 293.447 393.147 312.982 378.659 330.362C374.333 335.558 369.75 340.539 364.909 345.306C360.068 350.08 354.986 354.622 349.663 358.931C319.972 383.043 283.905 398.836 245.438 404.568H245.431C240.527 405.296 235.575 405.864 230.575 406.271C224.621 406.753 218.596 406.996 212.5 407C184.15 407.035 156.081 401.621 129.957 391.077C103.832 380.534 80.1835 365.076 60.4117 345.619C59.0223 344.258 57.6538 342.877 56.3063 341.477C52.949 337.991 49.7196 334.396 46.618 330.694C44.8765 328.61 43.177 326.495 41.5193 324.348C31.3086 311.137 22.8133 296.787 16.2205 281.613C13.4089 275.15 10.9536 268.55 8.86472 261.841C8.71383 261.365 8.56922 260.889 8.42462 260.414C8.11027 259.39 7.80641 258.361 7.51302 257.325C2.5118 239.785 -0.0149598 221.682 6.66259e-05 203.5C6.66259e-05 91.1114 95.141 0 212.5 0C329.859 0 425 91.1114 425 203.5Z" fill="url(#paint0_radial_263_6236)"/>
<path d="M90.1216 121.638C89.7926 123.551 89.9056 125.51 90.4526 127.376C90.9996 129.243 91.9673 130.972 93.2875 132.441C94.6078 133.911 96.2485 135.086 98.094 135.882C99.9395 136.679 101.945 137.079 103.969 137.053L137.89 231.574L159.534 217.329L117.752 122.661C117.481 119.407 115.974 116.361 113.515 114.101C111.056 111.841 107.817 110.523 104.411 110.397C101.005 110.271 97.6695 111.345 95.0359 113.417C92.4022 115.489 90.6537 118.414 90.1216 121.638Z" fill="#A0616A"/>
<path d="M267.167 153.618C252.103 170.031 214.96 198.954 184.361 218.871C177.747 223.175 171.435 227.053 165.72 230.298C161.86 232.489 158.27 234.386 155.039 235.933C152.87 236.968 150.501 237.563 148.081 237.68C145.661 237.797 143.242 237.435 140.975 236.615C138.708 235.796 136.642 234.537 134.907 232.917C133.171 231.298 131.804 229.352 130.89 227.203L109.703 178.116L117.034 173.462L135.109 161.981L139.214 159.38L156.164 198.039L174.038 184.3L185.134 175.768L235.719 136.893L240.083 135.652L250.261 145.165L257.46 151.896L264.231 153.022C265.243 153.191 266.224 153.389 267.167 153.618Z" fill="#00BFA6"/>
<path d="M402.314 288.489C403.364 289.766 404.452 291.036 405.539 292.312C401.793 299.68 397.581 306.821 392.928 313.698C392.582 313.463 392.236 313.228 391.89 312.994C391.836 312.965 391.783 312.933 391.733 312.897C390.444 312.018 389.149 311.151 387.86 310.272V310.266C386.797 306.801 386.203 303.22 386.094 299.61C386.758 299.464 387.36 299.125 387.817 298.641C388.275 298.156 388.565 297.549 388.65 296.9C388.734 296.252 388.608 295.595 388.289 295.018C387.971 294.44 387.474 293.971 386.867 293.673C386.697 293.39 386.578 293.185 386.408 292.896C386.414 292.824 386.427 292.746 386.433 292.674C387.42 285.154 397.429 282.529 402.314 288.489Z" fill="white"/>
<path d="M413.602 262.721C414.356 264.708 415.044 266.717 415.664 268.748C415.237 269.952 414.799 271.152 414.35 272.348C414.18 271.716 414.004 271.084 413.822 270.451C412.799 266.936 411.571 263.479 410.144 260.096C408.975 257.32 407.68 254.603 406.259 251.944C398.533 237.498 387.337 225.014 373.592 215.518C367.911 214.26 362.77 211.365 358.861 207.222C357.451 205.733 356.272 204.059 355.359 202.249C355.938 202.171 356.516 202.062 357.082 201.948C357.258 201.912 357.44 201.869 357.616 201.833L357.686 201.821C358.304 201.684 358.868 201.378 359.31 200.941C359.751 200.504 360.051 199.954 360.174 199.358C360.297 198.761 360.237 198.143 360.002 197.579C359.767 197.014 359.366 196.526 358.849 196.174C358.528 195.951 358.201 195.734 357.88 195.518C357.39 195.174 356.893 194.849 356.397 194.512C356.344 194.481 356.294 194.447 356.246 194.41C355.68 194.025 355.114 193.651 354.555 193.26C354.989 191.918 355.74 190.691 356.749 189.672C360.263 186.198 366.538 186.276 370.637 189.106C374.742 191.935 376.804 196.89 377.068 201.719C377.301 205.855 376.371 209.949 375.145 213.941C375.453 214.158 375.773 214.363 376.081 214.585C381.741 218.602 386.976 223.142 391.711 228.138C388.976 221.925 387.983 213.821 388.693 208.239C389.504 201.882 392.729 195.843 395.37 189.828C398.532 182.603 409.321 182.507 412.363 189.78C412.395 189.852 412.426 189.918 412.451 189.991C411.942 190.478 411.452 190.984 410.98 191.508C410.388 192.168 410.018 192.984 409.919 193.849C409.819 194.713 409.994 195.587 410.421 196.355C410.849 197.123 411.508 197.749 412.314 198.152C413.119 198.555 414.033 198.715 414.935 198.612L415.029 198.6C415.421 200.747 415.644 202.918 415.696 205.097C415.774 211.191 414.536 217.236 412.061 222.851C409.586 228.466 405.926 233.531 401.311 237.729C401.009 238 400.714 238.265 400.406 238.524C403.318 242.49 405.934 246.648 408.233 250.968C410.274 254.776 412.067 258.701 413.602 262.721Z" fill="white"/>
<path d="M292.463 206.239L290.565 331.115L137.188 326.9L161.682 275.122C161.506 273.46 172.432 261.798 172.369 260.07C172.181 255.007 176.129 250.317 176.77 245.019C178.078 234.091 170.59 192.825 174.042 184.3C175.512 180.493 177.396 176.844 179.662 173.414C181.624 170.572 183.636 168.658 185.56 167.965L191.23 155.31L196.26 148.085L235.723 136.893L240.087 135.652L250.265 145.165L257.464 151.896L264.235 153.022C265.247 153.191 266.228 153.389 267.171 153.618C271.713 154.621 275.946 156.63 279.531 159.482C291.351 169.097 292.727 187.184 292.463 206.239Z" fill="#00BFA6"/>
<path d="M380.548 330.176C376.223 335.372 371.64 340.353 366.799 345.119L350.214 345.131L261.02 345.228L244.963 345.246L234.288 345.258L218.407 345.27L206.192 345.282L183.628 345.306L170.318 345.324L142.291 345.348L128.912 345.366L91.8377 345.402L68.5507 345.426L62.3015 345.432C60.912 344.072 59.5436 342.691 58.1961 341.29C54.8388 337.804 51.6094 334.21 48.5078 330.507L61.4464 330.495L70.2608 330.489L90.6683 330.465L130.05 330.429L143.36 330.417L148.741 330.411H148.76L152.985 330.405L154.877 330.399L159.725 330.393H161.774L176.146 330.38L207.147 330.344L220.79 330.332L233.854 330.32L246.101 330.308L263.674 330.29L357.526 330.2L380.548 330.176Z" fill="#CCCCCC"/>
<path d="M168.344 142.674L168.309 142.677C166.496 142.839 164.689 142.304 163.287 141.19C161.886 140.076 161.003 138.475 160.835 136.738L157.259 100.192C156.612 93.6454 157.346 87.0407 159.418 80.7709C163.478 68.5341 172.313 58.2699 184.081 52.1175C190.158 48.949 196.841 46.9916 203.729 46.3632C231.907 43.7924 242.204 49.4125 259.611 90.5681C277.017 131.724 263.191 127.169 263.191 127.169C263.278 128.05 263.18 128.938 262.9 129.782C262.353 131.427 261.162 132.806 259.578 133.631C258.764 134.053 257.871 134.315 256.95 134.4C223.638 142.509 190.024 151.044 168.338 142.675L168.344 142.674Z" fill="#2F2E41"/>
<path d="M230.347 80.9895C234.529 86.9145 236.783 93.8934 236.826 101.045C236.868 108.196 234.696 115.199 230.585 121.169C226.474 127.139 220.608 131.809 213.727 134.588C206.846 137.367 199.26 138.131 191.926 136.784C187.071 135.907 182.446 134.116 178.319 131.515C174.192 128.915 170.645 125.555 167.883 121.632C163.711 115.709 161.462 108.736 161.422 101.591C161.382 94.4457 163.552 87.4493 167.659 81.4837C171.765 75.5181 177.624 70.8503 184.496 68.0689C191.369 65.2874 198.947 64.5169 206.276 65.8545C211.135 66.7261 215.765 68.5129 219.897 71.1112C224.029 73.7096 227.581 77.0677 230.347 80.9908L230.347 80.9895Z" fill="#9E616A"/>
<path d="M145.446 104.253C144.934 99.0752 145.515 93.8517 147.153 88.8931C147.533 76.763 151.208 65.7761 166.657 66.2373C171.433 63.7495 176.682 62.2069 182.093 61.7014L189.727 60.9795C189.813 60.9713 189.899 60.9634 189.984 60.9558C195.274 60.4843 200.608 61.0152 205.683 62.5181C210.758 64.0209 215.474 66.4663 219.562 69.7146C223.651 72.963 227.031 76.9506 229.509 81.4499C231.988 85.9491 233.518 90.8719 234.01 95.9371L234.081 96.6691L217.93 98.1813L210.978 83.9352L211.321 98.803L202.979 99.5871L199.473 92.3996L199.644 99.8959C187.258 110.343 168.476 110.89 145.525 104.986L145.446 104.253Z" fill="#2F2E41"/>
<path d="M197.109 138.931C196.972 140.136 197.19 141.352 197.739 142.444C198.016 143.003 198.373 143.522 198.8 143.986C199.165 144.381 199.578 144.733 200.03 145.036C201.368 145.928 202.994 146.334 204.617 146.182C204.718 146.172 204.819 146.16 204.919 146.146C205.02 146.133 205.121 146.117 205.221 146.099C205.322 146.082 205.423 146.062 205.523 146.039C205.622 146.016 205.723 145.992 205.823 145.965L211.46 144.453L217.778 127.583L219.226 142.386L244.86 135.551L238.715 72.7344L195.023 76.8571L196.222 77.9621C200.203 81.6731 203.038 86.364 204.415 91.5186C205.781 96.742 206.203 102.151 205.662 107.511C205.156 112.931 204.108 118.291 202.533 123.519C201.161 128.148 199.512 132.698 197.594 137.145C197.346 137.716 197.183 138.317 197.109 138.931Z" fill="#2F2E41"/>
<path d="M202.941 336.986C202.19 336.985 201.449 336.825 200.77 336.516L79.7333 339.473C78.8045 339.052 78.031 338.37 77.5149 337.519C76.9989 336.668 76.7646 335.687 76.8429 334.706C76.9212 333.725 77.3086 332.789 77.9537 332.023C78.5988 331.257 79.4715 330.696 80.4563 330.415L159.642 307.804C160.462 307.57 161.331 307.538 162.167 307.712L284.654 322.009C285.738 322.233 286.715 322.791 287.437 323.597C288.159 324.403 288.585 325.414 288.651 326.474C288.717 327.534 288.419 328.585 287.802 329.468C287.186 330.351 286.284 331.016 285.236 331.362L204.6 336.718C204.066 336.895 203.506 336.985 202.941 336.986Z" fill="#3F3D56"/>
<path d="M207.387 328.917C206.84 328.917 206.303 328.783 205.826 328.528L107.526 332.925C106.968 332.626 106.517 332.172 106.232 331.623C105.947 331.074 105.841 330.456 105.928 329.849C106.015 329.242 106.291 328.674 106.72 328.219C107.149 327.764 107.711 327.443 108.333 327.299L143.92 319.027C144.475 318.899 145.056 318.915 145.603 319.074L236.986 318.969C237.637 319.16 238.207 319.545 238.612 320.068C239.018 320.591 239.238 321.225 239.24 321.877C239.243 322.528 239.027 323.163 238.626 323.689C238.224 324.215 237.657 324.604 237.008 324.799L208.338 328.778C208.03 328.87 207.709 328.917 207.387 328.917Z" fill="#2F2E41"/>
<path d="M197.04 323.898C198.742 324.948 200.663 325.629 202.669 325.891C204.675 326.154 206.716 325.992 208.649 325.417C210.583 324.842 212.361 323.868 213.859 322.564C215.357 321.26 216.538 319.657 217.319 317.869L321.366 325.696L316.336 301.011L209.019 300.032C205.794 298.974 202.277 299.086 199.133 300.346C195.989 301.607 193.437 303.928 191.96 306.869C190.484 309.811 190.185 313.17 191.122 316.308C192.058 319.446 194.164 322.147 197.04 323.898Z" fill="#A0616A"/>
<path d="M258.496 163.136C258.496 163.136 274.213 151.095 293.074 172.769C305.794 187.387 330.33 275.75 332.365 312.367C332.493 314.684 332.121 317.002 331.271 319.174C330.42 321.347 329.11 323.328 327.423 324.993C325.736 326.659 323.708 327.972 321.466 328.852C319.224 329.731 316.816 330.158 314.394 330.104L258.936 329.18L252.734 295.795L296.519 296.292L258.496 163.136Z" fill="#00BFA6"/>
<path d="M196.21 336.998C194.308 336.996 192.425 336.631 190.672 335.924L78.4853 338.375C75.5246 337.193 73.0668 335.088 71.5094 332.403C69.952 329.717 69.386 326.607 69.903 323.575L65.7344 229.223C66.2872 225.853 68.1395 222.804 70.9254 220.678C73.7114 218.552 77.2285 217.504 80.7823 217.74L184.934 221.877C186.934 222.002 188.883 222.529 190.656 223.422C192.429 224.316 193.986 225.556 195.227 227.063C196.467 228.57 197.363 230.309 197.856 232.169C198.349 234.029 198.428 235.967 198.088 237.858L210.291 325.621C209.717 328.801 207.991 331.685 205.415 333.766C202.84 335.847 199.58 336.991 196.21 336.998Z" fill="#3F3D56"/>
<path d="M111.017 56.0952L64.1977 55.9688C62.9427 55.9673 61.7383 56.4425 60.8485 57.2901C59.9587 58.1376 59.4562 59.2885 59.451 60.4903L59.2813 119.861C59.2786 121.061 59.7737 122.214 60.6579 123.065C61.542 123.916 62.7428 124.396 63.9965 124.4L89.968 124.472L110.822 124.527C112.077 124.529 113.281 124.054 114.17 123.206C115.059 122.358 115.56 121.207 115.562 120.005L115.575 116.495L115.738 60.6408C115.741 59.4387 115.245 58.2847 114.36 57.4324C113.474 56.5801 112.272 56.0991 111.017 56.0952Z" fill="#E6E6E6"/>
<path d="M107.717 59.6396L67.48 59.5313C66.305 59.5298 65.1774 59.9745 64.3442 60.7679C63.511 61.5613 63.0403 62.6386 63.0351 63.7638L62.9219 101.935C62.914 106.948 64.9827 111.759 68.674 115.313C72.3654 118.868 77.3782 120.875 82.6127 120.894L90.2577 120.912L107.541 120.961C108.716 120.963 109.844 120.519 110.678 119.725C111.511 118.931 111.981 117.854 111.986 116.728L111.998 112.887L112.136 63.8963C112.139 62.7708 111.675 61.6903 110.846 60.8922C110.018 60.0941 108.892 59.6436 107.717 59.6396Z" fill="white"/>
<path d="M103.2 85.7227H71.8283C71.581 85.7227 71.3361 85.7693 71.1077 85.8599C70.8792 85.9505 70.6717 86.0834 70.4968 86.2508C70.322 86.4182 70.1833 86.617 70.0886 86.8358C69.994 87.0546 69.9453 87.2891 69.9453 87.5259C69.9453 87.7627 69.994 87.9971 70.0886 88.2159C70.1833 88.4347 70.322 88.6335 70.4968 88.8009C70.6717 88.9684 70.8792 89.1012 71.1077 89.1918C71.3361 89.2824 71.581 89.3291 71.8283 89.3291H103.2C103.7 89.3291 104.179 89.1391 104.532 88.8009C104.885 88.4628 105.083 88.0041 105.083 87.5259C105.083 87.0476 104.885 86.589 104.532 86.2508C104.179 85.9126 103.7 85.7227 103.2 85.7227Z" fill="#00BFA6"/>
<path d="M78.7251 75.8359H71.8283C71.3289 75.8359 70.8499 76.0259 70.4968 76.3641C70.1437 76.7022 69.9453 77.1609 69.9453 77.6391C69.9453 78.1174 70.1437 78.576 70.4968 78.9142C70.8499 79.2524 71.3289 79.4423 71.8283 79.4423H78.7251C79.2245 79.4423 79.7034 79.2524 80.0565 78.9142C80.4097 78.576 80.608 78.1174 80.608 77.6391C80.608 77.1609 80.4097 76.7022 80.0565 76.3641C79.7034 76.0259 79.2245 75.8359 78.7251 75.8359Z" fill="#00BFA6"/>
<path d="M103.2 101.574H71.8283C71.3289 101.574 70.8499 101.764 70.4968 102.102C70.1437 102.441 69.9453 102.899 69.9453 103.377C69.9453 103.856 70.1437 104.314 70.4968 104.652C70.8499 104.991 71.3289 105.181 71.8283 105.181H103.2C103.7 105.181 104.179 104.991 104.532 104.652C104.885 104.314 105.083 103.856 105.083 103.377C105.083 102.899 104.885 102.441 104.532 102.102C104.179 101.764 103.7 101.574 103.2 101.574Z" fill="#00BFA6"/>
<path d="M103.197 93.6523H71.8251C71.3266 93.6523 70.8484 93.842 70.4959 94.1796C70.1434 94.5172 69.9453 94.9751 69.9453 95.4525C69.9453 95.93 70.1434 96.3879 70.4959 96.7255C70.8484 97.0631 71.3266 97.2527 71.8251 97.2527H103.197C103.696 97.2527 104.174 97.0631 104.526 96.7255C104.879 96.3879 105.077 95.93 105.077 95.4525C105.077 94.9751 104.879 94.5172 104.526 94.1796C104.174 93.842 103.696 93.6523 103.197 93.6523Z" fill="#00BFA6"/>
<path d="M97.0992 82.212C94.8963 82.212 92.7428 81.5864 90.9111 80.4143C89.0794 79.2423 87.6518 77.5764 86.8088 75.6274C85.9658 73.6783 85.7452 71.5336 86.175 69.4645C86.6047 67.3954 87.6656 65.4948 89.2233 64.0031C90.781 62.5113 92.7656 61.4954 94.9262 61.0839C97.0869 60.6723 99.3264 60.8835 101.362 61.6909C103.397 62.4982 105.136 63.8653 106.36 65.6194C107.584 67.3735 108.237 69.4358 108.237 71.5454C108.234 74.3734 107.06 77.0846 104.971 79.0843C102.883 81.0839 100.052 82.2088 97.0992 82.212ZM97.0992 61.6202C95.0494 61.6202 93.0455 62.2023 91.3412 63.2929C89.6368 64.3835 88.3083 65.9336 87.5239 67.7472C86.7394 69.5608 86.5342 71.5564 86.9341 73.4818C87.334 75.4071 88.3211 77.1756 89.7705 78.5637C91.22 79.9517 93.0667 80.8971 95.0772 81.28C97.0877 81.663 99.1716 81.4664 101.065 80.7152C102.959 79.964 104.578 78.6919 105.717 77.0596C106.856 75.4274 107.463 73.5085 107.463 71.5455C107.46 68.914 106.367 66.3912 104.424 64.5305C102.481 62.6698 99.847 61.6232 97.0992 61.6202Z" fill="#00BFA6"/>
<path d="M101.781 75.6769C101.012 71.873 99.4094 68.2685 97.0796 65.1008C97.027 65.0187 96.9533 64.9509 96.8656 64.9038C96.7778 64.8567 96.6789 64.832 96.5783 64.832C96.4777 64.832 96.3788 64.8567 96.2911 64.9038C96.2033 64.9509 96.1296 65.0187 96.077 65.1008C94.048 68.4995 92.751 72.2533 92.2628 76.1402C92.1726 76.8489 93.3344 76.8426 93.4239 76.1402C93.587 74.8806 93.8413 73.6333 94.185 72.4074C94.2295 72.399 94.2729 72.3863 94.3147 72.3694C95.8586 71.6271 97.6027 71.3551 99.3127 71.5899C99.3276 71.592 99.342 71.589 99.3568 71.5903C99.9215 73.0127 100.358 74.4788 100.662 75.9725C100.803 76.6743 101.922 76.3771 101.781 75.6769ZM94.6029 71.0438C95.1358 69.4606 95.8143 67.9257 96.6303 66.4572C97.494 67.7209 98.244 69.0526 98.8721 70.438C97.4197 70.3334 95.9612 70.5403 94.6029 71.0438Z" fill="#00BFA6"/>
</g>
<defs>
<radialGradient id="paint0_radial_263_6236" cx="0" cy="0" r="1" gradientUnits="userSpaceOnUse" gradientTransform="translate(212.5 203.5) rotate(109.124) scale(407.489 425.511)">
<stop stop-color="#F2F2F2"/>
<stop offset="1" stop-color="#C5DCFF"/>
</radialGradient>
<clipPath id="clip0_263_6236">
<rect width="425" height="407" fill="white"/>
</clipPath>
</defs>
</svg>
