<svg width="491" height="389" viewBox="0 0 491 389" fill="none" xmlns="http://www.w3.org/2000/svg">
<path d="M473.327 318.306H17.6729C7.92825 318.306 0 310.89 0 301.775V250.477H491V301.775C491 310.89 483.072 318.306 473.327 318.306Z" fill="#E6E6E6"/>
<path d="M304.479 309.727H188.281V387.362H304.479V309.727Z" fill="#E6E6E6"/>
<path d="M311.465 377.555H181.289V387.361H311.465V377.555Z" fill="#E6E6E6"/>
<path d="M490.563 272.134H0V11.3445C0 5.08927 5.44078 0 12.1281 0H478.435C485.122 0 490.563 5.08927 490.563 11.3445V272.134Z" fill="#3F3D56"/>
<path d="M478.762 11.8477H11.3516V257.83H478.762V11.8477Z" fill="white"/>
<path d="M101.878 158.463C105.455 155.698 109.88 155.184 111.761 157.314C113.642 159.443 112.266 163.411 108.687 166.176C107.274 167.299 105.593 168.09 103.786 168.481L88.4704 180.017L82.8359 173.179L98.533 162.532C99.2846 160.945 100.432 159.55 101.878 158.463Z" fill="#FFB6B6"/>
<path d="M13.3522 184.49C13.3444 183.979 13.3496 179.529 16.8719 176.716C20.918 173.485 26.6273 174.793 28.6298 175.252C33.2556 176.311 33.635 178.167 37.9791 180.075C46.1065 183.643 35.9232 181.816 40.7592 180.672C42.4332 180.276 66.5156 178.714 72.5101 175.263C84.1688 168.551 92.1126 164.48 92.1126 164.48L97.3056 174.196C97.3056 174.196 89.7965 183.962 79.228 191.198C68.3872 198.619 62.9668 202.33 54.7292 203.764C54.0198 203.888 36.5733 206.674 22.5215 196.854C19.3163 194.614 13.4437 190.51 13.3522 184.49Z" fill="#00BFA6"/>
<path d="M29.4654 159.785C39.4565 159.785 47.5558 152.209 47.5558 142.863C47.5558 133.517 39.4565 125.941 29.4654 125.941C19.4744 125.941 11.375 133.517 11.375 142.863C11.375 152.209 19.4744 159.785 29.4654 159.785Z" fill="#FFB6B6"/>
<path d="M171.139 256.546L152.508 238.707L142.891 248.091L156.771 265.195L170.539 266.668L171.139 256.546Z" fill="#FFB6B6"/>
<path d="M64.7596 223.095C65.8494 223.18 69.3123 223.829 72.6221 222.125C74.881 220.963 76.0395 219.234 76.4308 218.684C81.2851 211.865 99.9169 201.23 116.639 200.576C120.425 200.428 122.918 200.838 125.183 201.943C128.396 203.509 129.678 205.753 133.755 211.009C135.985 213.884 138.452 216.593 140.709 219.449C153.921 236.174 158.929 237.486 158.417 242.848C157.849 248.797 150.99 254.441 146.432 253.789C144.565 253.523 143.842 252.308 141.347 249.85C134.034 242.642 131.008 243.974 125.801 238.453C119.722 232.008 120.518 226.663 117.346 226.457C114.405 226.266 113.155 230.825 106.876 236.881C104.002 239.653 101.956 240.924 95.7227 244.969C71.4483 260.721 71.0608 261.828 66.162 263.085C64.0186 263.634 48.8062 267.536 43.3871 261.327C34.9068 251.612 54.9408 222.332 64.7596 223.095Z" fill="#2F2E41"/>
<path d="M165.447 260.578C166.817 260.002 168.42 259.33 168.935 257.782C169.284 256.735 169.083 255.444 168.362 254.552C167.53 253.522 166.299 253.387 166.349 253.204C166.425 252.927 169.336 253.036 172.532 254.092C173.135 254.292 175.868 255.226 179.343 257.764C182.128 259.797 181.753 260.205 183.499 261.377C188.859 264.977 193.887 262.14 196.787 265.515C197.907 266.818 198.384 268.668 197.913 270.163C196.967 273.166 192.366 274.2 189.852 274.733C183.797 276.018 179.213 274.969 174.428 274.215C158.152 271.65 149.007 273.986 147.783 270.459C147.552 269.792 147.928 269.848 149.183 264.95C150.421 260.115 150.381 258.787 151.436 258.4C153.024 257.817 154.09 260.468 158.09 261.375C161.634 262.179 164.559 260.951 165.447 260.578Z" fill="#2F2E41"/>
<path d="M138.025 314.906L133.318 290.359L119.727 293.072L120.944 314.516L131.452 322.967L138.025 314.906Z" fill="#FFB6B6"/>
<path d="M70.0807 231.347C70.9315 231.99 73.4073 234.345 77.1687 234.675C79.7357 234.899 81.732 234.077 82.3857 233.828C90.4964 230.735 112.297 231.722 126.527 239.964C129.749 241.83 131.565 243.479 132.776 245.583C134.494 248.566 134.208 251.096 134.426 257.587C134.545 261.137 134.961 264.674 135.113 268.223C136.006 289.002 139.362 292.719 135.72 296.886C131.678 301.511 122.615 302.578 119.234 299.644C117.849 298.443 117.98 297.058 117.392 293.714C115.667 283.909 112.364 283.421 111.369 276.118C110.209 267.591 114.075 263.587 111.575 261.751C109.256 260.047 105.485 263.163 96.6532 264.876C92.612 265.66 90.1557 265.638 82.5695 265.711C53.0271 265.994 52.042 266.707 47.2342 265.173C45.1308 264.502 30.2012 259.74 29.4441 251.756C28.2594 239.263 62.4142 225.558 70.0807 231.347Z" fill="#2F2E41"/>
<path d="M130.89 315.246C132.369 315.49 134.099 315.775 135.455 314.765C136.372 314.082 136.981 312.908 136.92 311.791C136.849 310.502 135.912 309.743 136.063 309.619C136.292 309.429 138.636 311.048 140.646 313.601C141.025 314.083 142.726 316.291 144.078 320.217C145.161 323.362 144.606 323.502 145.347 325.39C147.622 331.183 153.485 331.477 153.858 335.793C154.003 337.459 153.287 339.24 152 340.23C149.414 342.218 144.987 340.657 142.586 339.778C136.804 337.661 133.641 334.385 130.134 331.247C118.207 320.576 109.237 317.706 110.342 314.144C110.551 313.47 110.828 313.715 114.808 310.321C118.735 306.971 119.498 305.851 120.604 306.084C122.267 306.436 121.558 309.19 124.323 312.042C126.774 314.569 129.932 315.089 130.89 315.246Z" fill="#2F2E41"/>
<path d="M31.9267 146.097C32.631 143.74 31.7464 142.882 32.648 141.824C32.648 141.824 33.0109 141.398 36.2545 140.25C35.2975 135.056 36.014 134.177 36.0141 134.177C36.8399 133.165 38.4943 132.921 39.6205 133.053C42.0025 133.333 42.4241 135.347 43.9483 135.302C46.0537 135.239 48.5789 131.297 47.7951 127.88C47.1558 125.093 44.3989 123.023 43.7078 123.382C43.0226 123.739 40.556 122.168 39.6205 122.483C38.9817 122.698 35.9746 122.412 35.2928 122.708C34.5482 123.031 32.4157 125.043 32.2119 124.789C30.7951 123.028 30.8253 122.413 30.0033 122.033C28.5468 121.36 26.9633 122.604 24.233 123.832C18.6152 126.36 16.9702 124.852 14.3753 126.981C13.0645 128.056 12.3616 130.111 11.0093 134.177C9.11812 139.864 8.17253 142.707 9.08588 145.422C10.0173 148.191 11.389 147.588 13.4136 151.494C15.6673 155.843 14.8906 158.37 17.0201 159.366C18.6659 160.135 21.3109 159.646 22.3095 158.241C24.0193 155.837 19.6001 152.585 21.1074 148.796C22.0327 146.47 24.8869 144.706 26.6373 145.197C28.6164 145.753 28.7622 149.072 30.0033 149.021C31.0661 148.977 31.804 146.508 31.9267 146.097Z" fill="#2F2E41"/>
<path d="M18.2247 162.288C21.9267 158.406 37.0056 162.424 38.4209 168.585C39.003 171.119 36.854 172.189 37.4592 175.107C38.3443 179.375 43.3562 179.084 47.0764 183.428C52.3579 189.596 46.9168 195.625 52.8467 205.918C54.1138 208.118 55.1818 209.971 57.4149 211.765C62.5391 215.882 67.308 214.47 69.9172 218.287C71.8684 221.142 71.0667 224.66 70.8789 225.484C70.1089 228.863 68.0218 229.687 66.5512 232.456C64.1044 237.063 66.8748 240.445 67.0321 245.95C67.2289 252.837 63.3162 262.383 55.4914 265.516C46.7006 269.035 36.0981 263.206 30.9675 257.419C27.9061 253.966 27.0174 250.781 25.6781 246.849C19.6923 229.278 16.3106 230.867 11.7331 216.938C6.5002 201.015 5.47148 182.36 11.7331 176.457C12.5631 175.674 14.8471 173.866 16.3013 170.609C18.2581 166.227 16.5676 164.026 18.2247 162.288Z" fill="#00BFA6"/>
<path d="M72.9205 252.668C75.7906 256.08 76.2355 260.23 73.9144 261.938C71.5933 263.646 67.3859 262.266 64.5152 258.853C63.3485 257.504 62.544 255.914 62.169 254.215L50.2031 239.618L56.3861 235.207L68.6518 249.444C70.3296 250.184 71.7933 251.29 72.9205 252.668Z" fill="#FFB6B6"/>
<path d="M29.0999 177.085C29.6323 176.974 34.291 176.07 37.9536 178.722C42.1609 181.768 41.9571 187.263 41.8856 189.19C41.7205 193.642 39.8553 194.368 38.7457 198.735C36.6697 206.906 40.6232 214.499 42.8074 218.694C43.5635 220.146 45.9925 224.589 50.8276 229.374C60.2312 238.68 68.6217 243.577 68.6217 243.577L59.6079 251.072C59.6079 251.072 45.2501 246.978 35.5213 238.777C25.5418 230.364 10.195 200.599 7.01357 193.348C6.73959 192.724 10.6205 202.875 18.0306 188.004C19.7208 184.612 22.8177 178.397 29.0999 177.085Z" fill="#00BFA6"/>
<path d="M259.801 170.105L249.039 165.336C253.453 171.099 257.257 180.098 259.293 187.259C262.741 180.589 268.299 172.426 273.8 167.551L262.426 170.288C269.435 138.157 295.797 115.09 325.985 115.09L326.413 113.93C294.88 113.93 266.958 136.677 259.801 170.105Z" fill="#3F3D56"/>
<path d="M309.332 219.063H241.332C238.448 219.063 236.102 216.868 236.102 214.17C236.102 211.472 238.448 209.277 241.332 209.277H309.332C312.216 209.277 314.563 211.472 314.563 214.17C314.563 216.868 312.216 219.063 309.332 219.063Z" fill="#00BFA6"/>
<path d="M399.817 219.063H331.817C328.932 219.063 326.586 216.868 326.586 214.17C326.586 211.472 328.932 209.277 331.817 209.277H399.817C402.701 209.277 405.047 211.472 405.047 214.17C405.047 216.868 402.701 219.063 399.817 219.063Z" fill="#E6E6E6"/>
<path d="M359.559 85.9582H293.46C291.793 85.9582 290.438 84.6899 290.438 83.1312C290.438 81.5724 291.793 80.3047 293.46 80.3047H359.559C361.225 80.3047 362.581 81.5724 362.581 83.1312C362.581 84.6899 361.225 85.9582 359.559 85.9582Z" fill="#3F3D56"/>
<path d="M395.029 116.118H257.991C256.325 116.118 254.969 114.85 254.969 113.291C254.969 111.733 256.325 110.465 257.991 110.465H395.029C396.695 110.465 398.051 111.733 398.051 113.291C398.051 114.85 396.695 116.118 395.029 116.118Z" fill="#3F3D56"/>
<path d="M30 388C30 388.555 30.4354 389 30.9776 389H460.022C460.565 389 461 388.555 461 388C461 387.445 460.565 387 460.022 387H30.9776C30.4354 387 30 387.445 30 388Z" fill="#3F3D56"/>
<path d="M135.596 171C135.48 171 135.363 170.996 135.246 170.989C128.361 170.576 104.8 167.463 90.735 144.75C89.5759 142.88 89.8043 140.503 91.3029 138.835L117.351 109.85C118.417 108.665 120.062 107.982 121.729 108C122.88 108.026 125.608 108.298 126.137 110.261C129.266 121.861 142.48 135.5 158.371 137.308C159.981 137.491 161.274 138.833 161.829 140.898C162.262 142.505 161.862 144.162 160.731 145.444L139.864 169.109C138.804 170.311 137.249 171 135.596 171ZM121.629 109.166C120.356 109.166 119.118 109.699 118.308 110.599L92.2601 139.584C91.0976 140.878 90.9195 142.719 91.8161 144.166C105.571 166.378 128.597 169.421 135.327 169.825C136.701 169.911 138.02 169.364 138.9 168.367L159.767 144.702C160.643 143.71 160.953 142.427 160.618 141.182C160.291 139.964 159.488 138.61 158.219 138.466C141.803 136.599 128.156 122.52 124.926 110.546C124.664 109.576 123.089 109.198 121.703 109.167C121.678 109.166 121.653 109.166 121.629 109.166Z" fill="#3F3D56"/>
<path d="M106.356 145.613L124.6 128.216C125.847 127.026 123.893 125.196 122.644 126.387L104.4 143.784C103.153 144.974 105.107 146.804 106.356 145.613Z" fill="#E6E6E6"/>
<path d="M117.458 150.65C122.619 146.36 127.105 141.394 130.777 135.944C131.747 134.505 129.295 133.185 128.33 134.617C124.779 139.886 120.443 144.645 115.453 148.791C114.092 149.923 116.102 151.776 117.458 150.65Z" fill="#E6E6E6"/>
<path d="M127.484 156.591C132.38 151.879 136.547 146.619 139.828 140.946C140.679 139.474 138.133 138.173 137.278 139.651C134.108 145.132 130.127 150.223 125.396 154.777C124.125 156 126.208 157.82 127.484 156.591Z" fill="#E6E6E6"/>
<path d="M119.633 124.557C130.087 124.557 138.562 116.797 138.562 107.224C138.562 97.651 130.087 89.8906 119.633 89.8906C109.178 89.8906 100.703 97.651 100.703 107.224C100.703 116.797 109.178 124.557 119.633 124.557Z" fill="#00BFA6"/>
<path d="M129.487 115.448C126.576 108.753 123.664 102.057 120.753 95.3621C120.351 94.4374 119.092 94.4046 118.699 95.3621C115.823 102.382 113.943 109.706 113.039 117.174C112.885 118.446 115.017 118.436 115.169 117.174C115.523 114.252 116.048 111.351 116.722 108.482C119.121 108.599 121.54 108.348 123.855 107.748C125.047 110.491 126.24 113.234 127.433 115.978C127.943 117.15 130.004 116.637 129.487 115.448ZM117.205 106.512C117.922 103.765 118.783 101.05 119.781 98.3793L123.045 105.887C121.133 106.357 119.178 106.566 117.205 106.512Z" fill="white"/>
</svg>
