<svg width="714" height="577" viewBox="0 0 714 577" fill="none" xmlns="http://www.w3.org/2000/svg">
<g clip-path="url(#clip0_284_2105)">
<path d="M614.376 248.523C614.376 248.523 597.006 258.185 602.006 269.185C607.006 280.185 678.006 271.185 678.006 271.185C678.006 271.185 673.006 256.185 664.006 253.185C655.006 250.185 614.376 248.523 614.376 248.523Z" fill="#35AA86"/>
<path d="M607.609 251.102C611.101 248.833 614.981 247.228 619.056 246.369C632.646 243.075 646.875 243.519 660.233 247.653L659.988 247.454C665.68 250.458 670.676 254.624 674.654 259.682L607.609 251.102Z" fill="#CCCCCC"/>
<path d="M684.529 298.407C684.289 301.997 684.049 305.584 683.809 309.167C683.481 316.672 682.662 324.148 681.359 331.547C680.139 337.737 678.199 343.877 674.729 349.147C671.259 354.407 666.11 358.757 660.01 360.357C656.264 361.255 652.37 361.34 648.589 360.607C641.459 356.557 636.629 361.737 643.749 367.007C645.365 368.201 647.044 369.306 648.779 370.317L652.01 420.187L592.01 407.187L603.719 340.847C601.926 339.217 600.286 337.427 598.82 335.497C592.11 326.587 589.799 314.977 590.239 303.837C590.689 292.687 593.659 281.817 596.609 271.067C597.362 268.151 598.27 265.276 599.33 262.457C600.64 262.997 601.97 263.487 603.32 263.897C611.95 266.517 621.12 266.727 630.14 266.717C646.19 266.707 662.219 266.08 678.229 264.837C681.909 270.894 684.143 277.717 684.76 284.777C685.018 289.32 684.941 293.876 684.529 298.407Z" fill="#CCCCCC"/>
<path d="M427.906 433.781L520.276 441.981L521.266 442.071V47.9308C520.936 47.7008 520.606 47.4708 520.276 47.2408C501.025 33.7755 480.201 22.7135 458.266 14.3008L453.546 79.4008L453.116 85.3608L448.446 149.921L447.006 169.781L428.076 431.481L427.906 433.781Z" fill="#E6E6E6"/>
<path d="M199.48 40.5889C198.82 41.0089 198.16 41.4289 197.5 41.8689V442.069L199.48 441.889L290.85 433.779L290.68 431.479L271.75 169.779L270.31 149.919L265.64 85.3589L265.21 79.3989L260.26 11.1289C238.914 18.5283 218.513 28.4164 199.48 40.5889Z" fill="#E6E6E6"/>
<path d="M197.501 41.8698C196.171 42.7298 194.841 43.6098 193.531 44.4998V447.53C193.531 457.6 199.501 466.04 207.481 468.19C208.785 468.543 210.13 468.721 211.481 468.72H508.281C509.629 468.722 510.971 468.544 512.271 468.19C515.238 467.367 517.926 465.757 520.051 463.53C524.105 459.197 526.32 453.462 526.231 447.53V51.5098C524.591 50.2998 522.941 49.0998 521.271 47.9298C520.941 47.6998 520.611 47.4698 520.281 47.2398V447.53C520.284 448.827 520.129 450.12 519.821 451.38C518.411 457.33 513.761 461.69 508.281 461.69H211.481C204.861 461.69 199.481 455.34 199.481 447.53V40.5898C198.821 41.0098 198.161 41.4298 197.501 41.8698Z" fill="#E6E6E6"/>
<path d="M523.252 79.4023H196.5V85.3614H523.252V79.4023Z" fill="#E6E6E6"/>
<path d="M423.179 3.39172C421.199 2.90172 419.219 2.44172 417.219 2.01172V163.822H423.179V3.39172Z" fill="#E6E6E6"/>
<path d="M302.538 0C300.548 0.37 298.558 0.749988 296.578 1.15999V163.82H302.538V0Z" fill="#E6E6E6"/>
<path d="M132.438 458.291C132.436 461.71 133.091 465.098 134.367 468.271C134.858 469.501 135.443 470.691 136.117 471.831C136.989 473.317 138 474.716 139.138 476.01C141.65 478.873 144.744 481.167 148.214 482.738C151.684 484.309 155.449 485.121 159.258 485.12H550.567C557.681 485.12 564.502 482.295 569.532 477.265C574.562 472.235 577.387 465.414 577.387 458.3C577.387 451.187 574.562 444.366 569.532 439.336C564.502 434.306 557.681 431.48 550.567 431.48H159.258C152.148 431.487 145.332 434.314 140.304 439.34C135.276 444.366 132.447 451.181 132.438 458.291Z" fill="#E6E6E6"/>
<path d="M196.5 169.781L521.266 169.781V149.918L196.5 149.918V169.781Z" fill="#E6E6E6"/>
<path d="M372.789 154.883H344.98C344.98 153.448 345.263 152.028 345.812 150.702C346.361 149.377 347.166 148.172 348.18 147.158C349.195 146.143 350.399 145.339 351.724 144.79C353.05 144.241 354.47 143.958 355.905 143.958H361.864C364.762 143.958 367.54 145.109 369.589 147.158C371.638 149.207 372.789 151.985 372.789 154.883Z" fill="#E6E6E6"/>
<path d="M0 473.609C8.68726 483.903 18.0835 493.576 28.12 502.559H710.7C720.736 493.576 730.133 483.903 738.82 473.609H0Z" fill="#3F3D56"/>
<path d="M185.156 376.8V479.36H257.006V376.8C257.007 376.062 256.772 375.344 256.335 374.75C255.897 374.156 255.281 373.718 254.576 373.5C254.244 373.39 253.896 373.336 253.546 373.34H188.626C188.171 373.339 187.72 373.428 187.3 373.601C186.879 373.775 186.496 374.029 186.174 374.351C185.852 374.672 185.596 375.054 185.421 375.474C185.247 375.894 185.157 376.345 185.156 376.8ZM213.196 412.04C213.215 410.018 214.031 408.085 215.468 406.662C216.904 405.239 218.844 404.441 220.866 404.441C222.888 404.441 224.828 405.239 226.265 406.662C227.701 408.085 228.517 410.018 228.536 412.04V423.94C228.526 425.967 227.713 427.908 226.276 429.338C224.839 430.768 222.894 431.571 220.866 431.571C218.839 431.571 216.894 430.768 215.457 429.338C214.019 427.908 213.207 425.967 213.196 423.94V412.04Z" fill="#2F2E41"/>
<path d="M184.938 476.078V485.968C184.939 486.48 185.143 486.971 185.504 487.335C185.865 487.698 186.355 487.904 186.867 487.908H255.298C255.81 487.906 256.301 487.7 256.663 487.336C257.025 486.973 257.228 486.481 257.228 485.968V476.078H184.938Z" fill="#3F3D56"/>
<path d="M72.1328 222.279V409.539C72.1347 411.925 73.0835 414.213 74.7709 415.901C76.4584 417.588 78.7464 418.537 81.1328 418.539H358.633C361.019 418.537 363.307 417.588 364.995 415.901C366.682 414.214 367.631 411.925 367.633 409.539V222.279C367.627 219.895 366.677 217.61 364.99 215.925C363.303 214.24 361.017 213.292 358.633 213.289H81.1328C78.7485 213.292 76.4626 214.24 74.7757 215.925C73.0888 217.61 72.1385 219.895 72.1328 222.279Z" fill="#3F3D56"/>
<path d="M79 225.82V408.44C79.0022 409.715 79.5097 410.937 80.4112 411.839C81.3128 412.74 82.535 413.248 83.81 413.25H356.68C357.955 413.248 359.177 412.74 360.079 411.839C360.98 410.937 361.488 409.715 361.49 408.44V225.82C361.49 224.543 360.983 223.319 360.082 222.415C359.18 221.512 357.957 221.003 356.68 221H83.81C82.5334 221.003 81.3101 221.512 80.4084 222.415C79.5066 223.319 79.0001 224.543 79 225.82Z" fill="#35AA86"/>
<path d="M134.281 490.24C134.559 490.588 134.912 490.869 135.314 491.061C135.715 491.254 136.156 491.352 136.601 491.35H298.941C299.385 491.35 299.823 491.25 300.224 491.059C300.625 490.868 300.978 490.59 301.257 490.245C301.537 489.9 301.736 489.497 301.841 489.066C301.945 488.634 301.952 488.185 301.861 487.75L299.341 475.78C299.237 475.292 299.012 474.838 298.687 474.459C298.362 474.08 297.947 473.788 297.481 473.61C297.143 473.478 296.784 473.41 296.421 473.41H139.111C138.748 473.41 138.389 473.478 138.051 473.61C137.585 473.788 137.17 474.08 136.845 474.459C136.52 474.838 136.295 475.292 136.191 475.78L133.671 487.75C133.581 488.184 133.59 488.633 133.695 489.064C133.801 489.495 134.001 489.896 134.281 490.24Z" fill="#2F2E41"/>
<path d="M290.754 478.566H294.777C295.047 478.566 295.266 478.348 295.266 478.078V476.055C295.266 475.785 295.047 475.566 294.777 475.566H290.754C290.484 475.566 290.266 475.785 290.266 476.055V478.078C290.266 478.348 290.484 478.566 290.754 478.566Z" fill="#3F3D56"/>
<path d="M280.754 478.566H284.777C285.047 478.566 285.266 478.348 285.266 478.078V476.055C285.266 475.785 285.047 475.566 284.777 475.566H280.754C280.484 475.566 280.266 475.785 280.266 476.055V478.078C280.266 478.348 280.484 478.566 280.754 478.566Z" fill="#3F3D56"/>
<path d="M270.754 478.566H274.777C275.047 478.566 275.266 478.348 275.266 478.078V476.055C275.266 475.785 275.047 475.566 274.777 475.566H270.754C270.484 475.566 270.266 475.785 270.266 476.055V478.078C270.266 478.348 270.484 478.566 270.754 478.566Z" fill="#3F3D56"/>
<path d="M260.754 478.566H264.777C265.047 478.566 265.266 478.348 265.266 478.078V476.055C265.266 475.785 265.047 475.566 264.777 475.566H260.754C260.484 475.566 260.266 475.785 260.266 476.055V478.078C260.266 478.348 260.484 478.566 260.754 478.566Z" fill="#3F3D56"/>
<path d="M250.754 478.566H254.777C255.047 478.566 255.266 478.348 255.266 478.078V476.055C255.266 475.785 255.047 475.566 254.777 475.566H250.754C250.484 475.566 250.266 475.785 250.266 476.055V478.078C250.266 478.348 250.484 478.566 250.754 478.566Z" fill="#3F3D56"/>
<path d="M240.754 478.566H244.777C245.047 478.566 245.266 478.348 245.266 478.078V476.055C245.266 475.785 245.047 475.566 244.777 475.566H240.754C240.484 475.566 240.266 475.785 240.266 476.055V478.078C240.266 478.348 240.484 478.566 240.754 478.566Z" fill="#3F3D56"/>
<path d="M230.754 478.566H234.777C235.047 478.566 235.266 478.348 235.266 478.078V476.055C235.266 475.785 235.047 475.566 234.777 475.566H230.754C230.484 475.566 230.266 475.785 230.266 476.055V478.078C230.266 478.348 230.484 478.566 230.754 478.566Z" fill="#3F3D56"/>
<path d="M220.754 478.566H224.777C225.047 478.566 225.266 478.348 225.266 478.078V476.055C225.266 475.785 225.047 475.566 224.777 475.566H220.754C220.484 475.566 220.266 475.785 220.266 476.055V478.078C220.266 478.348 220.484 478.566 220.754 478.566Z" fill="#3F3D56"/>
<path d="M210.754 478.566H214.777C215.047 478.566 215.266 478.348 215.266 478.078V476.055C215.266 475.785 215.047 475.566 214.777 475.566H210.754C210.484 475.566 210.266 475.785 210.266 476.055V478.078C210.266 478.348 210.484 478.566 210.754 478.566Z" fill="#3F3D56"/>
<path d="M200.754 478.566H204.777C205.047 478.566 205.266 478.348 205.266 478.078V476.055C205.266 475.785 205.047 475.566 204.777 475.566H200.754C200.484 475.566 200.266 475.785 200.266 476.055V478.078C200.266 478.348 200.484 478.566 200.754 478.566Z" fill="#3F3D56"/>
<path d="M190.754 478.566H194.777C195.047 478.566 195.266 478.348 195.266 478.078V476.055C195.266 475.785 195.047 475.566 194.777 475.566H190.754C190.484 475.566 190.266 475.785 190.266 476.055V478.078C190.266 478.348 190.484 478.566 190.754 478.566Z" fill="#3F3D56"/>
<path d="M180.754 478.566H184.777C185.047 478.566 185.266 478.348 185.266 478.078V476.055C185.266 475.785 185.047 475.566 184.777 475.566H180.754C180.484 475.566 180.266 475.785 180.266 476.055V478.078C180.266 478.348 180.484 478.566 180.754 478.566Z" fill="#3F3D56"/>
<path d="M170.754 478.566H174.777C175.047 478.566 175.266 478.348 175.266 478.078V476.055C175.266 475.785 175.047 475.566 174.777 475.566H170.754C170.484 475.566 170.266 475.785 170.266 476.055V478.078C170.266 478.348 170.484 478.566 170.754 478.566Z" fill="#3F3D56"/>
<path d="M160.754 478.566H164.777C165.047 478.566 165.266 478.348 165.266 478.078V476.055C165.266 475.785 165.047 475.566 164.777 475.566H160.754C160.484 475.566 160.266 475.785 160.266 476.055V478.078C160.266 478.348 160.484 478.566 160.754 478.566Z" fill="#3F3D56"/>
<path d="M150.754 478.566H154.777C155.047 478.566 155.266 478.348 155.266 478.078V476.055C155.266 475.785 155.047 475.566 154.777 475.566H150.754C150.484 475.566 150.266 475.785 150.266 476.055V478.078C150.266 478.348 150.484 478.566 150.754 478.566Z" fill="#3F3D56"/>
<path d="M140.754 478.566H144.777C145.047 478.566 145.266 478.348 145.266 478.078V476.055C145.266 475.785 145.047 475.566 144.777 475.566H140.754C140.484 475.566 140.266 475.785 140.266 476.055V478.078C140.266 478.348 140.484 478.566 140.754 478.566Z" fill="#3F3D56"/>
<path d="M290.871 483.566H294.895C295.164 483.566 295.383 483.348 295.383 483.078V481.055C295.383 480.785 295.164 480.566 294.895 480.566H290.871C290.601 480.566 290.383 480.785 290.383 481.055V483.078C290.383 483.348 290.601 483.566 290.871 483.566Z" fill="#3F3D56"/>
<path d="M280.871 483.566H284.895C285.164 483.566 285.383 483.348 285.383 483.078V481.055C285.383 480.785 285.164 480.566 284.895 480.566H280.871C280.601 480.566 280.383 480.785 280.383 481.055V483.078C280.383 483.348 280.601 483.566 280.871 483.566Z" fill="#3F3D56"/>
<path d="M270.871 483.566H274.895C275.164 483.566 275.383 483.348 275.383 483.078V481.055C275.383 480.785 275.164 480.566 274.895 480.566H270.871C270.601 480.566 270.383 480.785 270.383 481.055V483.078C270.383 483.348 270.601 483.566 270.871 483.566Z" fill="#3F3D56"/>
<path d="M260.871 483.566H264.895C265.164 483.566 265.383 483.348 265.383 483.078V481.055C265.383 480.785 265.164 480.566 264.895 480.566H260.871C260.601 480.566 260.383 480.785 260.383 481.055V483.078C260.383 483.348 260.601 483.566 260.871 483.566Z" fill="#3F3D56"/>
<path d="M250.871 483.566H254.895C255.164 483.566 255.383 483.348 255.383 483.078V481.055C255.383 480.785 255.164 480.566 254.895 480.566H250.871C250.601 480.566 250.383 480.785 250.383 481.055V483.078C250.383 483.348 250.601 483.566 250.871 483.566Z" fill="#3F3D56"/>
<path d="M240.871 483.566H244.895C245.164 483.566 245.383 483.348 245.383 483.078V481.055C245.383 480.785 245.164 480.566 244.895 480.566H240.871C240.601 480.566 240.383 480.785 240.383 481.055V483.078C240.383 483.348 240.601 483.566 240.871 483.566Z" fill="#3F3D56"/>
<path d="M230.871 483.566H234.895C235.164 483.566 235.383 483.348 235.383 483.078V481.055C235.383 480.785 235.164 480.566 234.895 480.566H230.871C230.601 480.566 230.383 480.785 230.383 481.055V483.078C230.383 483.348 230.601 483.566 230.871 483.566Z" fill="#3F3D56"/>
<path d="M220.871 483.566H224.895C225.164 483.566 225.383 483.348 225.383 483.078V481.055C225.383 480.785 225.164 480.566 224.895 480.566H220.871C220.601 480.566 220.383 480.785 220.383 481.055V483.078C220.383 483.348 220.601 483.566 220.871 483.566Z" fill="#3F3D56"/>
<path d="M210.871 483.566H214.895C215.164 483.566 215.383 483.348 215.383 483.078V481.055C215.383 480.785 215.164 480.566 214.895 480.566H210.871C210.601 480.566 210.383 480.785 210.383 481.055V483.078C210.383 483.348 210.601 483.566 210.871 483.566Z" fill="#3F3D56"/>
<path d="M200.871 483.566H204.895C205.164 483.566 205.383 483.348 205.383 483.078V481.055C205.383 480.785 205.164 480.566 204.895 480.566H200.871C200.601 480.566 200.383 480.785 200.383 481.055V483.078C200.383 483.348 200.601 483.566 200.871 483.566Z" fill="#3F3D56"/>
<path d="M190.871 483.566H194.895C195.164 483.566 195.383 483.348 195.383 483.078V481.055C195.383 480.785 195.164 480.566 194.895 480.566H190.871C190.601 480.566 190.383 480.785 190.383 481.055V483.078C190.383 483.348 190.601 483.566 190.871 483.566Z" fill="#3F3D56"/>
<path d="M180.871 483.566H184.895C185.164 483.566 185.383 483.348 185.383 483.078V481.055C185.383 480.785 185.164 480.566 184.895 480.566H180.871C180.601 480.566 180.383 480.785 180.383 481.055V483.078C180.383 483.348 180.601 483.566 180.871 483.566Z" fill="#3F3D56"/>
<path d="M170.871 483.566H174.895C175.164 483.566 175.383 483.348 175.383 483.078V481.055C175.383 480.785 175.164 480.566 174.895 480.566H170.871C170.601 480.566 170.383 480.785 170.383 481.055V483.078C170.383 483.348 170.601 483.566 170.871 483.566Z" fill="#3F3D56"/>
<path d="M160.871 483.566H164.895C165.164 483.566 165.383 483.348 165.383 483.078V481.055C165.383 480.785 165.164 480.566 164.895 480.566H160.871C160.601 480.566 160.383 480.785 160.383 481.055V483.078C160.383 483.348 160.601 483.566 160.871 483.566Z" fill="#3F3D56"/>
<path d="M150.871 483.566H154.895C155.164 483.566 155.383 483.348 155.383 483.078V481.055C155.383 480.785 155.164 480.566 154.895 480.566H150.871C150.601 480.566 150.383 480.785 150.383 481.055V483.078C150.383 483.348 150.601 483.566 150.871 483.566Z" fill="#3F3D56"/>
<path d="M140.871 483.566H144.895C145.164 483.566 145.383 483.348 145.383 483.078V481.055C145.383 480.785 145.164 480.566 144.895 480.566H140.871C140.601 480.566 140.383 480.785 140.383 481.055V483.078C140.383 483.348 140.601 483.566 140.871 483.566Z" fill="#3F3D56"/>
<path d="M207.871 489.566H246.895C247.164 489.566 247.383 489.348 247.383 489.078V487.055C247.383 486.785 247.164 486.566 246.895 486.566H207.871C207.601 486.566 207.383 486.785 207.383 487.055V489.078C207.383 489.348 207.601 489.566 207.871 489.566Z" fill="#3F3D56"/>
<path d="M97.1652 244.945H352.489C352.754 244.939 353.007 244.829 353.192 244.64C353.378 244.45 353.482 244.195 353.482 243.929C353.482 243.664 353.378 243.409 353.192 243.219C353.007 243.029 352.754 242.92 352.489 242.914H97.1652C96.8997 242.92 96.6471 243.029 96.4615 243.219C96.2758 243.409 96.1719 243.664 96.1719 243.929C96.1719 244.195 96.2758 244.45 96.4615 244.64C96.6471 244.829 96.8997 244.939 97.1652 244.945Z" fill="#3F3D56"/>
<path d="M335.107 237.732C338.393 237.732 341.057 235.009 341.057 231.649C341.057 228.29 338.393 225.566 335.107 225.566C331.82 225.566 329.156 228.29 329.156 231.649C329.156 235.009 331.82 237.732 335.107 237.732Z" fill="#3F3D56"/>
<path d="M314.552 237.732C317.838 237.732 320.502 235.009 320.502 231.649C320.502 228.29 317.838 225.566 314.552 225.566C311.266 225.566 308.602 228.29 308.602 231.649C308.602 235.009 311.266 237.732 314.552 237.732Z" fill="#3F3D56"/>
<path d="M293.99 237.732C297.276 237.732 299.94 235.009 299.94 231.649C299.94 228.29 297.276 225.566 293.99 225.566C290.703 225.566 288.039 228.29 288.039 231.649C288.039 235.009 290.703 237.732 293.99 237.732Z" fill="#3F3D56"/>
<path d="M108.453 228.18C108.452 228.324 108.48 228.467 108.535 228.6C108.589 228.733 108.669 228.854 108.77 228.956C108.871 229.058 108.992 229.139 109.124 229.195C109.257 229.251 109.399 229.28 109.543 229.28H124.143C124.432 229.274 124.706 229.154 124.908 228.948C125.11 228.741 125.223 228.464 125.223 228.175C125.223 227.887 125.11 227.609 124.908 227.403C124.706 227.196 124.432 227.077 124.143 227.07H109.543C109.252 227.074 108.973 227.193 108.769 227.401C108.565 227.609 108.451 227.889 108.453 228.18Z" fill="#3F3D56"/>
<path d="M108.453 232.329C108.452 232.473 108.48 232.615 108.535 232.748C108.589 232.881 108.669 233.002 108.77 233.105C108.871 233.207 108.992 233.288 109.124 233.344C109.257 233.399 109.399 233.428 109.543 233.429H124.143C124.432 233.422 124.707 233.303 124.909 233.097C125.111 232.89 125.224 232.613 125.224 232.324C125.224 232.035 125.111 231.757 124.909 231.551C124.707 231.344 124.432 231.225 124.143 231.219H109.543C109.252 231.222 108.973 231.341 108.769 231.549C108.565 231.757 108.451 232.037 108.453 232.329Z" fill="#3F3D56"/>
<path d="M108.453 236.471C108.451 236.763 108.565 237.043 108.769 237.251C108.973 237.459 109.252 237.578 109.543 237.581H124.143C124.432 237.574 124.706 237.455 124.908 237.249C125.11 237.042 125.223 236.765 125.223 236.476C125.223 236.187 125.11 235.91 124.908 235.704C124.706 235.497 124.432 235.378 124.143 235.371H109.543C109.399 235.372 109.257 235.401 109.124 235.456C108.992 235.512 108.871 235.593 108.77 235.695C108.669 235.797 108.589 235.919 108.535 236.052C108.48 236.185 108.452 236.327 108.453 236.471Z" fill="#3F3D56"/>
<path d="M172.962 268.543H167.716C166.125 268.543 164.836 269.832 164.836 271.423C164.836 273.013 166.125 274.303 167.716 274.303H172.962C174.553 274.303 175.842 273.013 175.842 271.423C175.842 269.832 174.553 268.543 172.962 268.543Z" fill="#E6E6E6"/>
<path d="M189.962 268.543H184.716C183.125 268.543 181.836 269.832 181.836 271.423C181.836 273.013 183.125 274.303 184.716 274.303H189.962C191.553 274.303 192.842 273.013 192.842 271.423C192.842 269.832 191.553 268.543 189.962 268.543Z" fill="#E6E6E6"/>
<path d="M175.995 254H108.005C104.689 254 102 255.343 102 257C102 258.657 104.689 260 108.005 260H175.995C179.311 260 182 258.657 182 257C182 255.343 179.311 254 175.995 254Z" fill="#E6E6E6"/>
<path d="M236.642 268.062H204.036C202.446 268.062 201.156 269.352 201.156 270.942C201.156 272.533 202.446 273.822 204.036 273.822H236.642C238.233 273.822 239.522 272.533 239.522 270.942C239.522 269.352 238.233 268.062 236.642 268.062Z" fill="#E6E6E6"/>
<path d="M188.962 281.543H183.716C182.125 281.543 180.836 282.832 180.836 284.423C180.836 286.013 182.125 287.303 183.716 287.303H188.962C190.553 287.303 191.842 286.013 191.842 284.423C191.842 282.832 190.553 281.543 188.962 281.543Z" fill="#E6E6E6"/>
<path d="M205.962 281.543H200.716C199.125 281.543 197.836 282.832 197.836 284.423C197.836 286.013 199.125 287.303 200.716 287.303H205.962C207.553 287.303 208.842 286.013 208.842 284.423C208.842 282.832 207.553 281.543 205.962 281.543Z" fill="#E6E6E6"/>
<path d="M151.486 276H118.88C117.289 276 116 277.289 116 278.88C116 280.471 117.289 281.76 118.88 281.76H151.486C153.076 281.76 154.366 280.471 154.366 278.88C154.366 277.289 153.076 276 151.486 276Z" fill="#E6E6E6"/>
<path d="M151.486 284H118.88C117.289 284 116 285.289 116 286.88C116 288.471 117.289 289.76 118.88 289.76H151.486C153.076 289.76 154.366 288.471 154.366 286.88C154.366 285.289 153.076 284 151.486 284Z" fill="#E6E6E6"/>
<path d="M150.486 292H117.88C116.289 292 115 293.289 115 294.88C115 296.471 116.289 297.76 117.88 297.76H150.486C152.076 297.76 153.366 296.471 153.366 294.88C153.366 293.289 152.076 292 150.486 292Z" fill="#E6E6E6"/>
<path d="M252.642 281.062H220.036C218.446 281.062 217.156 282.352 217.156 283.942C217.156 285.533 218.446 286.822 220.036 286.822H252.642C254.233 286.822 255.522 285.533 255.522 283.942C255.522 282.352 254.233 281.062 252.642 281.062Z" fill="#E6E6E6"/>
<path d="M204.962 294.543H199.716C198.125 294.543 196.836 295.832 196.836 297.423C196.836 299.013 198.125 300.303 199.716 300.303H204.962C206.553 300.303 207.842 299.013 207.842 297.423C207.842 295.832 206.553 294.543 204.962 294.543Z" fill="#E6E6E6"/>
<path d="M221.962 294.543H216.716C215.125 294.543 213.836 295.832 213.836 297.423C213.836 299.013 215.125 300.303 216.716 300.303H221.962C223.553 300.303 224.842 299.013 224.842 297.423C224.842 295.832 223.553 294.543 221.962 294.543Z" fill="#E6E6E6"/>
<path d="M188.642 294.062H156.036C154.446 294.062 153.156 295.352 153.156 296.942C153.156 298.533 154.446 299.822 156.036 299.822H188.642C190.233 299.822 191.522 298.533 191.522 296.942C191.522 295.352 190.233 294.062 188.642 294.062Z" fill="#E6E6E6"/>
<path d="M268.642 294.062H236.036C234.446 294.062 233.156 295.352 233.156 296.942C233.156 298.533 234.446 299.822 236.036 299.822H268.642C270.233 299.822 271.522 298.533 271.522 296.942C271.522 295.352 270.233 294.062 268.642 294.062Z" fill="#E6E6E6"/>
<path d="M160.962 307.543H155.716C154.125 307.543 152.836 308.832 152.836 310.423C152.836 312.013 154.125 313.303 155.716 313.303H160.962C162.553 313.303 163.842 312.013 163.842 310.423C163.842 308.832 162.553 307.543 160.962 307.543Z" fill="#E6E6E6"/>
<path d="M220.962 307.543H215.716C214.125 307.543 212.836 308.832 212.836 310.423C212.836 312.013 214.125 313.303 215.716 313.303H220.962C222.553 313.303 223.842 312.013 223.842 310.423C223.842 308.832 222.553 307.543 220.962 307.543Z" fill="#E6E6E6"/>
<path d="M237.962 307.543H232.716C231.125 307.543 229.836 308.832 229.836 310.423C229.836 312.013 231.125 313.303 232.716 313.303H237.962C239.553 313.303 240.842 312.013 240.842 310.423C240.842 308.832 239.553 307.543 237.962 307.543Z" fill="#E6E6E6"/>
<path d="M204.642 307.062H172.036C170.446 307.062 169.156 308.352 169.156 309.942C169.156 311.533 170.446 312.822 172.036 312.822H204.642C206.233 312.822 207.522 311.533 207.522 309.942C207.522 308.352 206.233 307.062 204.642 307.062Z" fill="#E6E6E6"/>
<path d="M172.962 359.238H167.716C166.125 359.238 164.836 360.528 164.836 362.118C164.836 363.709 166.125 364.998 167.716 364.998H172.962C174.553 364.998 175.842 363.709 175.842 362.118C175.842 360.528 174.553 359.238 172.962 359.238Z" fill="#E6E6E6"/>
<path d="M189.962 359.238H184.716C183.125 359.238 181.836 360.528 181.836 362.118C181.836 363.709 183.125 364.998 184.716 364.998H189.962C191.553 364.998 192.842 363.709 192.842 362.118C192.842 360.528 191.553 359.238 189.962 359.238Z" fill="#E6E6E6"/>
<path d="M236.642 359.719H204.036C202.446 359.719 201.156 361.008 201.156 362.599C201.156 364.189 202.446 365.479 204.036 365.479H236.642C238.233 365.479 239.522 364.189 239.522 362.599C239.522 361.008 238.233 359.719 236.642 359.719Z" fill="#E6E6E6"/>
<path d="M112.962 359.238H107.716C106.125 359.238 104.836 360.528 104.836 362.118C104.836 363.709 106.125 364.998 107.716 364.998H112.962C114.553 364.998 115.842 363.709 115.842 362.118C115.842 360.528 114.553 359.238 112.962 359.238Z" fill="#E6E6E6"/>
<path d="M350.486 400H317.88C316.289 400 315 401.289 315 402.88C315 404.471 316.289 405.76 317.88 405.76H350.486C352.076 405.76 353.366 404.471 353.366 402.88C353.366 401.289 352.076 400 350.486 400Z" fill="#E6E6E6"/>
<path d="M346.126 260H340.88C339.289 260 338 261.289 338 262.88C338 264.471 339.289 265.76 340.88 265.76H346.126C347.717 265.76 349.006 264.471 349.006 262.88C349.006 261.289 347.717 260 346.126 260Z" fill="#E6E6E6"/>
<path d="M188.962 346.238H183.716C182.125 346.238 180.836 347.528 180.836 349.118C180.836 350.709 182.125 351.998 183.716 351.998H188.962C190.553 351.998 191.842 350.709 191.842 349.118C191.842 347.528 190.553 346.238 188.962 346.238Z" fill="#E6E6E6"/>
<path d="M205.962 346.238H200.716C199.125 346.238 197.836 347.528 197.836 349.118C197.836 350.709 199.125 351.998 200.716 351.998H205.962C207.553 351.998 208.842 350.709 208.842 349.118C208.842 347.528 207.553 346.238 205.962 346.238Z" fill="#E6E6E6"/>
<path d="M347.486 249H314.88C313.289 249 312 250.289 312 251.88C312 253.471 313.289 254.76 314.88 254.76H347.486C349.076 254.76 350.366 253.471 350.366 251.88C350.366 250.289 349.076 249 347.486 249Z" fill="#E6E6E6"/>
<path d="M333.126 260H327.88C326.289 260 325 261.289 325 262.88C325 264.471 326.289 265.76 327.88 265.76H333.126C334.717 265.76 336.006 264.471 336.006 262.88C336.006 261.289 334.717 260 333.126 260Z" fill="#E6E6E6"/>
<path d="M204.962 333.238H199.716C198.125 333.238 196.836 334.528 196.836 336.118C196.836 337.709 198.125 338.998 199.716 338.998H204.962C206.553 338.998 207.842 337.709 207.842 336.118C207.842 334.528 206.553 333.238 204.962 333.238Z" fill="#E6E6E6"/>
<path d="M221.962 333.238H216.716C215.125 333.238 213.836 334.528 213.836 336.118C213.836 337.709 215.125 338.998 216.716 338.998H221.962C223.553 338.998 224.842 337.709 224.842 336.118C224.842 334.528 223.553 333.238 221.962 333.238Z" fill="#E6E6E6"/>
<path d="M151.486 268H118.88C117.289 268 116 269.289 116 270.88C116 272.471 117.289 273.76 118.88 273.76H151.486C153.076 273.76 154.366 272.471 154.366 270.88C154.366 269.289 153.076 268 151.486 268Z" fill="#E6E6E6"/>
<path d="M320.126 260H314.88C313.289 260 312 261.289 312 262.88C312 264.471 313.289 265.76 314.88 265.76H320.126C321.717 265.76 323.006 264.471 323.006 262.88C323.006 261.289 321.717 260 320.126 260Z" fill="#E6E6E6"/>
<path d="M220.962 320.238H215.716C214.125 320.238 212.836 321.528 212.836 323.118C212.836 324.709 214.125 325.998 215.716 325.998H220.962C222.553 325.998 223.842 324.709 223.842 323.118C223.842 321.528 222.553 320.238 220.962 320.238Z" fill="#E6E6E6"/>
<path d="M237.962 320.238H232.716C231.125 320.238 229.836 321.528 229.836 323.118C229.836 324.709 231.125 325.998 232.716 325.998H237.962C239.553 325.998 240.842 324.709 240.842 323.118C240.842 321.528 239.553 320.238 237.962 320.238Z" fill="#E6E6E6"/>
<path d="M204.642 320.719H172.036C170.446 320.719 169.156 322.008 169.156 323.599C169.156 325.189 170.446 326.479 172.036 326.479H204.642C206.233 326.479 207.522 325.189 207.522 323.599C207.522 322.008 206.233 320.719 204.642 320.719Z" fill="#E6E6E6"/>
<path d="M94.1016 547.042C94.7116 547.352 95.3316 547.662 95.9416 547.962C111.742 555.862 124.382 560.352 141.672 565.272C143.132 548.972 144.542 520.322 145.912 502.562C146.272 497.952 146.632 494.082 146.982 491.352C147.07 489.9 147.366 488.469 147.862 487.102L147.802 491.352L147.652 502.562L146.782 566.672C168.289 572.362 190.382 575.547 212.622 576.162C213.782 576.192 214.922 576.212 216.022 576.232C216.412 576.242 216.792 576.252 217.172 576.252C218.422 576.262 219.662 576.272 220.912 576.272C244.347 576.289 267.699 573.458 290.452 567.842C289.962 551.712 289.472 523.382 289.002 502.562C288.902 498.492 288.812 494.702 288.712 491.352C288.522 484.192 288.322 479.032 288.132 477.302C288.3 477.608 288.431 477.934 288.522 478.272C289.448 482.584 290.079 486.954 290.412 491.352C290.762 494.702 291.112 498.492 291.462 502.562C293.322 524.192 295.262 553.602 297.262 566.072C309.166 562.822 320.847 558.803 332.232 554.042C338.232 551.542 344.125 548.845 349.912 545.952C348.812 538.752 347.662 530.682 346.482 522.312C345.562 515.822 344.612 509.152 343.642 502.562C342.142 492.382 319.852 421.242 318.442 418.542C317.232 416.232 316.082 414.052 314.992 412.042C312.352 407.162 310.112 403.272 308.452 400.812C301.512 390.284 291.18 382.447 279.172 378.602L278.872 378.522L278.662 378.612L258.212 372.332L255.222 371.412L253.212 370.792L246.132 365.402L242.282 362.472L238.672 359.722L231.612 354.352L187.902 357.042L179.392 377.532L160.332 384.502L160.002 384.352L159.712 384.232L159.412 384.312C147.405 388.161 137.075 395.997 130.132 406.522C129.192 407.932 128.052 409.792 126.762 412.042C125.662 413.952 124.462 416.132 123.162 418.542C121.312 421.972 119.292 425.842 117.152 430.032C116.682 430.952 116.202 431.892 115.722 432.842C114.832 434.602 113.928 436.398 113.012 438.232C110.882 442.482 108.682 446.922 106.482 451.432C104.572 455.342 102.642 463.382 100.742 473.612C99.1717 482.112 97.6117 492.132 96.1017 502.562C94.1217 516.082 96.2317 532.271 94.4417 544.711C94.3316 545.502 94.2116 546.272 94.1016 547.042Z" fill="#3F3D56"/>
<path opacity="0.2" d="M303.594 473.565L295.097 440.773L287.594 469.069L303.594 473.565Z" fill="black"/>
<path d="M77.4766 452.2C80.5166 494.08 77.3665 512.52 94.1465 547.05C109.414 554.523 125.317 560.62 141.667 565.27C143.367 565.75 145.07 566.217 146.777 566.67C168.284 572.361 190.377 575.545 212.617 576.16C213.777 576.19 214.917 576.21 216.017 576.23C216.407 576.24 216.787 576.25 217.167 576.25C218.417 576.26 219.657 576.27 220.907 576.27C244.342 576.287 267.694 573.457 290.447 567.84C292.727 567.28 294.997 566.69 297.257 566.07C309.161 562.82 320.842 558.802 332.227 554.04C338.227 551.54 344.12 548.843 349.907 545.95C351.217 545.29 352.527 544.63 353.817 543.95C360.447 532.29 364.217 518.11 364.297 501.07C359.707 471.71 87.6166 426.88 77.4766 452.2Z" fill="#2F2E41"/>
<path opacity="0.2" d="M77.4844 459.373C77.3292 456.78 77.1556 454.102 76.9531 451.313C87.0931 425.993 359.183 470.823 363.773 500.183C363.76 502.875 363.645 505.487 363.452 508.038C352.336 479.06 93.8471 436.452 77.4844 459.373Z" fill="black"/>
<path d="M15.8283 473.186C16.2689 474.469 17.1046 475.579 18.2155 476.357C19.3264 477.135 20.6554 477.541 22.0115 477.517L48.5033 476.835C49.8693 476.809 51.1901 476.341 52.2681 475.501C53.3461 474.662 54.1235 473.496 54.4841 472.178L58.233 432.091C59.5631 432.694 61.011 432.991 62.4709 432.962C65.0313 432.896 67.4607 431.816 69.2251 429.959C70.9896 428.103 71.9446 425.622 71.8803 423.061C71.816 420.501 70.7377 418.071 68.8824 416.305C67.027 414.54 64.5465 413.583 61.986 413.645C61.4025 413.644 60.8205 413.704 60.2498 413.826C59.6293 413.155 58.8749 412.621 58.0355 412.258C57.196 411.896 56.29 411.714 55.3758 411.723L14.6253 412.775C14.2872 412.788 13.9509 412.829 13.6201 412.9C12.7264 413.067 11.8788 413.423 11.1343 413.944C10.3898 414.466 9.7657 415.141 9.30397 415.924C8.84224 416.707 8.55363 417.58 8.45754 418.484C8.36144 419.388 8.4601 420.302 8.74689 421.165L15.8283 473.186ZM59.0018 429.369L61.6694 419.817C61.9729 418.713 61.9799 417.549 61.6898 416.442C61.8192 416.442 61.9334 416.38 62.0629 416.38C63.892 416.342 65.6614 417.031 66.9833 418.296C68.3051 419.561 69.0715 421.298 69.1143 423.127C69.1572 424.956 68.473 426.728 67.2118 428.053C65.9506 429.378 64.2153 430.149 62.3864 430.197C61.2039 430.234 60.0338 429.948 59.0018 429.369Z" fill="#2F2E41"/>
<path d="M13.6172 412.901C14.4854 417.865 24.2463 421.355 35.983 420.749C46.7757 420.251 55.6005 416.462 57.2173 411.97C56.6189 411.793 55.9967 411.71 55.3729 411.724L14.6224 412.776C14.2843 412.789 13.948 412.831 13.6172 412.901Z" fill="#3F3D56"/>
<path d="M38.1399 451.156C38.1936 451.143 38.2446 451.12 38.2909 451.09L44.044 447.324C44.1136 447.279 44.1707 447.217 44.2103 447.144C44.2498 447.071 44.2706 446.989 44.2706 446.906C44.2707 446.823 44.25 446.741 44.2104 446.668C44.1709 446.595 44.1139 446.533 44.0443 446.488L38.0645 442.571C38.0097 442.535 37.9481 442.51 37.8835 442.497C37.8189 442.485 37.7525 442.485 37.688 442.499C37.6236 442.512 37.5624 442.538 37.508 442.575C37.4535 442.612 37.4069 442.659 37.3708 442.714C37.3348 442.769 37.3099 442.831 37.2977 442.895C37.2855 442.96 37.2862 443.026 37.2998 443.091C37.3133 443.155 37.3394 443.216 37.3766 443.271C37.4139 443.325 37.4614 443.371 37.5166 443.407L42.8575 446.905L37.7436 450.253C37.6445 450.318 37.5717 450.416 37.538 450.529C37.5042 450.643 37.5118 450.764 37.5594 450.873C37.6069 450.981 37.6914 451.069 37.7977 451.121C37.904 451.173 38.0253 451.185 38.1399 451.156Z" fill="#35AA86"/>
<path d="M29.049 451.577C29.1456 451.552 29.2326 451.5 29.299 451.425C29.3654 451.351 29.4081 451.259 29.4217 451.16C29.4352 451.061 29.419 450.961 29.375 450.872C29.3311 450.782 29.2615 450.708 29.1751 450.658L23.8721 447.618L28.9977 443.811C29.0503 443.772 29.0947 443.723 29.1284 443.666C29.1621 443.61 29.1844 443.548 29.1939 443.483C29.2035 443.418 29.2002 443.352 29.1842 443.288C29.1682 443.224 29.1398 443.164 29.1007 443.112C29.0616 443.059 29.0124 443.015 28.9561 442.981C28.8998 442.947 28.8374 442.925 28.7725 442.915C28.7076 442.906 28.6414 442.909 28.5778 442.925C28.5142 442.941 28.4543 442.97 28.4017 443.009L22.663 447.271C22.5963 447.321 22.543 447.386 22.5079 447.461C22.4728 447.536 22.4569 447.619 22.4618 447.702C22.4667 447.785 22.4921 447.865 22.5359 447.936C22.5796 448.006 22.6402 448.065 22.7122 448.106L28.6775 451.526C28.79 451.59 28.9232 451.609 29.049 451.577Z" fill="#35AA86"/>
<path d="M37.5663 454.458C37.6147 454.446 37.6609 454.426 37.7033 454.4C37.7595 454.366 37.8084 454.321 37.8472 454.268C37.886 454.215 37.914 454.155 37.9296 454.091C37.9451 454.027 37.9479 453.961 37.9379 453.896C37.9278 453.831 37.905 453.769 37.8708 453.713L29.7153 440.304C29.646 440.192 29.5349 440.111 29.4063 440.08C29.2776 440.049 29.142 440.071 29.029 440.139C28.9161 440.208 28.835 440.319 28.8035 440.448C28.772 440.576 28.7926 440.712 28.8609 440.825L37.0164 454.233C37.0721 454.325 37.1555 454.396 37.2545 454.436C37.3534 454.476 37.4627 454.484 37.5663 454.458Z" fill="#35AA86"/>
<path d="M671.008 398.184H582.008V476.184H671.008V398.184Z" fill="#3F3D56"/>
<path d="M684.199 289.234C682.549 299.013 683.998 309.063 688.343 317.977C689.952 321.256 691.943 325.205 689.985 328.288C689.435 329.058 688.721 329.696 687.893 330.155C687.065 330.613 686.145 330.881 685.201 330.939C683.311 331.039 681.419 330.794 679.617 330.216" fill="#CCCCCC"/>
<path d="M606.008 259.184C607.665 259.184 609.008 258.064 609.008 256.684C609.008 255.303 607.665 254.184 606.008 254.184C604.351 254.184 603.008 255.303 603.008 256.684C603.008 258.064 604.351 259.184 606.008 259.184Z" fill="#3F3D56"/>
<path d="M617.008 260.184C618.665 260.184 620.008 259.064 620.008 257.684C620.008 256.303 618.665 255.184 617.008 255.184C615.351 255.184 614.008 256.303 614.008 257.684C614.008 259.064 615.351 260.184 617.008 260.184Z" fill="#3F3D56"/>
<path d="M628.008 265.184C629.665 265.184 631.008 264.064 631.008 262.684C631.008 261.303 629.665 260.184 628.008 260.184C626.351 260.184 625.008 261.303 625.008 262.684C625.008 264.064 626.351 265.184 628.008 265.184Z" fill="#3F3D56"/>
<path d="M641.008 262.184C642.665 262.184 644.008 261.064 644.008 259.684C644.008 258.303 642.665 257.184 641.008 257.184C639.351 257.184 638.008 258.303 638.008 259.684C638.008 261.064 639.351 262.184 641.008 262.184Z" fill="#3F3D56"/>
<path d="M367.936 309.57C382.506 305.526 398.735 309.861 409.994 319.79C416.069 325.185 420.528 332.16 422.873 339.938C425.747 349.197 426.223 358.964 426.524 368.588C426.857 379.23 427.146 389.873 427.456 400.515C427.752 410.662 427.786 420.857 428.463 430.987C429.031 439.488 430.392 448.312 434.941 455.685C439.159 462.521 445.823 467.136 453.353 469.68C460.986 472.258 469.214 472.859 477.221 472.806C486.539 472.776 495.841 472.04 505.048 470.603C522.535 467.801 539.808 460.656 550.489 445.914C555.406 439.22 558.169 431.188 558.411 422.886C558.636 413.211 555.545 403.84 552.16 394.904C548.865 386.208 545.301 377.64 543.215 368.548C541.278 360.04 540.355 351.331 540.466 342.606C540.644 325.149 544.828 307.966 552.695 292.381C556.677 284.377 561.727 276.95 567.709 270.306C573.877 263.594 581.515 258.053 590.598 256.237C595.031 255.318 599.622 255.503 603.966 256.774C605.82 257.329 606.612 254.435 604.764 253.881C595.766 251.187 585.99 253.236 578.012 257.912C570.168 262.51 563.969 269.408 558.708 276.721C548.6 291.06 541.871 307.503 539.025 324.814C536.18 342.126 537.293 359.857 542.28 376.677C547.618 394.166 559.23 412.37 554.241 431.298C549.875 447.864 534.75 459.123 519.125 464.209C509.645 467.294 499.707 468.599 489.793 469.274C481.416 469.845 472.924 470.208 464.571 469.131C456.898 468.143 449.006 465.797 443.057 460.647C436.537 455.001 433.556 446.889 432.259 438.564C430.791 429.144 431.007 419.431 430.73 409.926L429.785 377.483C429.251 359.159 429.711 338.852 417.79 323.669C413.024 317.753 406.971 313.002 400.092 309.777C393.213 306.552 385.689 304.939 378.093 305.059C374.389 305.144 370.709 305.688 367.138 306.678C366.767 306.794 366.455 307.05 366.269 307.392C366.083 307.733 366.037 308.134 366.14 308.509C366.243 308.884 366.488 309.205 366.823 309.403C367.158 309.601 367.557 309.661 367.936 309.57Z" fill="#3F3D56"/>
<path d="M154.966 290.588C157.09 305.698 165.125 319.347 177.306 328.536C189.488 337.726 204.819 341.703 219.931 339.594C235.044 337.486 248.701 329.465 257.902 317.292C267.103 305.12 271.096 289.793 269.003 274.679L268.889 273.862C266.454 258.951 258.255 245.596 246.061 236.676C233.867 227.756 218.656 223.987 203.708 226.181C188.76 228.376 175.274 236.359 166.159 248.407C157.044 260.456 153.03 275.605 154.984 290.586L154.966 290.588Z" fill="#FFB6B6"/>
<path d="M205.719 338.192C202.743 332.197 199.684 325.759 200.493 319.114C201.301 312.47 207.794 306.099 214.197 308.052C218.025 309.219 220.929 312.986 224.928 313.166C230.43 313.414 233.563 307.107 235.257 301.867L242.16 280.525C255.473 290.984 238.612 280.019 255.104 276.19C261.574 274.688 268.105 271.78 271.885 266.318C275.665 260.857 275.614 252.405 270.39 248.302C267.829 246.29 264.427 245.534 261.979 243.386C260.46 242.054 259.41 240.268 258.985 238.293C258.56 236.318 258.783 234.259 259.619 232.42C260.456 230.581 261.862 229.06 263.63 228.082C265.398 227.104 267.433 226.722 269.436 226.991L251.869 224.855L257.069 215.376C253.31 218.36 248.065 218.777 243.338 217.942C238.611 217.108 234.155 215.177 229.529 213.896C207.322 207.743 181.573 218.657 170.552 238.894C166.226 237.465 161.568 237.385 157.196 238.664C152.823 239.942 148.942 242.519 146.068 246.052C141.387 252.034 140.135 260 139.979 267.594C139.687 282.566 143.001 297.389 149.641 310.812C151.711 314.984 154.157 319.076 157.675 322.127C161.192 325.178 200.946 342.082 205.534 341.285" fill="#2F2E41"/>
<path d="M621.008 298.684C621.016 301.279 620.683 303.865 620.018 306.374V306.384C620.008 306.434 619.988 306.484 619.978 306.534C617.958 313.964 613.138 319.184 607.508 319.184C601.908 319.184 597.108 314.004 595.058 306.634C594.918 306.124 594.798 305.614 594.688 305.084C594.548 304.494 594.438 303.884 594.348 303.254C594.268 302.754 594.208 302.244 594.158 301.724C594.088 301.004 594.038 300.284 594.028 299.534V299.524C594.008 299.244 594.008 298.964 594.008 298.684V298.434L594.018 298.424C594.019 297.156 594.103 295.89 594.268 294.634C594.338 294.104 594.418 293.594 594.518 293.084C594.638 292.464 594.768 291.854 594.928 291.254C595.058 290.724 595.208 290.214 595.368 289.704C595.588 289.024 595.828 288.364 596.098 287.734C596.268 287.324 596.448 286.924 596.628 286.534C599.088 281.474 603.048 278.184 607.508 278.184C613.678 278.184 618.878 284.474 620.488 293.054C620.508 293.184 620.538 293.314 620.548 293.444V293.454C620.856 295.18 621.01 296.93 621.008 298.684Z" fill="#E6E6E6"/>
<path d="M596.762 286.975C596.756 287.158 596.687 287.334 596.567 287.473C596.447 287.611 596.282 287.704 596.102 287.735C596.272 287.325 596.452 286.925 596.632 286.535C596.715 286.667 596.76 286.819 596.762 286.975Z" fill="#35AA86"/>
<path d="M608.585 286.066H599.785C599.356 286.066 599.008 286.414 599.008 286.844C599.008 287.273 599.356 287.621 599.785 287.621H608.585C609.014 287.621 609.362 287.273 609.362 286.844C609.362 286.414 609.014 286.066 608.585 286.066Z" fill="#35AA86"/>
<path d="M596.49 290.477C596.489 290.684 596.407 290.882 596.261 291.028C596.115 291.175 595.917 291.257 595.71 291.257H594.93C595.06 290.727 595.21 290.217 595.37 289.707H595.71C595.915 289.707 596.112 289.787 596.258 289.932C596.404 290.076 596.487 290.272 596.49 290.477Z" fill="#35AA86"/>
<path d="M600.303 289.703H598.887C598.457 289.703 598.109 290.051 598.109 290.48C598.109 290.91 598.457 291.258 598.887 291.258H600.303C600.732 291.258 601.08 290.91 601.08 290.48C601.08 290.051 600.732 289.703 600.303 289.703Z" fill="#35AA86"/>
<path d="M612.898 289.574H604.098C603.668 289.574 603.32 289.922 603.32 290.351C603.32 290.781 603.668 291.129 604.098 291.129H612.898C613.327 291.129 613.675 290.781 613.675 290.351C613.675 289.922 613.327 289.574 612.898 289.574Z" fill="#35AA86"/>
<path d="M600.029 293.211H598.613C598.184 293.211 597.836 293.559 597.836 293.988C597.836 294.417 598.184 294.765 598.613 294.765H600.029C600.458 294.765 600.806 294.417 600.806 293.988C600.806 293.559 600.458 293.211 600.029 293.211Z" fill="#35AA86"/>
<path d="M604.623 293.211H603.207C602.778 293.211 602.43 293.559 602.43 293.988C602.43 294.417 602.778 294.765 603.207 294.765H604.623C605.052 294.765 605.4 294.417 605.4 293.988C605.4 293.559 605.052 293.211 604.623 293.211Z" fill="#35AA86"/>
<path d="M596.406 293.856C596.405 294.063 596.323 294.261 596.177 294.407C596.031 294.553 595.832 294.636 595.626 294.636H594.266C594.336 294.106 594.416 293.596 594.516 293.086H595.626C595.727 293.085 595.828 293.104 595.923 293.142C596.017 293.181 596.103 293.237 596.176 293.309C596.248 293.38 596.306 293.465 596.345 293.559C596.385 293.653 596.405 293.754 596.406 293.856Z" fill="#35AA86"/>
<path d="M617.218 293.082H608.418C607.989 293.082 607.641 293.43 607.641 293.859C607.641 294.289 607.989 294.637 608.418 294.637H617.218C617.647 294.637 617.995 294.289 617.995 293.859C617.995 293.43 617.647 293.082 617.218 293.082Z" fill="#35AA86"/>
<path d="M596.758 298.975C596.757 299.077 596.737 299.178 596.698 299.272C596.658 299.366 596.601 299.451 596.528 299.523C596.456 299.594 596.37 299.651 596.275 299.689C596.181 299.727 596.08 299.746 595.978 299.745H594.568C594.368 299.746 594.175 299.671 594.028 299.535V299.525C594.008 299.245 594.008 298.965 594.008 298.685V298.435L594.018 298.425C594.09 298.352 594.175 298.294 594.27 298.255C594.364 298.215 594.465 298.195 594.568 298.195H595.978C596.185 298.196 596.383 298.278 596.529 298.424C596.675 298.57 596.758 298.769 596.758 298.975Z" fill="#CCCCCC"/>
<path d="M608.585 298.066H599.785C599.356 298.066 599.008 298.414 599.008 298.844C599.008 299.273 599.356 299.621 599.785 299.621H608.585C609.014 299.621 609.362 299.273 609.362 298.844C609.362 298.414 609.014 298.066 608.585 298.066Z" fill="#CCCCCC"/>
<path d="M596.486 302.474C596.486 302.681 596.404 302.879 596.257 303.025C596.111 303.171 595.913 303.254 595.706 303.254H594.346C594.266 302.754 594.206 302.244 594.156 301.724C594.201 301.708 594.249 301.701 594.296 301.704H595.706C595.911 301.704 596.108 301.784 596.255 301.929C596.401 302.073 596.484 302.269 596.486 302.474Z" fill="#CCCCCC"/>
<path d="M600.303 301.703H598.887C598.457 301.703 598.109 302.051 598.109 302.48C598.109 302.91 598.457 303.258 598.887 303.258H600.303C600.732 303.258 601.08 302.91 601.08 302.48C601.08 302.051 600.732 301.703 600.303 301.703Z" fill="#CCCCCC"/>
<path d="M612.898 301.574H604.098C603.668 301.574 603.32 301.922 603.32 302.351C603.32 302.781 603.668 303.129 604.098 303.129H612.898C613.327 303.129 613.675 302.781 613.675 302.351C613.675 301.922 613.327 301.574 612.898 301.574Z" fill="#CCCCCC"/>
<path d="M600.029 305.211H598.613C598.184 305.211 597.836 305.559 597.836 305.988C597.836 306.417 598.184 306.765 598.613 306.765H600.029C600.458 306.765 600.806 306.417 600.806 305.988C600.806 305.559 600.458 305.211 600.029 305.211Z" fill="#CCCCCC"/>
<path d="M604.623 305.211H603.207C602.778 305.211 602.43 305.559 602.43 305.988C602.43 306.417 602.778 306.765 603.207 306.765H604.623C605.052 306.765 605.4 306.417 605.4 305.988C605.4 305.559 605.052 305.211 604.623 305.211Z" fill="#CCCCCC"/>
<path d="M596.407 305.856C596.407 306.063 596.325 306.261 596.179 306.407C596.032 306.553 595.834 306.636 595.628 306.636H595.057C594.917 306.126 594.797 305.616 594.688 305.086H595.628C595.729 305.085 595.83 305.104 595.925 305.142C596.019 305.181 596.105 305.237 596.178 305.309C596.25 305.38 596.308 305.465 596.347 305.559C596.387 305.653 596.407 305.754 596.407 305.856Z" fill="#CCCCCC"/>
<path d="M617.218 305.082H608.418C607.989 305.082 607.641 305.43 607.641 305.859C607.641 306.289 607.989 306.637 608.418 306.637H617.218C617.647 306.637 617.995 306.289 617.995 305.859C617.995 305.43 617.647 305.082 617.218 305.082Z" fill="#CCCCCC"/>
<path d="M614.376 248.523C614.376 248.523 597.006 258.185 602.006 269.185C607.006 280.185 678.006 271.185 678.006 271.185C678.006 271.185 673.006 256.185 664.006 253.185C655.006 250.185 614.376 248.523 614.376 248.523Z" fill="#35AA86"/>
<path d="M607.609 251.102C611.101 248.833 614.981 247.228 619.056 246.369C632.646 243.075 646.875 243.519 660.233 247.653L659.988 247.454C665.68 250.458 670.676 254.624 674.654 259.682L607.609 251.102Z" fill="#CCCCCC"/>
<path d="M684.529 298.403C684.289 301.993 684.049 305.58 683.809 309.163C683.481 316.668 682.662 324.144 681.359 331.543C680.139 337.733 678.199 343.873 674.729 349.143C671.259 354.403 666.11 358.753 660.01 360.353C656.264 361.251 652.37 361.336 648.589 360.603C641.459 356.553 636.629 361.733 643.749 367.003C645.365 368.197 647.044 369.302 648.779 370.313L652.01 420.183L592.01 407.183L603.719 340.843C601.926 339.214 600.286 337.423 598.82 335.493C592.11 326.583 589.799 314.973 590.239 303.833C590.689 292.683 593.659 281.813 596.609 271.063C597.362 268.147 598.27 265.272 599.33 262.453C600.64 262.993 601.97 263.483 603.32 263.893C611.95 266.513 621.12 266.723 630.14 266.713C646.19 266.703 662.219 266.076 678.229 264.833C681.909 270.89 684.143 277.713 684.76 284.773C685.018 289.316 684.941 293.872 684.529 298.403Z" fill="#CCCCCC"/>
<path d="M606.008 259.188C607.665 259.188 609.008 258.068 609.008 256.688C609.008 255.307 607.665 254.188 606.008 254.188C604.351 254.188 603.008 255.307 603.008 256.688C603.008 258.068 604.351 259.188 606.008 259.188Z" fill="#3F3D56"/>
<path d="M617.008 260.188C618.665 260.188 620.008 259.068 620.008 257.688C620.008 256.307 618.665 255.188 617.008 255.188C615.351 255.188 614.008 256.307 614.008 257.688C614.008 259.068 615.351 260.188 617.008 260.188Z" fill="#3F3D56"/>
<path d="M628.008 265.188C629.665 265.188 631.008 264.068 631.008 262.688C631.008 261.307 629.665 260.188 628.008 260.188C626.351 260.188 625.008 261.307 625.008 262.688C625.008 264.068 626.351 265.188 628.008 265.188Z" fill="#3F3D56"/>
<path d="M641.008 262.188C642.665 262.188 644.008 261.068 644.008 259.688C644.008 258.307 642.665 257.188 641.008 257.188C639.351 257.188 638.008 258.307 638.008 259.688C638.008 261.068 639.351 262.188 641.008 262.188Z" fill="#3F3D56"/>
<path d="M621.008 298.688C621.016 301.283 620.683 303.869 620.018 306.378V306.387C620.008 306.437 619.988 306.488 619.978 306.538C617.958 313.968 613.138 319.188 607.508 319.188C601.908 319.188 597.108 314.007 595.058 306.637C594.918 306.127 594.798 305.617 594.688 305.087C594.548 304.497 594.438 303.888 594.348 303.258C594.268 302.758 594.208 302.248 594.158 301.728C594.088 301.008 594.038 300.288 594.028 299.538V299.527C594.008 299.247 594.008 298.968 594.008 298.688V298.438L594.018 298.427C594.019 297.16 594.103 295.894 594.268 294.637C594.338 294.107 594.418 293.597 594.518 293.087C594.638 292.467 594.768 291.858 594.928 291.258C595.058 290.728 595.208 290.217 595.368 289.707C595.588 289.027 595.828 288.367 596.098 287.737C596.268 287.327 596.448 286.928 596.628 286.538C599.088 281.478 603.048 278.188 607.508 278.188C613.678 278.188 618.878 284.477 620.488 293.057C620.508 293.187 620.538 293.317 620.548 293.447V293.457C620.856 295.184 621.01 296.934 621.008 298.688Z" fill="#E6E6E6"/>
<path d="M608.585 286.062H599.785C599.356 286.062 599.008 286.41 599.008 286.84C599.008 287.269 599.356 287.617 599.785 287.617H608.585C609.014 287.617 609.362 287.269 609.362 286.84C609.362 286.41 609.014 286.062 608.585 286.062Z" fill="#35AA86"/>
<path d="M612.898 289.574H604.098C603.668 289.574 603.32 289.922 603.32 290.351C603.32 290.781 603.668 291.129 604.098 291.129H612.898C613.327 291.129 613.675 290.781 613.675 290.351C613.675 289.922 613.327 289.574 612.898 289.574Z" fill="#35AA86"/>
<path d="M617.218 293.082H608.418C607.989 293.082 607.641 293.43 607.641 293.859C607.641 294.289 607.989 294.637 608.418 294.637H617.218C617.647 294.637 617.995 294.289 617.995 293.859C617.995 293.43 617.647 293.082 617.218 293.082Z" fill="#35AA86"/>
<path d="M608.585 298.062H599.785C599.356 298.062 599.008 298.41 599.008 298.84C599.008 299.269 599.356 299.617 599.785 299.617H608.585C609.014 299.617 609.362 299.269 609.362 298.84C609.362 298.41 609.014 298.062 608.585 298.062Z" fill="#CCCCCC"/>
<path d="M612.898 301.574H604.098C603.668 301.574 603.32 301.922 603.32 302.351C603.32 302.781 603.668 303.129 604.098 303.129H612.898C613.327 303.129 613.675 302.781 613.675 302.351C613.675 301.922 613.327 301.574 612.898 301.574Z" fill="#CCCCCC"/>
<path d="M617.218 305.082H608.418C607.989 305.082 607.641 305.43 607.641 305.859C607.641 306.289 607.989 306.637 608.418 306.637H617.218C617.647 306.637 617.995 306.289 617.995 305.859C617.995 305.43 617.647 305.082 617.218 305.082Z" fill="#CCCCCC"/>
<circle cx="109" cy="271" r="3" fill="#E6E6E6"/>
<circle cx="109" cy="279" r="3" fill="#E6E6E6"/>
<circle cx="109" cy="287" r="3" fill="#E6E6E6"/>
<circle cx="109" cy="295" r="3" fill="#E6E6E6"/>
</g>
<defs>
<clipPath id="clip0_284_2105">
<rect width="738.82" height="576.27" fill="white"/>
</clipPath>
</defs>
</svg>
