<svg width="536" height="335" viewBox="0 0 536 335" fill="none" xmlns="http://www.w3.org/2000/svg">
<path d="M231.662 121.355H77.2163C75.5848 121.358 74.0207 122.024 72.8671 123.208C71.7134 124.392 71.0645 125.997 71.0625 127.672V159.163C78.7666 159.349 83.7672 165.874 84.979 173.795V202.344H85.564C85.657 202.344 85.7461 202.382 85.8119 202.45C85.8776 202.517 85.9147 202.609 85.915 202.704V217.895C85.9147 217.991 85.8776 218.082 85.8119 218.15C85.7461 218.217 85.657 218.255 85.564 218.256H84.979V310.074C84.979 312.091 84.9593 315.772 84.9593 315.772H231.662C233.293 315.77 234.857 315.104 236.011 313.919C237.165 312.735 237.814 311.13 237.816 309.455V127.672C237.814 125.997 237.165 124.392 236.011 123.208C234.857 122.024 233.293 121.358 231.662 121.355Z" fill="#00BFA6"/>
<path d="M518.616 17.7344V190.052H248.497V114.184C248.494 110.739 247.159 107.436 244.786 105.001C242.413 102.565 239.195 101.195 235.838 101.191H185.18V17.7344H518.616Z" fill="#00BFA6"/>
<path d="M535.29 214.346H248.795V213.146H534.12V10.207C534.117 7.81923 533.192 5.53004 531.547 3.84165C529.902 2.15325 527.672 1.20352 525.345 1.20082H174.945C172.618 1.20352 170.388 2.15325 168.743 3.84165C167.098 5.53004 166.173 7.81923 166.17 10.207V100.415H165V10.207C165.003 7.50086 166.052 4.90644 167.916 2.99292C169.78 1.0794 172.308 0.00304559 174.945 0H525.345C527.982 0.00304129 530.51 1.07939 532.374 2.99291C534.238 4.90643 535.287 7.50086 535.29 10.207V214.346Z" fill="#3F3D56"/>
<path d="M508.145 250.97H248.797V249.77H508.145C515.032 249.762 521.635 246.95 526.505 241.952C531.375 236.954 534.114 230.177 534.122 223.108V214.345H248.797V213.145H535.292V223.108C535.283 230.495 532.421 237.577 527.332 242.801C522.242 248.024 515.342 250.962 508.145 250.97Z" fill="#3F3D56"/>
<path d="M431.176 309.811C416.718 295.562 407.207 276.97 404.15 250.97H297.594C296.51 275.295 287.06 293.537 270.012 309.746L268.211 309.811C285.799 293.451 295.487 275.074 296.449 250.346L296.472 249.77H405.19L405.25 250.3C408.253 276.741 417.963 295.452 432.777 309.714L431.176 309.811Z" fill="#3F3D56"/>
<path d="M235.557 334.653H71.4142V333.452H235.557C238.913 333.448 242.131 332.078 244.504 329.643C246.877 327.207 248.212 323.904 248.215 320.46V114.463C248.212 111.018 246.877 107.716 244.504 105.28C242.131 102.844 238.913 101.474 235.557 101.47H71.4142C68.0582 101.474 64.8407 102.844 62.4676 105.28C60.0945 107.716 58.7597 111.018 58.7559 114.463V158.918H57.5859V114.463C57.5901 110.7 59.0483 107.092 61.6407 104.431C64.2331 101.771 67.748 100.274 71.4142 100.27H235.557C239.223 100.274 242.738 101.771 245.331 104.431C247.923 107.092 249.381 110.7 249.385 114.463V320.46C249.381 324.223 247.923 327.83 245.331 330.491C242.738 333.152 239.223 334.649 235.557 334.653Z" fill="#3F3D56"/>
<path d="M152.967 115.143C152.182 115.143 151.415 114.904 150.763 114.457C150.111 114.009 149.602 113.373 149.302 112.629C149.002 111.886 148.923 111.067 149.076 110.277C149.229 109.487 149.607 108.762 150.162 108.193C150.717 107.623 151.423 107.235 152.193 107.078C152.962 106.921 153.76 107.002 154.485 107.31C155.21 107.618 155.829 108.14 156.265 108.809C156.701 109.479 156.933 110.266 156.933 111.071C156.932 112.151 156.514 113.186 155.77 113.949C155.027 114.712 154.018 115.142 152.967 115.143ZM152.967 107.941C152.364 107.941 151.774 108.125 151.272 108.469C150.771 108.813 150.38 109.302 150.149 109.874C149.918 110.446 149.858 111.075 149.976 111.682C150.093 112.289 150.384 112.847 150.81 113.285C151.237 113.723 151.78 114.021 152.372 114.142C152.963 114.262 153.577 114.2 154.134 113.963C154.691 113.726 155.168 113.325 155.503 112.81C155.838 112.296 156.017 111.69 156.017 111.071C156.016 110.241 155.694 109.446 155.122 108.859C154.551 108.272 153.775 107.942 152.967 107.941Z" fill="#3F3D56"/>
<path d="M69.7644 335.001H15.4286C11.3381 334.996 7.41643 333.326 4.524 330.357C1.63157 327.389 0.00457991 323.363 0 319.165V174.753C0.00463651 170.555 1.63163 166.53 4.52404 163.561C7.41644 160.593 11.3381 158.923 15.4285 158.918H69.7645C73.8549 158.923 77.7766 160.593 80.669 163.561C83.5614 166.53 85.1884 170.555 85.193 174.753V200.597C85.4701 200.715 85.7067 200.916 85.8733 201.172C86.0399 201.428 86.1289 201.73 86.1292 202.038L86.1292 218.853C86.1289 219.162 86.0398 219.463 85.8733 219.719C85.7067 219.976 85.4701 220.176 85.193 220.295V319.165C85.1883 323.364 83.5613 327.389 80.6689 330.357C77.7765 333.326 73.8549 334.996 69.7644 335.001ZM15.4285 160.119C11.6482 160.123 8.02403 161.666 5.35096 164.41C2.67789 167.154 1.17426 170.873 1.16994 174.753V319.165C1.17418 323.045 2.67779 326.765 5.35089 329.509C8.02398 332.252 11.6483 333.796 15.4286 333.8H69.7644C73.5447 333.796 77.1689 332.252 79.842 329.509C82.5151 326.765 84.0187 323.045 84.023 319.165V219.214H84.608C84.7011 219.214 84.7904 219.176 84.8562 219.108C84.9221 219.041 84.9591 218.949 84.9592 218.853L84.9593 202.038C84.9592 201.942 84.9221 201.851 84.8563 201.783C84.7904 201.715 84.7011 201.677 84.608 201.677H84.023V174.753C84.0187 170.873 82.5151 167.154 79.842 164.41C77.169 161.666 73.5447 160.123 69.7645 160.119H15.4285Z" fill="#3F3D56"/>
<path d="M70.3623 163.48H63.2696C63.5958 164.301 63.7203 165.192 63.6322 166.074C63.544 166.955 63.246 167.801 62.7643 168.537C62.2825 169.273 61.6319 169.876 60.8697 170.292C60.1076 170.709 59.2572 170.927 58.3936 170.927H27.2653C26.4017 170.927 25.5513 170.709 24.7891 170.292C24.0269 169.876 23.3763 169.273 22.8946 168.537C22.4129 167.801 22.1148 166.955 22.0267 166.074C21.9386 165.192 22.0631 164.301 22.3892 163.48H15.7647C12.8248 163.48 10.0053 164.679 7.92644 166.813C5.8476 168.947 4.6797 171.84 4.67969 174.858V319.058C4.67969 322.075 5.84757 324.969 7.92642 327.103C10.0053 329.236 12.8248 330.435 15.7647 330.435H70.3623C73.3022 330.435 76.1217 329.236 78.2006 327.103C80.2794 324.969 81.4473 322.075 81.4473 319.058V174.858C81.4473 171.84 80.2794 168.947 78.2006 166.813C76.1217 164.679 73.3022 163.48 70.3623 163.48Z" fill="#00BFA6"/>
</svg>
