<svg width="930" height="603" viewBox="0 0 930 603" fill="none" xmlns="http://www.w3.org/2000/svg">
<g clip-path="url(#clip0_109_1265)">
<path d="M712.027 596.181C700.121 585.27 692.888 568.034 694.785 551.254C696.682 534.474 708.429 519.048 723.667 515.485C738.905 511.922 756.275 521.786 760.903 537.929C763.45 506.805 766.385 474.378 781.643 447.874C795.458 423.875 819.387 406.703 845.32 403.631C871.253 400.559 898.557 412.162 914.731 434.36C930.904 456.559 934.864 488.831 923.537 514.316C915.192 533.091 899.818 547.063 883.711 558.43C831.661 594.852 769.233 609.663 707.915 600.139L712.027 596.181Z" fill="#D3D1D1"/>
<path d="M889.089 412.805C867.691 431.706 848.061 452.847 830.482 475.92C802.971 511.905 780.709 552.252 764.471 595.553C763.283 598.712 768.012 600.087 769.188 596.964C795.756 526.589 838.169 464.562 892.548 416.556C894.99 414.399 891.511 410.666 889.089 412.805Z" fill="#EEEDED"/>
<path d="M299.382 593.217C315.736 578.23 325.669 554.556 323.064 531.509C320.459 508.462 304.324 487.274 283.395 482.38C262.466 477.486 238.608 491.034 232.251 513.206C228.753 470.459 224.721 425.92 203.765 389.516C184.79 356.554 151.924 332.968 116.305 328.748C80.6856 324.529 43.1832 340.465 20.9689 370.955C-1.24545 401.445 -6.68453 445.77 8.87381 480.775C20.3351 506.562 41.4508 525.753 63.5749 541.365C134.158 591.175 221.717 611.949 305.03 598.652" fill="#D3D1D1"/>
<path d="M56.1895 341.349C85.5797 367.31 112.542 396.347 136.687 428.037C160.835 459.696 182.095 493.82 200.168 529.93C210.27 550.186 219.345 571.025 227.353 592.354C228.985 596.693 222.489 598.582 220.874 594.291C206.691 556.688 189.145 520.683 168.485 486.792C147.926 453.024 124.396 421.498 98.2236 392.658C83.4206 376.354 67.8021 360.945 51.439 346.501C48.085 343.539 52.8632 338.411 56.1895 341.349Z" fill="#EEEDED"/>
<path d="M667.571 601.68H277.398V167.52C277.398 75.1489 346.691 0 431.864 0H513.106C598.278 0 667.571 75.1489 667.571 167.52V601.68Z" fill="#D3D1D1"/>
<path d="M586.33 601.68H277.399V167.52C277.314 132.125 287.648 97.6254 306.898 69.0431C307.607 67.9942 308.315 66.9589 309.045 65.9349C318.356 52.691 329.436 41.0274 341.92 31.3289C342.625 30.7724 343.333 30.2256 344.052 29.6788C354.498 21.8389 365.798 15.4299 377.695 10.5978C378.401 10.3074 379.12 10.0164 379.84 9.73734C390.599 5.5732 401.752 2.72079 413.093 1.23276C413.796 1.1286 414.518 1.04709 415.24 0.965578C426.292 -0.316 437.439 -0.316 448.491 0.965578C449.211 1.04709 449.933 1.12859 450.644 1.23388C461.982 2.722 473.133 5.57407 483.889 9.7374C484.609 10.0165 485.328 10.3074 486.036 10.5984C497.786 15.3696 508.953 21.6829 519.288 29.3975C520.006 29.9324 520.725 30.4793 521.433 31.0261C528.43 36.4432 535.003 42.4782 541.084 49.0695C545.961 54.3564 550.505 59.992 554.686 65.9383C555.414 66.9589 556.122 67.9943 556.83 69.0415C576.08 97.6241 586.415 132.125 586.33 167.52V601.68Z" fill="#A0A0A0"/>
<path d="M561.205 407.496C570.651 407.496 578.308 399.192 578.308 388.947C578.308 378.703 570.651 370.398 561.205 370.398C551.759 370.398 544.102 378.703 544.102 388.947C544.102 399.192 551.759 407.496 561.205 407.496Z" fill="#00BFA6"/>
<path d="M501.343 475.896H362.378C360.548 475.906 358.788 475.129 357.486 473.735C356.183 472.341 355.444 470.443 355.43 468.458V132.063C355.444 130.078 356.183 128.18 357.486 126.786C358.788 125.392 360.548 124.615 362.378 124.626H501.343C503.174 124.615 504.933 125.392 506.236 126.786C507.538 128.18 508.278 130.078 508.292 132.063V468.458C508.278 470.443 507.538 472.341 506.236 473.735C504.933 475.129 503.174 475.906 501.343 475.896Z" fill="#EEEDED"/>
<path d="M508.292 233.472H355.43V235.791H508.292V233.472Z" fill="#A0A0A0"/>
<path d="M508.831 365.761H355.969V368.08H508.831V365.761Z" fill="#A0A0A0"/>
<path d="M405.669 124.625H403.531V477.055H405.669V124.625Z" fill="#A0A0A0"/>
<path d="M459.122 124.625H456.984V477.055H459.122V124.625Z" fill="#A0A0A0"/>
<path fill-rule="evenodd" clip-rule="evenodd" d="M694.953 247.293C700.02 240.737 703.45 232.702 702.877 223.699C701.226 197.758 668.466 203.464 662.093 216.557C655.72 229.65 656.478 262.861 664.714 265.201C667.998 266.134 674.995 263.848 682.116 259.117L677.646 293.974H704.039L694.953 247.293Z" fill="#915B3C"/>
<path fill-rule="evenodd" clip-rule="evenodd" d="M696.981 253.133C700.293 236.888 709.73 225.815 708.289 218.554C707.328 213.714 704.767 210.704 700.606 209.524C698.454 199.928 691.514 195.846 679.784 197.279C662.19 199.429 651.452 207.483 656.089 225.205C660.352 225.205 665.498 223.505 672.614 226.417C674.872 227.341 676.487 230.205 677.459 235.011H680.675C683.796 229.308 686.873 227.212 689.907 228.724C692.94 230.236 693.63 233.907 691.976 239.739L693.56 253.133H696.981Z" fill="#191847"/>
<path fill-rule="evenodd" clip-rule="evenodd" d="M777.717 445.495H651.252C641.535 445.495 633.657 454.178 633.657 464.89V576.41C633.657 587.121 641.535 595.804 651.252 595.804H777.717C787.435 595.804 795.312 587.121 795.312 576.41V464.89C795.312 454.178 787.435 445.495 777.717 445.495ZM760.122 479.436C762.552 479.436 764.521 481.607 764.521 484.285V557.015C764.521 559.693 762.552 561.863 760.122 561.863H668.847C666.418 561.863 664.449 559.693 664.449 557.015V484.285C664.449 481.607 666.418 479.436 668.847 479.436H760.122Z" fill="#C5CFD6"/>
<path fill-rule="evenodd" clip-rule="evenodd" d="M524.612 589.743C546.294 560.559 560.964 538.924 568.623 524.836C581.737 500.715 592.47 479.252 595.857 471.053C603.934 451.502 577.263 442.347 571.226 451.466C562.09 465.269 542.578 508.701 512.691 581.764L524.612 589.743Z" fill="#B28B67"/>
<path fill-rule="evenodd" clip-rule="evenodd" d="M569.041 581.258L609.391 469.298C618.021 448.888 576.345 435.473 570.002 444.971C555.603 466.535 521.378 551.601 517.088 558.026L569.041 581.258Z" fill="#2F3676"/>
<path fill-rule="evenodd" clip-rule="evenodd" d="M676.505 558.513C668.694 545.901 640.255 503.493 624.724 485.98C620.26 480.948 615.905 476.118 611.785 471.618C599.539 458.243 574.785 481.137 587.017 493.31C617.48 523.626 661.952 564.521 665.666 568.169C670.871 573.283 681.415 566.438 676.505 558.513Z" fill="#915B3C"/>
<path fill-rule="evenodd" clip-rule="evenodd" d="M674.919 552.947C677.581 555.313 679.307 557.253 680.096 558.769C681.056 560.613 682.169 563.489 683.435 567.397C681.429 568.685 663.406 580.261 629.366 602.126C625.382 598.073 624.801 594.877 627.622 592.538C630.444 590.198 632.773 588.226 634.609 586.622L653.519 558.529C653.883 557.989 654.57 557.856 655.054 558.234C655.062 558.24 655.071 558.247 655.079 558.254L658.87 561.396C662.398 560.991 665.038 560.225 666.791 559.1C668.214 558.186 669.861 556.31 671.731 553.472C672.448 552.383 673.821 552.103 674.796 552.846C674.839 552.878 674.879 552.912 674.919 552.947Z" fill="#E4E4E4"/>
<path fill-rule="evenodd" clip-rule="evenodd" d="M533.936 585.382C535.166 589.002 535.781 591.711 535.781 593.508C535.781 595.694 535.451 598.883 534.79 603.077C532.49 603.077 511.815 603.077 472.765 603.077C471.154 597.204 472.084 594.033 475.557 593.564C479.029 593.096 481.914 592.673 484.211 592.296L513.04 578.129C513.594 577.857 514.244 578.131 514.492 578.743C514.496 578.753 514.5 578.764 514.504 578.774L516.357 583.729C519.572 585.383 522.184 586.209 524.194 586.209C525.827 586.209 528.082 585.482 530.96 584.028C532.064 583.47 533.369 584.005 533.876 585.222C533.897 585.274 533.917 585.328 533.936 585.382Z" fill="#E4E4E4"/>
<path fill-rule="evenodd" clip-rule="evenodd" d="M621.456 459.94C654.993 453.918 677.456 449.799 688.847 447.586C721.313 441.275 730.781 422.018 725.183 380H665.364C657.448 382.52 624.372 398.104 566.135 426.753C555.657 432.486 557.608 449.391 559.524 454.96C559.602 455.188 577.265 488.551 612.515 555.05L661.449 520.688L621.364 463.989C620.305 461.639 620.336 460.289 621.456 459.94Z" fill="#5C63AB"/>
<path fill-rule="evenodd" clip-rule="evenodd" d="M725.189 389.126C723.106 408.335 719.721 422.276 715.033 430.949H739.609C735.032 419.185 730.226 405.244 725.189 389.126Z" fill="black" fill-opacity="0.1"/>
<path fill-rule="evenodd" clip-rule="evenodd" d="M630.393 356.129L600.206 381.72C591.739 384.653 584.731 388.054 579.183 391.925C577.902 393.267 576.425 395.907 582.067 395.074C587.71 394.241 593.682 393.619 594.6 395.499C595.518 397.379 592.247 399.933 594.011 402.433C595.188 404.1 599.866 399.387 608.046 388.296L638.643 373.025L630.393 356.129ZM767.084 345.055L749.373 347.627C768.385 388.876 778.577 410.692 779.95 413.072C783.04 418.429 779.406 427.759 777.986 432.698C785.164 434.771 782.872 423.68 791.948 426.447C800.233 428.971 807.07 434.695 815.275 427.889C816.284 427.052 817.134 424.316 813.927 422.722C805.939 418.75 794.21 411.481 792.387 408.803C789.901 405.15 781.467 383.9 767.084 345.055Z" fill="#B28B67"/>
<path fill-rule="evenodd" clip-rule="evenodd" d="M693.055 272.851L682.08 269.221C667.192 306.411 644.989 342.395 607.893 372.789L617.066 388.615C649.669 369.41 680.531 354.491 693.055 325.673C697.258 316.001 693.398 284.416 693.055 272.851Z" fill="#C5CFD6"/>
<path fill-rule="evenodd" clip-rule="evenodd" d="M730.75 377.519C699.312 380.852 674.566 380.852 656.514 377.519C654.277 377.106 653.924 373.361 654.962 370.82C671.114 331.243 682.19 296.71 682.19 269.221C685.153 270.715 690.34 270.939 697.75 269.893C717.664 298.221 726.817 330.725 730.75 377.519Z" fill="#323337"/>
<path fill-rule="evenodd" clip-rule="evenodd" d="M702.704 267.519H694.405C692.473 278.884 686.378 432.781 667.563 483.125H769.368C767.161 437.006 749.751 381.606 732.114 335.247C747.709 349.518 761.302 373.7 772.892 407.791L791.961 402.896C777.782 341.8 748.631 296.894 704.507 268.178C704.412 267.957 704.317 267.737 704.222 267.519H703.488C703.217 267.345 702.946 267.172 702.675 267L702.704 267.519Z" fill="#DDE3E9"/>
</g>
<defs>
<clipPath id="clip0_109_1265">
<rect width="930" height="603" fill="white"/>
</clipPath>
</defs>
</svg>
