<svg width="502" height="616" viewBox="0 0 502 616" fill="none" xmlns="http://www.w3.org/2000/svg">
<path d="M251 526.924C389.37 526.924 501.5 409.056 501.5 263.712C501.5 118.368 389.37 0.5 251 0.5C112.63 0.5 0.5 118.368 0.5 263.712C0.5 409.056 112.63 526.924 251 526.924Z" fill="url(#paint0_linear_300_1437)" stroke="#498AE7"/>
<path d="M124.304 580V562.495H129.858C131.551 562.495 132.889 562.865 133.874 563.606C134.867 564.347 135.363 565.311 135.363 566.499C135.363 567.492 135.083 568.354 134.521 569.087C133.959 569.819 133.182 570.34 132.189 570.649V570.698C133.394 570.837 134.354 571.284 135.07 572.041C135.795 572.79 136.157 573.766 136.157 574.971C136.157 576.468 135.567 577.681 134.387 578.608C133.207 579.536 131.717 580 129.919 580H124.304ZM127.197 564.827V569.807H129.077C130.086 569.807 130.875 569.571 131.445 569.099C132.023 568.619 132.312 567.944 132.312 567.073C132.312 565.575 131.311 564.827 129.309 564.827H127.197ZM127.197 572.139V577.681H129.675C130.757 577.681 131.591 577.432 132.177 576.936C132.771 576.431 133.068 575.74 133.068 574.861C133.068 573.046 131.811 572.139 129.296 572.139H127.197ZM144.641 580.293C142.712 580.293 141.17 579.711 140.014 578.547C138.867 577.375 138.293 575.825 138.293 573.896C138.293 571.797 138.891 570.157 140.087 568.977C141.292 567.797 142.911 567.207 144.946 567.207C146.899 567.207 148.421 567.781 149.511 568.928C150.602 570.076 151.147 571.667 151.147 573.701C151.147 575.695 150.557 577.294 149.377 578.499C148.205 579.695 146.626 580.293 144.641 580.293ZM144.775 569.465C143.668 569.465 142.793 569.852 142.15 570.625C141.507 571.398 141.186 572.464 141.186 573.823C141.186 575.133 141.512 576.167 142.163 576.924C142.814 577.673 143.684 578.047 144.775 578.047C145.89 578.047 146.744 577.677 147.338 576.936C147.941 576.195 148.242 575.142 148.242 573.774C148.242 572.399 147.941 571.337 147.338 570.588C146.744 569.84 145.89 569.465 144.775 569.465ZM159.582 580.293C157.653 580.293 156.111 579.711 154.956 578.547C153.808 577.375 153.234 575.825 153.234 573.896C153.234 571.797 153.833 570.157 155.029 568.977C156.233 567.797 157.853 567.207 159.887 567.207C161.84 567.207 163.362 567.781 164.453 568.928C165.543 570.076 166.088 571.667 166.088 573.701C166.088 575.695 165.498 577.294 164.318 578.499C163.146 579.695 161.568 580.293 159.582 580.293ZM159.716 569.465C158.61 569.465 157.735 569.852 157.092 570.625C156.449 571.398 156.127 572.464 156.127 573.823C156.127 575.133 156.453 576.167 157.104 576.924C157.755 577.673 158.626 578.047 159.716 578.047C160.831 578.047 161.686 577.677 162.28 576.936C162.882 576.195 163.183 575.142 163.183 573.774C163.183 572.399 162.882 571.337 162.28 570.588C161.686 569.84 160.831 569.465 159.716 569.465ZM168.2 579.609V576.985C169.258 577.791 170.426 578.193 171.704 578.193C173.413 578.193 174.267 577.689 174.267 576.68C174.267 576.395 174.194 576.155 174.047 575.959C173.901 575.756 173.701 575.577 173.449 575.422C173.205 575.268 172.912 575.129 172.57 575.007C172.237 574.885 171.862 574.747 171.447 574.592C170.935 574.389 170.471 574.173 170.056 573.945C169.649 573.717 169.307 573.461 169.03 573.176C168.762 572.883 168.558 572.554 168.42 572.188C168.282 571.821 168.212 571.394 168.212 570.906C168.212 570.304 168.355 569.775 168.64 569.319C168.924 568.855 169.307 568.468 169.787 568.159C170.267 567.842 170.812 567.606 171.423 567.451C172.033 567.288 172.664 567.207 173.315 567.207C174.471 567.207 175.504 567.382 176.416 567.732V570.21C175.537 569.608 174.528 569.307 173.388 569.307C173.03 569.307 172.705 569.343 172.412 569.417C172.127 569.49 171.883 569.591 171.679 569.722C171.476 569.852 171.317 570.011 171.203 570.198C171.089 570.377 171.032 570.576 171.032 570.796C171.032 571.064 171.089 571.292 171.203 571.479C171.317 571.667 171.484 571.833 171.704 571.98C171.931 572.118 172.2 572.249 172.509 572.371C172.827 572.485 173.189 572.611 173.596 572.749C174.133 572.969 174.613 573.193 175.036 573.42C175.467 573.648 175.834 573.909 176.135 574.202C176.436 574.486 176.668 574.82 176.831 575.203C176.993 575.577 177.075 576.025 177.075 576.545C177.075 577.18 176.928 577.734 176.635 578.206C176.342 578.678 175.952 579.068 175.463 579.377C174.975 579.687 174.41 579.915 173.767 580.061C173.132 580.216 172.46 580.293 171.752 580.293C170.385 580.293 169.201 580.065 168.2 579.609ZM186.364 579.866C185.811 580.142 185.083 580.281 184.179 580.281C181.754 580.281 180.542 579.117 180.542 576.79V569.722H178.454V567.5H180.542V564.607L183.374 563.801V567.5H186.364V569.722H183.374V575.972C183.374 576.712 183.508 577.241 183.776 577.559C184.045 577.876 184.493 578.035 185.119 578.035C185.599 578.035 186.014 577.896 186.364 577.62V579.866ZM208.203 562.495L202.465 573.64V580H199.56V573.701L193.969 562.495H197.277L200.72 570.002C200.76 570.092 200.882 570.43 201.086 571.016H201.123C201.196 570.755 201.33 570.417 201.525 570.002L205.126 562.495H208.203ZM213.439 580.293C211.511 580.293 209.969 579.711 208.813 578.547C207.666 577.375 207.092 575.825 207.092 573.896C207.092 571.797 207.69 570.157 208.886 568.977C210.091 567.797 211.71 567.207 213.745 567.207C215.698 567.207 217.22 567.781 218.31 568.928C219.401 570.076 219.946 571.667 219.946 573.701C219.946 575.695 219.356 577.294 218.176 578.499C217.004 579.695 215.425 580.293 213.439 580.293ZM213.574 569.465C212.467 569.465 211.592 569.852 210.949 570.625C210.306 571.398 209.985 572.464 209.985 573.823C209.985 575.133 210.31 576.167 210.961 576.924C211.612 577.673 212.483 578.047 213.574 578.047C214.689 578.047 215.543 577.677 216.137 576.936C216.739 576.195 217.041 575.142 217.041 573.774C217.041 572.399 216.739 571.337 216.137 570.588C215.543 569.84 214.689 569.465 213.574 569.465ZM233.74 580H230.908V578.022H230.859C230.037 579.536 228.759 580.293 227.026 580.293C224.072 580.293 222.595 578.519 222.595 574.971V567.5H225.427V574.678C225.427 576.924 226.293 578.047 228.027 578.047C228.865 578.047 229.553 577.738 230.09 577.119C230.635 576.501 230.908 575.691 230.908 574.69V567.5H233.74V580ZM244.689 570.198C244.348 569.929 243.855 569.795 243.212 569.795C242.374 569.795 241.674 570.173 241.113 570.93C240.551 571.687 240.271 572.716 240.271 574.019V580H237.438V567.5H240.271V570.076H240.319C240.596 569.197 241.019 568.513 241.589 568.025C242.167 567.528 242.81 567.28 243.518 567.28C244.03 567.28 244.421 567.358 244.689 567.512V570.198ZM253.088 579.304V576.313C253.356 576.558 253.674 576.777 254.04 576.973C254.414 577.168 254.809 577.335 255.224 577.473C255.639 577.603 256.054 577.705 256.469 577.778C256.884 577.852 257.267 577.888 257.617 577.888C258.837 577.888 259.745 577.685 260.339 577.278C260.941 576.871 261.242 576.281 261.242 575.508C261.242 575.093 261.14 574.735 260.937 574.434C260.742 574.124 260.465 573.844 260.107 573.591C259.749 573.339 259.326 573.099 258.837 572.871C258.357 572.635 257.84 572.391 257.287 572.139C256.693 571.821 256.14 571.5 255.627 571.174C255.114 570.849 254.667 570.491 254.284 570.1C253.91 569.701 253.613 569.254 253.393 568.757C253.181 568.261 253.076 567.679 253.076 567.012C253.076 566.19 253.259 565.478 253.625 564.875C253.999 564.265 254.488 563.765 255.09 563.374C255.7 562.975 256.392 562.682 257.165 562.495C257.938 562.3 258.728 562.202 259.533 562.202C261.364 562.202 262.699 562.41 263.537 562.825V565.693C262.544 564.977 261.267 564.619 259.704 564.619C259.273 564.619 258.841 564.66 258.41 564.741C257.987 564.823 257.604 564.957 257.263 565.144C256.929 565.331 256.656 565.571 256.445 565.864C256.233 566.157 256.127 566.511 256.127 566.926C256.127 567.317 256.209 567.655 256.372 567.939C256.534 568.224 256.77 568.485 257.08 568.721C257.397 568.957 257.779 569.189 258.227 569.417C258.683 569.636 259.208 569.876 259.802 570.137C260.412 570.454 260.986 570.788 261.523 571.138C262.068 571.488 262.544 571.874 262.951 572.297C263.366 572.721 263.692 573.193 263.928 573.713C264.172 574.226 264.294 574.812 264.294 575.471C264.294 576.358 264.115 577.107 263.757 577.717C263.399 578.328 262.915 578.824 262.304 579.207C261.702 579.589 261.006 579.866 260.217 580.037C259.427 580.208 258.593 580.293 257.714 580.293C257.421 580.293 257.059 580.269 256.628 580.22C256.205 580.179 255.769 580.114 255.322 580.024C254.874 579.943 254.451 579.841 254.052 579.719C253.653 579.597 253.332 579.459 253.088 579.304ZM273.059 579.866C272.505 580.142 271.777 580.281 270.874 580.281C268.448 580.281 267.236 579.117 267.236 576.79V569.722H265.148V567.5H267.236V564.607L270.068 563.801V567.5H273.059V569.722H270.068V575.972C270.068 576.712 270.202 577.241 270.471 577.559C270.739 577.876 271.187 578.035 271.813 578.035C272.294 578.035 272.709 577.896 273.059 577.62V579.866ZM286.401 580H283.569V578.022H283.52C282.698 579.536 281.42 580.293 279.687 580.293C276.733 580.293 275.256 578.519 275.256 574.971V567.5H278.088V574.678C278.088 576.924 278.955 578.047 280.688 578.047C281.526 578.047 282.214 577.738 282.751 577.119C283.296 576.501 283.569 575.691 283.569 574.69V567.5H286.401V580ZM301.464 580H298.632V577.876H298.583C297.672 579.487 296.268 580.293 294.372 580.293C292.834 580.293 291.601 579.736 290.673 578.621C289.754 577.498 289.294 575.972 289.294 574.043C289.294 571.976 289.803 570.32 290.82 569.075C291.845 567.83 293.208 567.207 294.909 567.207C296.594 567.207 297.819 567.882 298.583 569.233H298.632V561.494H301.464V580ZM298.669 574.287V572.651C298.669 571.764 298.38 571.012 297.802 570.393C297.224 569.775 296.488 569.465 295.593 569.465C294.535 569.465 293.701 569.86 293.09 570.649C292.488 571.439 292.187 572.533 292.187 573.933C292.187 575.203 292.476 576.208 293.054 576.948C293.64 577.681 294.425 578.047 295.41 578.047C296.378 578.047 297.163 577.693 297.766 576.985C298.368 576.269 298.669 575.369 298.669 574.287ZM315.991 567.5L310.351 582.002C309.179 584.59 307.535 585.884 305.419 585.884C304.825 585.884 304.329 585.831 303.93 585.725V583.369C304.378 583.516 304.785 583.589 305.151 583.589C306.209 583.589 306.998 583.068 307.519 582.026L308.361 579.976L303.393 567.5H306.53L309.509 576.582C309.541 576.696 309.615 576.997 309.729 577.485H309.79C309.83 577.298 309.903 577.005 310.009 576.606L313.134 567.5H315.991ZM341.577 567.5L337.89 580H334.924L332.653 571.528C332.564 571.203 332.507 570.837 332.482 570.43H332.434C332.417 570.706 332.344 571.064 332.214 571.504L329.748 580H326.843L323.168 567.5H326.098L328.369 576.509C328.442 576.777 328.491 577.135 328.515 577.583H328.601C328.625 577.241 328.69 576.875 328.796 576.484L331.323 567.5H333.984L336.23 576.545C336.303 576.83 336.356 577.188 336.389 577.62H336.474C336.49 577.319 336.551 576.96 336.657 576.545L338.879 567.5H341.577ZM345.117 564.875C344.653 564.875 344.254 564.725 343.92 564.424C343.595 564.123 343.432 563.74 343.432 563.276C343.432 562.812 343.595 562.426 343.92 562.117C344.254 561.807 344.653 561.653 345.117 561.653C345.597 561.653 346.004 561.807 346.337 562.117C346.671 562.426 346.838 562.812 346.838 563.276C346.838 563.716 346.671 564.094 346.337 564.412C346.004 564.721 345.597 564.875 345.117 564.875ZM346.521 580H343.688V567.5H346.521V580ZM356.823 579.866C356.27 580.142 355.542 580.281 354.638 580.281C352.213 580.281 351 579.117 351 576.79V569.722H348.913V567.5H351V564.607L353.833 563.801V567.5H356.823V569.722H353.833V575.972C353.833 576.712 353.967 577.241 354.235 577.559C354.504 577.876 354.951 578.035 355.578 578.035C356.058 578.035 356.473 577.896 356.823 577.62V579.866ZM370.373 580H367.541V573.164C367.541 570.69 366.715 569.453 365.063 569.453C364.233 569.453 363.533 569.811 362.963 570.527C362.394 571.243 362.109 572.159 362.109 573.274V580H359.265V561.494H362.109V569.575H362.158C363.102 567.996 364.453 567.207 366.21 567.207C368.986 567.207 370.373 568.904 370.373 572.297V580ZM130.834 609.304V606.313C131.103 606.558 131.42 606.777 131.787 606.973C132.161 607.168 132.556 607.335 132.971 607.473C133.386 607.603 133.801 607.705 134.216 607.778C134.631 607.852 135.013 607.888 135.363 607.888C136.584 607.888 137.491 607.685 138.085 607.278C138.688 606.871 138.989 606.281 138.989 605.508C138.989 605.093 138.887 604.735 138.684 604.434C138.488 604.124 138.212 603.844 137.854 603.591C137.495 603.339 137.072 603.099 136.584 602.871C136.104 602.635 135.587 602.391 135.034 602.139C134.44 601.821 133.886 601.5 133.374 601.174C132.861 600.849 132.413 600.491 132.031 600.1C131.656 599.701 131.359 599.254 131.14 598.757C130.928 598.261 130.822 597.679 130.822 597.012C130.822 596.19 131.005 595.478 131.372 594.875C131.746 594.265 132.234 593.765 132.836 593.374C133.447 592.975 134.139 592.682 134.912 592.495C135.685 592.3 136.474 592.202 137.28 592.202C139.111 592.202 140.445 592.41 141.284 592.825V595.693C140.291 594.977 139.013 594.619 137.451 594.619C137.019 594.619 136.588 594.66 136.157 594.741C135.734 594.823 135.351 594.957 135.009 595.144C134.676 595.331 134.403 595.571 134.191 595.864C133.98 596.157 133.874 596.511 133.874 596.926C133.874 597.317 133.955 597.655 134.118 597.939C134.281 598.224 134.517 598.485 134.826 598.721C135.144 598.957 135.526 599.189 135.974 599.417C136.429 599.636 136.954 599.876 137.548 600.137C138.159 600.454 138.732 600.788 139.27 601.138C139.815 601.488 140.291 601.874 140.698 602.297C141.113 602.721 141.438 603.193 141.674 603.713C141.918 604.226 142.041 604.812 142.041 605.471C142.041 606.358 141.861 607.107 141.503 607.717C141.145 608.328 140.661 608.824 140.051 609.207C139.449 609.589 138.753 609.866 137.963 610.037C137.174 610.208 136.34 610.293 135.461 610.293C135.168 610.293 134.806 610.269 134.375 610.22C133.951 610.179 133.516 610.114 133.068 610.024C132.621 609.943 132.198 609.841 131.799 609.719C131.4 609.597 131.079 609.459 130.834 609.304ZM155.847 610H153.015V608.022H152.966C152.144 609.536 150.866 610.293 149.133 610.293C146.179 610.293 144.702 608.519 144.702 604.971V597.5H147.534V604.678C147.534 606.924 148.4 608.047 150.134 608.047C150.972 608.047 151.66 607.738 152.197 607.119C152.742 606.501 153.015 605.691 153.015 604.69V597.5H155.847V610ZM162.426 608.193H162.377V610H159.545V591.494H162.377V599.697H162.426C163.395 598.037 164.811 597.207 166.674 597.207C168.253 597.207 169.486 597.769 170.373 598.892C171.268 600.007 171.716 601.504 171.716 603.384C171.716 605.475 171.215 607.152 170.214 608.413C169.213 609.666 167.846 610.293 166.113 610.293C164.485 610.293 163.256 609.593 162.426 608.193ZM162.353 603.225V604.775C162.353 605.687 162.642 606.46 163.22 607.095C163.806 607.729 164.546 608.047 165.441 608.047C166.491 608.047 167.313 607.64 167.907 606.826C168.509 606.004 168.811 604.861 168.811 603.396C168.811 602.167 168.53 601.207 167.968 600.515C167.415 599.815 166.662 599.465 165.71 599.465C164.701 599.465 163.887 599.823 163.269 600.54C162.658 601.256 162.353 602.151 162.353 603.225ZM177.441 609.475C177.441 611.526 177.01 613.105 176.147 614.211C175.284 615.326 174.051 615.884 172.448 615.884C171.854 615.884 171.276 615.754 170.715 615.493V613.064C171.244 613.43 171.744 613.613 172.216 613.613C173.811 613.613 174.609 612.205 174.609 609.39V597.5H177.441V609.475ZM176.049 594.875C175.585 594.875 175.187 594.725 174.853 594.424C174.528 594.123 174.365 593.74 174.365 593.276C174.365 592.812 174.528 592.426 174.853 592.117C175.187 591.807 175.585 591.653 176.049 591.653C176.521 591.653 176.924 591.807 177.258 592.117C177.591 592.426 177.758 592.812 177.758 593.276C177.758 593.716 177.591 594.094 177.258 594.412C176.924 594.721 176.521 594.875 176.049 594.875ZM191.735 604.519H183.215C183.247 605.675 183.601 606.566 184.277 607.192C184.96 607.819 185.896 608.132 187.084 608.132C188.419 608.132 189.644 607.734 190.759 606.936V609.219C189.619 609.935 188.114 610.293 186.242 610.293C184.403 610.293 182.958 609.727 181.909 608.596C180.867 607.457 180.346 605.858 180.346 603.799C180.346 601.854 180.92 600.271 182.067 599.05C183.223 597.821 184.655 597.207 186.364 597.207C188.073 597.207 189.396 597.756 190.332 598.855C191.267 599.954 191.735 601.479 191.735 603.433V604.519ZM189.001 602.517C188.993 601.5 188.753 600.71 188.281 600.149C187.809 599.579 187.158 599.294 186.328 599.294C185.514 599.294 184.822 599.591 184.252 600.186C183.691 600.78 183.345 601.557 183.215 602.517H189.001ZM203.381 609.426C202.38 610.004 201.196 610.293 199.829 610.293C197.973 610.293 196.476 609.715 195.336 608.56C194.197 607.396 193.627 605.89 193.627 604.043C193.627 601.984 194.238 600.332 195.458 599.087C196.687 597.834 198.327 597.207 200.378 597.207C201.517 597.207 202.522 597.406 203.393 597.805V600.442C202.522 599.791 201.595 599.465 200.61 599.465C199.414 599.465 198.433 599.872 197.668 600.686C196.903 601.492 196.521 602.55 196.521 603.86C196.521 605.154 196.879 606.175 197.595 606.924C198.319 607.673 199.287 608.047 200.5 608.047C201.517 608.047 202.478 607.685 203.381 606.96V609.426ZM212.792 609.866C212.239 610.142 211.511 610.281 210.607 610.281C208.182 610.281 206.97 609.117 206.97 606.79V599.722H204.882V597.5H206.97V594.607L209.802 593.801V597.5H212.792V599.722H209.802V605.972C209.802 606.712 209.936 607.241 210.205 607.559C210.473 607.876 210.921 608.035 211.547 608.035C212.028 608.035 212.443 607.896 212.792 607.62V609.866ZM220.544 604.214H213.879V602.126H220.544V604.214ZM223.535 609.304V606.313C223.803 606.558 224.121 606.777 224.487 606.973C224.861 607.168 225.256 607.335 225.671 607.473C226.086 607.603 226.501 607.705 226.916 607.778C227.331 607.852 227.714 607.888 228.063 607.888C229.284 607.888 230.192 607.685 230.786 607.278C231.388 606.871 231.689 606.281 231.689 605.508C231.689 605.093 231.587 604.735 231.384 604.434C231.188 604.124 230.912 603.844 230.554 603.591C230.196 603.339 229.772 603.099 229.284 602.871C228.804 602.635 228.287 602.391 227.734 602.139C227.14 601.821 226.586 601.5 226.074 601.174C225.561 600.849 225.113 600.491 224.731 600.1C224.357 599.701 224.06 599.254 223.84 598.757C223.628 598.261 223.522 597.679 223.522 597.012C223.522 596.19 223.706 595.478 224.072 594.875C224.446 594.265 224.934 593.765 225.537 593.374C226.147 592.975 226.839 592.682 227.612 592.495C228.385 592.3 229.174 592.202 229.98 592.202C231.811 592.202 233.146 592.41 233.984 592.825V595.693C232.991 594.977 231.713 594.619 230.151 594.619C229.72 594.619 229.288 594.66 228.857 594.741C228.434 594.823 228.051 594.957 227.709 595.144C227.376 595.331 227.103 595.571 226.892 595.864C226.68 596.157 226.574 596.511 226.574 596.926C226.574 597.317 226.656 597.655 226.818 597.939C226.981 598.224 227.217 598.485 227.526 598.721C227.844 598.957 228.226 599.189 228.674 599.417C229.13 599.636 229.654 599.876 230.249 600.137C230.859 600.454 231.433 600.788 231.97 601.138C232.515 601.488 232.991 601.874 233.398 602.297C233.813 602.721 234.139 603.193 234.375 603.713C234.619 604.226 234.741 604.812 234.741 605.471C234.741 606.358 234.562 607.107 234.204 607.717C233.846 608.328 233.361 608.824 232.751 609.207C232.149 609.589 231.453 609.866 230.664 610.037C229.874 610.208 229.04 610.293 228.161 610.293C227.868 610.293 227.506 610.269 227.075 610.22C226.652 610.179 226.216 610.114 225.769 610.024C225.321 609.943 224.898 609.841 224.499 609.719C224.1 609.597 223.779 609.459 223.535 609.304ZM240.527 608.157H240.478V615.75H237.646V597.5H240.478V599.697H240.527C241.495 598.037 242.911 597.207 244.775 597.207C246.362 597.207 247.599 597.764 248.486 598.879C249.373 599.994 249.816 601.492 249.816 603.372C249.816 605.455 249.316 607.123 248.315 608.376C247.314 609.63 245.947 610.256 244.213 610.256C242.618 610.256 241.389 609.556 240.527 608.157ZM240.454 603.225V604.775C240.454 605.687 240.743 606.46 241.32 607.095C241.906 607.729 242.647 608.047 243.542 608.047C244.592 608.047 245.414 607.64 246.008 606.826C246.61 606.004 246.911 604.861 246.911 603.396C246.911 602.167 246.63 601.207 246.069 600.515C245.515 599.815 244.763 599.465 243.811 599.465C242.801 599.465 241.988 599.823 241.369 600.54C240.759 601.256 240.454 602.151 240.454 603.225ZM263.293 604.519H254.772C254.805 605.675 255.159 606.566 255.834 607.192C256.518 607.819 257.454 608.132 258.642 608.132C259.977 608.132 261.201 607.734 262.316 606.936V609.219C261.177 609.935 259.672 610.293 257.8 610.293C255.961 610.293 254.516 609.727 253.466 608.596C252.425 607.457 251.904 605.858 251.904 603.799C251.904 601.854 252.478 600.271 253.625 599.05C254.781 597.821 256.213 597.207 257.922 597.207C259.631 597.207 260.953 597.756 261.889 598.855C262.825 599.954 263.293 601.479 263.293 603.433V604.519ZM260.559 602.517C260.55 601.5 260.31 600.71 259.838 600.149C259.366 599.579 258.715 599.294 257.885 599.294C257.071 599.294 256.38 599.591 255.81 600.186C255.249 600.78 254.903 601.557 254.772 602.517H260.559ZM274.938 609.426C273.938 610.004 272.753 610.293 271.386 610.293C269.531 610.293 268.033 609.715 266.894 608.56C265.755 607.396 265.185 605.89 265.185 604.043C265.185 601.984 265.795 600.332 267.016 599.087C268.245 597.834 269.885 597.207 271.936 597.207C273.075 597.207 274.08 597.406 274.951 597.805V600.442C274.08 599.791 273.152 599.465 272.167 599.465C270.971 599.465 269.991 599.872 269.226 600.686C268.461 601.492 268.078 602.55 268.078 603.86C268.078 605.154 268.436 606.175 269.152 606.924C269.877 607.673 270.845 608.047 272.058 608.047C273.075 608.047 274.035 607.685 274.938 606.96V609.426ZM279.187 594.875C278.723 594.875 278.324 594.725 277.99 594.424C277.665 594.123 277.502 593.74 277.502 593.276C277.502 592.812 277.665 592.426 277.99 592.117C278.324 591.807 278.723 591.653 279.187 591.653C279.667 591.653 280.074 591.807 280.407 592.117C280.741 592.426 280.908 592.812 280.908 593.276C280.908 593.716 280.741 594.094 280.407 594.412C280.074 594.721 279.667 594.875 279.187 594.875ZM280.59 610H277.758V597.5H280.59V610ZM291.369 593.801C290.987 593.582 290.551 593.472 290.063 593.472C288.688 593.472 288 594.249 288 595.803V597.5H290.905V599.722H288.012V610H285.18V599.722H283.044V597.5H285.18V595.474C285.18 594.155 285.611 593.118 286.474 592.361C287.337 591.596 288.415 591.213 289.709 591.213C290.409 591.213 290.962 591.291 291.369 591.445V593.801ZM294.348 594.875C293.884 594.875 293.485 594.725 293.151 594.424C292.826 594.123 292.663 593.74 292.663 593.276C292.663 592.812 292.826 592.426 293.151 592.117C293.485 591.807 293.884 591.653 294.348 591.653C294.828 591.653 295.235 591.807 295.568 592.117C295.902 592.426 296.069 592.812 296.069 593.276C296.069 593.716 295.902 594.094 295.568 594.412C295.235 594.721 294.828 594.875 294.348 594.875ZM295.751 610H292.919V597.5H295.751V610ZM308.41 609.426C307.409 610.004 306.225 610.293 304.858 610.293C303.002 610.293 301.505 609.715 300.366 608.56C299.226 607.396 298.657 605.89 298.657 604.043C298.657 601.984 299.267 600.332 300.488 599.087C301.717 597.834 303.356 597.207 305.407 597.207C306.547 597.207 307.552 597.406 308.422 597.805V600.442C307.552 599.791 306.624 599.465 305.639 599.465C304.443 599.465 303.462 599.872 302.697 600.686C301.932 601.492 301.55 602.55 301.55 603.86C301.55 605.154 301.908 606.175 302.624 606.924C303.348 607.673 304.317 608.047 305.529 608.047C306.547 608.047 307.507 607.685 308.41 606.96V609.426ZM329.663 594.961H324.633V610H321.728V594.961H316.711V592.495H329.663V594.961ZM340.051 604.519H331.53C331.563 605.675 331.917 606.566 332.592 607.192C333.276 607.819 334.212 608.132 335.4 608.132C336.735 608.132 337.959 607.734 339.074 606.936V609.219C337.935 609.935 336.429 610.293 334.558 610.293C332.718 610.293 331.274 609.727 330.224 608.596C329.182 607.457 328.662 605.858 328.662 603.799C328.662 601.854 329.235 600.271 330.383 599.05C331.538 597.821 332.971 597.207 334.68 597.207C336.389 597.207 337.711 597.756 338.647 598.855C339.583 599.954 340.051 601.479 340.051 603.433V604.519ZM337.316 602.517C337.308 601.5 337.068 600.71 336.596 600.149C336.124 599.579 335.473 599.294 334.643 599.294C333.829 599.294 333.138 599.591 332.568 600.186C332.006 600.78 331.66 601.557 331.53 602.517H337.316ZM341.967 609.609V606.985C343.025 607.791 344.193 608.193 345.471 608.193C347.18 608.193 348.034 607.689 348.034 606.68C348.034 606.395 347.961 606.155 347.814 605.959C347.668 605.756 347.469 605.577 347.216 605.422C346.972 605.268 346.679 605.129 346.337 605.007C346.004 604.885 345.629 604.747 345.214 604.592C344.702 604.389 344.238 604.173 343.823 603.945C343.416 603.717 343.074 603.461 342.797 603.176C342.529 602.883 342.325 602.554 342.187 602.188C342.049 601.821 341.979 601.394 341.979 600.906C341.979 600.304 342.122 599.775 342.407 599.319C342.692 598.855 343.074 598.468 343.554 598.159C344.034 597.842 344.58 597.606 345.19 597.451C345.8 597.288 346.431 597.207 347.082 597.207C348.238 597.207 349.271 597.382 350.183 597.732V600.21C349.304 599.608 348.295 599.307 347.155 599.307C346.797 599.307 346.472 599.343 346.179 599.417C345.894 599.49 345.65 599.591 345.446 599.722C345.243 599.852 345.084 600.011 344.97 600.198C344.856 600.377 344.799 600.576 344.799 600.796C344.799 601.064 344.856 601.292 344.97 601.479C345.084 601.667 345.251 601.833 345.471 601.98C345.699 602.118 345.967 602.249 346.276 602.371C346.594 602.485 346.956 602.611 347.363 602.749C347.9 602.969 348.38 603.193 348.803 603.42C349.235 603.648 349.601 603.909 349.902 604.202C350.203 604.486 350.435 604.82 350.598 605.203C350.76 605.577 350.842 606.025 350.842 606.545C350.842 607.18 350.695 607.734 350.402 608.206C350.109 608.678 349.719 609.068 349.23 609.377C348.742 609.687 348.177 609.915 347.534 610.061C346.899 610.216 346.228 610.293 345.52 610.293C344.152 610.293 342.968 610.065 341.967 609.609ZM360.131 609.866C359.578 610.142 358.85 610.281 357.946 610.281C355.521 610.281 354.309 609.117 354.309 606.79V599.722H352.221V597.5H354.309V594.607L357.141 593.801V597.5H360.131V599.722H357.141V605.972C357.141 606.712 357.275 607.241 357.543 607.559C357.812 607.876 358.26 608.035 358.886 608.035C359.366 608.035 359.781 607.896 360.131 607.62V609.866ZM361.792 609.609V606.985C362.849 607.791 364.017 608.193 365.295 608.193C367.004 608.193 367.858 607.689 367.858 606.68C367.858 606.395 367.785 606.155 367.639 605.959C367.492 605.756 367.293 605.577 367.041 605.422C366.796 605.268 366.503 605.129 366.162 605.007C365.828 604.885 365.454 604.747 365.039 604.592C364.526 604.389 364.062 604.173 363.647 603.945C363.24 603.717 362.898 603.461 362.622 603.176C362.353 602.883 362.15 602.554 362.011 602.188C361.873 601.821 361.804 601.394 361.804 600.906C361.804 600.304 361.946 599.775 362.231 599.319C362.516 598.855 362.898 598.468 363.378 598.159C363.859 597.842 364.404 597.606 365.014 597.451C365.625 597.288 366.255 597.207 366.906 597.207C368.062 597.207 369.095 597.382 370.007 597.732V600.21C369.128 599.608 368.119 599.307 366.979 599.307C366.621 599.307 366.296 599.343 366.003 599.417C365.718 599.49 365.474 599.591 365.271 599.722C365.067 599.852 364.908 600.011 364.794 600.198C364.681 600.377 364.624 600.576 364.624 600.796C364.624 601.064 364.681 601.292 364.794 601.479C364.908 601.667 365.075 601.833 365.295 601.98C365.523 602.118 365.791 602.249 366.101 602.371C366.418 602.485 366.78 602.611 367.187 602.749C367.724 602.969 368.204 603.193 368.627 603.42C369.059 603.648 369.425 603.909 369.726 604.202C370.027 604.486 370.259 604.82 370.422 605.203C370.585 605.577 370.666 606.025 370.666 606.545C370.666 607.18 370.52 607.734 370.227 608.206C369.934 608.678 369.543 609.068 369.055 609.377C368.566 609.687 368.001 609.915 367.358 610.061C366.723 610.216 366.052 610.293 365.344 610.293C363.977 610.293 362.792 610.065 361.792 609.609Z" fill="white"/>
<path d="M70.5 120C72.433 120 74 118.433 74 116.5C74 114.567 72.433 113 70.5 113C68.567 113 67 114.567 67 116.5C67 118.433 68.567 120 70.5 120Z" fill="#E6E6E6"/>
<path d="M88.5 120C90.433 120 92 118.433 92 116.5C92 114.567 90.433 113 88.5 113C86.567 113 85 114.567 85 116.5C85 118.433 86.567 120 88.5 120Z" fill="#E6E6E6"/>
<path d="M109 120C111.209 120 113 118.433 113 116.5C113 114.567 111.209 113 109 113C106.791 113 105 114.567 105 116.5C105 118.433 106.791 120 109 120Z" fill="#E6E6E6"/>
<path d="M126.5 120C128.433 120 130 118.433 130 116.5C130 114.567 128.433 113 126.5 113C124.567 113 123 114.567 123 116.5C123 118.433 124.567 120 126.5 120Z" fill="#E6E6E6"/>
<path d="M145.5 120C147.433 120 149 118.433 149 116.5C149 114.567 147.433 113 145.5 113C143.567 113 142 114.567 142 116.5C142 118.433 143.567 120 145.5 120Z" fill="#E6E6E6"/>
<path d="M163.5 120C165.433 120 167 118.433 167 116.5C167 114.567 165.433 113 163.5 113C161.567 113 160 114.567 160 116.5C160 118.433 161.567 120 163.5 120Z" fill="#E6E6E6"/>
<path d="M181 120C183.209 120 185 118.433 185 116.5C185 114.567 183.209 113 181 113C178.791 113 177 114.567 177 116.5C177 118.433 178.791 120 181 120Z" fill="#E6E6E6"/>
<path d="M201 120C203.209 120 205 118.433 205 116.5C205 114.567 203.209 113 201 113C198.791 113 197 114.567 197 116.5C197 118.433 198.791 120 201 120Z" fill="#E6E6E6"/>
<path d="M218 120C220.209 120 222 118.433 222 116.5C222 114.567 220.209 113 218 113C215.791 113 214 114.567 214 116.5C214 118.433 215.791 120 218 120Z" fill="#E6E6E6"/>
<path d="M238.5 120C240.433 120 242 118.433 242 116.5C242 114.567 240.433 113 238.5 113C236.567 113 235 114.567 235 116.5C235 118.433 236.567 120 238.5 120Z" fill="#E6E6E6"/>
<path d="M70.5 139C72.433 139 74 137.433 74 135.5C74 133.567 72.433 132 70.5 132C68.567 132 67 133.567 67 135.5C67 137.433 68.567 139 70.5 139Z" fill="#E6E6E6"/>
<path d="M88.5 139C90.433 139 92 137.433 92 135.5C92 133.567 90.433 132 88.5 132C86.567 132 85 133.567 85 135.5C85 137.433 86.567 139 88.5 139Z" fill="#E6E6E6"/>
<path d="M109 139C111.209 139 113 137.433 113 135.5C113 133.567 111.209 132 109 132C106.791 132 105 133.567 105 135.5C105 137.433 106.791 139 109 139Z" fill="#E6E6E6"/>
<path d="M126.5 139C128.433 139 130 137.433 130 135.5C130 133.567 128.433 132 126.5 132C124.567 132 123 133.567 123 135.5C123 137.433 124.567 139 126.5 139Z" fill="#00BFA6"/>
<path d="M145.5 139C147.433 139 149 137.433 149 135.5C149 133.567 147.433 132 145.5 132C143.567 132 142 133.567 142 135.5C142 137.433 143.567 139 145.5 139Z" fill="#E6E6E6"/>
<path d="M163.5 139C165.433 139 167 137.433 167 135.5C167 133.567 165.433 132 163.5 132C161.567 132 160 133.567 160 135.5C160 137.433 161.567 139 163.5 139Z" fill="#E6E6E6"/>
<path d="M181 139C183.209 139 185 137.433 185 135.5C185 133.567 183.209 132 181 132C178.791 132 177 133.567 177 135.5C177 137.433 178.791 139 181 139Z" fill="#E6E6E6"/>
<path d="M201 139C203.209 139 205 137.433 205 135.5C205 133.567 203.209 132 201 132C198.791 132 197 133.567 197 135.5C197 137.433 198.791 139 201 139Z" fill="#E6E6E6"/>
<path d="M218 139C220.209 139 222 137.433 222 135.5C222 133.567 220.209 132 218 132C215.791 132 214 133.567 214 135.5C214 137.433 215.791 139 218 139Z" fill="#E6E6E6"/>
<path d="M238.5 139C240.433 139 242 137.433 242 135.5C242 133.567 240.433 132 238.5 132C236.567 132 235 133.567 235 135.5C235 137.433 236.567 139 238.5 139Z" fill="#E6E6E6"/>
<path d="M70.5 160C72.433 160 74 158.209 74 156C74 153.791 72.433 152 70.5 152C68.567 152 67 153.791 67 156C67 158.209 68.567 160 70.5 160Z" fill="#E6E6E6"/>
<path d="M88.5 160C90.433 160 92 158.209 92 156C92 153.791 90.433 152 88.5 152C86.567 152 85 153.791 85 156C85 158.209 86.567 160 88.5 160Z" fill="#E6E6E6"/>
<path d="M109 160C111.209 160 113 158.209 113 156C113 153.791 111.209 152 109 152C106.791 152 105 153.791 105 156C105 158.209 106.791 160 109 160Z" fill="#E6E6E6"/>
<path d="M126.5 160C128.433 160 130 158.209 130 156C130 153.791 128.433 152 126.5 152C124.567 152 123 153.791 123 156C123 158.209 124.567 160 126.5 160Z" fill="#E6E6E6"/>
<path d="M145.5 160C147.433 160 149 158.209 149 156C149 153.791 147.433 152 145.5 152C143.567 152 142 153.791 142 156C142 158.209 143.567 160 145.5 160Z" fill="#E6E6E6"/>
<path d="M163.5 160C165.433 160 167 158.209 167 156C167 153.791 165.433 152 163.5 152C161.567 152 160 153.791 160 156C160 158.209 161.567 160 163.5 160Z" fill="#E6E6E6"/>
<path d="M181 160C183.209 160 185 158.209 185 156C185 153.791 183.209 152 181 152C178.791 152 177 153.791 177 156C177 158.209 178.791 160 181 160Z" fill="#E6E6E6"/>
<path d="M201 160C203.209 160 205 158.209 205 156C205 153.791 203.209 152 201 152C198.791 152 197 153.791 197 156C197 158.209 198.791 160 201 160Z" fill="#E6E6E6"/>
<path d="M218 160C220.209 160 222 158.209 222 156C222 153.791 220.209 152 218 152C215.791 152 214 153.791 214 156C214 158.209 215.791 160 218 160Z" fill="#E6E6E6"/>
<path d="M238.5 160C240.433 160 242 158.209 242 156C242 153.791 240.433 152 238.5 152C236.567 152 235 153.791 235 156C235 158.209 236.567 160 238.5 160Z" fill="#E6E6E6"/>
<path d="M70.5 179C72.433 179 74 177.209 74 175C74 172.791 72.433 171 70.5 171C68.567 171 67 172.791 67 175C67 177.209 68.567 179 70.5 179Z" fill="#E6E6E6"/>
<path d="M88.5 179C90.433 179 92 177.209 92 175C92 172.791 90.433 171 88.5 171C86.567 171 85 172.791 85 175C85 177.209 86.567 179 88.5 179Z" fill="#E6E6E6"/>
<path d="M109 179C111.209 179 113 177.209 113 175C113 172.791 111.209 171 109 171C106.791 171 105 172.791 105 175C105 177.209 106.791 179 109 179Z" fill="#E6E6E6"/>
<path d="M126.5 179C128.433 179 130 177.209 130 175C130 172.791 128.433 171 126.5 171C124.567 171 123 172.791 123 175C123 177.209 124.567 179 126.5 179Z" fill="#E6E6E6"/>
<path d="M145.5 179C147.433 179 149 177.209 149 175C149 172.791 147.433 171 145.5 171C143.567 171 142 172.791 142 175C142 177.209 143.567 179 145.5 179Z" fill="#E6E6E6"/>
<path d="M163.5 179C165.433 179 167 177.209 167 175C167 172.791 165.433 171 163.5 171C161.567 171 160 172.791 160 175C160 177.209 161.567 179 163.5 179Z" fill="#E6E6E6"/>
<path d="M181 179C183.209 179 185 177.209 185 175C185 172.791 183.209 171 181 171C178.791 171 177 172.791 177 175C177 177.209 178.791 179 181 179Z" fill="#E6E6E6"/>
<path d="M201 179C203.209 179 205 177.209 205 175C205 172.791 203.209 171 201 171C198.791 171 197 172.791 197 175C197 177.209 198.791 179 201 179Z" fill="#E6E6E6"/>
<path d="M218 179C220.209 179 222 177.209 222 175C222 172.791 220.209 171 218 171C215.791 171 214 172.791 214 175C214 177.209 215.791 179 218 179Z" fill="#E6E6E6"/>
<path d="M238.5 179C240.433 179 242 177.209 242 175C242 172.791 240.433 171 238.5 171C236.567 171 235 172.791 235 175C235 177.209 236.567 179 238.5 179Z" fill="#E6E6E6"/>
<path d="M70.5 197C72.433 197 74 195.433 74 193.5C74 191.567 72.433 190 70.5 190C68.567 190 67 191.567 67 193.5C67 195.433 68.567 197 70.5 197Z" fill="#E6E6E6"/>
<path d="M88.5 197C90.433 197 92 195.433 92 193.5C92 191.567 90.433 190 88.5 190C86.567 190 85 191.567 85 193.5C85 195.433 86.567 197 88.5 197Z" fill="#00BFA6"/>
<path d="M109 197C111.209 197 113 195.433 113 193.5C113 191.567 111.209 190 109 190C106.791 190 105 191.567 105 193.5C105 195.433 106.791 197 109 197Z" fill="#E6E6E6"/>
<path d="M126.5 197C128.433 197 130 195.433 130 193.5C130 191.567 128.433 190 126.5 190C124.567 190 123 191.567 123 193.5C123 195.433 124.567 197 126.5 197Z" fill="#E6E6E6"/>
<path d="M145.5 197C147.433 197 149 195.433 149 193.5C149 191.567 147.433 190 145.5 190C143.567 190 142 191.567 142 193.5C142 195.433 143.567 197 145.5 197Z" fill="#E6E6E6"/>
<path d="M163.5 197C165.433 197 167 195.433 167 193.5C167 191.567 165.433 190 163.5 190C161.567 190 160 191.567 160 193.5C160 195.433 161.567 197 163.5 197Z" fill="#E6E6E6"/>
<path d="M181 197C183.209 197 185 195.433 185 193.5C185 191.567 183.209 190 181 190C178.791 190 177 191.567 177 193.5C177 195.433 178.791 197 181 197Z" fill="#E6E6E6"/>
<path d="M201 197C203.209 197 205 195.433 205 193.5C205 191.567 203.209 190 201 190C198.791 190 197 191.567 197 193.5C197 195.433 198.791 197 201 197Z" fill="#E6E6E6"/>
<path d="M218 197C220.209 197 222 195.433 222 193.5C222 191.567 220.209 190 218 190C215.791 190 214 191.567 214 193.5C214 195.433 215.791 197 218 197Z" fill="#E6E6E6"/>
<path d="M238.5 197C240.433 197 242 195.433 242 193.5C242 191.567 240.433 190 238.5 190C236.567 190 235 191.567 235 193.5C235 195.433 236.567 197 238.5 197Z" fill="#E6E6E6"/>
<path d="M70.5 218C72.433 218 74 216.209 74 214C74 211.791 72.433 210 70.5 210C68.567 210 67 211.791 67 214C67 216.209 68.567 218 70.5 218Z" fill="#E6E6E6"/>
<path d="M88.5 218C90.433 218 92 216.209 92 214C92 211.791 90.433 210 88.5 210C86.567 210 85 211.791 85 214C85 216.209 86.567 218 88.5 218Z" fill="#E6E6E6"/>
<path d="M109 218C111.209 218 113 216.209 113 214C113 211.791 111.209 210 109 210C106.791 210 105 211.791 105 214C105 216.209 106.791 218 109 218Z" fill="#E6E6E6"/>
<path d="M126.5 218C128.433 218 130 216.209 130 214C130 211.791 128.433 210 126.5 210C124.567 210 123 211.791 123 214C123 216.209 124.567 218 126.5 218Z" fill="#E6E6E6"/>
<path d="M145.5 218C147.433 218 149 216.209 149 214C149 211.791 147.433 210 145.5 210C143.567 210 142 211.791 142 214C142 216.209 143.567 218 145.5 218Z" fill="#E6E6E6"/>
<path d="M163.5 218C165.433 218 167 216.209 167 214C167 211.791 165.433 210 163.5 210C161.567 210 160 211.791 160 214C160 216.209 161.567 218 163.5 218Z" fill="#E6E6E6"/>
<path d="M181 218C183.209 218 185 216.209 185 214C185 211.791 183.209 210 181 210C178.791 210 177 211.791 177 214C177 216.209 178.791 218 181 218Z" fill="#E6E6E6"/>
<path d="M201 218C203.209 218 205 216.209 205 214C205 211.791 203.209 210 201 210C198.791 210 197 211.791 197 214C197 216.209 198.791 218 201 218Z" fill="#E6E6E6"/>
<path d="M218 218C220.209 218 222 216.209 222 214C222 211.791 220.209 210 218 210C215.791 210 214 211.791 214 214C214 216.209 215.791 218 218 218Z" fill="#E6E6E6"/>
<path d="M238.5 218C240.433 218 242 216.209 242 214C242 211.791 240.433 210 238.5 210C236.567 210 235 211.791 235 214C235 216.209 236.567 218 238.5 218Z" fill="#E6E6E6"/>
<path d="M70.5 237C72.433 237 74 235.209 74 233C74 230.791 72.433 229 70.5 229C68.567 229 67 230.791 67 233C67 235.209 68.567 237 70.5 237Z" fill="#E6E6E6"/>
<path d="M88.5 237C90.433 237 92 235.209 92 233C92 230.791 90.433 229 88.5 229C86.567 229 85 230.791 85 233C85 235.209 86.567 237 88.5 237Z" fill="#E6E6E6"/>
<path d="M109 237C111.209 237 113 235.209 113 233C113 230.791 111.209 229 109 229C106.791 229 105 230.791 105 233C105 235.209 106.791 237 109 237Z" fill="#00BFA6"/>
<path d="M126.5 237C128.433 237 130 235.209 130 233C130 230.791 128.433 229 126.5 229C124.567 229 123 230.791 123 233C123 235.209 124.567 237 126.5 237Z" fill="#E6E6E6"/>
<path d="M145.5 237C147.433 237 149 235.209 149 233C149 230.791 147.433 229 145.5 229C143.567 229 142 230.791 142 233C142 235.209 143.567 237 145.5 237Z" fill="#E6E6E6"/>
<path d="M163.5 237C165.433 237 167 235.209 167 233C167 230.791 165.433 229 163.5 229C161.567 229 160 230.791 160 233C160 235.209 161.567 237 163.5 237Z" fill="#E6E6E6"/>
<path d="M181 237C183.209 237 185 235.209 185 233C185 230.791 183.209 229 181 229C178.791 229 177 230.791 177 233C177 235.209 178.791 237 181 237Z" fill="#E6E6E6"/>
<path d="M201 237C203.209 237 205 235.209 205 233C205 230.791 203.209 229 201 229C198.791 229 197 230.791 197 233C197 235.209 198.791 237 201 237Z" fill="#E6E6E6"/>
<path d="M218 237C220.209 237 222 235.209 222 233C222 230.791 220.209 229 218 229C215.791 229 214 230.791 214 233C214 235.209 215.791 237 218 237Z" fill="#E6E6E6"/>
<path d="M238.5 237C240.433 237 242 235.209 242 233C242 230.791 240.433 229 238.5 229C236.567 229 235 230.791 235 233C235 235.209 236.567 237 238.5 237Z" fill="#E6E6E6"/>
<path d="M70.5 257C72.433 257 74 254.985 74 252.5C74 250.015 72.433 248 70.5 248C68.567 248 67 250.015 67 252.5C67 254.985 68.567 257 70.5 257Z" fill="#E6E6E6"/>
<path d="M88.5 257C90.433 257 92 254.985 92 252.5C92 250.015 90.433 248 88.5 248C86.567 248 85 250.015 85 252.5C85 254.985 86.567 257 88.5 257Z" fill="#E6E6E6"/>
<path d="M109 257C111.209 257 113 254.985 113 252.5C113 250.015 111.209 248 109 248C106.791 248 105 250.015 105 252.5C105 254.985 106.791 257 109 257Z" fill="#E6E6E6"/>
<path d="M126.5 257C128.433 257 130 254.985 130 252.5C130 250.015 128.433 248 126.5 248C124.567 248 123 250.015 123 252.5C123 254.985 124.567 257 126.5 257Z" fill="#E6E6E6"/>
<path d="M145.5 257C147.433 257 149 254.985 149 252.5C149 250.015 147.433 248 145.5 248C143.567 248 142 250.015 142 252.5C142 254.985 143.567 257 145.5 257Z" fill="#E6E6E6"/>
<path d="M163.5 257C165.433 257 167 254.985 167 252.5C167 250.015 165.433 248 163.5 248C161.567 248 160 250.015 160 252.5C160 254.985 161.567 257 163.5 257Z" fill="#E6E6E6"/>
<path d="M181 257C183.209 257 185 254.985 185 252.5C185 250.015 183.209 248 181 248C178.791 248 177 250.015 177 252.5C177 254.985 178.791 257 181 257Z" fill="#E6E6E6"/>
<path d="M201 257C203.209 257 205 254.985 205 252.5C205 250.015 203.209 248 201 248C198.791 248 197 250.015 197 252.5C197 254.985 198.791 257 201 257Z" fill="#E6E6E6"/>
<path d="M218 257C220.209 257 222 254.985 222 252.5C222 250.015 220.209 248 218 248C215.791 248 214 250.015 214 252.5C214 254.985 215.791 257 218 257Z" fill="#E6E6E6"/>
<path d="M238.5 257C240.433 257 242 254.985 242 252.5C242 250.015 240.433 248 238.5 248C236.567 248 235 250.015 235 252.5C235 254.985 236.567 257 238.5 257Z" fill="#E6E6E6"/>
<path d="M70.5 276C72.433 276 74 274.433 74 272.5C74 270.567 72.433 269 70.5 269C68.567 269 67 270.567 67 272.5C67 274.433 68.567 276 70.5 276Z" fill="#E6E6E6"/>
<path d="M88.5 276C90.433 276 92 274.433 92 272.5C92 270.567 90.433 269 88.5 269C86.567 269 85 270.567 85 272.5C85 274.433 86.567 276 88.5 276Z" fill="#E6E6E6"/>
<path d="M109 276C111.209 276 113 274.433 113 272.5C113 270.567 111.209 269 109 269C106.791 269 105 270.567 105 272.5C105 274.433 106.791 276 109 276Z" fill="#E6E6E6"/>
<path d="M126.5 276C128.433 276 130 274.433 130 272.5C130 270.567 128.433 269 126.5 269C124.567 269 123 270.567 123 272.5C123 274.433 124.567 276 126.5 276Z" fill="#E6E6E6"/>
<path d="M145.5 276C147.433 276 149 274.433 149 272.5C149 270.567 147.433 269 145.5 269C143.567 269 142 270.567 142 272.5C142 274.433 143.567 276 145.5 276Z" fill="#E6E6E6"/>
<path d="M163.5 276C165.433 276 167 274.433 167 272.5C167 270.567 165.433 269 163.5 269C161.567 269 160 270.567 160 272.5C160 274.433 161.567 276 163.5 276Z" fill="#E6E6E6"/>
<path d="M181 276C183.209 276 185 274.433 185 272.5C185 270.567 183.209 269 181 269C178.791 269 177 270.567 177 272.5C177 274.433 178.791 276 181 276Z" fill="#E6E6E6"/>
<path d="M201 276C203.209 276 205 274.433 205 272.5C205 270.567 203.209 269 201 269C198.791 269 197 270.567 197 272.5C197 274.433 198.791 276 201 276Z" fill="#E6E6E6"/>
<path d="M218 276C220.209 276 222 274.433 222 272.5C222 270.567 220.209 269 218 269C215.791 269 214 270.567 214 272.5C214 274.433 215.791 276 218 276Z" fill="#E6E6E6"/>
<path d="M238.5 276C240.433 276 242 274.433 242 272.5C242 270.567 240.433 269 238.5 269C236.567 269 235 270.567 235 272.5C235 274.433 236.567 276 238.5 276Z" fill="#E6E6E6"/>
<path d="M70.5 295C72.433 295 74 293.209 74 291C74 288.791 72.433 287 70.5 287C68.567 287 67 288.791 67 291C67 293.209 68.567 295 70.5 295Z" fill="#E6E6E6"/>
<path d="M88.5 295C90.433 295 92 293.209 92 291C92 288.791 90.433 287 88.5 287C86.567 287 85 288.791 85 291C85 293.209 86.567 295 88.5 295Z" fill="#E6E6E6"/>
<path d="M109 295C111.209 295 113 293.209 113 291C113 288.791 111.209 287 109 287C106.791 287 105 288.791 105 291C105 293.209 106.791 295 109 295Z" fill="#E6E6E6"/>
<path d="M126.5 295C128.433 295 130 293.209 130 291C130 288.791 128.433 287 126.5 287C124.567 287 123 288.791 123 291C123 293.209 124.567 295 126.5 295Z" fill="#E6E6E6"/>
<path d="M145.5 295C147.433 295 149 293.209 149 291C149 288.791 147.433 287 145.5 287C143.567 287 142 288.791 142 291C142 293.209 143.567 295 145.5 295Z" fill="#E6E6E6"/>
<path d="M163.5 295C165.433 295 167 293.209 167 291C167 288.791 165.433 287 163.5 287C161.567 287 160 288.791 160 291C160 293.209 161.567 295 163.5 295Z" fill="#E6E6E6"/>
<path d="M181 295C183.209 295 185 293.209 185 291C185 288.791 183.209 287 181 287C178.791 287 177 288.791 177 291C177 293.209 178.791 295 181 295Z" fill="#E6E6E6"/>
<path d="M201 295C203.209 295 205 293.209 205 291C205 288.791 203.209 287 201 287C198.791 287 197 288.791 197 291C197 293.209 198.791 295 201 295Z" fill="#E6E6E6"/>
<path d="M218 295C220.209 295 222 293.209 222 291C222 288.791 220.209 287 218 287C215.791 287 214 288.791 214 291C214 293.209 215.791 295 218 295Z" fill="#E6E6E6"/>
<path d="M238.5 295C240.433 295 242 293.209 242 291C242 288.791 240.433 287 238.5 287C236.567 287 235 288.791 235 291C235 293.209 236.567 295 238.5 295Z" fill="#E6E6E6"/>
<path d="M283.342 147C284.577 147 285.762 147.502 286.636 148.395C287.509 149.288 288 150.499 288 151.762V342.238C288 342.863 287.88 343.483 287.645 344.06C287.411 344.638 287.068 345.163 286.636 345.605C286.203 346.047 285.69 346.398 285.125 346.638C284.559 346.877 283.954 347 283.342 347H149.658C149.046 347 148.441 346.877 147.875 346.638C147.31 346.398 146.797 346.047 146.364 345.605C145.932 345.163 145.589 344.638 145.355 344.06C145.12 343.483 145 342.863 145 342.238V151.762C145 150.499 145.491 149.288 146.364 148.395C147.238 147.502 148.423 147 149.658 147L283.342 147Z" fill="#E6E6E6"/>
<path d="M149 342H282V152H149V342Z" fill="white"/>
<path d="M251.111 182C251.228 182 251.343 182.026 251.451 182.076C251.559 182.126 251.657 182.2 251.74 182.293C251.822 182.386 251.888 182.496 251.932 182.617C251.977 182.739 252 182.869 252 183V185C252 185.265 251.906 185.52 251.74 185.707C251.573 185.895 251.347 186 251.111 186H180.889C180.772 186 180.657 185.974 180.549 185.924C180.441 185.874 180.343 185.8 180.26 185.707C180.178 185.614 180.112 185.504 180.068 185.383C180.023 185.261 180 185.131 180 185V183C180 182.869 180.023 182.739 180.068 182.617C180.112 182.496 180.178 182.386 180.26 182.293C180.343 182.2 180.441 182.126 180.549 182.076C180.657 182.026 180.772 182 180.889 182H251.111Z" fill="#E6E6E6"/>
<path d="M251.111 192C251.347 192 251.573 192.079 251.74 192.22C251.906 192.36 252 192.551 252 192.75V194.25C252 194.449 251.906 194.64 251.74 194.78C251.573 194.921 251.347 195 251.111 195H180.889C180.772 195 180.657 194.981 180.549 194.943C180.441 194.905 180.343 194.85 180.26 194.78C180.178 194.711 180.112 194.628 180.068 194.537C180.023 194.446 180 194.348 180 194.25V192.75C180 192.652 180.023 192.554 180.068 192.463C180.112 192.372 180.178 192.289 180.26 192.22C180.343 192.15 180.441 192.095 180.549 192.057C180.657 192.019 180.772 192 180.889 192H251.111Z" fill="#E6E6E6"/>
<path d="M251.111 201C251.347 201 251.573 201.105 251.74 201.293C251.906 201.48 252 201.735 252 202V204C252 204.265 251.906 204.52 251.74 204.707C251.573 204.895 251.347 205 251.111 205H180.889C180.653 205 180.427 204.895 180.26 204.707C180.094 204.52 180 204.265 180 204V202C180 201.735 180.094 201.48 180.26 201.293C180.427 201.105 180.653 201 180.889 201H251.111Z" fill="#00BFA6"/>
<path d="M251.111 210C251.347 210 251.573 210.105 251.74 210.293C251.906 210.48 252 210.735 252 211V213C252 213.265 251.906 213.52 251.74 213.707C251.573 213.895 251.347 214 251.111 214H180.889C180.772 214 180.657 213.974 180.549 213.924C180.441 213.874 180.343 213.8 180.26 213.707C180.178 213.614 180.112 213.504 180.068 213.383C180.023 213.261 180 213.131 180 213V211C180 210.869 180.023 210.739 180.068 210.617C180.112 210.496 180.178 210.386 180.26 210.293C180.343 210.2 180.441 210.126 180.549 210.076C180.657 210.026 180.772 210 180.889 210H251.111Z" fill="#E6E6E6"/>
<path d="M251.111 218C251.347 218 251.573 218.158 251.74 218.439C251.906 218.721 252 219.102 252 219.5V222.5C252 222.697 251.977 222.892 251.932 223.074C251.888 223.256 251.822 223.421 251.74 223.561C251.657 223.7 251.559 223.81 251.451 223.886C251.343 223.961 251.228 224 251.111 224H180.889C180.772 224 180.657 223.961 180.549 223.886C180.441 223.81 180.343 223.7 180.26 223.561C180.178 223.421 180.112 223.256 180.068 223.074C180.023 222.892 180 222.697 180 222.5V219.5C180 219.303 180.023 219.108 180.068 218.926C180.112 218.744 180.178 218.579 180.26 218.439C180.343 218.3 180.441 218.19 180.549 218.114C180.657 218.039 180.772 218 180.889 218H251.111Z" fill="#E6E6E6"/>
<path d="M251.111 227C251.347 227 251.573 227.105 251.74 227.293C251.906 227.48 252 227.735 252 228V230C252 230.265 251.906 230.52 251.74 230.707C251.573 230.895 251.347 231 251.111 231H180.889C180.653 231 180.427 230.895 180.26 230.707C180.094 230.52 180 230.265 180 230V228C180 227.735 180.094 227.48 180.26 227.293C180.427 227.105 180.653 227 180.889 227H251.111Z" fill="#E6E6E6"/>
<path d="M181.042 259C180.766 259 180.501 259.116 180.306 259.321C180.11 259.526 180 259.804 180 260.094V310.906C180 311.196 180.11 311.474 180.306 311.679C180.501 311.884 180.766 312 181.042 312H250.958C251.234 312 251.499 311.884 251.694 311.679C251.89 311.474 252 311.196 252 310.906V260.094C252 259.804 251.89 259.526 251.694 259.321C251.499 259.116 251.234 259 250.958 259H181.042Z" fill="#00BFA6"/>
<path d="M214.768 203L214 202.787L230.764 137H328V137.829H231.375L214.768 203Z" fill="#3F3D56"/>
<path d="M336.5 147C334.819 147 333.175 146.501 331.778 145.568C330.38 144.634 329.29 143.306 328.647 141.753C328.004 140.2 327.835 138.491 328.163 136.842C328.491 135.193 329.301 133.678 330.49 132.49C331.678 131.301 333.193 130.491 334.842 130.163C336.491 129.835 338.2 130.004 339.753 130.647C341.306 131.29 342.634 132.38 343.568 133.778C344.501 135.175 345 136.819 345 138.5C344.997 140.754 344.101 142.914 342.508 144.508C340.914 146.101 338.754 146.997 336.5 147ZM336.5 130.81C334.979 130.81 333.492 131.261 332.227 132.106C330.963 132.951 329.977 134.152 329.395 135.557C328.813 136.962 328.661 138.509 328.957 140C329.254 141.492 329.986 142.862 331.062 143.938C332.138 145.014 333.508 145.746 335 146.043C336.491 146.339 338.038 146.187 339.443 145.605C340.848 145.023 342.049 144.037 342.894 142.773C343.739 141.508 344.19 140.021 344.19 138.5C344.188 136.461 343.377 134.506 341.935 133.065C340.494 131.623 338.539 130.812 336.5 130.81Z" fill="#3F3D56"/>
<path d="M335.5 141C337.433 141 339 139.657 339 138C339 136.343 337.433 135 335.5 135C333.567 135 332 136.343 332 138C332 139.657 333.567 141 335.5 141Z" fill="#00BFA6"/>
<path d="M213.247 312L214 312.204L197.43 375L102 374.815L102.002 374.023L196.832 374.207L213.247 312Z" fill="#3F3D56"/>
<path d="M95.0134 366C96.3979 366.003 97.7505 366.505 98.9001 367.442C100.05 368.378 100.945 369.708 101.472 371.262C102 372.817 102.136 374.526 101.863 376.174C101.59 377.822 100.921 379.335 99.9403 380.522C98.9594 381.708 97.7109 382.515 96.3525 382.84C94.9941 383.165 93.5869 382.993 92.3088 382.347C91.0308 381.7 89.9392 380.608 89.1723 379.209C88.4053 377.809 87.9974 376.165 88 374.484C88.0057 372.23 88.7473 370.071 90.0621 368.481C91.3769 366.89 93.1575 365.998 95.0134 366ZM94.9879 382.19C96.2405 382.193 97.4657 381.745 98.5085 380.903C99.5514 380.06 100.365 378.861 100.847 377.457C101.328 376.052 101.456 374.506 101.214 373.014C100.972 371.522 100.371 370.15 99.4869 369.072C98.6029 367.995 97.4755 367.26 96.2475 366.96C95.0194 366.661 93.7457 366.81 92.5876 367.389C91.4294 367.969 90.4387 368.952 89.7408 370.215C89.0429 371.478 88.6691 372.964 88.6667 374.485C88.6654 376.524 89.3301 378.48 90.5152 379.925C91.7002 381.369 93.3088 382.184 94.9879 382.19Z" fill="#3F3D56"/>
<path d="M95 379C96.6569 379 98 377.433 98 375.5C98 373.567 96.6569 372 95 372C93.3431 372 92 373.567 92 375.5C92 377.433 93.3431 379 95 379Z" fill="#00BFA6"/>
<path d="M362.797 379H355L356.392 342L377 342.955L362.797 379Z" fill="#FFB8B8"/>
<path d="M366.091 400.924C363.525 401.811 361.375 394.622 359.21 396.234C353.154 400.742 346.897 401.723 338.814 399.755L338.627 399.731C338.139 399.612 337.688 399.42 337.302 399.165C336.915 398.911 336.601 398.599 336.378 398.25C336.155 397.9 336.027 397.52 336.004 397.133C335.98 396.745 336.061 396.358 336.241 395.994C336.456 395.559 336.808 395.171 337.265 394.861C337.723 394.552 338.273 394.332 338.867 394.219L345.308 393L355.42 379.528L365.743 379C368.044 381.223 369.65 383.811 370.44 386.572C371.23 389.332 371.184 392.193 370.304 394.938C369.367 397.834 367.921 400.291 366.091 400.924Z" fill="#2F2E41"/>
<path d="M439 374.63L431.693 377L417 343.408L436.723 338L439 374.63Z" fill="#FFB8B8"/>
<path d="M447.887 393.924C446.207 395.588 441.494 389.011 440.438 391.283C437.482 397.635 432.896 400.505 425.623 400.961L425.463 400.993C425.024 401.021 424.584 400.963 424.169 400.824C423.754 400.684 423.374 400.466 423.05 400.182C422.726 399.898 422.466 399.555 422.286 399.172C422.105 398.79 422.008 398.376 422.001 397.957C421.991 397.455 422.11 396.959 422.346 396.51C422.582 396.062 422.929 395.675 423.357 395.383L427.991 392.218L430.448 375.639L438.469 372C441.233 373.54 443.595 375.658 445.376 378.194C447.158 380.73 448.313 383.618 448.755 386.641C449.214 389.833 449.084 392.737 447.887 393.924Z" fill="#2F2E41"/>
<path d="M416.42 198.268L404.072 200.835C403.138 201.03 402.161 201.052 401.215 200.902C400.268 200.751 399.375 200.431 398.601 199.965C397.828 199.499 397.193 198.899 396.744 198.208C396.294 197.518 396.042 196.755 396.005 195.976C395.971 195.259 396.119 194.544 396.442 193.876C396.764 193.208 397.253 192.601 397.879 192.092C398.504 191.583 399.252 191.184 400.077 190.919C400.901 190.654 401.784 190.53 402.671 190.553L413.548 190.836L434.507 184.666L414.697 172.721L416.995 156L455.602 181.059C456.29 181.506 456.857 182.063 457.267 182.695C457.677 183.327 457.921 184.021 457.984 184.733C458.089 185.93 457.679 187.119 456.821 188.098C455.964 189.078 454.713 189.786 453.281 190.103C444.235 196.072 431.056 197.9 416.42 198.268Z" fill="#FFB8B8"/>
<path d="M387 134C398.046 134 407 126.837 407 118C407 109.163 398.046 102 387 102C375.954 102 367 109.163 367 118C367 126.837 375.954 134 387 134Z" fill="#FFB8B8"/>
<path d="M409 140.431L383.069 149C383.83 142.3 381.682 135.594 377 130.059L398.517 126C398.237 131.372 401.791 136.173 409 140.431Z" fill="#FFB8B8"/>
<path d="M416.687 178.613C393.793 180.041 381.27 177.672 362 168.96L369.251 155.776C368.887 153.791 369.233 151.766 370.25 149.924C371.267 148.082 372.916 146.494 375.016 145.335L382.545 141.179L405.508 136L406.538 136.04C409.592 136.159 412.486 137.142 414.678 138.804C416.869 140.467 418.208 142.695 418.442 145.071C423.431 156.687 423.463 167.916 416.687 178.613Z" fill="#00BFA6"/>
<path d="M414.375 208L366.862 203.648L363.342 191.077C355.541 181.37 358.946 172.478 368.035 164C384.602 172.764 399.98 176.551 422 173.67C416.144 185.41 410.736 196.947 414.375 208Z" fill="#2F2E41"/>
<path d="M449 351L411.525 349.339L399.324 270.066L389.447 348.864L345 347.203C358.558 295.4 367.977 246.223 365.335 201L411.816 204.323C427.568 217.893 435.39 239.555 439.994 265.32C444.599 291.085 448.31 320.953 449 351Z" fill="#2F2E41"/>
<path d="M410 104C413.866 104 417 101.09 417 97.5C417 93.9101 413.866 91 410 91C406.134 91 403 93.9101 403 97.5C403 101.09 406.134 104 410 104Z" fill="#2F2E41"/>
<path d="M403.675 96.1942C403.763 94.798 404.362 93.4887 405.352 92.5331C406.341 91.5775 407.646 91.0474 409 91.0508C408.89 91.0363 408.781 91.0188 408.669 91.0113C407.259 90.9177 405.871 91.4065 404.81 92.3702C403.749 93.3339 403.102 94.6935 403.011 96.15C402.92 97.6065 403.393 99.0406 404.326 100.137C405.259 101.233 406.575 101.901 407.985 101.995C408.097 102.002 408.208 101.999 408.319 102C406.975 101.824 405.747 101.125 404.884 100.047C404.021 98.9682 403.589 97.5905 403.675 96.1942Z" fill="#2F2E41"/>
<path d="M401.981 98.5583C395.763 94.3463 377.927 99.6996 376.776 102.531C368.367 103.467 362 107.473 362 114.596C366.999 116.268 372.685 116.062 378.832 114.596C388.63 121.115 389.301 129.311 383.343 138.725L390.673 138.845L399.76 128.001L400.195 139L416.999 138.725V122.962C417.053 117.721 415.576 112.546 412.689 107.864C410.071 103.71 406.007 101.285 401.981 98.5583Z" fill="#2F2E41"/>
<path d="M386.5 126C386.776 126 387 124.433 387 122.5C387 120.567 386.776 119 386.5 119C386.224 119 386 120.567 386 122.5C386 124.433 386.224 126 386.5 126Z" fill="#FFB8B8"/>
<path d="M360.827 268C361.138 268 361.437 268.098 361.657 268.272C361.876 268.446 362 268.682 362 268.929V306.071C362 306.318 361.876 306.554 361.657 306.728C361.437 306.902 361.138 307 360.827 307H327.173C326.862 307 326.563 306.902 326.343 306.728C326.124 306.554 326 306.318 326 306.071V268.929C326 268.682 326.124 268.446 326.343 268.272C326.563 268.098 326.862 268 327.173 268H360.827Z" fill="#00BFA6"/>
<path d="M364.512 253.675L365.677 269.659C365.752 270.688 365.536 271.717 365.046 272.672C364.557 273.627 363.804 274.483 362.845 275.179C361.885 275.875 360.741 276.393 359.497 276.695C358.253 276.997 356.94 277.076 355.652 276.926C350.525 276.329 350.409 272.357 351.666 268.375L356.454 253.204C368.202 219.842 371.373 187.096 370.779 155.16C370.755 154.077 371.008 153.001 371.523 151.998C372.038 150.995 372.805 150.084 373.776 149.322C374.748 148.56 375.904 147.961 377.176 147.563C378.447 147.164 379.808 146.974 381.175 147.003C382.508 147.034 383.821 147.273 385.038 147.707C386.254 148.141 387.35 148.761 388.263 149.532C389.175 150.303 389.886 151.209 390.355 152.198C390.824 153.188 391.041 154.241 390.994 155.297C389.331 192.798 382.425 226.854 364.512 253.675Z" fill="#FFB8B8"/>
<defs>
<linearGradient id="paint0_linear_300_1437" x1="251" y1="1.00001" x2="13.7397" y2="368.276" gradientUnits="userSpaceOnUse">
<stop stop-color="#3ECCAA"/>
<stop offset="1" stop-color="#03755A" stop-opacity="0.07"/>
</linearGradient>
</defs>
</svg>
