<svg width="511" height="619" viewBox="0 0 511 619" fill="none" xmlns="http://www.w3.org/2000/svg">
<path d="M260 526.924C398.37 526.924 510.5 409.056 510.5 263.712C510.5 118.368 398.37 0.5 260 0.5C121.63 0.5 9.5 118.368 9.5 263.712C9.5 409.056 121.63 526.924 260 526.924Z" fill="url(#paint0_linear_333_1043)" stroke="#498AE7"/>
<path d="M129.194 582V563.091H141.492V565.962H132.62V571.096H140.855V573.967H132.62V579.129H141.566V582H129.194ZM147.572 567.818L150.435 573.053L153.343 567.818H156.879L152.604 574.909L156.953 582H153.435L150.435 576.894L147.462 582H143.916L148.237 574.909L144.027 567.818H147.572ZM165.117 582.277C163.702 582.277 162.486 581.966 161.47 581.344C160.461 580.723 159.682 579.864 159.134 578.768C158.593 577.667 158.322 576.399 158.322 574.964C158.322 573.524 158.599 572.253 159.153 571.151C159.707 570.043 160.488 569.182 161.498 568.566C162.514 567.944 163.714 567.634 165.099 567.634C166.25 567.634 167.269 567.846 168.155 568.271C169.047 568.689 169.758 569.283 170.288 570.053C170.817 570.816 171.119 571.708 171.193 572.73H167.998C167.869 572.047 167.561 571.478 167.075 571.022C166.595 570.56 165.951 570.33 165.145 570.33C164.462 570.33 163.862 570.514 163.345 570.884C162.828 571.247 162.424 571.77 162.135 572.453C161.852 573.136 161.71 573.955 161.71 574.909C161.71 575.875 161.852 576.706 162.135 577.402C162.418 578.091 162.815 578.624 163.326 578.999C163.843 579.369 164.449 579.553 165.145 579.553C165.637 579.553 166.078 579.461 166.465 579.276C166.859 579.085 167.189 578.812 167.453 578.455C167.718 578.098 167.899 577.664 167.998 577.153H171.193C171.113 578.156 170.817 579.045 170.306 579.821C169.795 580.59 169.1 581.194 168.22 581.631C167.339 582.062 166.305 582.277 165.117 582.277ZM180.215 582.277C178.794 582.277 177.566 581.982 176.532 581.391C175.504 580.794 174.713 579.95 174.159 578.861C173.605 577.765 173.328 576.476 173.328 574.992C173.328 573.533 173.605 572.253 174.159 571.151C174.719 570.043 175.501 569.182 176.504 568.566C177.507 567.944 178.686 567.634 180.04 567.634C180.914 567.634 181.739 567.775 182.514 568.058C183.296 568.335 183.986 568.766 184.583 569.351C185.186 569.936 185.66 570.68 186.005 571.585C186.349 572.484 186.522 573.555 186.522 574.798V575.823H174.897V573.57H183.318C183.312 572.93 183.173 572.361 182.902 571.862C182.631 571.357 182.253 570.96 181.767 570.671C181.286 570.382 180.726 570.237 180.086 570.237C179.403 570.237 178.803 570.403 178.286 570.736C177.769 571.062 177.366 571.493 177.076 572.028C176.793 572.558 176.648 573.139 176.642 573.773V575.74C176.642 576.565 176.793 577.273 177.095 577.864C177.396 578.448 177.818 578.898 178.36 579.212C178.901 579.519 179.535 579.673 180.262 579.673C180.748 579.673 181.188 579.606 181.582 579.47C181.976 579.329 182.318 579.122 182.607 578.852C182.896 578.581 183.115 578.245 183.262 577.845L186.383 578.196C186.186 579.021 185.811 579.741 185.257 580.357C184.709 580.966 184.007 581.44 183.152 581.778C182.296 582.111 181.317 582.277 180.215 582.277ZM192.691 563.091V582H189.349V563.091H192.691ZM202.578 582V567.818H205.92V582H202.578ZM204.258 565.805C203.729 565.805 203.273 565.63 202.892 565.279C202.51 564.922 202.319 564.494 202.319 563.996C202.319 563.491 202.51 563.063 202.892 562.712C203.273 562.355 203.729 562.177 204.258 562.177C204.794 562.177 205.249 562.355 205.625 562.712C206.006 563.063 206.197 563.491 206.197 563.996C206.197 564.494 206.006 564.922 205.625 565.279C205.249 565.63 204.794 565.805 204.258 565.805ZM212.699 573.69V582H209.357V567.818H212.552V570.228H212.718C213.044 569.434 213.564 568.803 214.278 568.335C214.998 567.867 215.888 567.634 216.946 567.634C217.925 567.634 218.778 567.843 219.504 568.261C220.236 568.68 220.803 569.286 221.203 570.08C221.609 570.874 221.809 571.838 221.803 572.97V582H218.461V573.487C218.461 572.539 218.214 571.798 217.722 571.262C217.236 570.727 216.562 570.459 215.7 570.459C215.115 570.459 214.595 570.588 214.14 570.847C213.69 571.099 213.336 571.465 213.078 571.945C212.825 572.425 212.699 573.007 212.699 573.69ZM233.727 587.318C233.272 587.318 232.85 587.281 232.462 587.207C232.081 587.14 231.776 587.06 231.548 586.967L232.324 584.364C232.81 584.505 233.244 584.573 233.626 584.567C234.007 584.561 234.343 584.441 234.632 584.207C234.928 583.979 235.177 583.597 235.38 583.062L235.666 582.295L230.524 567.818H234.069L237.337 578.528H237.485L240.763 567.818H244.318L238.639 583.717C238.375 584.468 238.024 585.112 237.587 585.647C237.15 586.189 236.614 586.601 235.98 586.884C235.352 587.174 234.601 587.318 233.727 587.318ZM252.334 582.277C250.949 582.277 249.749 581.972 248.733 581.363C247.718 580.754 246.93 579.901 246.37 578.805C245.816 577.71 245.539 576.429 245.539 574.964C245.539 573.5 245.816 572.216 246.37 571.114C246.93 570.013 247.718 569.157 248.733 568.548C249.749 567.938 250.949 567.634 252.334 567.634C253.719 567.634 254.919 567.938 255.935 568.548C256.951 569.157 257.735 570.013 258.289 571.114C258.849 572.216 259.13 573.5 259.13 574.964C259.13 576.429 258.849 577.71 258.289 578.805C257.735 579.901 256.951 580.754 255.935 581.363C254.919 581.972 253.719 582.277 252.334 582.277ZM252.353 579.599C253.103 579.599 253.731 579.393 254.236 578.981C254.741 578.562 255.116 578.002 255.362 577.3C255.615 576.599 255.741 575.817 255.741 574.955C255.741 574.087 255.615 573.303 255.362 572.601C255.116 571.893 254.741 571.33 254.236 570.911C253.731 570.493 253.103 570.283 252.353 570.283C251.583 570.283 250.943 570.493 250.432 570.911C249.927 571.33 249.549 571.893 249.296 572.601C249.05 573.303 248.927 574.087 248.927 574.955C248.927 575.817 249.05 576.599 249.296 577.3C249.549 578.002 249.927 578.562 250.432 578.981C250.943 579.393 251.583 579.599 252.353 579.599ZM271.005 576.036V567.818H274.348V582H271.107V579.479H270.959C270.639 580.273 270.113 580.923 269.38 581.428C268.654 581.932 267.758 582.185 266.694 582.185C265.764 582.185 264.942 581.978 264.228 581.566C263.521 581.147 262.967 580.541 262.566 579.747C262.166 578.947 261.966 577.981 261.966 576.848V567.818H265.309V576.331C265.309 577.23 265.555 577.944 266.047 578.473C266.54 579.002 267.186 579.267 267.986 579.267C268.479 579.267 268.956 579.147 269.417 578.907C269.879 578.667 270.258 578.31 270.553 577.836C270.855 577.356 271.005 576.756 271.005 576.036ZM277.785 582V567.818H281.025V570.182H281.173C281.432 569.363 281.875 568.732 282.503 568.289C283.137 567.84 283.86 567.615 284.672 567.615C284.857 567.615 285.063 567.624 285.291 567.643C285.525 567.655 285.719 567.677 285.873 567.707V570.782C285.731 570.733 285.507 570.69 285.199 570.653C284.897 570.61 284.605 570.588 284.322 570.588C283.712 570.588 283.164 570.72 282.678 570.985C282.198 571.244 281.82 571.604 281.543 572.065C281.266 572.527 281.127 573.059 281.127 573.663V582H277.785ZM294.69 563.091H298.882L304.496 576.793H304.717L310.331 563.091H314.523V582H311.236V569.009H311.06L305.834 581.945H303.378L298.153 568.982H297.977V582H294.69V563.091ZM324.383 582.277C322.962 582.277 321.734 581.982 320.699 581.391C319.672 580.794 318.881 579.95 318.327 578.861C317.773 577.765 317.496 576.476 317.496 574.992C317.496 573.533 317.773 572.253 318.327 571.151C318.887 570.043 319.668 569.182 320.672 568.566C321.675 567.944 322.854 567.634 324.208 567.634C325.082 567.634 325.907 567.775 326.682 568.058C327.464 568.335 328.154 568.766 328.751 569.351C329.354 569.936 329.828 570.68 330.172 571.585C330.517 572.484 330.69 573.555 330.69 574.798V575.823H319.065V573.57H327.486C327.48 572.93 327.341 572.361 327.07 571.862C326.799 571.357 326.421 570.96 325.935 570.671C325.454 570.382 324.894 570.237 324.254 570.237C323.571 570.237 322.971 570.403 322.454 570.736C321.937 571.062 321.534 571.493 321.244 572.028C320.961 572.558 320.816 573.139 320.81 573.773V575.74C320.81 576.565 320.961 577.273 321.263 577.864C321.564 578.448 321.986 578.898 322.528 579.212C323.069 579.519 323.703 579.673 324.43 579.673C324.916 579.673 325.356 579.606 325.75 579.47C326.144 579.329 326.485 579.122 326.775 578.852C327.064 578.581 327.283 578.245 327.43 577.845L330.551 578.196C330.354 579.021 329.979 579.741 329.425 580.357C328.877 580.966 328.175 581.44 327.32 581.778C326.464 582.111 325.485 582.277 324.383 582.277ZM338.78 582.249C337.666 582.249 336.669 581.963 335.788 581.391C334.908 580.818 334.213 579.987 333.702 578.898C333.191 577.808 332.935 576.485 332.935 574.928C332.935 573.352 333.194 572.022 333.711 570.939C334.234 569.849 334.939 569.028 335.825 568.474C336.712 567.914 337.7 567.634 338.789 567.634C339.62 567.634 340.303 567.775 340.839 568.058C341.374 568.335 341.799 568.671 342.113 569.065C342.427 569.452 342.67 569.819 342.842 570.163H342.981V563.091H346.332V582H343.046V579.766H342.842C342.67 580.11 342.421 580.477 342.095 580.864C341.768 581.246 341.337 581.572 340.802 581.843C340.266 582.114 339.592 582.249 338.78 582.249ZM339.712 579.507C340.42 579.507 341.024 579.316 341.522 578.935C342.021 578.547 342.399 578.008 342.658 577.319C342.916 576.629 343.046 575.826 343.046 574.909C343.046 573.992 342.916 573.195 342.658 572.518C342.405 571.841 342.03 571.314 341.531 570.939C341.039 570.563 340.433 570.376 339.712 570.376C338.968 570.376 338.346 570.57 337.847 570.957C337.349 571.345 336.973 571.881 336.721 572.564C336.469 573.247 336.342 574.029 336.342 574.909C336.342 575.795 336.469 576.586 336.721 577.282C336.979 577.971 337.358 578.516 337.857 578.916C338.361 579.31 338.98 579.507 339.712 579.507ZM349.894 582V567.818H353.236V582H349.894ZM351.574 565.805C351.045 565.805 350.59 565.63 350.208 565.279C349.826 564.922 349.636 564.494 349.636 563.996C349.636 563.491 349.826 563.063 350.208 562.712C350.59 562.355 351.045 562.177 351.574 562.177C352.11 562.177 352.565 562.355 352.941 562.712C353.323 563.063 353.513 563.491 353.513 563.996C353.513 564.494 353.323 564.922 352.941 565.279C352.565 565.63 352.11 565.805 351.574 565.805ZM362.859 582.277C361.444 582.277 360.228 581.966 359.212 581.344C358.203 580.723 357.424 579.864 356.877 578.768C356.335 577.667 356.064 576.399 356.064 574.964C356.064 573.524 356.341 572.253 356.895 571.151C357.449 570.043 358.231 569.182 359.24 568.566C360.256 567.944 361.456 567.634 362.841 567.634C363.992 567.634 365.011 567.846 365.897 568.271C366.79 568.689 367.501 569.283 368.03 570.053C368.559 570.816 368.861 571.708 368.935 572.73H365.74C365.611 572.047 365.303 571.478 364.817 571.022C364.337 570.56 363.694 570.33 362.887 570.33C362.204 570.33 361.604 570.514 361.087 570.884C360.57 571.247 360.167 571.77 359.877 572.453C359.594 573.136 359.453 573.955 359.453 574.909C359.453 575.875 359.594 576.706 359.877 577.402C360.16 578.091 360.557 578.624 361.068 578.999C361.585 579.369 362.192 579.553 362.887 579.553C363.38 579.553 363.82 579.461 364.207 579.276C364.601 579.085 364.931 578.812 365.195 578.455C365.46 578.098 365.642 577.664 365.74 577.153H368.935C368.855 578.156 368.559 579.045 368.048 579.821C367.537 580.59 366.842 581.194 365.962 581.631C365.082 582.062 364.047 582.277 362.859 582.277ZM375.76 582.286C374.862 582.286 374.052 582.126 373.332 581.806C372.618 581.48 372.052 581 371.633 580.366C371.221 579.732 371.014 578.95 371.014 578.021C371.014 577.22 371.162 576.559 371.458 576.036C371.753 575.512 372.156 575.094 372.667 574.78C373.178 574.466 373.754 574.229 374.394 574.069C375.04 573.903 375.708 573.783 376.397 573.709C377.228 573.623 377.902 573.546 378.419 573.478C378.936 573.404 379.312 573.293 379.546 573.146C379.786 572.992 379.906 572.755 379.906 572.435V572.379C379.906 571.684 379.7 571.145 379.287 570.763C378.875 570.382 378.281 570.191 377.505 570.191C376.687 570.191 376.037 570.37 375.557 570.727C375.083 571.084 374.763 571.505 374.597 571.991L371.476 571.548C371.722 570.687 372.129 569.966 372.695 569.388C373.261 568.803 373.954 568.366 374.772 568.077C375.591 567.781 376.496 567.634 377.487 567.634C378.17 567.634 378.85 567.714 379.527 567.874C380.204 568.034 380.823 568.298 381.383 568.668C381.943 569.031 382.393 569.526 382.731 570.154C383.076 570.782 383.248 571.567 383.248 572.509V582H380.035V580.052H379.924C379.721 580.446 379.435 580.815 379.066 581.16C378.702 581.498 378.244 581.772 377.69 581.982C377.142 582.185 376.499 582.286 375.76 582.286ZM376.628 579.83C377.299 579.83 377.881 579.698 378.373 579.433C378.866 579.162 379.244 578.805 379.509 578.362C379.78 577.919 379.915 577.436 379.915 576.913V575.241C379.81 575.328 379.632 575.408 379.38 575.482C379.133 575.555 378.856 575.62 378.549 575.675C378.241 575.731 377.936 575.78 377.634 575.823C377.333 575.866 377.071 575.903 376.85 575.934C376.351 576.002 375.905 576.112 375.511 576.266C375.117 576.42 374.806 576.636 374.578 576.913C374.351 577.183 374.237 577.534 374.237 577.965C374.237 578.581 374.461 579.045 374.911 579.359C375.36 579.673 375.933 579.83 376.628 579.83ZM389.951 563.091V582H386.609V563.091H389.951ZM160.589 613.277C159.167 613.277 157.939 612.982 156.905 612.391C155.877 611.794 155.086 610.95 154.532 609.861C153.978 608.765 153.701 607.476 153.701 605.992C153.701 604.533 153.978 603.253 154.532 602.151C155.092 601.043 155.874 600.182 156.877 599.566C157.88 598.944 159.059 598.634 160.413 598.634C161.287 598.634 162.112 598.775 162.888 599.058C163.669 599.335 164.359 599.766 164.956 600.351C165.559 600.936 166.033 601.68 166.378 602.585C166.722 603.484 166.895 604.555 166.895 605.798V606.823H155.27V604.57H163.691C163.685 603.93 163.546 603.361 163.275 602.862C163.004 602.357 162.626 601.96 162.14 601.671C161.66 601.382 161.099 601.237 160.459 601.237C159.776 601.237 159.176 601.403 158.659 601.736C158.142 602.062 157.739 602.493 157.449 603.028C157.166 603.558 157.022 604.139 157.015 604.773V606.74C157.015 607.565 157.166 608.273 157.468 608.864C157.769 609.448 158.191 609.898 158.733 610.212C159.274 610.519 159.908 610.673 160.635 610.673C161.121 610.673 161.561 610.606 161.955 610.47C162.349 610.329 162.691 610.122 162.98 609.852C163.269 609.581 163.488 609.245 163.635 608.845L166.756 609.196C166.559 610.021 166.184 610.741 165.63 611.357C165.082 611.966 164.38 612.44 163.525 612.778C162.669 613.111 161.69 613.277 160.589 613.277ZM172.15 598.818L175.013 604.053L177.921 598.818H181.457L177.182 605.909L181.531 613H178.013L175.013 607.894L172.04 613H168.494L172.815 605.909L168.605 598.818H172.15ZM188.073 613.286C187.174 613.286 186.365 613.126 185.644 612.806C184.93 612.48 184.364 612 183.946 611.366C183.533 610.732 183.327 609.95 183.327 609.021C183.327 608.22 183.475 607.559 183.77 607.036C184.066 606.512 184.469 606.094 184.98 605.78C185.491 605.466 186.066 605.229 186.706 605.069C187.353 604.903 188.02 604.783 188.71 604.709C189.541 604.623 190.215 604.546 190.732 604.478C191.249 604.404 191.624 604.293 191.858 604.146C192.098 603.992 192.218 603.755 192.218 603.435V603.379C192.218 602.684 192.012 602.145 191.6 601.763C191.187 601.382 190.593 601.191 189.818 601.191C188.999 601.191 188.35 601.37 187.87 601.727C187.396 602.084 187.076 602.505 186.909 602.991L183.789 602.548C184.035 601.687 184.441 600.966 185.007 600.388C185.574 599.803 186.266 599.366 187.085 599.077C187.903 598.781 188.808 598.634 189.799 598.634C190.483 598.634 191.163 598.714 191.84 598.874C192.517 599.034 193.135 599.298 193.696 599.668C194.256 600.031 194.705 600.526 195.044 601.154C195.388 601.782 195.561 602.567 195.561 603.509V613H192.348V611.052H192.237C192.034 611.446 191.747 611.815 191.378 612.16C191.015 612.498 190.556 612.772 190.002 612.982C189.455 613.185 188.811 613.286 188.073 613.286ZM188.941 610.83C189.612 610.83 190.193 610.698 190.686 610.433C191.178 610.162 191.557 609.805 191.821 609.362C192.092 608.919 192.228 608.436 192.228 607.913V606.241C192.123 606.328 191.944 606.408 191.692 606.482C191.446 606.555 191.169 606.62 190.861 606.675C190.553 606.731 190.249 606.78 189.947 606.823C189.645 606.866 189.384 606.903 189.162 606.934C188.664 607.002 188.217 607.112 187.823 607.266C187.429 607.42 187.119 607.636 186.891 607.913C186.663 608.183 186.549 608.534 186.549 608.965C186.549 609.581 186.774 610.045 187.223 610.359C187.673 610.673 188.245 610.83 188.941 610.83ZM198.921 613V598.818H202.116V601.228H202.282C202.578 600.415 203.067 599.781 203.75 599.326C204.434 598.864 205.249 598.634 206.197 598.634C207.157 598.634 207.967 598.867 208.625 599.335C209.29 599.797 209.758 600.428 210.029 601.228H210.176C210.49 600.44 211.02 599.812 211.764 599.344C212.515 598.871 213.405 598.634 214.433 598.634C215.738 598.634 216.803 599.046 217.627 599.871C218.452 600.696 218.865 601.899 218.865 603.481V613H215.513V603.998C215.513 603.118 215.279 602.474 214.811 602.068C214.344 601.656 213.771 601.45 213.094 601.45C212.288 601.45 211.657 601.702 211.201 602.207C210.752 602.705 210.527 603.355 210.527 604.155V613H207.25V603.859C207.25 603.127 207.028 602.542 206.585 602.105C206.148 601.668 205.575 601.45 204.867 601.45C204.387 601.45 203.95 601.573 203.556 601.819C203.162 602.059 202.849 602.401 202.615 602.844C202.381 603.281 202.264 603.792 202.264 604.376V613H198.921ZM228.705 618.318V598.818H231.992V601.163H232.185C232.358 600.819 232.601 600.452 232.915 600.065C233.229 599.671 233.653 599.335 234.189 599.058C234.725 598.775 235.408 598.634 236.239 598.634C237.334 598.634 238.322 598.914 239.203 599.474C240.089 600.028 240.791 600.849 241.308 601.939C241.831 603.022 242.092 604.352 242.092 605.928C242.092 607.485 241.837 608.808 241.326 609.898C240.815 610.987 240.12 611.818 239.239 612.391C238.359 612.963 237.362 613.249 236.248 613.249C235.435 613.249 234.761 613.114 234.226 612.843C233.69 612.572 233.26 612.246 232.933 611.864C232.613 611.477 232.364 611.11 232.185 610.766H232.047V618.318H228.705ZM231.982 605.909C231.982 606.826 232.112 607.629 232.37 608.319C232.635 609.008 233.013 609.547 233.506 609.935C234.004 610.316 234.608 610.507 235.315 610.507C236.054 610.507 236.673 610.31 237.171 609.916C237.67 609.516 238.045 608.971 238.298 608.282C238.556 607.586 238.685 606.795 238.685 605.909C238.685 605.029 238.559 604.247 238.307 603.564C238.055 602.881 237.679 602.345 237.18 601.957C236.682 601.57 236.06 601.376 235.315 601.376C234.601 601.376 233.995 601.563 233.497 601.939C232.998 602.314 232.619 602.841 232.361 603.518C232.109 604.195 231.982 604.992 231.982 605.909ZM244.955 613V598.818H248.195V601.182H248.343C248.602 600.363 249.045 599.732 249.673 599.289C250.307 598.84 251.03 598.615 251.842 598.615C252.027 598.615 252.233 598.624 252.461 598.643C252.695 598.655 252.889 598.677 253.043 598.707V601.782C252.901 601.733 252.676 601.69 252.369 601.653C252.067 601.61 251.775 601.588 251.492 601.588C250.882 601.588 250.334 601.72 249.848 601.985C249.368 602.244 248.989 602.604 248.712 603.065C248.435 603.527 248.297 604.059 248.297 604.663V613H244.955ZM260.958 613.277C259.536 613.277 258.308 612.982 257.274 612.391C256.246 611.794 255.455 610.95 254.901 609.861C254.347 608.765 254.07 607.476 254.07 605.992C254.07 604.533 254.347 603.253 254.901 602.151C255.461 601.043 256.243 600.182 257.246 599.566C258.249 598.944 259.428 598.634 260.782 598.634C261.656 598.634 262.481 598.775 263.257 599.058C264.038 599.335 264.728 599.766 265.325 600.351C265.928 600.936 266.402 601.68 266.747 602.585C267.091 603.484 267.264 604.555 267.264 605.798V606.823H255.639V604.57H264.06C264.054 603.93 263.915 603.361 263.644 602.862C263.374 602.357 262.995 601.96 262.509 601.671C262.029 601.382 261.469 601.237 260.828 601.237C260.145 601.237 259.545 601.403 259.028 601.736C258.511 602.062 258.108 602.493 257.818 603.028C257.535 603.558 257.391 604.139 257.384 604.773V606.74C257.384 607.565 257.535 608.273 257.837 608.864C258.139 609.448 258.56 609.898 259.102 610.212C259.643 610.519 260.277 610.673 261.004 610.673C261.49 610.673 261.93 610.606 262.324 610.47C262.718 610.329 263.06 610.122 263.349 609.852C263.638 609.581 263.857 609.245 264.005 608.845L267.125 609.196C266.928 610.021 266.553 610.741 265.999 611.357C265.451 611.966 264.749 612.44 263.894 612.778C263.038 613.111 262.059 613.277 260.958 613.277ZM270.091 618.318V598.818H273.378V601.163H273.572C273.745 600.819 273.988 600.452 274.302 600.065C274.616 599.671 275.04 599.335 275.576 599.058C276.111 598.775 276.794 598.634 277.625 598.634C278.721 598.634 279.709 598.914 280.589 599.474C281.476 600.028 282.177 600.849 282.694 601.939C283.218 603.022 283.479 604.352 283.479 605.928C283.479 607.485 283.224 608.808 282.713 609.898C282.202 610.987 281.506 611.818 280.626 612.391C279.746 612.963 278.749 613.249 277.635 613.249C276.822 613.249 276.148 613.114 275.613 612.843C275.077 612.572 274.646 612.246 274.32 611.864C274 611.477 273.751 611.11 273.572 610.766H273.434V618.318H270.091ZM273.369 605.909C273.369 606.826 273.498 607.629 273.757 608.319C274.022 609.008 274.4 609.547 274.892 609.935C275.391 610.316 275.994 610.507 276.702 610.507C277.441 610.507 278.059 610.31 278.558 609.916C279.057 609.516 279.432 608.971 279.684 608.282C279.943 607.586 280.072 606.795 280.072 605.909C280.072 605.029 279.946 604.247 279.694 603.564C279.441 602.881 279.066 602.345 278.567 601.957C278.069 601.57 277.447 601.376 276.702 601.376C275.988 601.376 275.382 601.563 274.883 601.939C274.385 602.314 274.006 602.841 273.748 603.518C273.495 604.195 273.369 604.992 273.369 605.909ZM290.422 613.286C289.524 613.286 288.714 613.126 287.994 612.806C287.28 612.48 286.714 612 286.295 611.366C285.883 610.732 285.677 609.95 285.677 609.021C285.677 608.22 285.824 607.559 286.12 607.036C286.415 606.512 286.818 606.094 287.329 605.78C287.84 605.466 288.416 605.229 289.056 605.069C289.702 604.903 290.37 604.783 291.059 604.709C291.89 604.623 292.564 604.546 293.081 604.478C293.598 604.404 293.974 604.293 294.208 604.146C294.448 603.992 294.568 603.755 294.568 603.435V603.379C294.568 602.684 294.362 602.145 293.949 601.763C293.537 601.382 292.943 601.191 292.167 601.191C291.349 601.191 290.699 601.37 290.219 601.727C289.745 602.084 289.425 602.505 289.259 602.991L286.138 602.548C286.384 601.687 286.791 600.966 287.357 600.388C287.923 599.803 288.616 599.366 289.434 599.077C290.253 598.781 291.158 598.634 292.149 598.634C292.832 598.634 293.512 598.714 294.189 598.874C294.866 599.034 295.485 599.298 296.045 599.668C296.605 600.031 297.055 600.526 297.393 601.154C297.738 601.782 297.91 602.567 297.91 603.509V613H294.697V611.052H294.586C294.383 611.446 294.097 611.815 293.728 612.16C293.365 612.498 292.906 612.772 292.352 612.982C291.804 613.185 291.161 613.286 290.422 613.286ZM291.29 610.83C291.961 610.83 292.543 610.698 293.035 610.433C293.528 610.162 293.906 609.805 294.171 609.362C294.442 608.919 294.577 608.436 294.577 607.913V606.241C294.473 606.328 294.294 606.408 294.042 606.482C293.795 606.555 293.518 606.62 293.211 606.675C292.903 606.731 292.598 606.78 292.297 606.823C291.995 606.866 291.733 606.903 291.512 606.934C291.013 607.002 290.567 607.112 290.173 607.266C289.779 607.42 289.468 607.636 289.241 607.913C289.013 608.183 288.899 608.534 288.899 608.965C288.899 609.581 289.124 610.045 289.573 610.359C290.022 610.673 290.595 610.83 291.29 610.83ZM301.271 613V598.818H304.512V601.182H304.66C304.918 600.363 305.361 599.732 305.989 599.289C306.623 598.84 307.346 598.615 308.159 598.615C308.343 598.615 308.55 598.624 308.777 598.643C309.011 598.655 309.205 598.677 309.359 598.707V601.782C309.218 601.733 308.993 601.69 308.685 601.653C308.383 601.61 308.091 601.588 307.808 601.588C307.199 601.588 306.651 601.72 306.165 601.985C305.684 602.244 305.306 602.604 305.029 603.065C304.752 603.527 304.613 604.059 304.613 604.663V613H301.271ZM315.407 613.286C314.508 613.286 313.699 613.126 312.978 612.806C312.264 612.48 311.698 612 311.28 611.366C310.867 610.732 310.661 609.95 310.661 609.021C310.661 608.22 310.809 607.559 311.104 607.036C311.4 606.512 311.803 606.094 312.314 605.78C312.825 605.466 313.4 605.229 314.04 605.069C314.687 604.903 315.354 604.783 316.044 604.709C316.875 604.623 317.549 604.546 318.066 604.478C318.583 604.404 318.958 604.293 319.192 604.146C319.432 603.992 319.552 603.755 319.552 603.435V603.379C319.552 602.684 319.346 602.145 318.934 601.763C318.521 601.382 317.927 601.191 317.152 601.191C316.333 601.191 315.684 601.37 315.204 601.727C314.73 602.084 314.41 602.505 314.243 602.991L311.123 602.548C311.369 601.687 311.775 600.966 312.341 600.388C312.908 599.803 313.6 599.366 314.419 599.077C315.237 598.781 316.142 598.634 317.133 598.634C317.816 598.634 318.497 598.714 319.174 598.874C319.851 599.034 320.469 599.298 321.03 599.668C321.59 600.031 322.039 600.526 322.378 601.154C322.722 601.782 322.895 602.567 322.895 603.509V613H319.682V611.052H319.571C319.368 611.446 319.081 611.815 318.712 612.16C318.349 612.498 317.89 612.772 317.336 612.982C316.789 613.185 316.145 613.286 315.407 613.286ZM316.275 610.83C316.946 610.83 317.527 610.698 318.02 610.433C318.512 610.162 318.891 609.805 319.155 609.362C319.426 608.919 319.562 608.436 319.562 607.913V606.241C319.457 606.328 319.278 606.408 319.026 606.482C318.78 606.555 318.503 606.62 318.195 606.675C317.887 606.731 317.583 606.78 317.281 606.823C316.979 606.866 316.718 606.903 316.496 606.934C315.998 607.002 315.551 607.112 315.157 607.266C314.763 607.42 314.453 607.636 314.225 607.913C313.997 608.183 313.883 608.534 313.883 608.965C313.883 609.581 314.108 610.045 314.557 610.359C315.007 610.673 315.579 610.83 316.275 610.83ZM333.337 598.818V601.403H325.184V598.818H333.337ZM327.197 595.42H330.54V608.734C330.54 609.184 330.607 609.528 330.743 609.768C330.884 610.002 331.069 610.162 331.297 610.249C331.524 610.335 331.777 610.378 332.054 610.378C332.263 610.378 332.454 610.362 332.626 610.332C332.805 610.301 332.94 610.273 333.032 610.249L333.596 612.862C333.417 612.923 333.162 612.991 332.829 613.065C332.503 613.138 332.103 613.182 331.629 613.194C330.792 613.219 330.038 613.092 329.367 612.815C328.696 612.532 328.164 612.095 327.77 611.504C327.382 610.913 327.191 610.175 327.197 609.288V595.42ZM336.132 613V598.818H339.475V613H336.132ZM337.813 596.805C337.283 596.805 336.828 596.63 336.446 596.279C336.065 595.922 335.874 595.494 335.874 594.996C335.874 594.491 336.065 594.063 336.446 593.712C336.828 593.355 337.283 593.177 337.813 593.177C338.348 593.177 338.804 593.355 339.179 593.712C339.561 594.063 339.752 594.491 339.752 594.996C339.752 595.494 339.561 595.922 339.179 596.279C338.804 596.63 338.348 596.805 337.813 596.805ZM349.098 613.277C347.713 613.277 346.513 612.972 345.497 612.363C344.481 611.754 343.693 610.901 343.133 609.805C342.579 608.71 342.302 607.429 342.302 605.964C342.302 604.5 342.579 603.216 343.133 602.114C343.693 601.013 344.481 600.157 345.497 599.548C346.513 598.938 347.713 598.634 349.098 598.634C350.483 598.634 351.683 598.938 352.699 599.548C353.714 600.157 354.499 601.013 355.053 602.114C355.613 603.216 355.893 604.5 355.893 605.964C355.893 607.429 355.613 608.71 355.053 609.805C354.499 610.901 353.714 611.754 352.699 612.363C351.683 612.972 350.483 613.277 349.098 613.277ZM349.116 610.599C349.867 610.599 350.495 610.393 351 609.981C351.504 609.562 351.88 609.002 352.126 608.3C352.379 607.599 352.505 606.817 352.505 605.955C352.505 605.087 352.379 604.303 352.126 603.601C351.88 602.893 351.504 602.33 351 601.911C350.495 601.493 349.867 601.283 349.116 601.283C348.347 601.283 347.707 601.493 347.196 601.911C346.691 602.33 346.312 602.893 346.06 603.601C345.814 604.303 345.691 605.087 345.691 605.955C345.691 606.817 345.814 607.599 346.06 608.3C346.312 609.002 346.691 609.562 347.196 609.981C347.707 610.393 348.347 610.599 349.116 610.599ZM362.072 604.69V613H358.73V598.818H361.925V601.228H362.091C362.417 600.434 362.937 599.803 363.651 599.335C364.371 598.867 365.261 598.634 366.32 598.634C367.298 598.634 368.151 598.843 368.877 599.261C369.61 599.68 370.176 600.286 370.576 601.08C370.982 601.874 371.182 602.838 371.176 603.97V613H367.834V604.487C367.834 603.539 367.588 602.798 367.095 602.262C366.609 601.727 365.935 601.459 365.073 601.459C364.488 601.459 363.968 601.588 363.513 601.847C363.063 602.099 362.709 602.465 362.451 602.945C362.199 603.425 362.072 604.007 362.072 604.69Z" fill="white" fill-opacity="0.87"/>
<path d="M360.974 416.664L360.966 416.869L368 500.5L351.5 508L342.5 511.5L333.5 514.645L315.5 520L298 523.5L291.912 458.645L288.5 524.5L280 525.5L271 526L252 526.5L234 525L216.5 522.587L224.089 437.518L230.543 398.087V398.078L231.511 392.145H359.077L359.244 394.293L360.974 416.664Z" fill="#2F2E41"/>
<path d="M177.11 479.847C184.514 481.289 192.234 472.378 194.354 459.943C195.282 454.5 194.983 449.284 193.732 445.019L194.867 437.851L213.919 341.425C213.919 341.425 249.001 266.426 249 253.405C248.999 240.385 238.852 234 238.852 234L225.12 234.137L182.059 346.537L174.304 429.596L173.049 440.992C170.471 444.512 168.47 449.279 167.542 454.722C165.422 467.157 169.706 478.405 177.11 479.847Z" fill="#FFB6B6"/>
<path d="M317 187.991L304.245 157L262.79 164.538L260 201L317 187.991Z" fill="#FFB6B6"/>
<path opacity="0.1" d="M317 187.991L304.245 157L262.79 164.538L260 201L317 187.991Z" fill="black"/>
<path d="M405.547 251.124C405.547 251.124 376.216 192.352 370.667 186.39C368.197 183.736 364.314 183.699 360.764 184.473L319.933 169.355L306.094 161L305.182 176.895L259.747 185.658C259.999 175.964 261.272 172.277 261.272 172.277L244.625 193.204L212.123 210.239L212.141 210.393C209.756 211.287 207.495 212.818 205.782 215.35C199.44 224.719 182 338.855 182 338.855L219.258 347.372L224.328 313.183L227.978 343.965L230.752 401.459C230.752 401.459 281.486 448.306 306.061 431.27C330.635 414.235 360.758 415.087 360.758 415.087L361.51 388.437C362.045 387.519 362.344 386.979 362.344 386.979L361.551 292.447V267.293C367.59 276.333 374.878 284.108 383.351 287.749C411.096 299.674 405.547 251.124 405.547 251.124Z" fill="#E6E6E6"/>
<path d="M279 170C299.987 170 317 151.644 317 129C317 106.356 299.987 88 279 88C258.013 88 241 106.356 241 129C241 151.644 258.013 170 279 170Z" fill="#FFB6B6"/>
<path d="M306.142 140C306.142 140 309.464 127.646 316.938 128.528C324.411 129.411 326.072 122.351 324.411 118.822C322.751 115.292 319.429 97.6432 319.429 97.6432C319.429 97.6432 321.09 85.2891 311.125 83.5243C301.16 81.7594 297.838 79.9945 296.177 76.4648C294.517 72.9351 269.604 69.4053 261.3 74.6999C252.996 79.9945 246.353 90.1529 240.54 93.0156C234.727 95.8783 229.745 101.173 233.066 109.997C236.388 118.822 241.205 136.08 241.205 136.08C241.205 136.08 249.674 132.941 251.335 138.235C252.996 143.53 246.353 136.47 254.657 122.351C262.961 108.232 262.961 94.1135 276.248 99.4081C289.534 104.703 304.482 102.938 302.821 113.527C301.16 124.116 306.142 140 306.142 140Z" fill="#2F2E41"/>
<path d="M303.723 463.701H14.817C6.64673 463.701 0 456.573 0 447.813V283.255C0 274.495 6.64673 267.367 14.817 267.367H303.723C311.893 267.367 318.54 274.495 318.54 283.255V447.813C318.54 456.573 311.893 463.701 303.723 463.701Z" fill="white"/>
<path d="M303.723 463.701H14.817C6.64673 463.701 0 456.573 0 447.813V283.255C0 274.495 6.64673 267.367 14.817 267.367H303.723C311.893 267.367 318.54 274.495 318.54 283.255V447.813C318.54 456.573 311.893 463.701 303.723 463.701ZM14.817 270.02C8.01136 270.02 2.47432 275.958 2.47432 283.255V447.813C2.47432 455.111 8.01136 461.048 14.817 461.048H303.723C310.528 461.048 316.066 455.111 316.066 447.813V283.255C316.066 275.958 310.528 270.02 303.723 270.02H14.817Z" fill="#3F3D56"/>
<path d="M281.422 287.264C283.472 287.264 285.134 285.482 285.134 283.284C285.134 281.086 283.472 279.305 281.422 279.305C279.373 279.305 277.711 281.086 277.711 283.284C277.711 285.482 279.373 287.264 281.422 287.264Z" fill="#3F3D56"/>
<path d="M291.329 287.264C293.378 287.264 295.04 285.482 295.04 283.284C295.04 281.086 293.378 279.305 291.329 279.305C289.279 279.305 287.617 281.086 287.617 283.284C287.617 285.482 289.279 287.264 291.329 287.264Z" fill="#3F3D56"/>
<path d="M301.219 287.264C303.269 287.264 304.931 285.482 304.931 283.284C304.931 281.086 303.269 279.305 301.219 279.305C299.17 279.305 297.508 281.086 297.508 283.284C297.508 285.482 299.17 287.264 301.219 287.264Z" fill="#3F3D56"/>
<path d="M263.547 304V309.306H20.4743C19.7939 309.306 19.1753 309.014 18.73 308.524C18.2721 308.046 18 307.383 18 306.653C18 305.194 19.1135 304 20.4743 304H263.547Z" fill="#6C63FF"/>
<path d="M43 335H38C37.4486 335 37 333.43 37 331.5C37 329.57 37.4486 328 38 328H43C43.5514 328 44 329.57 44 331.5C44 333.43 43.5514 335 43 335Z" fill="#E6E6E6"/>
<path d="M168.645 336.613H57.9487C55.22 336.613 53 334.233 53 331.306C53 328.38 55.22 326 57.9487 326H168.645C171.374 326 173.594 328.38 173.594 331.306C173.594 334.233 171.374 336.613 168.645 336.613Z" fill="#E6E6E6"/>
<path d="M43 351H38C37.4486 351 37 349.43 37 347.5C37 345.57 37.4486 344 38 344H43C43.5514 344 44 345.57 44 347.5C44 349.43 43.5514 351 43 351Z" fill="#00BFA6"/>
<path d="M168.645 352.613H57.9487C55.22 352.613 53 350.233 53 347.306C53 344.38 55.22 342 57.9487 342H168.645C171.374 342 173.594 344.38 173.594 347.306C173.594 350.233 171.374 352.613 168.645 352.613Z" fill="#E6E6E6"/>
<path d="M42 367H37C36.4486 367 36 365.43 36 363.5C36 361.57 36.4486 360 37 360H42C42.5514 360 43 361.57 43 363.5C43 365.43 42.5514 367 42 367Z" fill="#E6E6E6"/>
<path d="M167.645 368.613H56.9487C54.22 368.613 52 366.233 52 363.306C52 360.38 54.22 358 56.9487 358H167.645C170.374 358 172.594 360.38 172.594 363.306C172.594 366.233 170.374 368.613 167.645 368.613Z" fill="#E6E6E6"/>
<path d="M43 386H38C37.4486 386 37 384.43 37 382.5C37 380.57 37.4486 379 38 379H43C43.5514 379 44 380.57 44 382.5C44 384.43 43.5514 386 43 386Z" fill="#E6E6E6"/>
<path d="M168.645 387.613H57.9487C55.22 387.613 53 385.233 53 382.306C53 379.38 55.22 377 57.9487 377H168.645C171.374 377 173.594 379.38 173.594 382.306C173.594 385.233 171.374 387.613 168.645 387.613Z" fill="#E6E6E6"/>
<path d="M21.0276 407.32C20.0043 407.32 19.1719 408.213 19.1719 409.31C19.1719 409.845 19.3646 410.34 19.7143 410.705C20.0671 411.093 20.5293 411.3 21.0276 411.3H298.741C299.764 411.3 300.597 410.407 300.597 409.31C300.597 408.775 300.404 408.28 300.054 407.915C299.702 407.528 299.239 407.32 298.741 407.32H21.0276Z" fill="#E6E6E6"/>
<path d="M168.848 406.656V411.963H21.0368C20.3564 411.963 19.7378 411.671 19.2925 411.18C18.8346 410.702 18.5625 410.039 18.5625 409.309C18.5625 407.85 19.676 406.656 21.0368 406.656H168.848Z" fill="#6C63FF"/>
<path d="M295.653 396.71H270.91C268.181 396.71 265.961 394.33 265.961 391.404C265.961 388.477 268.181 386.098 270.91 386.098H295.653C298.382 386.098 300.602 388.477 300.602 391.404C300.602 394.33 298.382 396.71 295.653 396.71Z" fill="#E6E6E6"/>
<path d="M338.966 172.734C360.365 172.734 377.712 154.525 377.712 132.062C377.712 109.6 360.365 91.3906 338.966 91.3906C317.566 91.3906 300.219 109.6 300.219 132.062C300.219 154.525 317.566 172.734 338.966 172.734Z" fill="#6C63FF"/>
<path d="M352.123 111.55C346.965 121.622 341.806 131.694 336.648 141.766C333.36 135.537 330.09 129.297 326.795 123.073C325.656 120.924 322.56 122.857 323.702 125.012C327.522 132.227 331.303 139.466 335.123 146.68C335.777 147.914 337.57 147.943 338.217 146.68C343.883 135.617 349.55 124.553 355.216 113.489C356.326 111.321 353.234 109.38 352.123 111.55Z" fill="white"/>
<path d="M392.501 238.981L354.311 219.095C354.311 219.095 352.777 205.785 345.615 201.038C344.397 197.876 342.997 194.403 341.724 191.65C338.578 184.844 343.298 172 339.364 172C335.431 172 329.617 185.508 329.924 189.125C330.161 191.902 332.269 196.75 332.705 200.994C327.908 202.963 324.039 206.338 321.495 209.025C319.294 211.351 318.476 214.82 319.336 218.025C321.829 227.313 328.061 246.496 337.004 246.496C348.804 246.496 351.951 243.927 351.951 243.927C351.951 243.927 376.337 277.322 394.43 279.89C412.523 282.459 392.501 238.981 392.501 238.981Z" fill="#FFB6B6"/>
<defs>
<linearGradient id="paint0_linear_333_1043" x1="260" y1="1.00001" x2="22.7397" y2="368.276" gradientUnits="userSpaceOnUse">
<stop stop-color="#3ECCAA"/>
<stop offset="1" stop-color="#03755A" stop-opacity="0.07"/>
</linearGradient>
</defs>
</svg>
