<svg width="590" height="619" viewBox="0 0 590 619" fill="none" xmlns="http://www.w3.org/2000/svg">
<path d="M333.915 517.337C475.077 517.337 589.502 401.634 589.502 258.918C589.502 116.203 475.077 0.5 333.915 0.5C192.753 0.5 78.3281 116.203 78.3281 258.918C78.3281 401.634 192.753 517.337 333.915 517.337Z" fill="url(#paint0_linear_300_1402)" stroke="#498AE7"/>
<path d="M162.05 571.586H156.777L164.811 548.313H171.152L179.175 571.586H173.902L168.072 553.631H167.891L162.05 571.586ZM161.72 562.438H174.175V566.279H161.72V562.438ZM186.896 548.313V571.586H181.976V548.313H186.896ZM198.26 571.586V554.131H203.101V571.586H198.26ZM200.692 551.881C199.972 551.881 199.355 551.643 198.839 551.165C198.332 550.681 198.078 550.101 198.078 549.427C198.078 548.76 198.332 548.188 198.839 547.711C199.355 547.226 199.972 546.984 200.692 546.984C201.411 546.984 202.025 547.226 202.533 547.711C203.048 548.188 203.305 548.76 203.305 549.427C203.305 550.101 203.048 550.681 202.533 551.165C202.025 551.643 201.411 551.881 200.692 551.881ZM211.82 561.495V571.586H206.979V554.131H211.592V557.211H211.797C212.183 556.196 212.831 555.393 213.74 554.802C214.649 554.203 215.751 553.904 217.047 553.904C218.259 553.904 219.316 554.169 220.217 554.7C221.119 555.23 221.82 555.987 222.32 556.972C222.82 557.95 223.07 559.116 223.07 560.472V571.586H218.229V561.336C218.236 560.268 217.964 559.434 217.411 558.836C216.857 558.23 216.096 557.927 215.126 557.927C214.475 557.927 213.899 558.067 213.399 558.347C212.907 558.628 212.52 559.037 212.24 559.575C211.967 560.105 211.827 560.745 211.82 561.495ZM236.169 554.131V557.768H225.658V554.131H236.169ZM228.044 549.95H232.885V566.222C232.885 566.669 232.953 567.018 233.089 567.268C233.226 567.51 233.415 567.681 233.658 567.779C233.908 567.878 234.196 567.927 234.521 567.927C234.749 567.927 234.976 567.908 235.203 567.87C235.43 567.825 235.605 567.79 235.726 567.768L236.487 571.37C236.245 571.446 235.904 571.533 235.464 571.631C235.025 571.737 234.491 571.802 233.862 571.825C232.696 571.87 231.673 571.715 230.794 571.359C229.923 571.003 229.245 570.45 228.76 569.7C228.275 568.95 228.036 568.003 228.044 566.859V549.95ZM247.089 571.927C245.294 571.927 243.749 571.563 242.453 570.836C241.165 570.101 240.173 569.063 239.476 567.722C238.779 566.374 238.43 564.779 238.43 562.938C238.43 561.143 238.779 559.567 239.476 558.211C240.173 556.855 241.154 555.798 242.419 555.04C243.692 554.283 245.184 553.904 246.896 553.904C248.048 553.904 249.12 554.09 250.112 554.461C251.112 554.825 251.983 555.374 252.726 556.109C253.476 556.844 254.059 557.768 254.476 558.881C254.893 559.987 255.101 561.283 255.101 562.768V564.097H240.362V561.097H250.544C250.544 560.4 250.393 559.783 250.089 559.245C249.786 558.707 249.366 558.287 248.828 557.984C248.298 557.673 247.68 557.518 246.976 557.518C246.241 557.518 245.589 557.688 245.021 558.029C244.461 558.362 244.021 558.813 243.703 559.381C243.385 559.942 243.222 560.567 243.214 561.256V564.109C243.214 564.972 243.374 565.719 243.692 566.347C244.018 566.976 244.476 567.461 245.067 567.802C245.658 568.143 246.358 568.313 247.169 568.313C247.707 568.313 248.199 568.237 248.646 568.086C249.093 567.934 249.476 567.707 249.794 567.404C250.112 567.101 250.355 566.73 250.521 566.29L254.999 566.586C254.771 567.662 254.305 568.601 253.601 569.404C252.904 570.2 252.002 570.821 250.896 571.268C249.798 571.707 248.529 571.927 247.089 571.927ZM266.124 578.495C264.555 578.495 263.211 578.279 262.089 577.847C260.976 577.423 260.089 576.844 259.43 576.109C258.771 575.374 258.343 574.548 258.146 573.631L262.624 573.029C262.76 573.378 262.976 573.703 263.271 574.006C263.567 574.309 263.957 574.552 264.442 574.734C264.934 574.923 265.533 575.018 266.237 575.018C267.29 575.018 268.158 574.76 268.839 574.245C269.529 573.737 269.874 572.885 269.874 571.688V568.495H269.669C269.457 568.98 269.139 569.438 268.714 569.87C268.29 570.302 267.745 570.654 267.078 570.927C266.411 571.2 265.616 571.336 264.692 571.336C263.381 571.336 262.188 571.033 261.112 570.427C260.044 569.813 259.192 568.878 258.555 567.62C257.927 566.355 257.612 564.756 257.612 562.825C257.612 560.847 257.934 559.196 258.578 557.87C259.222 556.544 260.078 555.552 261.146 554.893C262.222 554.234 263.4 553.904 264.68 553.904C265.658 553.904 266.476 554.071 267.135 554.404C267.794 554.73 268.324 555.139 268.726 555.631C269.135 556.116 269.449 556.594 269.669 557.063H269.851V554.131H274.658V571.756C274.658 573.241 274.294 574.484 273.567 575.484C272.839 576.484 271.832 577.234 270.544 577.734C269.264 578.241 267.79 578.495 266.124 578.495ZM266.226 567.7C267.006 567.7 267.665 567.506 268.203 567.12C268.749 566.726 269.165 566.165 269.453 565.438C269.749 564.703 269.896 563.825 269.896 562.802C269.896 561.779 269.752 560.893 269.464 560.143C269.177 559.385 268.76 558.798 268.214 558.381C267.669 557.965 267.006 557.756 266.226 557.756C265.43 557.756 264.76 557.972 264.214 558.404C263.669 558.828 263.256 559.419 262.976 560.177C262.696 560.934 262.555 561.809 262.555 562.802C262.555 563.809 262.696 564.681 262.976 565.415C263.264 566.143 263.677 566.707 264.214 567.109C264.76 567.503 265.43 567.7 266.226 567.7ZM278.51 571.586V554.131H283.203V557.177H283.385C283.703 556.094 284.237 555.275 284.987 554.722C285.737 554.162 286.601 553.881 287.578 553.881C287.821 553.881 288.082 553.897 288.362 553.927C288.643 553.957 288.889 553.999 289.101 554.052V558.347C288.874 558.279 288.559 558.219 288.158 558.165C287.756 558.112 287.389 558.086 287.055 558.086C286.343 558.086 285.707 558.241 285.146 558.552C284.593 558.855 284.154 559.279 283.828 559.825C283.51 560.37 283.351 560.999 283.351 561.711V571.586H278.51ZM296.081 571.915C294.967 571.915 293.975 571.722 293.104 571.336C292.232 570.942 291.543 570.362 291.036 569.597C290.536 568.825 290.286 567.862 290.286 566.711C290.286 565.741 290.464 564.927 290.82 564.268C291.176 563.609 291.661 563.078 292.274 562.677C292.888 562.275 293.585 561.972 294.365 561.768C295.153 561.563 295.979 561.419 296.842 561.336C297.857 561.23 298.676 561.131 299.297 561.04C299.918 560.942 300.369 560.798 300.649 560.609C300.929 560.419 301.07 560.139 301.07 559.768V559.7C301.07 558.98 300.842 558.423 300.388 558.029C299.941 557.635 299.304 557.438 298.479 557.438C297.607 557.438 296.914 557.631 296.399 558.018C295.884 558.397 295.543 558.874 295.376 559.45L290.899 559.086C291.126 558.025 291.573 557.109 292.24 556.336C292.907 555.556 293.767 554.957 294.82 554.54C295.88 554.116 297.107 553.904 298.501 553.904C299.471 553.904 300.399 554.018 301.286 554.245C302.179 554.472 302.971 554.825 303.661 555.302C304.357 555.779 304.907 556.393 305.308 557.143C305.71 557.885 305.911 558.775 305.911 559.813V571.586H301.32V569.165H301.183C300.903 569.711 300.528 570.192 300.058 570.609C299.589 571.018 299.024 571.34 298.365 571.575C297.706 571.802 296.945 571.915 296.081 571.915ZM297.467 568.575C298.179 568.575 298.808 568.434 299.354 568.154C299.899 567.866 300.327 567.48 300.638 566.995C300.948 566.51 301.104 565.961 301.104 565.347V563.495C300.952 563.594 300.744 563.684 300.479 563.768C300.221 563.844 299.929 563.915 299.604 563.984C299.278 564.044 298.952 564.101 298.626 564.154C298.301 564.2 298.005 564.241 297.74 564.279C297.172 564.362 296.676 564.495 296.251 564.677C295.827 564.859 295.498 565.105 295.263 565.415C295.028 565.719 294.911 566.097 294.911 566.552C294.911 567.211 295.149 567.715 295.626 568.063C296.111 568.404 296.725 568.575 297.467 568.575ZM318.95 554.131V557.768H308.439V554.131H318.95ZM310.825 549.95H315.666V566.222C315.666 566.669 315.734 567.018 315.871 567.268C316.007 567.51 316.196 567.681 316.439 567.779C316.689 567.878 316.977 567.927 317.303 567.927C317.53 567.927 317.757 567.908 317.984 567.87C318.212 567.825 318.386 567.79 318.507 567.768L319.268 571.37C319.026 571.446 318.685 571.533 318.246 571.631C317.806 571.737 317.272 571.802 316.643 571.825C315.477 571.87 314.454 571.715 313.575 571.359C312.704 571.003 312.026 570.45 311.541 569.7C311.056 568.95 310.818 568.003 310.825 566.859V549.95ZM329.871 571.927C328.075 571.927 326.53 571.563 325.234 570.836C323.946 570.101 322.954 569.063 322.257 567.722C321.56 566.374 321.212 564.779 321.212 562.938C321.212 561.143 321.56 559.567 322.257 558.211C322.954 556.855 323.935 555.798 325.2 555.04C326.473 554.283 327.965 553.904 329.678 553.904C330.829 553.904 331.901 554.09 332.893 554.461C333.893 554.825 334.765 555.374 335.507 556.109C336.257 556.844 336.84 557.768 337.257 558.881C337.674 559.987 337.882 561.283 337.882 562.768V564.097H323.143V561.097H333.325C333.325 560.4 333.174 559.783 332.871 559.245C332.568 558.707 332.147 558.287 331.609 557.984C331.079 557.673 330.462 557.518 329.757 557.518C329.022 557.518 328.371 557.688 327.803 558.029C327.242 558.362 326.803 558.813 326.484 559.381C326.166 559.942 326.003 560.567 325.996 561.256V564.109C325.996 564.972 326.155 565.719 326.473 566.347C326.799 566.976 327.257 567.461 327.848 567.802C328.439 568.143 329.14 568.313 329.95 568.313C330.488 568.313 330.981 568.237 331.428 568.086C331.875 567.934 332.257 567.707 332.575 567.404C332.893 567.101 333.136 566.73 333.303 566.29L337.78 566.586C337.553 567.662 337.087 568.601 336.382 569.404C335.685 570.2 334.784 570.821 333.678 571.268C332.579 571.707 331.31 571.927 329.871 571.927ZM347.473 571.87C346.147 571.87 344.946 571.529 343.871 570.847C342.803 570.158 341.954 569.147 341.325 567.813C340.704 566.472 340.393 564.828 340.393 562.881C340.393 560.881 340.715 559.219 341.359 557.893C342.003 556.559 342.859 555.563 343.928 554.904C345.003 554.237 346.181 553.904 347.462 553.904C348.439 553.904 349.253 554.071 349.905 554.404C350.564 554.73 351.094 555.139 351.496 555.631C351.905 556.116 352.215 556.594 352.428 557.063H352.575V548.313H357.405V571.586H352.632V568.79H352.428C352.2 569.275 351.878 569.756 351.462 570.234C351.053 570.703 350.518 571.094 349.859 571.404C349.208 571.715 348.412 571.87 347.473 571.87ZM349.007 568.018C349.787 568.018 350.446 567.806 350.984 567.381C351.53 566.95 351.946 566.347 352.234 565.575C352.53 564.802 352.678 563.897 352.678 562.859C352.678 561.821 352.534 560.919 352.246 560.154C351.958 559.389 351.541 558.798 350.996 558.381C350.45 557.965 349.787 557.756 349.007 557.756C348.212 557.756 347.541 557.972 346.996 558.404C346.45 558.836 346.037 559.434 345.757 560.2C345.477 560.965 345.337 561.851 345.337 562.859C345.337 563.874 345.477 564.772 345.757 565.552C346.045 566.325 346.458 566.931 346.996 567.37C347.541 567.802 348.212 568.018 349.007 568.018ZM368.882 571.586V548.313H373.803V567.529H383.78V571.586H368.882ZM394.902 571.927C393.107 571.927 391.561 571.563 390.266 570.836C388.978 570.101 387.985 569.063 387.288 567.722C386.591 566.374 386.243 564.779 386.243 562.938C386.243 561.143 386.591 559.567 387.288 558.211C387.985 556.855 388.966 555.798 390.232 555.04C391.504 554.283 392.997 553.904 394.709 553.904C395.86 553.904 396.932 554.09 397.925 554.461C398.925 554.825 399.796 555.374 400.538 556.109C401.288 556.844 401.872 557.768 402.288 558.881C402.705 559.987 402.913 561.283 402.913 562.768V564.097H388.175V561.097H398.357C398.357 560.4 398.205 559.783 397.902 559.245C397.599 558.707 397.179 558.287 396.641 557.984C396.11 557.673 395.493 557.518 394.788 557.518C394.054 557.518 393.402 557.688 392.834 558.029C392.273 558.362 391.834 558.813 391.516 559.381C391.197 559.942 391.035 560.567 391.027 561.256V564.109C391.027 564.972 391.186 565.719 391.504 566.347C391.83 566.976 392.288 567.461 392.879 567.802C393.47 568.143 394.171 568.313 394.982 568.313C395.519 568.313 396.012 568.237 396.459 568.086C396.906 567.934 397.288 567.707 397.607 567.404C397.925 567.101 398.167 566.73 398.334 566.29L402.811 566.586C402.584 567.662 402.118 568.601 401.413 569.404C400.716 570.2 399.815 570.821 398.709 571.268C397.61 571.707 396.341 571.927 394.902 571.927ZM411.05 571.915C409.936 571.915 408.944 571.722 408.072 571.336C407.201 570.942 406.512 570.362 406.004 569.597C405.504 568.825 405.254 567.862 405.254 566.711C405.254 565.741 405.432 564.927 405.788 564.268C406.144 563.609 406.629 563.078 407.243 562.677C407.857 562.275 408.554 561.972 409.334 561.768C410.122 561.563 410.947 561.419 411.811 561.336C412.826 561.23 413.644 561.131 414.266 561.04C414.887 560.942 415.338 560.798 415.618 560.609C415.898 560.419 416.038 560.139 416.038 559.768V559.7C416.038 558.98 415.811 558.423 415.357 558.029C414.91 557.635 414.273 557.438 413.447 557.438C412.576 557.438 411.883 557.631 411.368 558.018C410.853 558.397 410.512 558.874 410.345 559.45L405.868 559.086C406.095 558.025 406.542 557.109 407.209 556.336C407.875 555.556 408.735 554.957 409.788 554.54C410.849 554.116 412.076 553.904 413.47 553.904C414.44 553.904 415.368 554.018 416.254 554.245C417.148 554.472 417.94 554.825 418.629 555.302C419.326 555.779 419.875 556.393 420.277 557.143C420.679 557.885 420.879 558.775 420.879 559.813V571.586H416.288V569.165H416.152C415.872 569.711 415.497 570.192 415.027 570.609C414.557 571.018 413.993 571.34 413.334 571.575C412.675 571.802 411.913 571.915 411.05 571.915ZM412.436 568.575C413.148 568.575 413.777 568.434 414.322 568.154C414.868 567.866 415.296 567.48 415.607 566.995C415.917 566.51 416.072 565.961 416.072 565.347V563.495C415.921 563.594 415.713 563.684 415.447 563.768C415.19 563.844 414.898 563.915 414.572 563.984C414.247 564.044 413.921 564.101 413.595 564.154C413.269 564.2 412.974 564.241 412.709 564.279C412.141 564.362 411.644 564.495 411.22 564.677C410.796 564.859 410.466 565.105 410.232 565.415C409.997 565.719 409.879 566.097 409.879 566.552C409.879 567.211 410.118 567.715 410.595 568.063C411.08 568.404 411.694 568.575 412.436 568.575ZM424.635 571.586V554.131H429.328V557.177H429.51C429.828 556.094 430.362 555.275 431.112 554.722C431.862 554.162 432.726 553.881 433.703 553.881C433.946 553.881 434.207 553.897 434.487 553.927C434.768 553.957 435.014 553.999 435.226 554.052V558.347C434.999 558.279 434.684 558.219 434.283 558.165C433.881 558.112 433.514 558.086 433.18 558.086C432.468 558.086 431.832 558.241 431.271 558.552C430.718 558.855 430.279 559.279 429.953 559.825C429.635 560.37 429.476 560.999 429.476 561.711V571.586H424.635ZM442.57 561.495V571.586H437.729V554.131H442.342V557.211H442.547C442.933 556.196 443.581 555.393 444.49 554.802C445.399 554.203 446.501 553.904 447.797 553.904C449.009 553.904 450.066 554.169 450.967 554.7C451.869 555.23 452.57 555.987 453.07 556.972C453.57 557.95 453.82 559.116 453.82 560.472V571.586H448.979V561.336C448.986 560.268 448.714 559.434 448.161 558.836C447.607 558.23 446.846 557.927 445.876 557.927C445.225 557.927 444.649 558.067 444.149 558.347C443.657 558.628 443.27 559.037 442.99 559.575C442.717 560.105 442.577 560.745 442.57 561.495ZM457.635 571.586V554.131H462.476V571.586H457.635ZM460.067 551.881C459.347 551.881 458.73 551.643 458.214 551.165C457.707 550.681 457.453 550.101 457.453 549.427C457.453 548.76 457.707 548.188 458.214 547.711C458.73 547.226 459.347 546.984 460.067 546.984C460.786 546.984 461.4 547.226 461.908 547.711C462.423 548.188 462.68 548.76 462.68 549.427C462.68 550.101 462.423 550.681 461.908 551.165C461.4 551.643 460.786 551.881 460.067 551.881ZM471.195 561.495V571.586H466.354V554.131H470.967V557.211H471.172C471.558 556.196 472.206 555.393 473.115 554.802C474.024 554.203 475.126 553.904 476.422 553.904C477.634 553.904 478.691 554.169 479.592 554.7C480.494 555.23 481.195 555.987 481.695 556.972C482.195 557.95 482.445 559.116 482.445 560.472V571.586H477.604V561.336C477.611 560.268 477.339 559.434 476.786 558.836C476.232 558.23 475.471 557.927 474.501 557.927C473.85 557.927 473.274 558.067 472.774 558.347C472.282 558.628 471.895 559.037 471.615 559.575C471.342 560.105 471.202 560.745 471.195 561.495ZM494.124 578.495C492.555 578.495 491.211 578.279 490.089 577.847C488.976 577.423 488.089 576.844 487.43 576.109C486.771 575.374 486.343 574.548 486.146 573.631L490.624 573.029C490.76 573.378 490.976 573.703 491.271 574.006C491.567 574.309 491.957 574.552 492.442 574.734C492.934 574.923 493.533 575.018 494.237 575.018C495.29 575.018 496.158 574.76 496.839 574.245C497.529 573.737 497.874 572.885 497.874 571.688V568.495H497.669C497.457 568.98 497.139 569.438 496.714 569.87C496.29 570.302 495.745 570.654 495.078 570.927C494.411 571.2 493.616 571.336 492.692 571.336C491.381 571.336 490.188 571.033 489.112 570.427C488.044 569.813 487.192 568.878 486.555 567.62C485.927 566.355 485.612 564.756 485.612 562.825C485.612 560.847 485.934 559.196 486.578 557.87C487.222 556.544 488.078 555.552 489.146 554.893C490.222 554.234 491.4 553.904 492.68 553.904C493.658 553.904 494.476 554.071 495.135 554.404C495.794 554.73 496.324 555.139 496.726 555.631C497.135 556.116 497.449 556.594 497.669 557.063H497.851V554.131H502.658V571.756C502.658 573.241 502.294 574.484 501.567 575.484C500.839 576.484 499.832 577.234 498.544 577.734C497.264 578.241 495.79 578.495 494.124 578.495ZM494.226 567.7C495.006 567.7 495.665 567.506 496.203 567.12C496.749 566.726 497.165 566.165 497.453 565.438C497.749 564.703 497.896 563.825 497.896 562.802C497.896 561.779 497.752 560.893 497.464 560.143C497.177 559.385 496.76 558.798 496.214 558.381C495.669 557.965 495.006 557.756 494.226 557.756C493.43 557.756 492.76 557.972 492.214 558.404C491.669 558.828 491.256 559.419 490.976 560.177C490.696 560.934 490.555 561.809 490.555 562.802C490.555 563.809 490.696 564.681 490.976 565.415C491.264 566.143 491.677 566.707 492.214 567.109C492.76 567.503 493.43 567.7 494.226 567.7ZM269.135 617.131V593.131H273.908V596.063H274.124C274.336 595.594 274.643 595.116 275.044 594.631C275.453 594.139 275.983 593.73 276.635 593.404C277.294 593.071 278.112 592.904 279.089 592.904C280.362 592.904 281.536 593.237 282.612 593.904C283.688 594.563 284.548 595.559 285.192 596.893C285.836 598.219 286.158 599.881 286.158 601.881C286.158 603.828 285.843 605.472 285.214 606.813C284.593 608.147 283.745 609.158 282.669 609.847C281.601 610.529 280.404 610.87 279.078 610.87C278.139 610.87 277.339 610.715 276.68 610.404C276.029 610.094 275.495 609.703 275.078 609.234C274.661 608.756 274.343 608.275 274.124 607.79H273.976V617.131H269.135ZM273.874 601.859C273.874 602.897 274.018 603.802 274.305 604.575C274.593 605.347 275.01 605.95 275.555 606.381C276.101 606.806 276.764 607.018 277.544 607.018C278.332 607.018 278.999 606.802 279.544 606.37C280.089 605.931 280.502 605.325 280.783 604.552C281.071 603.772 281.214 602.874 281.214 601.859C281.214 600.851 281.074 599.965 280.794 599.2C280.514 598.434 280.101 597.836 279.555 597.404C279.01 596.972 278.339 596.756 277.544 596.756C276.756 596.756 276.089 596.965 275.544 597.381C275.006 597.798 274.593 598.389 274.305 599.154C274.018 599.919 273.874 600.821 273.874 601.859ZM294.226 587.313V610.586H289.385V587.313H294.226ZM303.081 610.915C301.967 610.915 300.975 610.722 300.104 610.336C299.232 609.942 298.543 609.362 298.036 608.597C297.536 607.825 297.286 606.862 297.286 605.711C297.286 604.741 297.464 603.927 297.82 603.268C298.176 602.609 298.661 602.078 299.274 601.677C299.888 601.275 300.585 600.972 301.365 600.768C302.153 600.563 302.979 600.419 303.842 600.336C304.857 600.23 305.676 600.131 306.297 600.04C306.918 599.942 307.369 599.798 307.649 599.609C307.929 599.419 308.07 599.139 308.07 598.768V598.7C308.07 597.98 307.842 597.423 307.388 597.029C306.941 596.635 306.304 596.438 305.479 596.438C304.607 596.438 303.914 596.631 303.399 597.018C302.884 597.397 302.543 597.874 302.376 598.45L297.899 598.086C298.126 597.025 298.573 596.109 299.24 595.336C299.907 594.556 300.767 593.957 301.82 593.54C302.88 593.116 304.107 592.904 305.501 592.904C306.471 592.904 307.399 593.018 308.286 593.245C309.179 593.472 309.971 593.825 310.661 594.302C311.357 594.779 311.907 595.393 312.308 596.143C312.71 596.885 312.911 597.775 312.911 598.813V610.586H308.32V608.165H308.183C307.903 608.711 307.528 609.192 307.058 609.609C306.589 610.018 306.024 610.34 305.365 610.575C304.706 610.802 303.945 610.915 303.081 610.915ZM304.467 607.575C305.179 607.575 305.808 607.434 306.354 607.154C306.899 606.866 307.327 606.48 307.638 605.995C307.948 605.51 308.104 604.961 308.104 604.347V602.495C307.952 602.594 307.744 602.684 307.479 602.768C307.221 602.844 306.929 602.915 306.604 602.984C306.278 603.044 305.952 603.101 305.626 603.154C305.301 603.2 305.005 603.241 304.74 603.279C304.172 603.362 303.676 603.495 303.251 603.677C302.827 603.859 302.498 604.105 302.263 604.415C302.028 604.719 301.911 605.097 301.911 605.552C301.911 606.211 302.149 606.715 302.626 607.063C303.111 607.404 303.725 607.575 304.467 607.575ZM325.95 593.131V596.768H315.439V593.131H325.95ZM317.825 588.95H322.666V605.222C322.666 605.669 322.734 606.018 322.871 606.268C323.007 606.51 323.196 606.681 323.439 606.779C323.689 606.878 323.977 606.927 324.303 606.927C324.53 606.927 324.757 606.908 324.984 606.87C325.212 606.825 325.386 606.79 325.507 606.768L326.268 610.37C326.026 610.446 325.685 610.533 325.246 610.631C324.806 610.737 324.272 610.802 323.643 610.825C322.477 610.87 321.454 610.715 320.575 610.359C319.704 610.003 319.026 609.45 318.541 608.7C318.056 607.95 317.818 607.003 317.825 605.859V588.95ZM338.49 593.131V596.768H327.717V593.131H338.49ZM330.183 610.586V591.87C330.183 590.605 330.429 589.556 330.922 588.722C331.422 587.889 332.104 587.264 332.967 586.847C333.831 586.431 334.812 586.222 335.911 586.222C336.653 586.222 337.331 586.279 337.945 586.393C338.566 586.506 339.028 586.609 339.331 586.7L338.467 590.336C338.278 590.275 338.043 590.219 337.763 590.165C337.49 590.112 337.21 590.086 336.922 590.086C336.21 590.086 335.714 590.253 335.433 590.586C335.153 590.912 335.013 591.37 335.013 591.961V610.586H330.183ZM348.709 610.927C346.944 610.927 345.417 610.552 344.129 609.802C342.849 609.044 341.86 607.991 341.163 606.643C340.466 605.287 340.118 603.715 340.118 601.927C340.118 600.124 340.466 598.548 341.163 597.2C341.86 595.844 342.849 594.79 344.129 594.04C345.417 593.283 346.944 592.904 348.709 592.904C350.474 592.904 351.997 593.283 353.277 594.04C354.565 594.79 355.557 595.844 356.254 597.2C356.951 598.548 357.3 600.124 357.3 601.927C357.3 603.715 356.951 605.287 356.254 606.643C355.557 607.991 354.565 609.044 353.277 609.802C351.997 610.552 350.474 610.927 348.709 610.927ZM348.732 607.177C349.535 607.177 350.205 606.95 350.743 606.495C351.281 606.033 351.686 605.404 351.959 604.609C352.239 603.813 352.379 602.908 352.379 601.893C352.379 600.878 352.239 599.972 351.959 599.177C351.686 598.381 351.281 597.753 350.743 597.29C350.205 596.828 349.535 596.597 348.732 596.597C347.921 596.597 347.239 596.828 346.686 597.29C346.141 597.753 345.728 598.381 345.447 599.177C345.175 599.972 345.038 600.878 345.038 601.893C345.038 602.908 345.175 603.813 345.447 604.609C345.728 605.404 346.141 606.033 346.686 606.495C347.239 606.95 347.921 607.177 348.732 607.177ZM360.447 610.586V593.131H365.141V596.177H365.322C365.641 595.094 366.175 594.275 366.925 593.722C367.675 593.162 368.538 592.881 369.516 592.881C369.758 592.881 370.019 592.897 370.3 592.927C370.58 592.957 370.826 592.999 371.038 593.052V597.347C370.811 597.279 370.497 597.219 370.095 597.165C369.694 597.112 369.326 597.086 368.993 597.086C368.281 597.086 367.644 597.241 367.084 597.552C366.531 597.855 366.091 598.279 365.766 598.825C365.447 599.37 365.288 599.999 365.288 600.711V610.586H360.447ZM373.541 610.586V593.131H378.155V596.211H378.359C378.723 595.188 379.329 594.381 380.178 593.79C381.026 593.2 382.041 592.904 383.223 592.904C384.42 592.904 385.439 593.203 386.28 593.802C387.121 594.393 387.681 595.196 387.962 596.211H388.143C388.5 595.211 389.143 594.412 390.075 593.813C391.015 593.207 392.125 592.904 393.405 592.904C395.034 592.904 396.356 593.423 397.371 594.461C398.393 595.491 398.905 596.953 398.905 598.847V610.586H394.075V599.802C394.075 598.832 393.818 598.105 393.303 597.62C392.787 597.135 392.143 596.893 391.371 596.893C390.492 596.893 389.806 597.173 389.314 597.734C388.821 598.287 388.575 599.018 388.575 599.927V610.586H383.882V599.7C383.882 598.844 383.636 598.162 383.143 597.654C382.659 597.147 382.018 596.893 381.223 596.893C380.685 596.893 380.2 597.029 379.768 597.302C379.344 597.567 379.007 597.942 378.757 598.427C378.507 598.904 378.382 599.465 378.382 600.109V610.586H373.541Z" fill="white"/>
<path d="M489.529 222C489.529 222 475.751 229.765 479.717 238.606C483.683 247.447 540 240.213 540 240.213C540 240.213 536.034 228.158 528.895 225.746C521.756 223.335 489.529 222 489.529 222Z" fill="#35AA86"/>
<path d="M484 224.801C486.76 222.897 489.828 221.551 493.049 220.83C503.792 218.066 515.04 218.439 525.6 221.908L525.406 221.74C529.905 224.261 533.855 227.756 537 232L484 224.801Z" fill="#CCCCCC"/>
<path d="M545.696 261.578C545.503 264.332 545.31 267.084 545.118 269.833C544.854 275.59 544.197 281.325 543.152 287.001C542.173 291.75 540.617 296.46 537.833 300.503C535.048 304.538 530.916 307.875 526.022 309.102C523.017 309.791 519.893 309.856 516.859 309.294C511.138 306.187 507.263 310.161 512.976 314.204C514.272 315.12 515.619 315.968 517.011 316.743L519.603 355L471.462 345.027L480.857 294.136C479.418 292.886 478.102 291.512 476.926 290.031C471.542 283.196 469.689 274.29 470.042 265.744C470.403 257.19 472.786 248.852 475.153 240.605C475.756 238.368 476.485 236.163 477.335 234C478.386 234.414 479.453 234.79 480.536 235.105C487.461 237.115 494.818 237.276 502.056 237.268C514.933 237.26 527.795 236.78 540.641 235.826C543.593 240.472 545.385 245.706 545.88 251.122C546.087 254.607 546.026 258.102 545.696 261.578Z" fill="#CCCCCC"/>
<path d="M340.219 366.153L413.378 372.431L414.162 372.5V70.7356L412.219 17.0198C396.972 6.71041 378.5 6 362.5 4L360.526 94.8299L360.186 99.3931L356.487 148.822L355.346 164.027L340.353 364.392L340.219 366.153Z" fill="#E6E6E6"/>
<path d="M156.048 75.1279C159.5 81.5 155.016 85.162 154.5 85.5V383.5L156.048 383.362L227.5 377.133L227.367 375.366L212.564 174.357L211.438 159.103L207.786 109.515L207.449 104.937L206 36.5C189.307 42.1834 168 62.5 156.048 75.1279Z" fill="#E6E6E6"/>
<path d="M157 74C155.945 74.6488 152.039 79.3098 151 79.9812L153 377.014C153 384.611 157.737 390.978 164.069 392.6C165.104 392.866 166.171 393.001 167.243 393H402.755C403.824 393.001 404.889 392.867 405.921 392.6C408.274 391.979 410.408 390.765 412.094 389.085C415.31 385.816 417.068 381.489 416.998 377.014V78.2549C415.697 77.342 414.387 76.4368 413.062 75.5541C412.8 75.3806 412.539 75.2071 412.277 75.0336V377.014C412.278 377.993 412.156 378.968 411.912 379.919C410.793 384.407 407.103 387.696 402.755 387.696H167.243C161.99 387.696 157.721 382.906 157.721 377.014L158 74C157.476 74.3168 158.571 82.8515 157 74Z" fill="#E6E6E6"/>
<path d="M416 93H157V97H416V93Z" fill="#E6E6E6"/>
<path d="M338 34.0575C336.007 33.682 334.013 33.3295 332 33V157H338V34.0575Z" fill="#E6E6E6"/>
<path d="M241 32C239.664 32.2823 238.329 32.5723 237 32.8851V157H241V32Z" fill="#E6E6E6"/>
<path d="M105 383.992C104.999 386.67 105.522 389.322 106.54 391.807C106.931 392.77 107.398 393.702 107.936 394.594C108.631 395.758 109.438 396.854 110.346 397.867C112.35 400.109 114.819 401.904 117.587 403.135C120.355 404.365 123.359 405.001 126.398 405H438.602C444.277 405 449.72 402.787 453.733 398.849C457.746 394.911 460 389.57 460 384C460 378.43 457.746 373.089 453.733 369.151C449.72 365.213 444.277 363 438.602 363H126.398C120.726 363.005 115.288 365.219 111.276 369.154C107.265 373.089 105.008 378.426 105 383.992Z" fill="#E6E6E6"/>
<path d="M157 163L415 163V147L157 147V163Z" fill="#E6E6E6"/>
<path d="M297 151H275C275 149.949 275.224 148.909 275.658 147.939C276.092 146.968 276.729 146.086 277.531 145.343C278.334 144.6 279.287 144.011 280.335 143.609C281.384 143.207 282.508 143 283.643 143H288.357C290.649 143 292.848 143.843 294.469 145.343C296.089 146.843 297 148.878 297 151Z" fill="#E6E6E6"/>
<path d="M0 395C6.92563 403.178 14.4165 410.863 22.4177 418H566.582C574.584 410.863 582.074 403.178 589 395H0Z" fill="#3F3D56"/>
<path d="M148 321.611V399H205V321.611C205.001 321.054 204.814 320.512 204.467 320.064C204.12 319.616 203.631 319.285 203.072 319.121C202.809 319.038 202.533 318.997 202.255 319H150.753C150.392 318.999 150.034 319.066 149.7 319.197C149.367 319.328 149.063 319.52 148.808 319.763C148.552 320.005 148.349 320.293 148.21 320.61C148.072 320.928 148 321.268 148 321.611ZM170.245 348.202C170.26 346.676 170.907 345.218 172.047 344.144C173.186 343.07 174.725 342.468 176.329 342.468C177.933 342.468 179.473 343.07 180.612 344.144C181.752 345.218 182.399 346.676 182.414 348.202V357.182C182.406 358.711 181.761 360.176 180.621 361.255C179.481 362.334 177.938 362.94 176.329 362.94C174.721 362.94 173.178 362.334 172.038 361.255C170.898 360.176 170.253 358.711 170.245 357.182V348.202Z" fill="#2F2E41"/>
<path d="M147 397V405.36C147.001 405.793 147.165 406.208 147.454 406.515C147.744 406.822 148.137 406.996 148.548 407H203.452C203.863 406.998 204.257 406.824 204.547 406.517C204.837 406.209 205 405.794 205 405.36V397H147Z" fill="#3F3D56"/>
<path d="M57 202.877V346.116C57.0015 347.941 57.7593 349.691 59.1069 350.982C60.4546 352.273 62.282 352.999 64.1878 353H285.812C287.718 352.999 289.545 352.273 290.893 350.982C292.241 349.691 292.999 347.941 293 346.116V202.877C292.995 201.053 292.236 199.305 290.889 198.016C289.542 196.727 287.716 196.002 285.812 196H64.1878C62.2836 196.002 60.458 196.727 59.1108 198.016C57.7635 199.305 57.0045 201.053 57 202.877Z" fill="#3F3D56"/>
<path d="M62 205.686V345.322C62.0018 346.297 62.4077 347.232 63.129 347.921C63.8503 348.61 64.8281 348.998 65.8481 349H284.152C285.172 348.998 286.15 348.61 286.871 347.921C287.592 347.232 287.998 346.297 288 345.322V205.686C288 204.709 287.595 203.773 286.873 203.082C286.152 202.391 285.173 202.002 284.152 202H65.8481C64.8268 202.002 63.8481 202.391 63.1267 203.082C62.4053 203.773 62.0001 204.709 62 205.686Z" fill="#35AA86"/>
<path d="M106.535 408.134C106.756 408.405 107.037 408.625 107.357 408.775C107.677 408.925 108.027 409.002 108.382 409H237.625C237.978 409 238.327 408.922 238.646 408.773C238.965 408.623 239.246 408.406 239.469 408.137C239.691 407.868 239.85 407.554 239.933 407.217C240.016 406.88 240.022 406.53 239.949 406.191L237.943 396.849C237.86 396.469 237.681 396.114 237.422 395.818C237.164 395.523 236.834 395.295 236.462 395.156C236.194 395.053 235.907 395 235.619 395H110.38C110.091 395 109.805 395.053 109.536 395.156C109.165 395.295 108.835 395.523 108.576 395.818C108.317 396.114 108.138 396.469 108.055 396.849L106.049 406.191C105.978 406.529 105.984 406.88 106.068 407.216C106.152 407.552 106.312 407.866 106.535 408.134Z" fill="#2F2E41"/>
<path d="M231.488 399H235.512C235.781 399 236 398.854 236 398.675V397.325C236 397.146 235.781 397 235.512 397H231.488C231.219 397 231 397.146 231 397.325V398.675C231 398.854 231.219 399 231.488 399Z" fill="#3F3D56"/>
<path d="M224.293 399H226.707C226.869 399 227 398.854 227 398.675V397.325C227 397.146 226.869 397 226.707 397H224.293C224.131 397 224 397.146 224 397.325V398.675C224 398.854 224.131 399 224.293 399Z" fill="#3F3D56"/>
<path d="M215.391 399H218.609C218.825 399 219 398.854 219 398.675V397.325C219 397.146 218.825 397 218.609 397H215.391C215.175 397 215 397.146 215 397.325V398.675C215 398.854 215.175 399 215.391 399Z" fill="#3F3D56"/>
<path d="M207.488 399H211.512C211.781 399 212 398.854 212 398.675V397.325C212 397.146 211.781 397 211.512 397H207.488C207.219 397 207 397.146 207 397.325V398.675C207 398.854 207.219 399 207.488 399Z" fill="#3F3D56"/>
<path d="M199.488 399H203.512C203.781 399 204 398.854 204 398.675V397.325C204 397.146 203.781 397 203.512 397H199.488C199.219 397 199 397.146 199 397.325V398.675C199 398.854 199.219 399 199.488 399Z" fill="#3F3D56"/>
<path d="M192.293 399H194.707C194.869 399 195 398.854 195 398.675V397.325C195 397.146 194.869 397 194.707 397H192.293C192.131 397 192 397.146 192 397.325V398.675C192 398.854 192.131 399 192.293 399Z" fill="#3F3D56"/>
<path d="M183.391 399H186.609C186.825 399 187 398.854 187 398.675V397.325C187 397.146 186.825 397 186.609 397H183.391C183.175 397 183 397.146 183 397.325V398.675C183 398.854 183.175 399 183.391 399Z" fill="#3F3D56"/>
<path d="M175.488 399H179.512C179.781 399 180 398.854 180 398.675V397.325C180 397.146 179.781 397 179.512 397H175.488C175.219 397 175 397.146 175 397.325V398.675C175 398.854 175.219 399 175.488 399Z" fill="#3F3D56"/>
<path d="M168.293 399H170.707C170.869 399 171 398.854 171 398.675V397.325C171 397.146 170.869 397 170.707 397H168.293C168.131 397 168 397.146 168 397.325V398.675C168 398.854 168.131 399 168.293 399Z" fill="#3F3D56"/>
<path d="M160.293 399H162.707C162.869 399 163 398.854 163 398.675V397.325C163 397.146 162.869 397 162.707 397H160.293C160.131 397 160 397.146 160 397.325V398.675C160 398.854 160.131 399 160.293 399Z" fill="#3F3D56"/>
<path d="M151.488 399H155.512C155.781 399 156 398.854 156 398.675V397.325C156 397.146 155.781 397 155.512 397H151.488C151.219 397 151 397.146 151 397.325V398.675C151 398.854 151.219 399 151.488 399Z" fill="#3F3D56"/>
<path d="M144.391 399H147.609C147.825 399 148 398.854 148 398.675V397.325C148 397.146 147.825 397 147.609 397H144.391C144.175 397 144 397.146 144 397.325V398.675C144 398.854 144.175 399 144.391 399Z" fill="#3F3D56"/>
<path d="M136.293 399H138.707C138.869 399 139 398.854 139 398.675V397.325C139 397.146 138.869 397 138.707 397H136.293C136.131 397 136 397.146 136 397.325V398.675C136 398.854 136.131 399 136.293 399Z" fill="#3F3D56"/>
<path d="M127.488 399H131.512C131.781 399 132 398.854 132 398.675V397.325C132 397.146 131.781 397 131.512 397H127.488C127.219 397 127 397.146 127 397.325V398.675C127 398.854 127.219 399 127.488 399Z" fill="#3F3D56"/>
<path d="M119.488 399H123.512C123.781 399 124 398.854 124 398.675V397.325C124 397.146 123.781 397 123.512 397H119.488C119.219 397 119 397.146 119 397.325V398.675C119 398.854 119.219 399 119.488 399Z" fill="#3F3D56"/>
<path d="M112.391 399H115.609C115.825 399 116 398.854 116 398.675V397.325C116 397.146 115.825 397 115.609 397H112.391C112.175 397 112 397.146 112 397.325V398.675C112 398.854 112.175 399 112.391 399Z" fill="#3F3D56"/>
<path d="M231.488 403H235.512C235.781 403 236 402.781 236 402.512V400.488C236 400.219 235.781 400 235.512 400H231.488C231.219 400 231 400.219 231 400.488V402.512C231 402.781 231.219 403 231.488 403Z" fill="#3F3D56"/>
<path d="M224.293 403H226.707C226.869 403 227 402.781 227 402.512V400.488C227 400.219 226.869 400 226.707 400H224.293C224.131 400 224 400.219 224 400.488V402.512C224 402.781 224.131 403 224.293 403Z" fill="#3F3D56"/>
<path d="M216.293 403H218.707C218.869 403 219 402.781 219 402.512V400.488C219 400.219 218.869 400 218.707 400H216.293C216.131 400 216 400.219 216 400.488V402.512C216 402.781 216.131 403 216.293 403Z" fill="#3F3D56"/>
<path d="M207.488 403H211.512C211.781 403 212 402.781 212 402.512V400.488C212 400.219 211.781 400 211.512 400H207.488C207.219 400 207 400.219 207 400.488V402.512C207 402.781 207.219 403 207.488 403Z" fill="#3F3D56"/>
<path d="M199.488 403H203.512C203.781 403 204 402.781 204 402.512V400.488C204 400.219 203.781 400 203.512 400H199.488C199.219 400 199 400.219 199 400.488V402.512C199 402.781 199.219 403 199.488 403Z" fill="#3F3D56"/>
<path d="M192.293 403H194.707C194.869 403 195 402.781 195 402.512V400.488C195 400.219 194.869 400 194.707 400H192.293C192.131 400 192 400.219 192 400.488V402.512C192 402.781 192.131 403 192.293 403Z" fill="#3F3D56"/>
<path d="M183.391 403H186.609C186.825 403 187 402.781 187 402.512V400.488C187 400.219 186.825 400 186.609 400H183.391C183.175 400 183 400.219 183 400.488V402.512C183 402.781 183.175 403 183.391 403Z" fill="#3F3D56"/>
<path d="M175.488 403H179.512C179.781 403 180 402.781 180 402.512V400.488C180 400.219 179.781 400 179.512 400H175.488C175.219 400 175 400.219 175 400.488V402.512C175 402.781 175.219 403 175.488 403Z" fill="#3F3D56"/>
<path d="M168.391 403H171.609C171.825 403 172 402.781 172 402.512V400.488C172 400.219 171.825 400 171.609 400H168.391C168.175 400 168 400.219 168 400.488V402.512C168 402.781 168.175 403 168.391 403Z" fill="#3F3D56"/>
<path d="M160.293 403H162.707C162.869 403 163 402.781 163 402.512V400.488C163 400.219 162.869 400 162.707 400H160.293C160.131 400 160 400.219 160 400.488V402.512C160 402.781 160.131 403 160.293 403Z" fill="#3F3D56"/>
<path d="M151.488 403H155.512C155.781 403 156 402.781 156 402.512V400.488C156 400.219 155.781 400 155.512 400H151.488C151.219 400 151 400.219 151 400.488V402.512C151 402.781 151.219 403 151.488 403Z" fill="#3F3D56"/>
<path d="M144.391 403H147.609C147.825 403 148 402.781 148 402.512V400.488C148 400.219 147.825 400 147.609 400H144.391C144.175 400 144 400.219 144 400.488V402.512C144 402.781 144.175 403 144.391 403Z" fill="#3F3D56"/>
<path d="M136.293 403H138.707C138.869 403 139 402.781 139 402.512V400.488C139 400.219 138.869 400 138.707 400H136.293C136.131 400 136 400.219 136 400.488V402.512C136 402.781 136.131 403 136.293 403Z" fill="#3F3D56"/>
<path d="M128.391 403H131.609C131.825 403 132 402.781 132 402.512V400.488C132 400.219 131.825 400 131.609 400H128.391C128.175 400 128 400.219 128 400.488V402.512C128 402.781 128.175 403 128.391 403Z" fill="#3F3D56"/>
<path d="M119.488 403H123.512C123.781 403 124 402.781 124 402.512V400.488C124 400.219 123.781 400 123.512 400H119.488C119.219 400 119 400.219 119 400.488V402.512C119 402.781 119.219 403 119.488 403Z" fill="#3F3D56"/>
<path d="M112.391 403H115.609C115.825 403 116 402.781 116 402.512V400.488C116 400.219 115.825 400 115.609 400H112.391C112.175 400 112 400.219 112 400.488V402.512C112 402.781 112.175 403 112.391 403Z" fill="#3F3D56"/>
<path d="M165.391 408H196.609C196.825 408 197 407.854 197 407.675V406.325C197 406.146 196.825 406 196.609 406H165.391C165.175 406 165 406.146 165 406.325V407.675C165 407.854 165.175 408 165.391 408Z" fill="#3F3D56"/>
<path d="M77.7914 220H281.209C281.42 219.994 281.621 219.886 281.769 219.699C281.917 219.513 282 219.261 282 219C282 218.739 281.917 218.487 281.769 218.301C281.621 218.114 281.42 218.006 281.209 218H77.7914C77.5799 218.006 77.3786 218.114 77.2307 218.301C77.0828 218.487 77 218.739 77 219C77 219.261 77.0828 219.513 77.2307 219.699C77.3786 219.886 77.5799 219.994 77.7914 220Z" fill="#3F3D56"/>
<path d="M267 214C269.761 214 272 211.985 272 209.5C272 207.015 269.761 205 267 205C264.239 205 262 207.015 262 209.5C262 211.985 264.239 214 267 214Z" fill="#3F3D56"/>
<path d="M250.5 214C252.985 214 255 211.985 255 209.5C255 207.015 252.985 205 250.5 205C248.015 205 246 207.015 246 209.5C246 211.985 248.015 214 250.5 214Z" fill="#3F3D56"/>
<path d="M234 214C236.761 214 239 211.985 239 209.5C239 207.015 236.761 205 234 205C231.239 205 229 207.015 229 209.5C229 211.985 231.239 214 234 214Z" fill="#3F3D56"/>
<path d="M87 207.005C86.9995 207.135 87.0209 207.264 87.0631 207.384C87.1053 207.505 87.1674 207.614 87.2458 207.707C87.3243 207.799 87.4176 207.873 87.5204 207.923C87.6232 207.973 87.7335 207.999 87.845 208H99.1631C99.3869 207.994 99.5997 207.886 99.7561 207.699C99.9125 207.512 100 207.261 100 207C100 206.739 99.9125 206.488 99.7561 206.301C99.5997 206.114 99.3869 206.006 99.1631 206H87.845C87.6191 206.003 87.4034 206.111 87.2451 206.299C87.0867 206.487 86.9986 206.741 87 207.005Z" fill="#3F3D56"/>
<path d="M87 210.005C86.9995 210.135 87.0209 210.264 87.0631 210.384C87.1053 210.505 87.1674 210.614 87.2458 210.707C87.3243 210.799 87.4176 210.873 87.5204 210.923C87.6232 210.973 87.7335 210.999 87.8449 211H99.1622C99.3861 210.994 99.5991 210.886 99.7557 210.699C99.9123 210.513 100 210.261 100 210C100 209.739 99.9123 209.487 99.7557 209.301C99.5991 209.114 99.3861 209.006 99.1622 209H87.8449C87.619 209.003 87.4033 209.111 87.245 209.299C87.0867 209.487 86.9986 209.741 87 210.005Z" fill="#3F3D56"/>
<path d="M87 213.498C86.9986 213.63 87.0867 213.756 87.2451 213.851C87.4034 213.945 87.6191 213.998 87.845 214H99.1631C99.3869 213.997 99.5997 213.943 99.7561 213.849C99.9125 213.756 100 213.631 100 213.5C100 213.369 99.9125 213.244 99.7561 213.151C99.5997 213.057 99.3869 213.003 99.1631 213H87.845C87.7335 213 87.6232 213.013 87.5204 213.039C87.4176 213.064 87.3243 213.1 87.2458 213.147C87.1674 213.193 87.1053 213.248 87.0631 213.308C87.0209 213.368 86.9995 213.433 87 213.498Z" fill="#3F3D56"/>
<path d="M137.907 238H134.093C132.937 238 132 238.895 132 240C132 241.105 132.937 242 134.093 242H137.907C139.063 242 140 241.105 140 240C140 238.895 139.063 238 137.907 238Z" fill="#E6E6E6"/>
<path d="M150.907 238H147.093C145.937 238 145 238.895 145 240C145 241.105 145.937 242 147.093 242H150.907C152.063 242 153 241.105 153 240C153 238.895 152.063 238 150.907 238Z" fill="#E6E6E6"/>
<path d="M140.196 227H85.8042C83.1509 227 81 228.119 81 229.5C81 230.881 83.1509 232 85.8042 232H140.196C142.849 232 145 230.881 145 229.5C145 228.119 142.849 227 140.196 227Z" fill="#E6E6E6"/>
<path d="M188.673 238H162.327C161.042 238 160 238.895 160 240C160 241.105 161.042 242 162.327 242H188.673C189.958 242 191 241.105 191 240C191 238.895 189.958 238 188.673 238Z" fill="#E6E6E6"/>
<path d="M149.907 248H146.093C144.937 248 144 248.895 144 250C144 251.105 144.937 252 146.093 252H149.907C151.063 252 152 251.105 152 250C152 248.895 151.063 248 149.907 248Z" fill="#E6E6E6"/>
<path d="M164.645 248H160.355C159.054 248 158 248.895 158 250C158 251.105 159.054 252 160.355 252H164.645C165.946 252 167 251.105 167 250C167 248.895 165.946 248 164.645 248Z" fill="#E6E6E6"/>
<path d="M120.673 244H94.3271C93.0419 244 92 244.895 92 246C92 247.105 93.0419 248 94.3271 248H120.673C121.958 248 123 247.105 123 246C123 244.895 121.958 244 120.673 244Z" fill="#E6E6E6"/>
<path d="M120.673 250H94.3271C93.0419 250 92 251.119 92 252.5C92 253.881 93.0419 255 94.3271 255H120.673C121.958 255 123 253.881 123 252.5C123 251.119 121.958 250 120.673 250Z" fill="#E6E6E6"/>
<path d="M119.748 257H94.252C93.0083 257 92 257.895 92 259C92 260.105 93.0083 261 94.252 261H119.748C120.992 261 122 260.105 122 259C122 257.895 120.992 257 119.748 257Z" fill="#E6E6E6"/>
<path d="M201.673 247H175.327C174.042 247 173 248.119 173 249.5C173 250.881 174.042 252 175.327 252H201.673C202.958 252 204 250.881 204 249.5C204 248.119 202.958 247 201.673 247Z" fill="#E6E6E6"/>
<path d="M162.907 258H159.093C157.937 258 157 259.119 157 260.5C157 261.881 157.937 263 159.093 263H162.907C164.063 263 165 261.881 165 260.5C165 259.119 164.063 258 162.907 258Z" fill="#E6E6E6"/>
<path d="M176.645 258H172.355C171.054 258 170 259.119 170 260.5C170 261.881 171.054 263 172.355 263H176.645C177.946 263 179 261.881 179 260.5C179 259.119 177.946 258 176.645 258Z" fill="#E6E6E6"/>
<path d="M149.748 258H124.252C123.008 258 122 258.895 122 260C122 261.105 123.008 262 124.252 262H149.748C150.992 262 152 261.105 152 260C152 258.895 150.992 258 149.748 258Z" fill="#E6E6E6"/>
<path d="M213.673 258H187.327C186.042 258 185 258.895 185 260C185 261.105 186.042 262 187.327 262H213.673C214.958 262 216 261.105 216 260C216 258.895 214.958 258 213.673 258Z" fill="#E6E6E6"/>
<path d="M127.907 268H124.093C122.937 268 122 268.895 122 270C122 271.105 122.937 272 124.093 272H127.907C129.063 272 130 271.105 130 270C130 268.895 129.063 268 127.907 268Z" fill="#E6E6E6"/>
<path d="M176.645 268H172.355C171.054 268 170 268.895 170 270C170 271.105 171.054 272 172.355 272H176.645C177.946 272 179 271.105 179 270C179 268.895 177.946 268 176.645 268Z" fill="#E6E6E6"/>
<path d="M189.645 268H185.355C184.054 268 183 268.895 183 270C183 271.105 184.054 272 185.355 272H189.645C190.946 272 192 271.105 192 270C192 268.895 190.946 268 189.645 268Z" fill="#E6E6E6"/>
<path d="M162.748 268H137.252C136.008 268 135 268.895 135 270C135 271.105 136.008 272 137.252 272H162.748C163.992 272 165 271.105 165 270C165 268.895 163.992 268 162.748 268Z" fill="#E6E6E6"/>
<path d="M137.907 307H134.093C132.937 307 132 308.119 132 309.5C132 310.881 132.937 312 134.093 312H137.907C139.063 312 140 310.881 140 309.5C140 308.119 139.063 307 137.907 307Z" fill="#E6E6E6"/>
<path d="M150.907 307H147.093C145.937 307 145 308.119 145 309.5C145 310.881 145.937 312 147.093 312H150.907C152.063 312 153 310.881 153 309.5C153 308.119 152.063 307 150.907 307Z" fill="#E6E6E6"/>
<path d="M188.673 308H162.327C161.042 308 160 308.895 160 310C160 311.105 161.042 312 162.327 312H188.673C189.958 312 191 311.105 191 310C191 308.895 189.958 308 188.673 308Z" fill="#E6E6E6"/>
<path d="M89.645 307H85.355C84.0544 307 83 308.119 83 309.5C83 310.881 84.0544 312 85.355 312H89.645C90.9456 312 92 310.881 92 309.5C92 308.119 90.9456 307 89.645 307Z" fill="#E6E6E6"/>
<path d="M279.673 339H253.327C252.042 339 251 340.119 251 341.5C251 342.881 252.042 344 253.327 344H279.673C280.958 344 282 342.881 282 341.5C282 340.119 280.958 339 279.673 339Z" fill="#E6E6E6"/>
<path d="M275.907 232H272.093C270.937 232 270 232.895 270 234C270 235.105 270.937 236 272.093 236H275.907C277.063 236 278 235.105 278 234C278 232.895 277.063 232 275.907 232Z" fill="#E6E6E6"/>
<path d="M149.907 298H146.093C144.937 298 144 298.895 144 300C144 301.105 144.937 302 146.093 302H149.907C151.063 302 152 301.105 152 300C152 298.895 151.063 298 149.907 298Z" fill="#E6E6E6"/>
<path d="M164.645 298H160.355C159.054 298 158 298.895 158 300C158 301.105 159.054 302 160.355 302H164.645C165.946 302 167 301.105 167 300C167 298.895 165.946 298 164.645 298Z" fill="#E6E6E6"/>
<path d="M276.748 224H251.252C250.008 224 249 224.895 249 226C249 227.105 250.008 228 251.252 228H276.748C277.992 228 279 227.105 279 226C279 224.895 277.992 224 276.748 224Z" fill="#E6E6E6"/>
<path d="M264.907 232H261.093C259.937 232 259 232.895 259 234C259 235.105 259.937 236 261.093 236H264.907C266.063 236 267 235.105 267 234C267 232.895 266.063 232 264.907 232Z" fill="#E6E6E6"/>
<path d="M162.907 288H159.093C157.937 288 157 288.895 157 290C157 291.105 157.937 292 159.093 292H162.907C164.063 292 165 291.105 165 290C165 288.895 164.063 288 162.907 288Z" fill="#E6E6E6"/>
<path d="M176.645 288H172.355C171.054 288 170 288.895 170 290C170 291.105 171.054 292 172.355 292H176.645C177.946 292 179 291.105 179 290C179 288.895 177.946 288 176.645 288Z" fill="#E6E6E6"/>
<path d="M120.673 238H94.3271C93.0419 238 92 238.895 92 240C92 241.105 93.0419 242 94.3271 242H120.673C121.958 242 123 241.105 123 240C123 238.895 121.958 238 120.673 238Z" fill="#E6E6E6"/>
<path d="M255.645 232H251.355C250.054 232 249 232.895 249 234C249 235.105 250.054 236 251.355 236H255.645C256.946 236 258 235.105 258 234C258 232.895 256.946 232 255.645 232Z" fill="#E6E6E6"/>
<path d="M176.645 277H172.355C171.054 277 170 278.119 170 279.5C170 280.881 171.054 282 172.355 282H176.645C177.946 282 179 280.881 179 279.5C179 278.119 177.946 277 176.645 277Z" fill="#E6E6E6"/>
<path d="M189.645 277H185.355C184.054 277 183 278.119 183 279.5C183 280.881 184.054 282 185.355 282H189.645C190.946 282 192 280.881 192 279.5C192 278.119 190.946 277 189.645 277Z" fill="#E6E6E6"/>
<path d="M162.748 278H137.252C136.008 278 135 278.895 135 280C135 281.105 136.008 282 137.252 282H162.748C163.992 282 165 281.105 165 280C165 278.895 163.992 278 162.748 278Z" fill="#E6E6E6"/>
<path d="M75 451.609C75.4841 451.846 75.9761 452.084 76.4601 452.313C88.9984 458.365 99.0289 461.805 112.75 465.574C113.908 453.087 115.027 431.14 116.114 417.535C116.4 414.004 116.686 411.039 116.963 408.948C117.033 407.836 117.269 406.739 117.662 405.692L117.614 408.948L117.495 417.535L116.805 466.646C133.872 471.005 151.404 473.445 169.052 473.916C169.973 473.939 170.878 473.954 171.751 473.969C172.06 473.977 172.362 473.985 172.663 473.985C173.655 473.992 174.639 474 175.631 474C194.229 474.013 212.759 471.845 230.815 467.542C230.426 455.186 230.037 433.484 229.664 417.535C229.585 414.417 229.514 411.514 229.434 408.948C229.283 403.463 229.125 399.51 228.974 398.185C229.108 398.42 229.212 398.669 229.283 398.928C230.018 402.231 230.52 405.579 230.783 408.948C231.061 411.514 231.339 414.417 231.617 417.535C233.093 434.104 234.632 456.634 236.219 466.186C245.666 463.697 254.936 460.618 263.97 456.971C268.731 455.056 273.408 452.99 278 450.774C277.127 445.258 276.214 439.076 275.278 432.664C274.548 427.693 273.794 422.583 273.024 417.535C271.834 409.737 254.146 355.241 253.027 353.172C252.067 351.403 251.154 349.733 250.289 348.193C248.194 344.455 246.416 341.475 245.099 339.59C239.592 331.526 231.393 325.523 221.864 322.577L221.626 322.515L221.459 322.584L205.231 317.773L202.858 317.069L201.263 316.594L195.645 312.465L192.589 310.22L189.725 308.114L184.122 304L149.436 306.061L142.683 321.757L127.557 327.096L127.296 326.981L127.065 326.889L126.827 326.951C117.3 329.899 109.102 335.902 103.592 343.964C102.846 345.044 101.941 346.469 100.918 348.193C100.045 349.656 99.0925 351.326 98.0609 353.172C96.5928 355.8 94.9898 358.764 93.2916 361.974C92.9186 362.679 92.5377 363.399 92.1568 364.127C91.4505 365.475 90.7337 366.851 90.0063 368.256C88.316 371.511 86.5701 374.912 84.8243 378.367C83.3086 381.363 81.7771 387.521 80.2693 395.358C79.0234 401.869 77.7855 409.545 76.5872 417.535C75.0159 427.892 76.6903 440.294 75.2699 449.824C75.1825 450.429 75.0873 451.019 75 451.609Z" fill="#3F3D56"/>
<path opacity="0.2" d="M242 395L235.096 370L229 391.572L242 395Z" fill="black"/>
<path d="M61 378.732C63.4272 410.89 60.9122 425.049 74.3095 451.563C86.4991 457.301 99.1962 461.983 112.25 465.554C113.607 465.922 114.967 466.28 116.33 466.629C133.502 470.998 151.141 473.443 168.897 473.916C169.823 473.939 170.733 473.954 171.612 473.969C171.923 473.977 172.227 473.985 172.53 473.985C173.528 473.992 174.518 474 175.516 474C194.227 474.013 212.871 471.84 231.037 467.527C232.858 467.097 234.67 466.644 236.475 466.168C245.979 463.672 255.306 460.587 264.395 456.931C269.185 455.011 273.891 452.94 278.511 450.719C279.557 450.212 280.603 449.705 281.633 449.183C286.926 440.23 289.936 429.342 290 416.257C286.335 393.713 69.0959 359.29 61 378.732Z" fill="#2F2E41"/>
<path opacity="0.2" d="M61.4224 384.093C61.2989 382.074 61.1609 379.988 61 377.815C69.0605 358.093 285.351 393.012 289 415.882C288.99 417.979 288.898 420.013 288.745 422C279.909 399.428 74.4294 366.239 61.4224 384.093Z" fill="black"/>
<path d="M12.8354 394.708C13.1825 395.683 13.841 396.526 14.7162 397.118C15.5915 397.709 16.6385 398.018 17.707 397.999L38.5793 397.481C39.6556 397.461 40.6962 397.105 41.5455 396.467C42.3949 395.83 43.0074 394.944 43.2915 393.942L46.2452 363.479C47.2931 363.937 48.4339 364.163 49.5841 364.14C51.6014 364.09 53.5155 363.27 54.9056 361.859C56.2958 360.448 57.0482 358.562 56.9976 356.617C56.947 354.671 56.0974 352.824 54.6356 351.482C53.1738 350.141 51.2194 349.414 49.2021 349.461C48.7423 349.46 48.2838 349.506 47.8342 349.598C47.3452 349.088 46.7509 348.682 46.0895 348.407C45.4281 348.132 44.7143 347.993 43.994 348L11.8875 348.8C11.6212 348.809 11.3562 348.841 11.0956 348.895C10.3915 349.021 9.72364 349.292 9.13707 349.688C8.5505 350.085 8.05877 350.598 7.69498 351.193C7.3312 351.788 7.10381 352.451 7.0281 353.138C6.95239 353.825 7.03012 354.52 7.25607 355.175L12.8354 394.708ZM46.8509 361.41L48.9526 354.151C49.1917 353.312 49.1973 352.428 48.9687 351.586C49.0707 351.586 49.1606 351.539 49.2626 351.539C50.7037 351.51 52.0979 352.034 53.1393 352.995C54.1808 353.956 54.7846 355.277 54.8183 356.667C54.8521 358.057 54.313 359.403 53.3193 360.41C52.3257 361.417 50.9585 362.003 49.5176 362.039C48.5859 362.067 47.6639 361.85 46.8509 361.41Z" fill="#2F2E41"/>
<path d="M11 348.907C11.6969 352.728 19.5325 355.414 28.9542 354.947C37.6181 354.565 44.7022 351.648 46 348.19C45.5197 348.054 45.0202 347.99 44.5194 348.001L11.8069 348.811C11.5356 348.821 11.2656 348.853 11 348.907Z" fill="#3F3D56"/>
<path d="M535 337H464V397H535V337Z" fill="#3F3D56"/>
<path d="M483 231C484.657 231 486 230.105 486 229C486 227.895 484.657 227 483 227C481.343 227 480 227.895 480 229C480 230.105 481.343 231 483 231Z" fill="#3F3D56"/>
<path d="M491.5 232C492.881 232 494 231.105 494 230C494 228.895 492.881 228 491.5 228C490.119 228 489 228.895 489 230C489 231.105 490.119 232 491.5 232Z" fill="#3F3D56"/>
<path d="M500.5 236C501.881 236 503 235.105 503 234C503 232.895 501.881 232 500.5 232C499.119 232 498 232.895 498 234C498 235.105 499.119 236 500.5 236Z" fill="#3F3D56"/>
<path d="M511 233C512.105 233 513 232.328 513 231.5C513 230.672 512.105 230 511 230C509.895 230 509 230.672 509 231.5C509 232.328 509.895 233 511 233Z" fill="#3F3D56"/>
<path d="M293.466 269.677C305.014 266.571 317.876 269.899 326.8 277.523C331.615 281.664 335.148 287.019 337.007 292.991C339.285 300.099 339.662 307.598 339.901 314.986C340.165 323.156 340.394 331.327 340.64 339.498C340.874 347.288 340.901 355.115 341.438 362.892C341.888 369.418 342.967 376.193 346.572 381.854C349.915 387.101 355.196 390.645 361.165 392.598C367.214 394.577 373.735 395.038 380.081 394.998C387.466 394.975 394.839 394.409 402.136 393.306C415.996 391.155 429.685 385.67 438.15 374.352C442.047 369.213 444.238 363.046 444.429 356.672C444.608 349.245 442.158 342.051 439.475 335.19C436.863 328.514 434.038 321.936 432.386 314.956C430.85 308.423 430.119 301.738 430.207 295.039C430.348 281.637 433.664 268.445 439.899 256.48C443.055 250.335 447.058 244.633 451.798 239.532C456.687 234.379 462.741 230.125 469.94 228.731C473.453 228.026 477.091 228.167 480.535 229.143C482.004 229.57 482.631 227.347 481.167 226.923C474.035 224.854 466.288 226.427 459.965 230.017C453.748 233.547 448.834 238.843 444.665 244.458C436.653 255.466 431.32 268.089 429.065 281.38C426.81 294.67 427.692 308.283 431.644 321.196C435.875 334.623 445.078 348.599 441.125 363.13C437.664 375.849 425.676 384.493 413.292 388.397C405.779 390.766 397.903 391.768 390.046 392.286C383.406 392.724 376.676 393.003 370.055 392.177C363.974 391.417 357.719 389.617 353.005 385.663C347.836 381.328 345.474 375.1 344.446 368.709C343.283 361.477 343.454 354.02 343.234 346.723L342.485 321.815C342.062 307.748 342.427 292.157 332.978 280.501C329.201 275.959 324.404 272.311 318.952 269.835C313.5 267.36 307.537 266.121 301.516 266.213C298.58 266.279 295.664 266.696 292.834 267.456C292.54 267.545 292.293 267.742 292.145 268.004C291.998 268.266 291.961 268.574 292.043 268.862C292.125 269.15 292.319 269.396 292.585 269.548C292.85 269.7 293.166 269.746 293.466 269.677Z" fill="#3F3D56"/>
<path d="M123.373 254.937C125.071 266.542 131.496 277.025 141.238 284.083C150.979 291.14 163.239 294.195 175.323 292.576C187.408 290.956 198.329 284.795 205.687 275.447C213.045 266.098 216.238 254.326 214.565 242.717L214.473 242.09C212.526 230.638 205.97 220.38 196.219 213.529C186.468 206.678 174.303 203.784 162.35 205.469C150.397 207.155 139.612 213.286 132.323 222.54C125.034 231.794 121.824 243.429 123.387 254.935L123.373 254.937Z" fill="#FFB6B6"/>
<path d="M164.283 291.608C161.917 287.012 159.485 282.076 160.128 276.982C160.77 271.887 165.933 267.003 171.023 268.5C174.067 269.395 176.376 272.283 179.555 272.421C183.93 272.611 186.421 267.776 187.768 263.758L193.256 247.396C203.841 255.414 190.435 247.008 203.547 244.072C208.692 242.921 213.885 240.691 216.89 236.504C219.895 232.317 219.855 225.837 215.702 222.691C213.665 221.149 210.96 220.569 209.014 218.923C207.806 217.901 206.972 216.532 206.634 215.018C206.296 213.503 206.473 211.925 207.138 210.515C207.803 209.105 208.921 207.939 210.326 207.189C211.732 206.439 213.351 206.146 214.943 206.353L200.976 204.715L205.11 197.447C202.121 199.735 197.951 200.055 194.192 199.415C190.434 198.775 186.892 197.295 183.214 196.313C165.557 191.595 145.085 199.963 136.322 215.478C132.883 214.383 129.179 214.321 125.703 215.302C122.227 216.282 119.141 218.257 116.855 220.967C113.134 225.553 112.139 231.66 112.014 237.482C111.782 248.961 114.417 260.325 119.696 270.616C121.342 273.814 123.287 276.952 126.084 279.291C128.881 281.631 160.488 294.59 164.136 293.979" fill="#2F2E41"/>
<path d="M494 261C494.006 263.026 493.747 265.044 493.23 267.002V267.01C493.222 267.049 493.207 267.088 493.199 267.127C491.628 272.926 487.879 277 483.5 277C479.144 277 475.411 272.957 473.817 267.205C473.708 266.807 473.614 266.409 473.529 265.995C473.42 265.535 473.334 265.059 473.264 264.567C473.202 264.177 473.156 263.779 473.117 263.373C473.062 262.811 473.023 262.249 473.016 261.663V261.656C473 261.437 473 261.219 473 261V260.805L473.008 260.797C473.009 259.808 473.074 258.82 473.202 257.839C473.257 257.425 473.319 257.027 473.397 256.629C473.49 256.145 473.591 255.669 473.716 255.201C473.817 254.787 473.933 254.389 474.058 253.991C474.229 253.46 474.416 252.945 474.626 252.454C474.758 252.134 474.898 251.821 475.038 251.517C476.951 247.568 480.031 245 483.5 245C488.299 245 492.343 249.909 493.595 256.606C493.611 256.707 493.634 256.809 493.642 256.91V256.918C493.882 258.265 494.001 259.631 494 261Z" fill="#E6E6E6"/>
<path d="M476 251.367C475.992 251.519 475.887 251.666 475.705 251.781C475.523 251.897 475.274 251.974 475 252C475.258 251.658 475.53 251.325 475.803 251C475.929 251.11 475.998 251.237 476 251.367Z" fill="#35AA86"/>
<path d="M485.324 251H477.676C477.302 251 477 251.224 477 251.5C477 251.776 477.302 252 477.676 252H485.324C485.698 252 486 251.776 486 251.5C486 251.224 485.698 251 485.324 251Z" fill="#35AA86"/>
<path d="M476 255.497C475.999 255.63 475.841 255.758 475.56 255.852C475.279 255.947 474.898 256 474.5 256H473C473.25 255.658 473.538 255.329 473.846 255H474.5C474.895 255 475.274 255.052 475.554 255.145C475.835 255.238 475.995 255.364 476 255.497Z" fill="#35AA86"/>
<path d="M478.477 255H477.523C477.234 255 477 255.224 477 255.5C477 255.776 477.234 256 477.523 256H478.477C478.766 256 479 255.776 479 255.5C479 255.224 478.766 255 478.477 255Z" fill="#35AA86"/>
<path d="M488.399 255H481.601C481.269 255 481 255.224 481 255.5C481 255.776 481.269 256 481.601 256H488.399C488.731 256 489 255.776 489 255.5C489 255.224 488.731 255 488.399 255Z" fill="#35AA86"/>
<path d="M478.477 257H477.523C477.234 257 477 257.448 477 258C477 258.552 477.234 259 477.523 259H478.477C478.766 259 479 258.552 479 258C479 257.448 478.766 257 478.477 257Z" fill="#35AA86"/>
<path d="M481.477 257H480.523C480.234 257 480 257.448 480 258C480 258.552 480.234 259 480.523 259H481.477C481.766 259 482 258.552 482 258C482 257.448 481.766 257 481.477 257Z" fill="#35AA86"/>
<path d="M475 257.497C475 257.63 474.923 257.758 474.786 257.852C474.65 257.947 474.464 258 474.271 258H473C473.065 257.658 473.14 257.329 473.234 257H474.271C474.366 256.999 474.461 257.012 474.549 257.036C474.637 257.061 474.717 257.098 474.785 257.144C474.853 257.19 474.907 257.245 474.944 257.305C474.981 257.366 475 257.431 475 257.497Z" fill="#35AA86"/>
<path d="M491.399 257H484.601C484.269 257 484 257.224 484 257.5C484 257.776 484.269 258 484.601 258H491.399C491.731 258 492 257.776 492 257.5C492 257.224 491.731 257 491.399 257Z" fill="#35AA86"/>
<path d="M476 261.503C476 261.569 475.977 261.634 475.934 261.695C475.891 261.755 475.828 261.81 475.749 261.856C475.67 261.902 475.576 261.939 475.473 261.964C475.37 261.988 475.26 262.001 475.149 262H473.611C473.393 262.001 473.182 261.952 473.022 261.865V261.858C473 261.677 473 261.497 473 261.316V261.155L473.011 261.148C473.089 261.101 473.183 261.064 473.286 261.038C473.389 261.013 473.499 261 473.611 261H475.149C475.375 261 475.591 261.053 475.75 261.148C475.91 261.242 476 261.37 476 261.503Z" fill="#CCCCCC"/>
<path d="M485.324 261H477.676C477.302 261 477 261.224 477 261.5C477 261.776 477.302 262 477.676 262H485.324C485.698 262 486 261.776 486 261.5C486 261.224 485.698 261 485.324 261Z" fill="#CCCCCC"/>
<path d="M476 264.497C476 264.63 475.894 264.758 475.705 264.852C475.517 264.947 475.262 265 474.996 265H473.245C473.142 264.678 473.064 264.349 473 264.013C473.058 264.003 473.119 263.998 473.18 264H474.996C475.26 264 475.514 264.052 475.702 264.145C475.89 264.238 475.997 264.365 476 264.497Z" fill="#CCCCCC"/>
<path d="M478.477 264H477.523C477.234 264 477 264.224 477 264.5C477 264.776 477.234 265 477.523 265H478.477C478.766 265 479 264.776 479 264.5C479 264.224 478.766 264 478.477 264Z" fill="#CCCCCC"/>
<path d="M488.399 264H481.601C481.269 264 481 264.224 481 264.5C481 264.776 481.269 265 481.601 265H488.399C488.731 265 489 264.776 489 264.5C489 264.224 488.731 264 488.399 264Z" fill="#CCCCCC"/>
<path d="M478.477 266H477.523C477.234 266 477 266.224 477 266.5C477 266.776 477.234 267 477.523 267H478.477C478.766 267 479 266.776 479 266.5C479 266.224 478.766 266 478.477 266Z" fill="#CCCCCC"/>
<path d="M481.477 266H480.523C480.234 266 480 266.224 480 266.5C480 266.776 480.234 267 480.523 267H481.477C481.766 267 482 266.776 482 266.5C482 266.224 481.766 266 481.477 266Z" fill="#CCCCCC"/>
<path d="M475 266.497C475 266.63 474.904 266.758 474.734 266.852C474.564 266.947 474.333 267 474.093 267H473.43C473.267 266.671 473.128 266.342 473 266H474.093C474.211 265.999 474.329 266.012 474.439 266.036C474.549 266.061 474.648 266.098 474.733 266.144C474.817 266.19 474.884 266.245 474.93 266.305C474.976 266.366 475 266.431 475 266.497Z" fill="#CCCCCC"/>
<path d="M491.399 266H484.601C484.269 266 484 266.224 484 266.5C484 266.776 484.269 267 484.601 267H491.399C491.731 267 492 266.776 492 266.5C492 266.224 491.731 266 491.399 266Z" fill="#CCCCCC"/>
<path d="M489.529 222C489.529 222 475.751 229.765 479.717 238.606C483.683 247.447 540 240.213 540 240.213C540 240.213 536.034 228.158 528.895 225.746C521.756 223.335 489.529 222 489.529 222Z" fill="#35AA86"/>
<path d="M484 224.801C486.76 222.897 489.828 221.551 493.049 220.83C503.792 218.066 515.04 218.439 525.6 221.908L525.406 221.74C529.905 224.261 533.855 227.756 537 232L484 224.801Z" fill="#CCCCCC"/>
<path d="M545.696 261.578C545.503 264.332 545.31 267.084 545.118 269.833C544.854 275.59 544.197 281.325 543.152 287.001C542.173 291.75 540.617 296.46 537.833 300.503C535.048 304.538 530.916 307.875 526.022 309.102C523.017 309.791 519.893 309.856 516.859 309.294C511.138 306.187 507.263 310.161 512.976 314.204C514.272 315.12 515.619 315.968 517.011 316.743L519.603 355L471.462 345.027L480.857 294.136C479.418 292.886 478.102 291.512 476.926 290.031C471.542 283.196 469.689 274.29 470.042 265.744C470.403 257.19 472.786 248.852 475.153 240.605C475.756 238.368 476.485 236.163 477.335 234C478.386 234.414 479.453 234.79 480.536 235.105C487.461 237.115 494.818 237.276 502.056 237.268C514.933 237.26 527.795 236.78 540.641 235.826C543.593 240.472 545.385 245.706 545.88 251.122C546.087 254.607 546.026 258.102 545.696 261.578Z" fill="#CCCCCC"/>
<path d="M483 231C484.657 231 486 230.105 486 229C486 227.895 484.657 227 483 227C481.343 227 480 227.895 480 229C480 230.105 481.343 231 483 231Z" fill="#3F3D56"/>
<path d="M491.5 232C492.881 232 494 231.105 494 230C494 228.895 492.881 228 491.5 228C490.119 228 489 228.895 489 230C489 231.105 490.119 232 491.5 232Z" fill="#3F3D56"/>
<path d="M500.5 236C501.881 236 503 235.105 503 234C503 232.895 501.881 232 500.5 232C499.119 232 498 232.895 498 234C498 235.105 499.119 236 500.5 236Z" fill="#3F3D56"/>
<path d="M511 233C512.105 233 513 232.328 513 231.5C513 230.672 512.105 230 511 230C509.895 230 509 230.672 509 231.5C509 232.328 509.895 233 511 233Z" fill="#3F3D56"/>
<path d="M494 261C494.006 263.026 493.747 265.044 493.23 267.002V267.01C493.222 267.049 493.207 267.088 493.199 267.127C491.628 272.926 487.879 277 483.5 277C479.144 277 475.411 272.957 473.817 267.205C473.708 266.807 473.614 266.409 473.529 265.995C473.42 265.535 473.334 265.059 473.264 264.567C473.202 264.177 473.156 263.779 473.117 263.373C473.062 262.811 473.023 262.249 473.016 261.663V261.656C473 261.437 473 261.219 473 261V260.805L473.008 260.797C473.009 259.808 473.074 258.82 473.202 257.839C473.257 257.425 473.319 257.027 473.397 256.629C473.49 256.145 473.591 255.669 473.716 255.201C473.817 254.787 473.933 254.389 474.058 253.991C474.229 253.46 474.416 252.945 474.626 252.454C474.758 252.134 474.898 251.821 475.038 251.517C476.951 247.568 480.031 245 483.5 245C488.299 245 492.343 249.909 493.595 256.606C493.611 256.707 493.634 256.809 493.642 256.91V256.918C493.882 258.265 494.001 259.631 494 261Z" fill="#E6E6E6"/>
<path d="M485.324 251H477.676C477.302 251 477 251.224 477 251.5C477 251.776 477.302 252 477.676 252H485.324C485.698 252 486 251.776 486 251.5C486 251.224 485.698 251 485.324 251Z" fill="#35AA86"/>
<path d="M488.399 255H481.601C481.269 255 481 255.224 481 255.5C481 255.776 481.269 256 481.601 256H488.399C488.731 256 489 255.776 489 255.5C489 255.224 488.731 255 488.399 255Z" fill="#35AA86"/>
<path d="M491.399 257H484.601C484.269 257 484 257.224 484 257.5C484 257.776 484.269 258 484.601 258H491.399C491.731 258 492 257.776 492 257.5C492 257.224 491.731 257 491.399 257Z" fill="#35AA86"/>
<path d="M485.324 261H477.676C477.302 261 477 261.224 477 261.5C477 261.776 477.302 262 477.676 262H485.324C485.698 262 486 261.776 486 261.5C486 261.224 485.698 261 485.324 261Z" fill="#CCCCCC"/>
<path d="M488.399 264H481.601C481.269 264 481 264.224 481 264.5C481 264.776 481.269 265 481.601 265H488.399C488.731 265 489 264.776 489 264.5C489 264.224 488.731 264 488.399 264Z" fill="#CCCCCC"/>
<path d="M491.399 266H484.601C484.269 266 484 266.224 484 266.5C484 266.776 484.269 267 484.601 267H491.399C491.731 267 492 266.776 492 266.5C492 266.224 491.731 266 491.399 266Z" fill="#CCCCCC"/>
<ellipse cx="86.5" cy="240" rx="2.5" ry="2" fill="#E6E6E6"/>
<ellipse cx="86.5" cy="246" rx="2.5" ry="2" fill="#E6E6E6"/>
<circle cx="86.5" cy="252.5" r="2.5" fill="#E6E6E6"/>
<ellipse cx="86.5" cy="259" rx="2.5" ry="2" fill="#E6E6E6"/>
<defs>
<linearGradient id="paint0_linear_300_1402" x1="333.915" y1="1.00001" x2="104.787" y2="369.63" gradientUnits="userSpaceOnUse">
<stop stop-color="#3ECCAA"/>
<stop offset="1" stop-color="#03755A" stop-opacity="0.07"/>
</linearGradient>
</defs>
</svg>
