<svg width="50" height="50" viewBox="0 0 50 50" fill="none" xmlns="http://www.w3.org/2000/svg">
<g filter="url(#filter0_i_0_1)">
<path d="M25 50C38.8071 50 50 38.8071 50 25C50 11.1929 38.8071 0 25 0C11.1929 0 0 11.1929 0 25C0 38.8071 11.1929 50 25 50Z" fill="#E1FAF2"/>
</g>
<path d="M25 48.5C37.9787 48.5 48.5 37.9787 48.5 25C48.5 12.0213 37.9787 1.5 25 1.5C12.0213 1.5 1.5 12.0213 1.5 25C1.5 37.9787 12.0213 48.5 25 48.5Z" stroke="#2BD0BF" stroke-width="3"/>
<path d="M16.2283 24.8356L16.2197 24.8392C15.9797 24.9401 15.7426 25.0472 15.5087 25.1603V14.7771C15.5116 13.9293 15.8641 13.1034 16.5118 12.4839C17.1617 11.8621 18.0555 11.5015 19.0006 11.5C19.9473 11.4996 20.8432 11.8595 21.4948 12.4818C22.1438 13.1016 22.4972 13.9284 22.5 14.7771V22.994C20.3474 23.3857 18.2441 24.0029 16.2283 24.8356ZM18.7829 30.6378C19.9852 30.1413 21.2287 29.7435 22.5 29.4483V36.2105C22.5 37.0616 22.1476 37.8916 21.4979 38.514C20.846 39.1384 19.9486 39.5 19 39.5C18.0514 39.5 17.154 39.1384 16.5021 38.514C15.8524 37.8916 15.5 37.0616 15.5 36.2105V34.0603C15.5 33.0591 16.3856 31.6555 18.7829 30.6378Z" fill="url(#paint0_linear_0_1)" stroke="#2BD0BF" stroke-width="3"/>
<path d="M34.7717 26.1644L34.7803 26.1608C35.0203 26.0599 35.2574 25.9528 35.4913 25.8397V36.2229C35.4884 37.0707 35.1359 37.8966 34.4882 38.5161C33.8383 39.1379 32.9445 39.4985 31.9994 39.5C31.0527 39.5004 30.1568 39.1405 29.5052 38.5182C28.8562 37.8984 28.5028 37.0716 28.5 36.2229V28.006C30.6526 27.6143 32.7559 26.9971 34.7717 26.1644ZM32.2171 20.3622C31.0148 20.8587 29.7713 21.2565 28.5 21.5517V14.7895C28.5 13.9384 28.8524 13.1084 29.5021 12.486C30.154 11.8616 31.0514 11.5 32 11.5C32.9486 11.5 33.846 11.8616 34.4979 12.486C35.1476 13.1084 35.5 13.9384 35.5 14.7895V16.9397C35.5 17.9409 34.6144 19.3445 32.2171 20.3622Z" fill="url(#paint1_linear_0_1)" stroke="#2BD0BF" stroke-width="3"/>
<defs>
<filter id="filter0_i_0_1" x="0" y="0" width="50" height="54" filterUnits="userSpaceOnUse" color-interpolation-filters="sRGB">
<feFlood flood-opacity="0" result="BackgroundImageFix"/>
<feBlend mode="normal" in="SourceGraphic" in2="BackgroundImageFix" result="shape"/>
<feColorMatrix in="SourceAlpha" type="matrix" values="0 0 0 0 0 0 0 0 0 0 0 0 0 0 0 0 0 0 127 0" result="hardAlpha"/>
<feOffset dy="4"/>
<feGaussianBlur stdDeviation="2"/>
<feComposite in2="hardAlpha" operator="arithmetic" k2="-1" k3="1"/>
<feColorMatrix type="matrix" values="0 0 0 0 0 0 0 0 0 0 0 0 0 0 0 0 0 0 0.25 0"/>
<feBlend mode="normal" in2="shape" result="effect1_innerShadow_0_1"/>
</filter>
<linearGradient id="paint0_linear_0_1" x1="47.3093" y1="9.58361" x2="14.7086" y2="43.7102" gradientUnits="userSpaceOnUse">
<stop stop-color="#2BD0BF"/>
<stop offset="1" stop-color="#2BD0BF"/>
</linearGradient>
<linearGradient id="paint1_linear_0_1" x1="3.69067" y1="41.4164" x2="36.2914" y2="7.28979" gradientUnits="userSpaceOnUse">
<stop stop-color="#2BD0BF"/>
<stop offset="1" stop-color="#2BD0BF"/>
</linearGradient>
</defs>
</svg>
