<svg width="243" height="380" viewBox="0 0 243 380" fill="none" xmlns="http://www.w3.org/2000/svg">
<path d="M236.523 82.8711H147.908C144.645 82.8711 142 85.3891 142 88.4953V143.8C142 146.906 144.645 149.424 147.908 149.424H236.523C239.785 149.424 242.43 146.906 242.43 143.8V88.4953C242.43 85.3891 239.785 82.8711 236.523 82.8711Z" fill="white"/>
<path d="M197.836 126.678C203.838 126.678 208.704 121.964 208.704 116.148C208.704 110.332 203.838 105.617 197.836 105.617C191.834 105.617 186.969 110.332 186.969 116.148C186.969 121.964 191.834 126.678 197.836 126.678Z" fill="#356859"/>
<path d="M165.987 133.418C170.126 133.418 173.482 130.4 173.482 126.678C173.482 122.956 170.126 119.938 165.987 119.938C161.848 119.938 158.492 122.956 158.492 126.678C158.492 130.4 161.848 133.418 165.987 133.418Z" fill="#35AA86"/>
<path d="M229.69 133.418C233.829 133.418 237.185 130.4 237.185 126.678C237.185 122.956 233.829 119.938 229.69 119.938C225.551 119.938 222.195 122.956 222.195 126.678C222.195 130.4 225.551 133.418 229.69 133.418Z" fill="#35AA86"/>
<path d="M178.727 144.55C178.727 134.679 187.283 126.678 197.838 126.678C208.393 126.678 216.95 134.679 216.95 144.55V149.424H178.727V144.55Z" fill="#356859"/>
<path d="M153.242 146.029C153.242 139.064 158.947 133.418 165.983 133.418C173.02 133.418 178.724 139.064 178.724 146.029V149.424H153.242V146.029Z" fill="#35AA86"/>
<path d="M216.945 146.029C216.945 139.064 222.65 133.418 229.686 133.418C236.723 133.418 242.428 139.064 242.428 146.029V149.424H216.945V146.029Z" fill="#35AA86"/>
<path d="M152.866 89.61C153.901 89.61 154.74 88.8557 154.74 87.9251C154.74 86.9946 153.901 86.2402 152.866 86.2402C151.831 86.2402 150.992 86.9946 150.992 87.9251C150.992 88.8557 151.831 89.61 152.866 89.61Z" fill="black"/>
<path d="M158.866 89.61C159.901 89.61 160.74 88.8557 160.74 87.9251C160.74 86.9946 159.901 86.2402 158.866 86.2402C157.831 86.2402 156.992 86.9946 156.992 87.9251C156.992 88.8557 157.831 89.61 158.866 89.61Z" fill="#7E8F9A"/>
<path d="M153.861 21.2146C165.891 23.4359 169.462 41.1821 159.462 49.1195C157.665 50.545 156.422 52.6886 155.893 55.0903L154.074 63.3426C153.571 65.617 151.601 67.0779 149.543 66.6994L144.986 65.854C142.929 65.4755 141.475 63.3815 141.651 61.047C142.283 52.5223 143.064 49.4308 140.6 45.6319C133.39 34.5144 141.83 18.9862 153.861 21.2146Z" fill="url(#paint0_radial_640_1257)"/>
<path d="M147.017 33.1386C147.391 34.1079 147.25 35.3459 147.162 36.7714C146.177 36.1418 145.035 35.3529 144.663 34.1999C144.402 33.3898 144.695 32.2473 145.427 32.0351C145.51 32.0139 146.752 32.4595 147.017 33.1386ZM158.167 38.3737C157.552 39.113 156.527 39.442 155.029 39.3642C155.287 38.1226 155.671 37.0084 156.429 36.216C158.141 34.4262 159.192 37.1286 158.167 38.3737ZM152.634 57.2906C153.418 49.9899 154.516 42.2788 154.891 40.0928C161.785 40.5207 159.164 32.3534 155.982 35.6749C155.076 36.6193 154.648 37.9033 154.365 39.3111C152.077 39.0776 149.837 38.3454 147.797 37.1604C147.907 35.36 148.065 33.9946 147.618 32.8415C146.941 31.1012 144.981 30.6272 144.182 32.3251C143.883 32.9618 143.829 33.7753 144.046 34.4509C144.509 35.8906 145.9 36.8421 147.115 37.5849C146.749 43.3894 146.249 49.2399 145.616 54.9986L146.265 55.0905C146.888 49.4239 147.385 43.6689 147.747 37.9563C149.774 39.0883 151.977 39.7992 154.233 40.0362C153.76 42.8341 152.719 50.3471 151.983 57.2022L152.634 57.2906Z" fill="#DEA33A"/>
<path d="M155.944 54.8859C155.928 54.9532 155.906 55.0203 155.89 55.0911L154.071 63.3434C153.567 65.6178 151.598 67.0787 149.54 66.7002L144.983 65.8548C142.925 65.4763 141.471 63.3823 141.647 61.0478C141.928 57.2558 142.239 54.5393 142.28 52.3604L155.944 54.8859Z" fill="#96D9C9"/>
<path d="M162.776 15.0496L166.373 7.66739C166.719 6.95641 166.487 6.05796 165.851 5.66887C165.215 5.27624 164.419 5.538 164.07 6.25251L160.473 13.6312C160.126 14.3457 160.36 15.2441 160.995 15.6332C161.634 16.0258 162.43 15.7605 162.776 15.0496Z" fill="#FAE0B2"/>
<path d="M170.639 32.9017L178.481 32.1306C179.201 32.0599 179.736 31.3453 179.67 30.5318C179.607 29.7218 178.972 29.1205 178.251 29.1912L170.409 29.9623C169.688 30.0331 169.153 30.7475 169.216 31.5611C169.279 32.3712 169.915 32.9725 170.639 32.9017Z" fill="#FAE0B2"/>
<path d="M178.413 59.9186C178.923 59.3385 178.92 58.4082 178.403 57.8352C176.474 55.6952 174.356 53.7497 172.104 52.0589C171.502 51.6062 170.687 51.7865 170.284 52.4657C169.882 53.1413 170.042 54.0574 170.647 54.5102C172.761 56.0984 174.75 57.9236 176.559 59.9327C177.072 60.5022 177.903 60.5022 178.413 59.9186Z" fill="#FAE0B2"/>
<path d="M143.406 14.6499C144.104 14.4412 144.52 13.6311 144.335 12.8459C143.447 9.11066 142.902 5.25509 142.717 1.39601C142.676 0.582459 142.059 -0.0436058 141.335 0.00237972C140.612 0.0448237 140.057 0.738108 140.096 1.55166C140.291 5.61944 140.864 9.67301 141.798 13.6064C141.987 14.3987 142.71 14.8585 143.406 14.6499Z" fill="#FAE0B2"/>
<path d="M135.329 25.9797C135.537 25.198 135.147 24.3774 134.451 24.1404L126.301 21.3814C125.606 21.1443 124.876 21.5865 124.665 22.3682C124.458 23.1464 124.85 23.9706 125.543 24.204L133.693 26.9666C134.385 27.2001 135.119 26.7615 135.329 25.9797Z" fill="#FAE0B2"/>
<path d="M121.944 50.3576C122.061 50.3576 122.18 50.3399 122.3 50.3045C125.125 49.4096 127.869 48.1716 130.462 46.6258C131.101 46.2438 131.343 45.3489 131.004 44.6308C130.664 43.9128 129.871 43.6405 129.232 44.0225C126.806 45.4692 124.235 46.6293 121.588 47.4642C120.893 47.6835 120.487 48.497 120.682 49.2822C120.846 49.933 121.371 50.3576 121.944 50.3576Z" fill="#FAE0B2"/>
<path d="M153.861 21.2146C165.891 23.4359 169.462 41.1821 159.462 49.1195C157.665 50.545 156.422 52.6886 155.893 55.0903L154.074 63.3426C153.571 65.617 151.601 67.0779 149.543 66.6994L144.986 65.854C142.929 65.4755 141.475 63.3815 141.651 61.047C142.283 52.5223 143.064 49.4308 140.6 45.6319C133.39 34.5144 141.83 18.9862 153.861 21.2146Z" fill="url(#paint1_radial_640_1257)"/>
<path d="M147.017 33.1386C147.391 34.1079 147.25 35.3459 147.162 36.7714C146.177 36.1418 145.035 35.3529 144.663 34.1999C144.402 33.3898 144.695 32.2473 145.427 32.0351C145.51 32.0139 146.752 32.4595 147.017 33.1386ZM158.167 38.3737C157.552 39.113 156.527 39.442 155.029 39.3642C155.287 38.1226 155.671 37.0084 156.429 36.216C158.141 34.4262 159.192 37.1286 158.167 38.3737ZM152.634 57.2906C153.418 49.9899 154.516 42.2788 154.891 40.0928C161.785 40.5207 159.164 32.3534 155.982 35.6749C155.076 36.6193 154.648 37.9033 154.365 39.3111C152.077 39.0776 149.837 38.3454 147.797 37.1604C147.907 35.36 148.065 33.9946 147.618 32.8415C146.941 31.1012 144.981 30.6272 144.182 32.3251C143.883 32.9618 143.829 33.7753 144.046 34.4509C144.509 35.8906 145.9 36.8421 147.115 37.5849C146.749 43.3894 146.249 49.2399 145.616 54.9986L146.265 55.0905C146.888 49.4239 147.385 43.6689 147.747 37.9563C149.774 39.0883 151.977 39.7992 154.233 40.0362C153.76 42.8341 152.719 50.3471 151.983 57.2022L152.634 57.2906Z" fill="#DEA33A"/>
<path d="M155.944 54.8859C155.928 54.9532 155.906 55.0203 155.89 55.0911L154.071 63.3434C153.567 65.6178 151.598 67.0787 149.54 66.7002L144.983 65.8548C142.925 65.4763 141.471 63.3823 141.647 61.0478C141.928 57.2558 142.239 54.5393 142.28 52.3604L155.944 54.8859Z" fill="#96D9C9"/>
<path d="M162.776 15.0496L166.373 7.66739C166.719 6.95641 166.487 6.05796 165.851 5.66887C165.215 5.27624 164.419 5.538 164.07 6.25251L160.473 13.6312C160.126 14.3457 160.36 15.2441 160.995 15.6332C161.634 16.0258 162.43 15.7605 162.776 15.0496Z" fill="#FAE0B2"/>
<path d="M170.639 32.9017L178.481 32.1306C179.201 32.0599 179.736 31.3453 179.67 30.5318C179.607 29.7218 178.972 29.1205 178.251 29.1912L170.409 29.9623C169.688 30.0331 169.153 30.7475 169.216 31.5611C169.279 32.3712 169.915 32.9725 170.639 32.9017Z" fill="#FAE0B2"/>
<path d="M178.413 59.9186C178.923 59.3385 178.92 58.4082 178.403 57.8352C176.474 55.6952 174.356 53.7497 172.104 52.0589C171.502 51.6062 170.687 51.7865 170.284 52.4657C169.882 53.1413 170.042 54.0574 170.647 54.5102C172.761 56.0984 174.75 57.9236 176.559 59.9327C177.072 60.5022 177.903 60.5022 178.413 59.9186Z" fill="#FAE0B2"/>
<path d="M143.406 14.6499C144.104 14.4412 144.52 13.6311 144.335 12.8459C143.447 9.11066 142.902 5.25509 142.717 1.39601C142.676 0.582459 142.059 -0.0436058 141.335 0.00237972C140.612 0.0448237 140.057 0.738108 140.096 1.55166C140.291 5.61944 140.864 9.67301 141.798 13.6064C141.987 14.3987 142.71 14.8585 143.406 14.6499Z" fill="#FAE0B2"/>
<path d="M135.329 25.9797C135.537 25.198 135.147 24.3774 134.451 24.1404L126.301 21.3814C125.606 21.1443 124.876 21.5865 124.665 22.3682C124.458 23.1464 124.85 23.9706 125.543 24.204L133.693 26.9666C134.385 27.2001 135.119 26.7615 135.329 25.9797Z" fill="#FAE0B2"/>
<path d="M121.944 50.3576C122.061 50.3576 122.18 50.3399 122.3 50.3045C125.125 49.4096 127.869 48.1716 130.462 46.6258C131.101 46.2438 131.343 45.3489 131.004 44.6308C130.664 43.9128 129.871 43.6405 129.232 44.0225C126.806 45.4692 124.235 46.6293 121.588 47.4642C120.893 47.6835 120.487 48.497 120.682 49.2822C120.846 49.933 121.371 50.3576 121.944 50.3576Z" fill="#FAE0B2"/>
<path d="M159.18 364.568C160.738 364.671 161.6 362.619 160.421 361.423L160.303 360.929C160.319 360.889 160.334 360.85 160.35 360.81C161.926 356.827 167.269 356.855 168.832 360.844C170.219 364.384 171.985 367.93 172.42 371.673C172.615 373.326 172.527 375.009 172.181 376.631C175.431 369.107 177.142 360.891 177.142 352.629C177.142 350.553 177.035 348.478 176.815 346.407C176.635 344.713 176.387 343.03 176.065 341.362C174.325 332.346 170.558 323.758 165.125 316.586C162.513 315.073 160.334 312.708 159.019 309.873C158.546 308.851 158.175 307.751 158 306.63C158.297 306.671 159.121 301.874 158.897 301.58C159.311 300.914 160.052 300.583 160.505 299.933C162.755 296.7 165.855 297.265 167.474 301.657C170.931 303.506 170.964 306.573 168.843 309.522C167.493 311.398 167.308 313.937 166.124 315.946C166.246 316.111 166.372 316.271 166.494 316.436C168.728 319.473 170.66 322.736 172.289 326.165C171.829 322.354 172.509 317.764 173.667 314.804C174.986 311.433 177.459 308.593 179.636 305.678C182.251 302.177 187.613 303.705 188.074 308.143C188.079 308.186 188.083 308.229 188.087 308.272C187.764 308.466 187.447 308.671 187.138 308.888C185.372 310.125 185.982 313.024 188.074 313.366L188.121 313.374C188.004 314.608 187.805 315.832 187.512 317.035C190.305 328.481 184.275 332.649 175.665 332.836C175.475 332.94 175.29 333.043 175.1 333.141C175.972 335.744 176.669 338.413 177.186 341.119C177.649 343.51 177.97 345.927 178.151 348.354C178.375 351.416 178.355 354.493 178.112 357.55L178.126 357.442C178.745 354.075 180.47 350.93 182.975 348.751C186.707 345.503 191.979 344.307 196.004 341.696C197.942 340.44 200.425 342.064 200.087 344.444L200.07 344.558C199.471 344.816 198.886 345.116 198.321 345.452C197.998 345.645 197.681 345.85 197.371 346.067C195.606 347.304 196.216 350.204 198.308 350.546L198.355 350.553C198.389 350.559 198.418 350.564 198.453 350.569C197.424 353.156 195.992 355.557 194.198 357.628C192.452 367.619 184.951 368.567 176.928 365.658H176.923C176.046 369.706 174.764 373.661 173.117 377.431H159.52C159.472 377.271 159.428 377.106 159.384 376.946C160.641 377.028 161.908 376.951 163.146 376.708C162.137 375.396 161.129 374.074 160.12 372.763C160.096 372.737 160.076 372.711 160.057 372.685C159.545 372.014 159.028 371.348 158.517 370.677C158.485 368.616 158.718 366.561 159.18 364.568Z" fill="#35AA86"/>
<path d="M37 378.822C37 379.35 37.3999 379.774 37.8979 379.774H202.598C203.096 379.774 203.495 379.35 203.495 378.822C203.495 378.295 203.096 377.871 202.598 377.871H37.8979C37.3999 377.871 37 378.295 37 378.822Z" fill="black"/>
<path fill-rule="evenodd" clip-rule="evenodd" d="M85.5268 94.1455C80.7332 90.7588 76.932 85.9293 75.9657 79.4388C73.1814 60.7381 98.4939 56.7608 105.273 64.439C112.051 72.1173 116.628 95.7275 110.848 99.3899C108.544 100.85 102.972 100.947 96.9295 99.3496L105.658 122.844L85.9774 129.291L85.5268 94.1455Z" fill="#E5B7AC"/>
<path fill-rule="evenodd" clip-rule="evenodd" d="M94.6427 56.274C91.8174 56.258 87.9304 57.1879 86.367 57.8979C86.7553 55.2673 86.532 52.5459 85.6654 50.1035C84.8233 47.7303 83.3191 45.961 81.8698 44.0664C81.2018 43.1931 80.4764 42.3441 79.5586 41.806C78.6236 41.2579 77.5477 41.0426 76.4866 41.1148C75.4007 41.1887 74.3299 41.5534 73.3517 42.1135C72.9189 42.3613 72.56 42.7143 72.1409 42.9807C71.7117 43.2535 71.4209 43.0187 71.0195 42.8175C70.0523 42.3328 68.7964 42.3421 67.754 42.5348C66.5846 42.751 65.4466 43.3106 64.4525 44.0555C63.4849 44.7806 62.6133 45.7345 62.0572 46.8964C61.8095 47.4136 61.606 47.9773 61.5212 48.555C61.4865 48.792 61.501 48.9212 61.3213 49.0614C61.1551 49.1911 60.9423 49.2612 60.7695 49.3893C59.0986 50.6278 57.8809 52.6245 57.4674 54.8209C57.2262 56.1023 57.4372 58.1553 58.0002 60.3522C58.5631 62.549 61.7406 67.7356 63.9699 69.2855C65.9597 70.669 68.5412 71.1769 70.8851 71.0115C69.8153 73.2813 69.3395 75.8427 69.128 78.3607C68.8984 81.0958 68.9909 83.832 69.4023 86.5187C69.7931 89.0712 70.3715 91.7179 71.4702 93.9873C72.4978 96.1095 74.0174 97.6343 76.1174 98.2389C77.0794 98.5158 78.0746 98.6368 79.067 98.721C80.0452 98.8038 81.0237 98.8756 82.0079 98.7831C83.8706 98.6078 85.9002 97.8875 86.928 95.9433C87.2984 95.2425 87.6866 94.3865 87.8967 93.6077C87.9722 93.3277 88.015 93.1466 87.8054 92.9634C87.5544 92.7439 87.202 92.6269 86.9112 92.4854C85.2527 91.6788 84.0252 90.2868 83.3652 88.3775C82.6955 86.4402 82.6178 83.6885 84.2489 82.2288C86.2623 80.4268 89.0267 80.8741 91.2927 81.3904C91.4227 77.907 92.5225 74.4567 94.9352 72.1074C97.6045 69.5082 101.045 68.2049 103.85 65.8104C104.582 65.1864 105.316 64.5084 105.748 63.5748C105.928 63.1847 106.131 62.6885 106.139 62.2463C106.149 61.6654 105.721 61.3175 105.375 60.9776C103.54 59.1756 97.4681 56.29 94.6427 56.274Z" fill="#191847"/>
<path d="M76.9652 364.423L82.5288 364.562L85.63 338.077L77.4196 337.871L76.9652 364.423Z" fill="#A0616A"/>
<path d="M96.053 376.723C96.053 377.718 95.3861 378.526 94.5633 378.526H83.5201C83.5201 378.526 82.4334 373.897 78.0026 371.905L77.6968 378.526H72L72.6902 367.88C72.6902 367.88 71.1663 362.184 74.3312 359.272C77.4961 356.361 74.9326 356.766 74.9326 356.766L76.1776 350.177L84.7861 351.25L84.8494 361.593L89.027 371.86L95.1545 375.067C95.6999 375.353 96.053 376.003 96.053 376.723Z" fill="#2F2E41"/>
<path d="M81.8508 340.047L86.2699 343.631L103.496 324.161L96.9751 318.871L81.8508 340.047Z" fill="#A0616A"/>
<path d="M90.4417 361.898C89.8882 362.703 88.9004 362.94 88.2355 362.426L79.3105 355.535C79.3105 355.535 81.0048 351.116 78.531 346.741L74.6041 351.901L70 348.346L76.4748 340.172C76.4748 340.172 78.4087 334.618 82.5847 334.24C86.7607 333.862 84.4637 332.59 84.4637 332.59L89.132 328.042L95.4931 334.281L89.7956 342.68L87.4658 353.584L90.6355 360C90.9176 360.571 90.8414 361.317 90.4417 361.898Z" fill="#2F2E41"/>
<path d="M65.8029 229.244C66.1384 230.702 65.5205 237.484 65.866 239.818C66.7444 245.752 74.7701 278.103 73.3856 287.325C68.3128 321.116 75.3288 342.794 75.3288 342.794H86.6463L92.6823 240.459L98.5733 248.688L110.1 285.17L89.7094 324.018L100.357 333.336L132.147 279.777L108.192 184.774L77.67 183.871L79.3682 186.568L75.5049 190.612C75.5049 190.612 75.4997 190.623 75.4792 190.645C74.8841 191.526 61.6574 211.244 65.8029 229.244Z" fill="#2F2E41"/>
<path fill-rule="evenodd" clip-rule="evenodd" d="M140.182 178.129L162.958 198.589C169.347 200.933 174.634 203.653 178.82 206.747C179.786 207.82 180.9 209.931 176.644 209.265C172.387 208.599 167.881 208.101 167.188 209.605C166.495 211.108 168.963 213.149 167.632 215.148C166.744 216.481 163.214 212.713 157.043 203.846L133.957 191.637L140.182 178.129ZM37.0483 169.275L50.4118 171.331C36.0672 204.31 28.3769 221.751 27.3409 223.654C25.0099 227.937 27.7513 235.396 28.823 239.345C23.4069 241.002 25.1367 232.135 18.2884 234.347C12.0375 236.365 6.87927 240.942 0.688407 235.5C-0.072723 234.831 -0.713882 232.643 1.70534 231.369C7.73251 228.193 16.5818 222.382 17.9574 220.241C19.8332 217.32 26.1969 200.332 37.0483 169.275Z" fill="#E5B7AC"/>
<path fill-rule="evenodd" clip-rule="evenodd" d="M92.9023 111.549L101.183 108.647C112.416 138.38 129.168 167.149 157.157 191.448L150.236 204.101C125.637 188.747 102.351 176.82 92.9023 153.78C89.7309 146.047 92.6435 120.795 92.9023 111.549Z" fill="#C5CFD6"/>
<path fill-rule="evenodd" clip-rule="evenodd" d="M64.4614 195.23C88.1816 197.895 106.852 197.895 120.473 195.23C122.16 194.899 122.426 191.906 121.644 189.874C109.457 158.233 101.1 130.624 101.1 108.647C98.864 109.842 94.9506 110.021 89.3599 109.184C74.3349 131.832 67.4285 157.818 64.4614 195.23Z" fill="#323337"/>
<path fill-rule="evenodd" clip-rule="evenodd" d="M85.6247 107.286H91.8863C93.3442 116.372 97.9427 239.411 112.139 279.66H35.3266C36.9919 242.789 50.1281 198.497 63.4351 161.434C51.6684 172.843 41.4128 192.176 32.6682 219.432L18.2805 215.519C28.9782 166.673 50.9728 130.771 84.2642 107.813C84.3363 107.636 84.4081 107.461 84.4795 107.286H85.0336C85.2376 107.147 85.4419 107.009 85.6467 106.871L85.6247 107.286Z" fill="#DDE3E9"/>
<defs>
<radialGradient id="paint0_radial_640_1257" cx="0" cy="0" r="1" gradientUnits="userSpaceOnUse" gradientTransform="translate(121.215 189.887) rotate(-83.9966) scale(164.149 104.908)">
<stop stop-color="#FFF8E5"/>
<stop offset="1" stop-color="#FFCF54"/>
</radialGradient>
<radialGradient id="paint1_radial_640_1257" cx="0" cy="0" r="1" gradientUnits="userSpaceOnUse" gradientTransform="translate(121.215 189.887) rotate(-83.9966) scale(164.149 104.908)">
<stop stop-color="#FFF8E5"/>
<stop offset="1" stop-color="#FFCF54"/>
</radialGradient>
</defs>
</svg>
